%TF.GenerationSoftware,KiCad,Pcbnew,(5.99.0-10406-ge27733587d)*%
%TF.CreationDate,2021-06-08T13:11:29+05:30*%
%TF.ProjectId,OxiKit-Brainboard_v1,4f78694b-6974-42d4-9272-61696e626f61,rev?*%
%TF.SameCoordinates,Original*%
%TF.FileFunction,Soldermask,Top*%
%TF.FilePolarity,Negative*%
%FSLAX46Y46*%
G04 Gerber Fmt 4.6, Leading zero omitted, Abs format (unit mm)*
G04 Created by KiCad (PCBNEW (5.99.0-10406-ge27733587d)) date 2021-06-08 13:11:29*
%MOMM*%
%LPD*%
G01*
G04 APERTURE LIST*
G04 Aperture macros list*
%AMRoundRect*
0 Rectangle with rounded corners*
0 $1 Rounding radius*
0 $2 $3 $4 $5 $6 $7 $8 $9 X,Y pos of 4 corners*
0 Add a 4 corners polygon primitive as box body*
4,1,4,$2,$3,$4,$5,$6,$7,$8,$9,$2,$3,0*
0 Add four circle primitives for the rounded corners*
1,1,$1+$1,$2,$3*
1,1,$1+$1,$4,$5*
1,1,$1+$1,$6,$7*
1,1,$1+$1,$8,$9*
0 Add four rect primitives between the rounded corners*
20,1,$1+$1,$2,$3,$4,$5,0*
20,1,$1+$1,$4,$5,$6,$7,0*
20,1,$1+$1,$6,$7,$8,$9,0*
20,1,$1+$1,$8,$9,$2,$3,0*%
%AMFreePoly0*
4,1,22,0.550000,-0.750000,0.000000,-0.750000,0.000000,-0.745033,-0.079941,-0.743568,-0.215256,-0.701293,-0.333266,-0.622738,-0.424486,-0.514219,-0.481581,-0.384460,-0.499164,-0.250000,-0.500000,-0.250000,-0.500000,0.250000,-0.499164,0.250000,-0.499963,0.256109,-0.478152,0.396186,-0.417904,0.524511,-0.324060,0.630769,-0.204165,0.706417,-0.067858,0.745374,0.000000,0.744959,0.000000,0.750000,
0.550000,0.750000,0.550000,-0.750000,0.550000,-0.750000,$1*%
%AMFreePoly1*
4,1,20,0.000000,0.744959,0.073905,0.744508,0.209726,0.703889,0.328688,0.626782,0.421226,0.519385,0.479903,0.390333,0.500000,0.250000,0.500000,-0.250000,0.499851,-0.262216,0.476331,-0.402017,0.414519,-0.529596,0.319384,-0.634700,0.198574,-0.708877,0.061801,-0.746166,0.000000,-0.745033,0.000000,-0.750000,-0.550000,-0.750000,-0.550000,0.750000,0.000000,0.750000,0.000000,0.744959,
0.000000,0.744959,$1*%
%AMFreePoly2*
4,1,22,0.500000,-0.750000,0.000000,-0.750000,0.000000,-0.745033,-0.079941,-0.743568,-0.215256,-0.701293,-0.333266,-0.622738,-0.424486,-0.514219,-0.481581,-0.384460,-0.499164,-0.250000,-0.500000,-0.250000,-0.500000,0.250000,-0.499164,0.250000,-0.499963,0.256109,-0.478152,0.396186,-0.417904,0.524511,-0.324060,0.630769,-0.204165,0.706417,-0.067858,0.745374,0.000000,0.744959,0.000000,0.750000,
0.500000,0.750000,0.500000,-0.750000,0.500000,-0.750000,$1*%
%AMFreePoly3*
4,1,20,0.000000,0.744959,0.073905,0.744508,0.209726,0.703889,0.328688,0.626782,0.421226,0.519385,0.479903,0.390333,0.500000,0.250000,0.500000,-0.250000,0.499851,-0.262216,0.476331,-0.402017,0.414519,-0.529596,0.319384,-0.634700,0.198574,-0.708877,0.061801,-0.746166,0.000000,-0.745033,0.000000,-0.750000,-0.500000,-0.750000,-0.500000,0.750000,0.000000,0.750000,0.000000,0.744959,
0.000000,0.744959,$1*%
G04 Aperture macros list end*
%ADD10RoundRect,0.250000X-0.450000X0.350000X-0.450000X-0.350000X0.450000X-0.350000X0.450000X0.350000X0*%
%ADD11RoundRect,0.250000X-0.350000X-0.450000X0.350000X-0.450000X0.350000X0.450000X-0.350000X0.450000X0*%
%ADD12R,1.600000X1.600000*%
%ADD13C,1.600000*%
%ADD14R,2.200000X2.200000*%
%ADD15O,2.200000X2.200000*%
%ADD16R,3.000000X3.000000*%
%ADD17C,3.000000*%
%ADD18FreePoly0,180.000000*%
%ADD19R,1.000000X1.500000*%
%ADD20FreePoly1,180.000000*%
%ADD21C,0.800000*%
%ADD22C,6.400000*%
%ADD23RoundRect,0.250000X0.450000X-0.350000X0.450000X0.350000X-0.450000X0.350000X-0.450000X-0.350000X0*%
%ADD24RoundRect,0.250000X0.337500X0.475000X-0.337500X0.475000X-0.337500X-0.475000X0.337500X-0.475000X0*%
%ADD25FreePoly2,90.000000*%
%ADD26FreePoly3,90.000000*%
%ADD27R,2.000000X2.000000*%
%ADD28C,2.000000*%
%ADD29C,1.800000*%
%ADD30RoundRect,0.150000X-0.825000X-0.150000X0.825000X-0.150000X0.825000X0.150000X-0.825000X0.150000X0*%
%ADD31RoundRect,0.250001X0.462499X0.624999X-0.462499X0.624999X-0.462499X-0.624999X0.462499X-0.624999X0*%
%ADD32RoundRect,0.250000X0.350000X0.450000X-0.350000X0.450000X-0.350000X-0.450000X0.350000X-0.450000X0*%
%ADD33RoundRect,0.250000X-0.337500X-0.475000X0.337500X-0.475000X0.337500X0.475000X-0.337500X0.475000X0*%
%ADD34RoundRect,0.250000X0.600000X0.725000X-0.600000X0.725000X-0.600000X-0.725000X0.600000X-0.725000X0*%
%ADD35O,1.700000X1.950000*%
%ADD36R,2.000000X1.905000*%
%ADD37O,2.000000X1.905000*%
%ADD38C,1.900000*%
%ADD39RoundRect,0.250000X-0.750000X0.600000X-0.750000X-0.600000X0.750000X-0.600000X0.750000X0.600000X0*%
%ADD40O,2.000000X1.700000*%
%ADD41RoundRect,0.250000X0.750000X-0.600000X0.750000X0.600000X-0.750000X0.600000X-0.750000X-0.600000X0*%
%ADD42RoundRect,0.250000X0.600000X0.750000X-0.600000X0.750000X-0.600000X-0.750000X0.600000X-0.750000X0*%
%ADD43O,1.700000X2.000000*%
%ADD44RoundRect,0.250000X-0.725000X0.600000X-0.725000X-0.600000X0.725000X-0.600000X0.725000X0.600000X0*%
%ADD45O,1.950000X1.700000*%
%ADD46R,1.600000X2.400000*%
%ADD47O,1.600000X2.400000*%
%ADD48RoundRect,0.250000X-0.475000X0.337500X-0.475000X-0.337500X0.475000X-0.337500X0.475000X0.337500X0*%
%ADD49R,1.800000X4.400000*%
%ADD50O,1.800000X4.000000*%
%ADD51O,4.000000X1.800000*%
%ADD52RoundRect,0.250001X-0.462499X-0.624999X0.462499X-0.624999X0.462499X0.624999X-0.462499X0.624999X0*%
%ADD53RoundRect,0.250001X0.624999X-0.462499X0.624999X0.462499X-0.624999X0.462499X-0.624999X-0.462499X0*%
%ADD54C,1.000000*%
%ADD55R,1.130000X1.130000*%
%ADD56C,1.130000*%
%ADD57O,1.600000X2.000000*%
G04 APERTURE END LIST*
D10*
%TO.C,R2*%
X117700000Y-77000000D03*
X117700000Y-79000000D03*
%TD*%
D11*
%TO.C,R1*%
X115750000Y-81100000D03*
X117750000Y-81100000D03*
%TD*%
D12*
%TO.C,C1*%
X136500000Y-110847349D03*
D13*
X136500000Y-114347349D03*
%TD*%
D14*
%TO.C,D12*%
X92110000Y-127000000D03*
D15*
X81950000Y-127000000D03*
%TD*%
D16*
%TO.C,J11*%
X67460000Y-136000000D03*
D17*
X72540000Y-136000000D03*
%TD*%
%TO.C,K4*%
X69000000Y-103500000D03*
X75000000Y-117700000D03*
X63000000Y-117700000D03*
X63000000Y-105500000D03*
X75000000Y-105500000D03*
%TD*%
D18*
%TO.C,JP4*%
X108300000Y-92750000D03*
D19*
X107000000Y-92750000D03*
D20*
X105700000Y-92750000D03*
%TD*%
D21*
%TO.C,H3*%
X147400000Y-135000000D03*
X143302944Y-133302944D03*
X146697056Y-136697056D03*
X146697056Y-133302944D03*
D22*
X145000000Y-135000000D03*
D21*
X145000000Y-132600000D03*
X143302944Y-136697056D03*
X142600000Y-135000000D03*
X145000000Y-137400000D03*
%TD*%
D23*
%TO.C,R10*%
X82250000Y-61500000D03*
X82250000Y-59500000D03*
%TD*%
D24*
%TO.C,C3*%
X146092500Y-100960000D03*
X144017500Y-100960000D03*
%TD*%
D14*
%TO.C,D4*%
X117920000Y-123550000D03*
D15*
X128080000Y-123550000D03*
%TD*%
D11*
%TO.C,R11*%
X61750000Y-90000000D03*
X63750000Y-90000000D03*
%TD*%
D25*
%TO.C,JP7*%
X103000000Y-92900000D03*
D26*
X103000000Y-91600000D03*
%TD*%
D16*
%TO.C,J9*%
X54000000Y-113460000D03*
D17*
X54000000Y-118540000D03*
%TD*%
%TO.C,K3*%
X87000000Y-103500000D03*
X93000000Y-117700000D03*
X81000000Y-117700000D03*
X81000000Y-105500000D03*
X93000000Y-105500000D03*
%TD*%
D27*
%TO.C,BZ1*%
X67700000Y-89750000D03*
D28*
X75300000Y-89750000D03*
%TD*%
D29*
%TO.C,U5*%
X103000000Y-51665000D03*
X100460000Y-51665000D03*
X97920000Y-51665000D03*
X95380000Y-51665000D03*
X92840000Y-51665000D03*
X90300000Y-51665000D03*
X87760000Y-51665000D03*
X85220000Y-51665000D03*
X82680000Y-51665000D03*
X80140000Y-51665000D03*
X77600000Y-51665000D03*
X75060000Y-51665000D03*
X72520000Y-51665000D03*
X69980000Y-51665000D03*
X67440000Y-51665000D03*
X64900000Y-51665000D03*
X62360000Y-51665000D03*
X59820000Y-51665000D03*
X57280000Y-51665000D03*
X54740000Y-51665000D03*
X52200000Y-51665000D03*
X103000000Y-78335000D03*
X100460000Y-78335000D03*
X97920000Y-78335000D03*
X95380000Y-78335000D03*
X92840000Y-78335000D03*
X90300000Y-78335000D03*
X87760000Y-78335000D03*
X85220000Y-78335000D03*
X82680000Y-78335000D03*
X80140000Y-78335000D03*
X77600000Y-78335000D03*
X75060000Y-78335000D03*
X72520000Y-78335000D03*
X69980000Y-78335000D03*
X67440000Y-78335000D03*
X64900000Y-78335000D03*
X62360000Y-78335000D03*
X59820000Y-78335000D03*
X57280000Y-78335000D03*
X54740000Y-78335000D03*
X52200000Y-78335000D03*
%TD*%
D30*
%TO.C,U2*%
X120275000Y-77500000D03*
X120275000Y-78770000D03*
X120275000Y-80040000D03*
X120275000Y-81310000D03*
X125225000Y-81310000D03*
X125225000Y-80040000D03*
X125225000Y-78770000D03*
X125225000Y-77500000D03*
%TD*%
D31*
%TO.C,D9*%
X73737500Y-99000000D03*
X70762500Y-99000000D03*
%TD*%
D14*
%TO.C,D8*%
X110080000Y-127000000D03*
D15*
X99920000Y-127000000D03*
%TD*%
D32*
%TO.C,R7*%
X67500000Y-99000000D03*
X65500000Y-99000000D03*
%TD*%
D12*
%TO.C,C7*%
X136500000Y-100347349D03*
D13*
X136500000Y-103847349D03*
%TD*%
D17*
%TO.C,K2*%
X105000000Y-103500000D03*
X111000000Y-117700000D03*
X99000000Y-117700000D03*
X99000000Y-105500000D03*
X111000000Y-105500000D03*
%TD*%
D25*
%TO.C,JP2*%
X119500000Y-87150000D03*
D26*
X119500000Y-85850000D03*
%TD*%
D25*
%TO.C,JP9*%
X131000000Y-92900000D03*
D26*
X131000000Y-91600000D03*
%TD*%
D16*
%TO.C,J5*%
X145000000Y-71040000D03*
D17*
X145000000Y-65960000D03*
%TD*%
D21*
%TO.C,H1*%
X55000000Y-132600000D03*
X55000000Y-137400000D03*
X53302944Y-133302944D03*
X57400000Y-135000000D03*
D22*
X55000000Y-135000000D03*
D21*
X52600000Y-135000000D03*
X53302944Y-136697056D03*
X56697056Y-136697056D03*
X56697056Y-133302944D03*
%TD*%
D16*
%TO.C,J8*%
X99920000Y-136000000D03*
D17*
X105000000Y-136000000D03*
X110080000Y-136000000D03*
%TD*%
D33*
%TO.C,C4*%
X144017500Y-87960000D03*
X146092500Y-87960000D03*
%TD*%
D16*
%TO.C,J4*%
X145000000Y-58540000D03*
D17*
X145000000Y-53460000D03*
%TD*%
D16*
%TO.C,J7*%
X117920000Y-136000000D03*
D17*
X123000000Y-136000000D03*
X128080000Y-136000000D03*
%TD*%
D11*
%TO.C,R3*%
X61750000Y-87512500D03*
X63750000Y-87512500D03*
%TD*%
D34*
%TO.C,J3*%
X79000000Y-44275000D03*
D35*
X76500000Y-44275000D03*
X74000000Y-44275000D03*
X71500000Y-44275000D03*
%TD*%
D36*
%TO.C,U3*%
X144555000Y-91960000D03*
D37*
X144555000Y-94500000D03*
X144555000Y-97040000D03*
%TD*%
D25*
%TO.C,JP1*%
X105500000Y-87150000D03*
D26*
X105500000Y-85850000D03*
%TD*%
D21*
%TO.C,H4*%
X146697056Y-46697056D03*
D22*
X145000000Y-45000000D03*
D21*
X147400000Y-45000000D03*
X142600000Y-45000000D03*
X145000000Y-42600000D03*
X146697056Y-43302944D03*
X143302944Y-43302944D03*
X143302944Y-46697056D03*
X145000000Y-47400000D03*
%TD*%
D38*
%TO.C,U1*%
X54322500Y-73890000D03*
X56862500Y-73890000D03*
X59402500Y-73890000D03*
X61942500Y-73890000D03*
X64482500Y-73890000D03*
X67022500Y-73890000D03*
X69562500Y-73890000D03*
X72102500Y-73890000D03*
X74642500Y-73890000D03*
X77182500Y-73890000D03*
X79722500Y-73890000D03*
X82262500Y-73890000D03*
X84802500Y-73890000D03*
X87342500Y-73890000D03*
X89882500Y-73890000D03*
X92422500Y-73890000D03*
X94962500Y-73890000D03*
X97502500Y-73890000D03*
X97502500Y-56110000D03*
X94962500Y-56110000D03*
X92422500Y-56110000D03*
X89882500Y-56110000D03*
X87342500Y-56110000D03*
X84802500Y-56110000D03*
X82262500Y-56110000D03*
X79722500Y-56110000D03*
X77182500Y-56110000D03*
X74642500Y-56110000D03*
X72102500Y-56110000D03*
X69562500Y-56110000D03*
X67022500Y-56110000D03*
X64482500Y-56110000D03*
X61942500Y-56110000D03*
X59402500Y-56110000D03*
X56862500Y-56110000D03*
X54322500Y-56110000D03*
%TD*%
D14*
%TO.C,D11*%
X81950000Y-123550000D03*
D15*
X92110000Y-123550000D03*
%TD*%
D39*
%TO.C,SW2*%
X54275000Y-86500000D03*
D40*
X54275000Y-89000000D03*
%TD*%
D41*
%TO.C,SW1*%
X145725000Y-81750000D03*
D40*
X145725000Y-79250000D03*
%TD*%
D42*
%TO.C,J1*%
X93250000Y-44275000D03*
D43*
X90750000Y-44275000D03*
%TD*%
D44*
%TO.C,J6*%
X54275000Y-97000000D03*
D45*
X54275000Y-99500000D03*
X54275000Y-102000000D03*
X54275000Y-104500000D03*
%TD*%
D32*
%TO.C,R6*%
X103500000Y-99000000D03*
X101500000Y-99000000D03*
%TD*%
D14*
%TO.C,D5*%
X128080000Y-127000000D03*
D15*
X117920000Y-127000000D03*
%TD*%
D32*
%TO.C,R5*%
X121500000Y-99000000D03*
X119500000Y-99000000D03*
%TD*%
D46*
%TO.C,U6*%
X98125000Y-84925000D03*
D47*
X95585000Y-84925000D03*
X93045000Y-84925000D03*
X90505000Y-84925000D03*
X87965000Y-84925000D03*
X85425000Y-84925000D03*
X82885000Y-84925000D03*
X80345000Y-84925000D03*
X80345000Y-92545000D03*
X82885000Y-92545000D03*
X85425000Y-92545000D03*
X87965000Y-92545000D03*
X90505000Y-92545000D03*
X93045000Y-92545000D03*
X95585000Y-92545000D03*
X98125000Y-92545000D03*
%TD*%
D21*
%TO.C,H2*%
X53302944Y-46697056D03*
D22*
X55000000Y-45000000D03*
D21*
X55000000Y-42600000D03*
X52600000Y-45000000D03*
X55000000Y-47400000D03*
X57400000Y-45000000D03*
X56697056Y-43302944D03*
X56697056Y-46697056D03*
X53302944Y-43302944D03*
%TD*%
D32*
%TO.C,R8*%
X85500000Y-99000000D03*
X83500000Y-99000000D03*
%TD*%
D16*
%TO.C,J10*%
X81950000Y-136000000D03*
D17*
X87030000Y-136000000D03*
X92110000Y-136000000D03*
%TD*%
D18*
%TO.C,JP5*%
X122300000Y-92750000D03*
D19*
X121000000Y-92750000D03*
D20*
X119700000Y-92750000D03*
%TD*%
D23*
%TO.C,R9*%
X79750000Y-61500000D03*
X79750000Y-59500000D03*
%TD*%
D31*
%TO.C,D3*%
X127737500Y-99000000D03*
X124762500Y-99000000D03*
%TD*%
D25*
%TO.C,JP8*%
X117000000Y-92900000D03*
D26*
X117000000Y-91600000D03*
%TD*%
D17*
%TO.C,K1*%
X123000000Y-103500000D03*
X129000000Y-117700000D03*
X117000000Y-117700000D03*
X117000000Y-105500000D03*
X129000000Y-105500000D03*
%TD*%
D18*
%TO.C,JP6*%
X136300000Y-92750000D03*
D19*
X135000000Y-92750000D03*
D20*
X133700000Y-92750000D03*
%TD*%
D23*
%TO.C,R4*%
X131400000Y-80405000D03*
X131400000Y-78405000D03*
%TD*%
D48*
%TO.C,C5*%
X127750000Y-77617500D03*
X127750000Y-79692500D03*
%TD*%
D49*
%TO.C,J2*%
X135650000Y-125100000D03*
D50*
X141450000Y-125100000D03*
D51*
X138650000Y-120300000D03*
%TD*%
D33*
%TO.C,C6*%
X143962500Y-117000000D03*
X146037500Y-117000000D03*
%TD*%
%TO.C,C2*%
X143962500Y-104000000D03*
X146037500Y-104000000D03*
%TD*%
D52*
%TO.C,D1*%
X61262500Y-84762500D03*
X64237500Y-84762500D03*
%TD*%
D25*
%TO.C,JP3*%
X133500000Y-87250000D03*
D26*
X133500000Y-85950000D03*
%TD*%
D31*
%TO.C,D10*%
X91737500Y-99000000D03*
X88762500Y-99000000D03*
%TD*%
%TO.C,D6*%
X109737500Y-99000000D03*
X106762500Y-99000000D03*
%TD*%
D53*
%TO.C,D2*%
X134250000Y-80892500D03*
X134250000Y-77917500D03*
%TD*%
D14*
%TO.C,D7*%
X99920000Y-123550000D03*
D15*
X110080000Y-123550000D03*
%TD*%
D36*
%TO.C,U4*%
X144555000Y-107960000D03*
D37*
X144555000Y-110500000D03*
X144555000Y-113040000D03*
%TD*%
D54*
%TO.C,PS3*%
X134770000Y-90000000D03*
D55*
X136040000Y-83875000D03*
D56*
X133500000Y-83875000D03*
X130960000Y-83875000D03*
X130960000Y-95125000D03*
X133500000Y-95125000D03*
X136040000Y-95125000D03*
%TD*%
D57*
%TO.C,Brd1*%
X123120000Y-44150000D03*
X120580000Y-44150000D03*
X118040000Y-44150000D03*
X115500000Y-44150000D03*
%TD*%
D54*
%TO.C,PS2*%
X120770000Y-90000000D03*
D55*
X122040000Y-83875000D03*
D56*
X119500000Y-83875000D03*
X116960000Y-83875000D03*
X116960000Y-95125000D03*
X119500000Y-95125000D03*
X122040000Y-95125000D03*
%TD*%
D54*
%TO.C,PS1*%
X106770000Y-90000000D03*
D55*
X108040000Y-83875000D03*
D56*
X105500000Y-83875000D03*
X102960000Y-83875000D03*
X102960000Y-95125000D03*
X105500000Y-95125000D03*
X108040000Y-95125000D03*
%TD*%
M02*
