%TF.GenerationSoftware,KiCad,Pcbnew,(5.99.0-10406-ge27733587d)*%
%TF.CreationDate,2021-05-26T11:48:17+05:30*%
%TF.ProjectId,OxiKit-Brainboard_v1,4f78694b-6974-42d4-9272-61696e626f61,rev?*%
%TF.SameCoordinates,Original*%
%TF.FileFunction,Paste,Top*%
%TF.FilePolarity,Positive*%
%FSLAX46Y46*%
G04 Gerber Fmt 4.6, Leading zero omitted, Abs format (unit mm)*
G04 Created by KiCad (PCBNEW (5.99.0-10406-ge27733587d)) date 2021-05-26 11:48:17*
%MOMM*%
%LPD*%
G01*
G04 APERTURE LIST*
G04 Aperture macros list*
%AMRoundRect*
0 Rectangle with rounded corners*
0 $1 Rounding radius*
0 $2 $3 $4 $5 $6 $7 $8 $9 X,Y pos of 4 corners*
0 Add a 4 corners polygon primitive as box body*
4,1,4,$2,$3,$4,$5,$6,$7,$8,$9,$2,$3,0*
0 Add four circle primitives for the rounded corners*
1,1,$1+$1,$2,$3*
1,1,$1+$1,$4,$5*
1,1,$1+$1,$6,$7*
1,1,$1+$1,$8,$9*
0 Add four rect primitives between the rounded corners*
20,1,$1+$1,$2,$3,$4,$5,0*
20,1,$1+$1,$4,$5,$6,$7,0*
20,1,$1+$1,$6,$7,$8,$9,0*
20,1,$1+$1,$8,$9,$2,$3,0*%
G04 Aperture macros list end*
%ADD10RoundRect,0.250000X-0.450000X0.350000X-0.450000X-0.350000X0.450000X-0.350000X0.450000X0.350000X0*%
%ADD11RoundRect,0.250000X0.450000X-0.350000X0.450000X0.350000X-0.450000X0.350000X-0.450000X-0.350000X0*%
%ADD12RoundRect,0.250000X0.337500X0.475000X-0.337500X0.475000X-0.337500X-0.475000X0.337500X-0.475000X0*%
%ADD13RoundRect,0.250000X-0.350000X-0.450000X0.350000X-0.450000X0.350000X0.450000X-0.350000X0.450000X0*%
%ADD14RoundRect,0.150000X-0.825000X-0.150000X0.825000X-0.150000X0.825000X0.150000X-0.825000X0.150000X0*%
%ADD15RoundRect,0.250001X0.462499X0.624999X-0.462499X0.624999X-0.462499X-0.624999X0.462499X-0.624999X0*%
%ADD16RoundRect,0.250000X0.350000X0.450000X-0.350000X0.450000X-0.350000X-0.450000X0.350000X-0.450000X0*%
%ADD17RoundRect,0.250000X-0.337500X-0.475000X0.337500X-0.475000X0.337500X0.475000X-0.337500X0.475000X0*%
%ADD18RoundRect,0.250000X-0.475000X0.337500X-0.475000X-0.337500X0.475000X-0.337500X0.475000X0.337500X0*%
%ADD19RoundRect,0.250001X-0.462499X-0.624999X0.462499X-0.624999X0.462499X0.624999X-0.462499X0.624999X0*%
%ADD20RoundRect,0.250001X0.624999X-0.462499X0.624999X0.462499X-0.624999X0.462499X-0.624999X-0.462499X0*%
G04 APERTURE END LIST*
D10*
%TO.C,R2*%
X117750000Y-77500000D03*
X117750000Y-79500000D03*
%TD*%
D11*
%TO.C,R1*%
X117750000Y-83750000D03*
X117750000Y-81750000D03*
%TD*%
%TO.C,R10*%
X82250000Y-61500000D03*
X82250000Y-59500000D03*
%TD*%
D12*
%TO.C,C3*%
X146092500Y-100960000D03*
X144017500Y-100960000D03*
%TD*%
D13*
%TO.C,R11*%
X66750000Y-90000000D03*
X68750000Y-90000000D03*
%TD*%
D14*
%TO.C,U2*%
X125225000Y-78595000D03*
X125225000Y-79865000D03*
X125225000Y-81135000D03*
X125225000Y-82405000D03*
X120275000Y-82405000D03*
X120275000Y-81135000D03*
X120275000Y-79865000D03*
X120275000Y-78595000D03*
%TD*%
D15*
%TO.C,D9*%
X73737500Y-99000000D03*
X70762500Y-99000000D03*
%TD*%
D16*
%TO.C,R7*%
X67500000Y-99000000D03*
X65500000Y-99000000D03*
%TD*%
D17*
%TO.C,C4*%
X144017500Y-87960000D03*
X146092500Y-87960000D03*
%TD*%
D13*
%TO.C,R3*%
X66750000Y-87512500D03*
X68750000Y-87512500D03*
%TD*%
D16*
%TO.C,R6*%
X103500000Y-99000000D03*
X101500000Y-99000000D03*
%TD*%
%TO.C,R5*%
X121500000Y-99000000D03*
X119500000Y-99000000D03*
%TD*%
%TO.C,R8*%
X85500000Y-99000000D03*
X83500000Y-99000000D03*
%TD*%
D11*
%TO.C,R9*%
X79750000Y-61500000D03*
X79750000Y-59500000D03*
%TD*%
D15*
%TO.C,D3*%
X127737500Y-99000000D03*
X124762500Y-99000000D03*
%TD*%
D11*
%TO.C,R4*%
X131400000Y-81500000D03*
X131400000Y-79500000D03*
%TD*%
D18*
%TO.C,C5*%
X127750000Y-78712500D03*
X127750000Y-80787500D03*
%TD*%
D17*
%TO.C,C6*%
X143962500Y-117000000D03*
X146037500Y-117000000D03*
%TD*%
%TO.C,C2*%
X143962500Y-104000000D03*
X146037500Y-104000000D03*
%TD*%
D19*
%TO.C,D1*%
X66262500Y-84762500D03*
X69237500Y-84762500D03*
%TD*%
D15*
%TO.C,D10*%
X91737500Y-99000000D03*
X88762500Y-99000000D03*
%TD*%
%TO.C,D6*%
X109737500Y-99000000D03*
X106762500Y-99000000D03*
%TD*%
D20*
%TO.C,D2*%
X134250000Y-81987500D03*
X134250000Y-79012500D03*
%TD*%
M02*
