%TF.GenerationSoftware,KiCad,Pcbnew,(5.99.0-10406-ge27733587d)*%
%TF.CreationDate,2021-05-29T12:27:52+05:30*%
%TF.ProjectId,OxiKit-Brainboard_v1,4f78694b-6974-42d4-9272-61696e626f61,rev?*%
%TF.SameCoordinates,Original*%
%TF.FileFunction,Legend,Bot*%
%TF.FilePolarity,Positive*%
%FSLAX46Y46*%
G04 Gerber Fmt 4.6, Leading zero omitted, Abs format (unit mm)*
G04 Created by KiCad (PCBNEW (5.99.0-10406-ge27733587d)) date 2021-05-29 12:27:52*
%MOMM*%
%LPD*%
G01*
G04 APERTURE LIST*
%ADD10C,0.300000*%
%ADD11C,0.150000*%
%ADD12C,0.015000*%
%ADD13C,0.010000*%
%ADD14C,0.127000*%
%ADD15C,0.200000*%
%ADD16C,0.120000*%
G04 APERTURE END LIST*
D10*
X136380714Y-96263571D02*
X136095000Y-96263571D01*
X135952142Y-96335000D01*
X135809285Y-96477857D01*
X135737857Y-96763571D01*
X135737857Y-97263571D01*
X135809285Y-97549285D01*
X135952142Y-97692142D01*
X136095000Y-97763571D01*
X136380714Y-97763571D01*
X136523571Y-97692142D01*
X136666428Y-97549285D01*
X136737857Y-97263571D01*
X136737857Y-96763571D01*
X136666428Y-96477857D01*
X136523571Y-96335000D01*
X136380714Y-96263571D01*
X135237857Y-97763571D02*
X134452142Y-96763571D01*
X135237857Y-96763571D02*
X134452142Y-97763571D01*
X134023571Y-96763571D02*
X133666428Y-97763571D01*
X133309285Y-96763571D02*
X133666428Y-97763571D01*
X133809285Y-98120714D01*
X133880714Y-98192142D01*
X134023571Y-98263571D01*
X132095000Y-96763571D02*
X132095000Y-97977857D01*
X132166428Y-98120714D01*
X132237857Y-98192142D01*
X132380714Y-98263571D01*
X132595000Y-98263571D01*
X132737857Y-98192142D01*
X132095000Y-97692142D02*
X132237857Y-97763571D01*
X132523571Y-97763571D01*
X132666428Y-97692142D01*
X132737857Y-97620714D01*
X132809285Y-97477857D01*
X132809285Y-97049285D01*
X132737857Y-96906428D01*
X132666428Y-96835000D01*
X132523571Y-96763571D01*
X132237857Y-96763571D01*
X132095000Y-96835000D01*
X130809285Y-97692142D02*
X130952142Y-97763571D01*
X131237857Y-97763571D01*
X131380714Y-97692142D01*
X131452142Y-97549285D01*
X131452142Y-96977857D01*
X131380714Y-96835000D01*
X131237857Y-96763571D01*
X130952142Y-96763571D01*
X130809285Y-96835000D01*
X130737857Y-96977857D01*
X130737857Y-97120714D01*
X131452142Y-97263571D01*
X130095000Y-96763571D02*
X130095000Y-97763571D01*
X130095000Y-96906428D02*
X130023571Y-96835000D01*
X129880714Y-96763571D01*
X129666428Y-96763571D01*
X129523571Y-96835000D01*
X129452142Y-96977857D01*
X129452142Y-97763571D01*
X135095000Y-100107142D02*
X134880714Y-100178571D01*
X134523571Y-100178571D01*
X134380714Y-100107142D01*
X134309285Y-100035714D01*
X134237857Y-99892857D01*
X134237857Y-99750000D01*
X134309285Y-99607142D01*
X134380714Y-99535714D01*
X134523571Y-99464285D01*
X134809285Y-99392857D01*
X134952142Y-99321428D01*
X135023571Y-99250000D01*
X135095000Y-99107142D01*
X135095000Y-98964285D01*
X135023571Y-98821428D01*
X134952142Y-98750000D01*
X134809285Y-98678571D01*
X134452142Y-98678571D01*
X134237857Y-98750000D01*
X133023571Y-100107142D02*
X133166428Y-100178571D01*
X133452142Y-100178571D01*
X133595000Y-100107142D01*
X133666428Y-99964285D01*
X133666428Y-99392857D01*
X133595000Y-99250000D01*
X133452142Y-99178571D01*
X133166428Y-99178571D01*
X133023571Y-99250000D01*
X132952142Y-99392857D01*
X132952142Y-99535714D01*
X133666428Y-99678571D01*
X132309285Y-100178571D02*
X132309285Y-99178571D01*
X132309285Y-99464285D02*
X132237857Y-99321428D01*
X132166428Y-99250000D01*
X132023571Y-99178571D01*
X131880714Y-99178571D01*
X130737857Y-99178571D02*
X130737857Y-100392857D01*
X130809285Y-100535714D01*
X130880714Y-100607142D01*
X131023571Y-100678571D01*
X131237857Y-100678571D01*
X131380714Y-100607142D01*
X130737857Y-100107142D02*
X130880714Y-100178571D01*
X131166428Y-100178571D01*
X131309285Y-100107142D01*
X131380714Y-100035714D01*
X131452142Y-99892857D01*
X131452142Y-99464285D01*
X131380714Y-99321428D01*
X131309285Y-99250000D01*
X131166428Y-99178571D01*
X130880714Y-99178571D01*
X130737857Y-99250000D01*
X129452142Y-100107142D02*
X129595000Y-100178571D01*
X129880714Y-100178571D01*
X130023571Y-100107142D01*
X130095000Y-99964285D01*
X130095000Y-99392857D01*
X130023571Y-99250000D01*
X129880714Y-99178571D01*
X129595000Y-99178571D01*
X129452142Y-99250000D01*
X129380714Y-99392857D01*
X129380714Y-99535714D01*
X130095000Y-99678571D01*
X134023571Y-101093571D02*
X133166428Y-101093571D01*
X133595000Y-102593571D02*
X133595000Y-101093571D01*
X132023571Y-102593571D02*
X132023571Y-101807857D01*
X132095000Y-101665000D01*
X132237857Y-101593571D01*
X132523571Y-101593571D01*
X132666428Y-101665000D01*
X132023571Y-102522142D02*
X132166428Y-102593571D01*
X132523571Y-102593571D01*
X132666428Y-102522142D01*
X132737857Y-102379285D01*
X132737857Y-102236428D01*
X132666428Y-102093571D01*
X132523571Y-102022142D01*
X132166428Y-102022142D01*
X132023571Y-101950714D01*
X131309285Y-101593571D02*
X131309285Y-102593571D01*
X131309285Y-101736428D02*
X131237857Y-101665000D01*
X131095000Y-101593571D01*
X130880714Y-101593571D01*
X130737857Y-101665000D01*
X130666428Y-101807857D01*
X130666428Y-102593571D01*
X129952142Y-102593571D02*
X129952142Y-101093571D01*
X129809285Y-102022142D02*
X129380714Y-102593571D01*
X129380714Y-101593571D02*
X129952142Y-102165000D01*
X123142857Y-96571071D02*
X122142857Y-96571071D01*
X123142857Y-98071071D01*
X122142857Y-98071071D01*
X121000000Y-97999642D02*
X121142857Y-98071071D01*
X121428571Y-98071071D01*
X121571428Y-97999642D01*
X121642857Y-97856785D01*
X121642857Y-97285357D01*
X121571428Y-97142500D01*
X121428571Y-97071071D01*
X121142857Y-97071071D01*
X121000000Y-97142500D01*
X120928571Y-97285357D01*
X120928571Y-97428214D01*
X121642857Y-97571071D01*
X120071428Y-98071071D02*
X120214285Y-97999642D01*
X120285714Y-97928214D01*
X120357142Y-97785357D01*
X120357142Y-97356785D01*
X120285714Y-97213928D01*
X120214285Y-97142500D01*
X120071428Y-97071071D01*
X119857142Y-97071071D01*
X119714285Y-97142500D01*
X119642857Y-97213928D01*
X119571428Y-97356785D01*
X119571428Y-97785357D01*
X119642857Y-97928214D01*
X119714285Y-97999642D01*
X119857142Y-98071071D01*
X120071428Y-98071071D01*
X118714285Y-98071071D02*
X118857142Y-97999642D01*
X118928571Y-97856785D01*
X118928571Y-96571071D01*
X118142857Y-98071071D02*
X118142857Y-97071071D01*
X118142857Y-96571071D02*
X118214285Y-96642500D01*
X118142857Y-96713928D01*
X118071428Y-96642500D01*
X118142857Y-96571071D01*
X118142857Y-96713928D01*
X117642857Y-97071071D02*
X117071428Y-97071071D01*
X117428571Y-96571071D02*
X117428571Y-97856785D01*
X117357142Y-97999642D01*
X117214285Y-98071071D01*
X117071428Y-98071071D01*
X116000000Y-97999642D02*
X116142857Y-98071071D01*
X116428571Y-98071071D01*
X116571428Y-97999642D01*
X116642857Y-97856785D01*
X116642857Y-97285357D01*
X116571428Y-97142500D01*
X116428571Y-97071071D01*
X116142857Y-97071071D01*
X116000000Y-97142500D01*
X115928571Y-97285357D01*
X115928571Y-97428214D01*
X116642857Y-97571071D01*
X122035714Y-99700357D02*
X121821428Y-99771785D01*
X121750000Y-99843214D01*
X121678571Y-99986071D01*
X121678571Y-100200357D01*
X121750000Y-100343214D01*
X121821428Y-100414642D01*
X121964285Y-100486071D01*
X122535714Y-100486071D01*
X122535714Y-98986071D01*
X122035714Y-98986071D01*
X121892857Y-99057500D01*
X121821428Y-99128928D01*
X121750000Y-99271785D01*
X121750000Y-99414642D01*
X121821428Y-99557500D01*
X121892857Y-99628928D01*
X122035714Y-99700357D01*
X122535714Y-99700357D01*
X120464285Y-100414642D02*
X120607142Y-100486071D01*
X120892857Y-100486071D01*
X121035714Y-100414642D01*
X121107142Y-100271785D01*
X121107142Y-99700357D01*
X121035714Y-99557500D01*
X120892857Y-99486071D01*
X120607142Y-99486071D01*
X120464285Y-99557500D01*
X120392857Y-99700357D01*
X120392857Y-99843214D01*
X121107142Y-99986071D01*
X119107142Y-100486071D02*
X119107142Y-98986071D01*
X119107142Y-100414642D02*
X119250000Y-100486071D01*
X119535714Y-100486071D01*
X119678571Y-100414642D01*
X119750000Y-100343214D01*
X119821428Y-100200357D01*
X119821428Y-99771785D01*
X119750000Y-99628928D01*
X119678571Y-99557500D01*
X119535714Y-99486071D01*
X119250000Y-99486071D01*
X119107142Y-99557500D01*
X116750000Y-99700357D02*
X116535714Y-99771785D01*
X116464285Y-99843214D01*
X116392857Y-99986071D01*
X116392857Y-100200357D01*
X116464285Y-100343214D01*
X116535714Y-100414642D01*
X116678571Y-100486071D01*
X117250000Y-100486071D01*
X117250000Y-98986071D01*
X116750000Y-98986071D01*
X116607142Y-99057500D01*
X116535714Y-99128928D01*
X116464285Y-99271785D01*
X116464285Y-99414642D01*
X116535714Y-99557500D01*
X116607142Y-99628928D01*
X116750000Y-99700357D01*
X117250000Y-99700357D01*
X109042857Y-96571071D02*
X108042857Y-96571071D01*
X109042857Y-98071071D01*
X108042857Y-98071071D01*
X106900000Y-97999642D02*
X107042857Y-98071071D01*
X107328571Y-98071071D01*
X107471428Y-97999642D01*
X107542857Y-97856785D01*
X107542857Y-97285357D01*
X107471428Y-97142500D01*
X107328571Y-97071071D01*
X107042857Y-97071071D01*
X106900000Y-97142500D01*
X106828571Y-97285357D01*
X106828571Y-97428214D01*
X107542857Y-97571071D01*
X105971428Y-98071071D02*
X106114285Y-97999642D01*
X106185714Y-97928214D01*
X106257142Y-97785357D01*
X106257142Y-97356785D01*
X106185714Y-97213928D01*
X106114285Y-97142500D01*
X105971428Y-97071071D01*
X105757142Y-97071071D01*
X105614285Y-97142500D01*
X105542857Y-97213928D01*
X105471428Y-97356785D01*
X105471428Y-97785357D01*
X105542857Y-97928214D01*
X105614285Y-97999642D01*
X105757142Y-98071071D01*
X105971428Y-98071071D01*
X104614285Y-98071071D02*
X104757142Y-97999642D01*
X104828571Y-97856785D01*
X104828571Y-96571071D01*
X104042857Y-98071071D02*
X104042857Y-97071071D01*
X104042857Y-96571071D02*
X104114285Y-96642500D01*
X104042857Y-96713928D01*
X103971428Y-96642500D01*
X104042857Y-96571071D01*
X104042857Y-96713928D01*
X103542857Y-97071071D02*
X102971428Y-97071071D01*
X103328571Y-96571071D02*
X103328571Y-97856785D01*
X103257142Y-97999642D01*
X103114285Y-98071071D01*
X102971428Y-98071071D01*
X101900000Y-97999642D02*
X102042857Y-98071071D01*
X102328571Y-98071071D01*
X102471428Y-97999642D01*
X102542857Y-97856785D01*
X102542857Y-97285357D01*
X102471428Y-97142500D01*
X102328571Y-97071071D01*
X102042857Y-97071071D01*
X101900000Y-97142500D01*
X101828571Y-97285357D01*
X101828571Y-97428214D01*
X102542857Y-97571071D01*
X107828571Y-99700357D02*
X107614285Y-99771785D01*
X107542857Y-99843214D01*
X107471428Y-99986071D01*
X107471428Y-100200357D01*
X107542857Y-100343214D01*
X107614285Y-100414642D01*
X107757142Y-100486071D01*
X108328571Y-100486071D01*
X108328571Y-98986071D01*
X107828571Y-98986071D01*
X107685714Y-99057500D01*
X107614285Y-99128928D01*
X107542857Y-99271785D01*
X107542857Y-99414642D01*
X107614285Y-99557500D01*
X107685714Y-99628928D01*
X107828571Y-99700357D01*
X108328571Y-99700357D01*
X106257142Y-100414642D02*
X106400000Y-100486071D01*
X106685714Y-100486071D01*
X106828571Y-100414642D01*
X106900000Y-100271785D01*
X106900000Y-99700357D01*
X106828571Y-99557500D01*
X106685714Y-99486071D01*
X106400000Y-99486071D01*
X106257142Y-99557500D01*
X106185714Y-99700357D01*
X106185714Y-99843214D01*
X106900000Y-99986071D01*
X104900000Y-100486071D02*
X104900000Y-98986071D01*
X104900000Y-100414642D02*
X105042857Y-100486071D01*
X105328571Y-100486071D01*
X105471428Y-100414642D01*
X105542857Y-100343214D01*
X105614285Y-100200357D01*
X105614285Y-99771785D01*
X105542857Y-99628928D01*
X105471428Y-99557500D01*
X105328571Y-99486071D01*
X105042857Y-99486071D01*
X104900000Y-99557500D01*
X103114285Y-100057500D02*
X102400000Y-100057500D01*
X103257142Y-100486071D02*
X102757142Y-98986071D01*
X102257142Y-100486071D01*
D11*
X80257619Y-70973928D02*
X80257619Y-70783452D01*
X80210000Y-70688214D01*
X80114761Y-70592976D01*
X79924285Y-70545357D01*
X79590952Y-70545357D01*
X79400476Y-70592976D01*
X79305238Y-70688214D01*
X79257619Y-70783452D01*
X79257619Y-70973928D01*
X79305238Y-71069166D01*
X79400476Y-71164404D01*
X79590952Y-71212023D01*
X79924285Y-71212023D01*
X80114761Y-71164404D01*
X80210000Y-71069166D01*
X80257619Y-70973928D01*
X79257619Y-70212023D02*
X79924285Y-69688214D01*
X79924285Y-70212023D02*
X79257619Y-69688214D01*
X79257619Y-69307261D02*
X79924285Y-69307261D01*
X80257619Y-69307261D02*
X80210000Y-69354880D01*
X80162380Y-69307261D01*
X80210000Y-69259642D01*
X80257619Y-69307261D01*
X80162380Y-69307261D01*
X79257619Y-68831071D02*
X80257619Y-68831071D01*
X79638571Y-68735833D02*
X79257619Y-68450119D01*
X79924285Y-68450119D02*
X79543333Y-68831071D01*
X79257619Y-68021547D02*
X79924285Y-68021547D01*
X80257619Y-68021547D02*
X80210000Y-68069166D01*
X80162380Y-68021547D01*
X80210000Y-67973928D01*
X80257619Y-68021547D01*
X80162380Y-68021547D01*
X79924285Y-67688214D02*
X79924285Y-67307261D01*
X80257619Y-67545357D02*
X79400476Y-67545357D01*
X79305238Y-67497738D01*
X79257619Y-67402500D01*
X79257619Y-67307261D01*
X79781428Y-65878690D02*
X79733809Y-65735833D01*
X79686190Y-65688214D01*
X79590952Y-65640595D01*
X79448095Y-65640595D01*
X79352857Y-65688214D01*
X79305238Y-65735833D01*
X79257619Y-65831071D01*
X79257619Y-66212023D01*
X80257619Y-66212023D01*
X80257619Y-65878690D01*
X80210000Y-65783452D01*
X80162380Y-65735833D01*
X80067142Y-65688214D01*
X79971904Y-65688214D01*
X79876666Y-65735833D01*
X79829047Y-65783452D01*
X79781428Y-65878690D01*
X79781428Y-66212023D01*
X79257619Y-65212023D02*
X79924285Y-65212023D01*
X79733809Y-65212023D02*
X79829047Y-65164404D01*
X79876666Y-65116785D01*
X79924285Y-65021547D01*
X79924285Y-64926309D01*
X79257619Y-64164404D02*
X79781428Y-64164404D01*
X79876666Y-64212023D01*
X79924285Y-64307261D01*
X79924285Y-64497738D01*
X79876666Y-64592976D01*
X79305238Y-64164404D02*
X79257619Y-64259642D01*
X79257619Y-64497738D01*
X79305238Y-64592976D01*
X79400476Y-64640595D01*
X79495714Y-64640595D01*
X79590952Y-64592976D01*
X79638571Y-64497738D01*
X79638571Y-64259642D01*
X79686190Y-64164404D01*
X79257619Y-63688214D02*
X79924285Y-63688214D01*
X80257619Y-63688214D02*
X80210000Y-63735833D01*
X80162380Y-63688214D01*
X80210000Y-63640595D01*
X80257619Y-63688214D01*
X80162380Y-63688214D01*
X79924285Y-63212023D02*
X79257619Y-63212023D01*
X79829047Y-63212023D02*
X79876666Y-63164404D01*
X79924285Y-63069166D01*
X79924285Y-62926309D01*
X79876666Y-62831071D01*
X79781428Y-62783452D01*
X79257619Y-62783452D01*
X79257619Y-62307261D02*
X80257619Y-62307261D01*
X79876666Y-62307261D02*
X79924285Y-62212023D01*
X79924285Y-62021547D01*
X79876666Y-61926309D01*
X79829047Y-61878690D01*
X79733809Y-61831071D01*
X79448095Y-61831071D01*
X79352857Y-61878690D01*
X79305238Y-61926309D01*
X79257619Y-62021547D01*
X79257619Y-62212023D01*
X79305238Y-62307261D01*
X79257619Y-61259642D02*
X79305238Y-61354880D01*
X79352857Y-61402500D01*
X79448095Y-61450119D01*
X79733809Y-61450119D01*
X79829047Y-61402500D01*
X79876666Y-61354880D01*
X79924285Y-61259642D01*
X79924285Y-61116785D01*
X79876666Y-61021547D01*
X79829047Y-60973928D01*
X79733809Y-60926309D01*
X79448095Y-60926309D01*
X79352857Y-60973928D01*
X79305238Y-61021547D01*
X79257619Y-61116785D01*
X79257619Y-61259642D01*
X79257619Y-60069166D02*
X79781428Y-60069166D01*
X79876666Y-60116785D01*
X79924285Y-60212023D01*
X79924285Y-60402500D01*
X79876666Y-60497738D01*
X79305238Y-60069166D02*
X79257619Y-60164404D01*
X79257619Y-60402500D01*
X79305238Y-60497738D01*
X79400476Y-60545357D01*
X79495714Y-60545357D01*
X79590952Y-60497738D01*
X79638571Y-60402500D01*
X79638571Y-60164404D01*
X79686190Y-60069166D01*
X79257619Y-59592976D02*
X79924285Y-59592976D01*
X79733809Y-59592976D02*
X79829047Y-59545357D01*
X79876666Y-59497738D01*
X79924285Y-59402500D01*
X79924285Y-59307261D01*
X79257619Y-58545357D02*
X80257619Y-58545357D01*
X79305238Y-58545357D02*
X79257619Y-58640595D01*
X79257619Y-58831071D01*
X79305238Y-58926309D01*
X79352857Y-58973928D01*
X79448095Y-59021547D01*
X79733809Y-59021547D01*
X79829047Y-58973928D01*
X79876666Y-58926309D01*
X79924285Y-58831071D01*
X79924285Y-58640595D01*
X79876666Y-58545357D01*
X77647619Y-70592976D02*
X78123809Y-70926309D01*
X77647619Y-71164404D02*
X78647619Y-71164404D01*
X78647619Y-70783452D01*
X78600000Y-70688214D01*
X78552380Y-70640595D01*
X78457142Y-70592976D01*
X78314285Y-70592976D01*
X78219047Y-70640595D01*
X78171428Y-70688214D01*
X78123809Y-70783452D01*
X78123809Y-71164404D01*
X77695238Y-69783452D02*
X77647619Y-69878690D01*
X77647619Y-70069166D01*
X77695238Y-70164404D01*
X77790476Y-70212023D01*
X78171428Y-70212023D01*
X78266666Y-70164404D01*
X78314285Y-70069166D01*
X78314285Y-69878690D01*
X78266666Y-69783452D01*
X78171428Y-69735833D01*
X78076190Y-69735833D01*
X77980952Y-70212023D01*
X78314285Y-69402500D02*
X77647619Y-69164404D01*
X78314285Y-68926309D01*
X77742857Y-68545357D02*
X77695238Y-68497738D01*
X77647619Y-68545357D01*
X77695238Y-68592976D01*
X77742857Y-68545357D01*
X77647619Y-68545357D01*
X77647619Y-66783452D02*
X77647619Y-67354880D01*
X77647619Y-67069166D02*
X78647619Y-67069166D01*
X78504761Y-67164404D01*
X78409523Y-67259642D01*
X78361904Y-67354880D01*
X77742857Y-66354880D02*
X77695238Y-66307261D01*
X77647619Y-66354880D01*
X77695238Y-66402500D01*
X77742857Y-66354880D01*
X77647619Y-66354880D01*
X77647619Y-65354880D02*
X77647619Y-65926309D01*
X77647619Y-65640595D02*
X78647619Y-65640595D01*
X78504761Y-65735833D01*
X78409523Y-65831071D01*
X78361904Y-65926309D01*
X76942380Y-71212023D02*
X76990000Y-71164404D01*
X77037619Y-71069166D01*
X77037619Y-70831071D01*
X76990000Y-70735833D01*
X76942380Y-70688214D01*
X76847142Y-70640595D01*
X76751904Y-70640595D01*
X76609047Y-70688214D01*
X76037619Y-71259642D01*
X76037619Y-70640595D01*
X76037619Y-70164404D02*
X76037619Y-69973928D01*
X76085238Y-69878690D01*
X76132857Y-69831071D01*
X76275714Y-69735833D01*
X76466190Y-69688214D01*
X76847142Y-69688214D01*
X76942380Y-69735833D01*
X76990000Y-69783452D01*
X77037619Y-69878690D01*
X77037619Y-70069166D01*
X76990000Y-70164404D01*
X76942380Y-70212023D01*
X76847142Y-70259642D01*
X76609047Y-70259642D01*
X76513809Y-70212023D01*
X76466190Y-70164404D01*
X76418571Y-70069166D01*
X76418571Y-69878690D01*
X76466190Y-69783452D01*
X76513809Y-69735833D01*
X76609047Y-69688214D01*
X76037619Y-68497738D02*
X77037619Y-68497738D01*
X76323333Y-68164404D01*
X77037619Y-67831071D01*
X76037619Y-67831071D01*
X76037619Y-66926309D02*
X76561428Y-66926309D01*
X76656666Y-66973928D01*
X76704285Y-67069166D01*
X76704285Y-67259642D01*
X76656666Y-67354880D01*
X76085238Y-66926309D02*
X76037619Y-67021547D01*
X76037619Y-67259642D01*
X76085238Y-67354880D01*
X76180476Y-67402500D01*
X76275714Y-67402500D01*
X76370952Y-67354880D01*
X76418571Y-67259642D01*
X76418571Y-67021547D01*
X76466190Y-66926309D01*
X76704285Y-66545357D02*
X76037619Y-66307261D01*
X76704285Y-66069166D02*
X76037619Y-66307261D01*
X75799523Y-66402500D01*
X75751904Y-66450119D01*
X75704285Y-66545357D01*
X77037619Y-64878690D02*
X76847142Y-64973928D01*
X76942380Y-64497738D02*
X76990000Y-64450119D01*
X77037619Y-64354880D01*
X77037619Y-64116785D01*
X76990000Y-64021547D01*
X76942380Y-63973928D01*
X76847142Y-63926309D01*
X76751904Y-63926309D01*
X76609047Y-63973928D01*
X76037619Y-64545357D01*
X76037619Y-63926309D01*
X76037619Y-62973928D02*
X76037619Y-63545357D01*
X76037619Y-63259642D02*
X77037619Y-63259642D01*
X76894761Y-63354880D01*
X76799523Y-63450119D01*
X76751904Y-63545357D01*
X74723809Y-124537380D02*
X74723809Y-123537380D01*
X74485714Y-123537380D01*
X74342857Y-123585000D01*
X74247619Y-123680238D01*
X74200000Y-123775476D01*
X74152380Y-123965952D01*
X74152380Y-124108809D01*
X74200000Y-124299285D01*
X74247619Y-124394523D01*
X74342857Y-124489761D01*
X74485714Y-124537380D01*
X74723809Y-124537380D01*
X73342857Y-124489761D02*
X73438095Y-124537380D01*
X73628571Y-124537380D01*
X73723809Y-124489761D01*
X73771428Y-124394523D01*
X73771428Y-124013571D01*
X73723809Y-123918333D01*
X73628571Y-123870714D01*
X73438095Y-123870714D01*
X73342857Y-123918333D01*
X73295238Y-124013571D01*
X73295238Y-124108809D01*
X73771428Y-124204047D01*
X72914285Y-124489761D02*
X72819047Y-124537380D01*
X72628571Y-124537380D01*
X72533333Y-124489761D01*
X72485714Y-124394523D01*
X72485714Y-124346904D01*
X72533333Y-124251666D01*
X72628571Y-124204047D01*
X72771428Y-124204047D01*
X72866666Y-124156428D01*
X72914285Y-124061190D01*
X72914285Y-124013571D01*
X72866666Y-123918333D01*
X72771428Y-123870714D01*
X72628571Y-123870714D01*
X72533333Y-123918333D01*
X72057142Y-124537380D02*
X72057142Y-123870714D01*
X72057142Y-123537380D02*
X72104761Y-123585000D01*
X72057142Y-123632619D01*
X72009523Y-123585000D01*
X72057142Y-123537380D01*
X72057142Y-123632619D01*
X71152380Y-123870714D02*
X71152380Y-124680238D01*
X71200000Y-124775476D01*
X71247619Y-124823095D01*
X71342857Y-124870714D01*
X71485714Y-124870714D01*
X71580952Y-124823095D01*
X71152380Y-124489761D02*
X71247619Y-124537380D01*
X71438095Y-124537380D01*
X71533333Y-124489761D01*
X71580952Y-124442142D01*
X71628571Y-124346904D01*
X71628571Y-124061190D01*
X71580952Y-123965952D01*
X71533333Y-123918333D01*
X71438095Y-123870714D01*
X71247619Y-123870714D01*
X71152380Y-123918333D01*
X70676190Y-123870714D02*
X70676190Y-124537380D01*
X70676190Y-123965952D02*
X70628571Y-123918333D01*
X70533333Y-123870714D01*
X70390476Y-123870714D01*
X70295238Y-123918333D01*
X70247619Y-124013571D01*
X70247619Y-124537380D01*
X69390476Y-124489761D02*
X69485714Y-124537380D01*
X69676190Y-124537380D01*
X69771428Y-124489761D01*
X69819047Y-124394523D01*
X69819047Y-124013571D01*
X69771428Y-123918333D01*
X69676190Y-123870714D01*
X69485714Y-123870714D01*
X69390476Y-123918333D01*
X69342857Y-124013571D01*
X69342857Y-124108809D01*
X69819047Y-124204047D01*
X68485714Y-124537380D02*
X68485714Y-123537380D01*
X68485714Y-124489761D02*
X68580952Y-124537380D01*
X68771428Y-124537380D01*
X68866666Y-124489761D01*
X68914285Y-124442142D01*
X68961904Y-124346904D01*
X68961904Y-124061190D01*
X68914285Y-123965952D01*
X68866666Y-123918333D01*
X68771428Y-123870714D01*
X68580952Y-123870714D01*
X68485714Y-123918333D01*
X66438095Y-124537380D02*
X66485714Y-124537380D01*
X66580952Y-124489761D01*
X66723809Y-124346904D01*
X66961904Y-124061190D01*
X67057142Y-123918333D01*
X67104761Y-123775476D01*
X67104761Y-123680238D01*
X67057142Y-123585000D01*
X66961904Y-123537380D01*
X66914285Y-123537380D01*
X66819047Y-123585000D01*
X66771428Y-123680238D01*
X66771428Y-123727857D01*
X66819047Y-123823095D01*
X66866666Y-123870714D01*
X67152380Y-124061190D01*
X67200000Y-124108809D01*
X67247619Y-124204047D01*
X67247619Y-124346904D01*
X67200000Y-124442142D01*
X67152380Y-124489761D01*
X67057142Y-124537380D01*
X66914285Y-124537380D01*
X66819047Y-124489761D01*
X66771428Y-124442142D01*
X66628571Y-124251666D01*
X66580952Y-124108809D01*
X66580952Y-124013571D01*
X65247619Y-124537380D02*
X65247619Y-123537380D01*
X64914285Y-124251666D01*
X64580952Y-123537380D01*
X64580952Y-124537380D01*
X63676190Y-124537380D02*
X63676190Y-124013571D01*
X63723809Y-123918333D01*
X63819047Y-123870714D01*
X64009523Y-123870714D01*
X64104761Y-123918333D01*
X63676190Y-124489761D02*
X63771428Y-124537380D01*
X64009523Y-124537380D01*
X64104761Y-124489761D01*
X64152380Y-124394523D01*
X64152380Y-124299285D01*
X64104761Y-124204047D01*
X64009523Y-124156428D01*
X63771428Y-124156428D01*
X63676190Y-124108809D01*
X63200000Y-124537380D02*
X63200000Y-123870714D01*
X63200000Y-123537380D02*
X63247619Y-123585000D01*
X63200000Y-123632619D01*
X63152380Y-123585000D01*
X63200000Y-123537380D01*
X63200000Y-123632619D01*
X62723809Y-123870714D02*
X62723809Y-124537380D01*
X62723809Y-123965952D02*
X62676190Y-123918333D01*
X62580952Y-123870714D01*
X62438095Y-123870714D01*
X62342857Y-123918333D01*
X62295238Y-124013571D01*
X62295238Y-124537380D01*
X61961904Y-123870714D02*
X61580952Y-123870714D01*
X61819047Y-123537380D02*
X61819047Y-124394523D01*
X61771428Y-124489761D01*
X61676190Y-124537380D01*
X61580952Y-124537380D01*
X60819047Y-124537380D02*
X60819047Y-124013571D01*
X60866666Y-123918333D01*
X60961904Y-123870714D01*
X61152380Y-123870714D01*
X61247619Y-123918333D01*
X60819047Y-124489761D02*
X60914285Y-124537380D01*
X61152380Y-124537380D01*
X61247619Y-124489761D01*
X61295238Y-124394523D01*
X61295238Y-124299285D01*
X61247619Y-124204047D01*
X61152380Y-124156428D01*
X60914285Y-124156428D01*
X60819047Y-124108809D01*
X60342857Y-124537380D02*
X60342857Y-123870714D01*
X60342857Y-123537380D02*
X60390476Y-123585000D01*
X60342857Y-123632619D01*
X60295238Y-123585000D01*
X60342857Y-123537380D01*
X60342857Y-123632619D01*
X59866666Y-123870714D02*
X59866666Y-124537380D01*
X59866666Y-123965952D02*
X59819047Y-123918333D01*
X59723809Y-123870714D01*
X59580952Y-123870714D01*
X59485714Y-123918333D01*
X59438095Y-124013571D01*
X59438095Y-124537380D01*
X58580952Y-124489761D02*
X58676190Y-124537380D01*
X58866666Y-124537380D01*
X58961904Y-124489761D01*
X59009523Y-124394523D01*
X59009523Y-124013571D01*
X58961904Y-123918333D01*
X58866666Y-123870714D01*
X58676190Y-123870714D01*
X58580952Y-123918333D01*
X58533333Y-124013571D01*
X58533333Y-124108809D01*
X59009523Y-124204047D01*
X57676190Y-124537380D02*
X57676190Y-123537380D01*
X57676190Y-124489761D02*
X57771428Y-124537380D01*
X57961904Y-124537380D01*
X58057142Y-124489761D01*
X58104761Y-124442142D01*
X58152380Y-124346904D01*
X58152380Y-124061190D01*
X58104761Y-123965952D01*
X58057142Y-123918333D01*
X57961904Y-123870714D01*
X57771428Y-123870714D01*
X57676190Y-123918333D01*
X66795238Y-126147380D02*
X66795238Y-125147380D01*
X66795238Y-125528333D02*
X66700000Y-125480714D01*
X66509523Y-125480714D01*
X66414285Y-125528333D01*
X66366666Y-125575952D01*
X66319047Y-125671190D01*
X66319047Y-125956904D01*
X66366666Y-126052142D01*
X66414285Y-126099761D01*
X66509523Y-126147380D01*
X66700000Y-126147380D01*
X66795238Y-126099761D01*
X65985714Y-125480714D02*
X65747619Y-126147380D01*
X65509523Y-125480714D02*
X65747619Y-126147380D01*
X65842857Y-126385476D01*
X65890476Y-126433095D01*
X65985714Y-126480714D01*
X71938095Y-127709761D02*
X71795238Y-127757380D01*
X71557142Y-127757380D01*
X71461904Y-127709761D01*
X71414285Y-127662142D01*
X71366666Y-127566904D01*
X71366666Y-127471666D01*
X71414285Y-127376428D01*
X71461904Y-127328809D01*
X71557142Y-127281190D01*
X71747619Y-127233571D01*
X71842857Y-127185952D01*
X71890476Y-127138333D01*
X71938095Y-127043095D01*
X71938095Y-126947857D01*
X71890476Y-126852619D01*
X71842857Y-126805000D01*
X71747619Y-126757380D01*
X71509523Y-126757380D01*
X71366666Y-126805000D01*
X70938095Y-127757380D02*
X70938095Y-126757380D01*
X70509523Y-127757380D02*
X70509523Y-127233571D01*
X70557142Y-127138333D01*
X70652380Y-127090714D01*
X70795238Y-127090714D01*
X70890476Y-127138333D01*
X70938095Y-127185952D01*
X70033333Y-127757380D02*
X70033333Y-127090714D01*
X70033333Y-127281190D02*
X69985714Y-127185952D01*
X69938095Y-127138333D01*
X69842857Y-127090714D01*
X69747619Y-127090714D01*
X69414285Y-127757380D02*
X69414285Y-127090714D01*
X69414285Y-126757380D02*
X69461904Y-126805000D01*
X69414285Y-126852619D01*
X69366666Y-126805000D01*
X69414285Y-126757380D01*
X69414285Y-126852619D01*
X68509523Y-127757380D02*
X68509523Y-126757380D01*
X68509523Y-127709761D02*
X68604761Y-127757380D01*
X68795238Y-127757380D01*
X68890476Y-127709761D01*
X68938095Y-127662142D01*
X68985714Y-127566904D01*
X68985714Y-127281190D01*
X68938095Y-127185952D01*
X68890476Y-127138333D01*
X68795238Y-127090714D01*
X68604761Y-127090714D01*
X68509523Y-127138333D01*
X67604761Y-127757380D02*
X67604761Y-127233571D01*
X67652380Y-127138333D01*
X67747619Y-127090714D01*
X67938095Y-127090714D01*
X68033333Y-127138333D01*
X67604761Y-127709761D02*
X67700000Y-127757380D01*
X67938095Y-127757380D01*
X68033333Y-127709761D01*
X68080952Y-127614523D01*
X68080952Y-127519285D01*
X68033333Y-127424047D01*
X67938095Y-127376428D01*
X67700000Y-127376428D01*
X67604761Y-127328809D01*
X67271428Y-127090714D02*
X66890476Y-127090714D01*
X67128571Y-126757380D02*
X67128571Y-127614523D01*
X67080952Y-127709761D01*
X66985714Y-127757380D01*
X66890476Y-127757380D01*
X66700000Y-127090714D02*
X66319047Y-127090714D01*
X66557142Y-126757380D02*
X66557142Y-127614523D01*
X66509523Y-127709761D01*
X66414285Y-127757380D01*
X66319047Y-127757380D01*
X65223809Y-127757380D02*
X65223809Y-126757380D01*
X64985714Y-126757380D01*
X64842857Y-126805000D01*
X64747619Y-126900238D01*
X64700000Y-126995476D01*
X64652380Y-127185952D01*
X64652380Y-127328809D01*
X64700000Y-127519285D01*
X64747619Y-127614523D01*
X64842857Y-127709761D01*
X64985714Y-127757380D01*
X65223809Y-127757380D01*
X63795238Y-127090714D02*
X63795238Y-127757380D01*
X64223809Y-127090714D02*
X64223809Y-127614523D01*
X64176190Y-127709761D01*
X64080952Y-127757380D01*
X63938095Y-127757380D01*
X63842857Y-127709761D01*
X63795238Y-127662142D01*
X62890476Y-127757380D02*
X62890476Y-126757380D01*
X62890476Y-127709761D02*
X62985714Y-127757380D01*
X63176190Y-127757380D01*
X63271428Y-127709761D01*
X63319047Y-127662142D01*
X63366666Y-127566904D01*
X63366666Y-127281190D01*
X63319047Y-127185952D01*
X63271428Y-127138333D01*
X63176190Y-127090714D01*
X62985714Y-127090714D01*
X62890476Y-127138333D01*
X62414285Y-127757380D02*
X62414285Y-126757380D01*
X61985714Y-127757380D02*
X61985714Y-127233571D01*
X62033333Y-127138333D01*
X62128571Y-127090714D01*
X62271428Y-127090714D01*
X62366666Y-127138333D01*
X62414285Y-127185952D01*
X61080952Y-127757380D02*
X61080952Y-127233571D01*
X61128571Y-127138333D01*
X61223809Y-127090714D01*
X61414285Y-127090714D01*
X61509523Y-127138333D01*
X61080952Y-127709761D02*
X61176190Y-127757380D01*
X61414285Y-127757380D01*
X61509523Y-127709761D01*
X61557142Y-127614523D01*
X61557142Y-127519285D01*
X61509523Y-127424047D01*
X61414285Y-127376428D01*
X61176190Y-127376428D01*
X61080952Y-127328809D01*
X60747619Y-127090714D02*
X60366666Y-127090714D01*
X60604761Y-126757380D02*
X60604761Y-127614523D01*
X60557142Y-127709761D01*
X60461904Y-127757380D01*
X60366666Y-127757380D01*
X77652380Y-129367380D02*
X77652380Y-128367380D01*
X77223809Y-129367380D02*
X77223809Y-128843571D01*
X77271428Y-128748333D01*
X77366666Y-128700714D01*
X77509523Y-128700714D01*
X77604761Y-128748333D01*
X77652380Y-128795952D01*
X76890476Y-128700714D02*
X76509523Y-128700714D01*
X76747619Y-128367380D02*
X76747619Y-129224523D01*
X76700000Y-129319761D01*
X76604761Y-129367380D01*
X76509523Y-129367380D01*
X76319047Y-128700714D02*
X75938095Y-128700714D01*
X76176190Y-128367380D02*
X76176190Y-129224523D01*
X76128571Y-129319761D01*
X76033333Y-129367380D01*
X75938095Y-129367380D01*
X75604761Y-128700714D02*
X75604761Y-129700714D01*
X75604761Y-128748333D02*
X75509523Y-128700714D01*
X75319047Y-128700714D01*
X75223809Y-128748333D01*
X75176190Y-128795952D01*
X75128571Y-128891190D01*
X75128571Y-129176904D01*
X75176190Y-129272142D01*
X75223809Y-129319761D01*
X75319047Y-129367380D01*
X75509523Y-129367380D01*
X75604761Y-129319761D01*
X74700000Y-129272142D02*
X74652380Y-129319761D01*
X74700000Y-129367380D01*
X74747619Y-129319761D01*
X74700000Y-129272142D01*
X74700000Y-129367380D01*
X74700000Y-128748333D02*
X74652380Y-128795952D01*
X74700000Y-128843571D01*
X74747619Y-128795952D01*
X74700000Y-128748333D01*
X74700000Y-128843571D01*
X73509523Y-128319761D02*
X74366666Y-129605476D01*
X72461904Y-128319761D02*
X73319047Y-129605476D01*
X72176190Y-129319761D02*
X72080952Y-129367380D01*
X71890476Y-129367380D01*
X71795238Y-129319761D01*
X71747619Y-129224523D01*
X71747619Y-129176904D01*
X71795238Y-129081666D01*
X71890476Y-129034047D01*
X72033333Y-129034047D01*
X72128571Y-128986428D01*
X72176190Y-128891190D01*
X72176190Y-128843571D01*
X72128571Y-128748333D01*
X72033333Y-128700714D01*
X71890476Y-128700714D01*
X71795238Y-128748333D01*
X71319047Y-129367380D02*
X71319047Y-128367380D01*
X70890476Y-129367380D02*
X70890476Y-128843571D01*
X70938095Y-128748333D01*
X71033333Y-128700714D01*
X71176190Y-128700714D01*
X71271428Y-128748333D01*
X71319047Y-128795952D01*
X70414285Y-129367380D02*
X70414285Y-128700714D01*
X70414285Y-128891190D02*
X70366666Y-128795952D01*
X70319047Y-128748333D01*
X70223809Y-128700714D01*
X70128571Y-128700714D01*
X69795238Y-129367380D02*
X69795238Y-128700714D01*
X69795238Y-128367380D02*
X69842857Y-128415000D01*
X69795238Y-128462619D01*
X69747619Y-128415000D01*
X69795238Y-128367380D01*
X69795238Y-128462619D01*
X68890476Y-129367380D02*
X68890476Y-128367380D01*
X68890476Y-129319761D02*
X68985714Y-129367380D01*
X69176190Y-129367380D01*
X69271428Y-129319761D01*
X69319047Y-129272142D01*
X69366666Y-129176904D01*
X69366666Y-128891190D01*
X69319047Y-128795952D01*
X69271428Y-128748333D01*
X69176190Y-128700714D01*
X68985714Y-128700714D01*
X68890476Y-128748333D01*
X67985714Y-129367380D02*
X67985714Y-128843571D01*
X68033333Y-128748333D01*
X68128571Y-128700714D01*
X68319047Y-128700714D01*
X68414285Y-128748333D01*
X67985714Y-129319761D02*
X68080952Y-129367380D01*
X68319047Y-129367380D01*
X68414285Y-129319761D01*
X68461904Y-129224523D01*
X68461904Y-129129285D01*
X68414285Y-129034047D01*
X68319047Y-128986428D01*
X68080952Y-128986428D01*
X67985714Y-128938809D01*
X67652380Y-128700714D02*
X67271428Y-128700714D01*
X67509523Y-128367380D02*
X67509523Y-129224523D01*
X67461904Y-129319761D01*
X67366666Y-129367380D01*
X67271428Y-129367380D01*
X67080952Y-128700714D02*
X66700000Y-128700714D01*
X66938095Y-128367380D02*
X66938095Y-129224523D01*
X66890476Y-129319761D01*
X66795238Y-129367380D01*
X66700000Y-129367380D01*
X65938095Y-129367380D02*
X65938095Y-128367380D01*
X65938095Y-129319761D02*
X66033333Y-129367380D01*
X66223809Y-129367380D01*
X66319047Y-129319761D01*
X66366666Y-129272142D01*
X66414285Y-129176904D01*
X66414285Y-128891190D01*
X66366666Y-128795952D01*
X66319047Y-128748333D01*
X66223809Y-128700714D01*
X66033333Y-128700714D01*
X65938095Y-128748333D01*
X65033333Y-128700714D02*
X65033333Y-129367380D01*
X65461904Y-128700714D02*
X65461904Y-129224523D01*
X65414285Y-129319761D01*
X65319047Y-129367380D01*
X65176190Y-129367380D01*
X65080952Y-129319761D01*
X65033333Y-129272142D01*
X64128571Y-129367380D02*
X64128571Y-128367380D01*
X64128571Y-129319761D02*
X64223809Y-129367380D01*
X64414285Y-129367380D01*
X64509523Y-129319761D01*
X64557142Y-129272142D01*
X64604761Y-129176904D01*
X64604761Y-128891190D01*
X64557142Y-128795952D01*
X64509523Y-128748333D01*
X64414285Y-128700714D01*
X64223809Y-128700714D01*
X64128571Y-128748333D01*
X63652380Y-129367380D02*
X63652380Y-128367380D01*
X63223809Y-129367380D02*
X63223809Y-128843571D01*
X63271428Y-128748333D01*
X63366666Y-128700714D01*
X63509523Y-128700714D01*
X63604761Y-128748333D01*
X63652380Y-128795952D01*
X62319047Y-129367380D02*
X62319047Y-128843571D01*
X62366666Y-128748333D01*
X62461904Y-128700714D01*
X62652380Y-128700714D01*
X62747619Y-128748333D01*
X62319047Y-129319761D02*
X62414285Y-129367380D01*
X62652380Y-129367380D01*
X62747619Y-129319761D01*
X62795238Y-129224523D01*
X62795238Y-129129285D01*
X62747619Y-129034047D01*
X62652380Y-128986428D01*
X62414285Y-128986428D01*
X62319047Y-128938809D01*
X61985714Y-128700714D02*
X61604761Y-128700714D01*
X61842857Y-128367380D02*
X61842857Y-129224523D01*
X61795238Y-129319761D01*
X61700000Y-129367380D01*
X61604761Y-129367380D01*
X61271428Y-129272142D02*
X61223809Y-129319761D01*
X61271428Y-129367380D01*
X61319047Y-129319761D01*
X61271428Y-129272142D01*
X61271428Y-129367380D01*
X60366666Y-128700714D02*
X60366666Y-129510238D01*
X60414285Y-129605476D01*
X60461904Y-129653095D01*
X60557142Y-129700714D01*
X60700000Y-129700714D01*
X60795238Y-129653095D01*
X60366666Y-129319761D02*
X60461904Y-129367380D01*
X60652380Y-129367380D01*
X60747619Y-129319761D01*
X60795238Y-129272142D01*
X60842857Y-129176904D01*
X60842857Y-128891190D01*
X60795238Y-128795952D01*
X60747619Y-128748333D01*
X60652380Y-128700714D01*
X60461904Y-128700714D01*
X60366666Y-128748333D01*
X59890476Y-129367380D02*
X59890476Y-128700714D01*
X59890476Y-128367380D02*
X59938095Y-128415000D01*
X59890476Y-128462619D01*
X59842857Y-128415000D01*
X59890476Y-128367380D01*
X59890476Y-128462619D01*
X59557142Y-128700714D02*
X59176190Y-128700714D01*
X59414285Y-128367380D02*
X59414285Y-129224523D01*
X59366666Y-129319761D01*
X59271428Y-129367380D01*
X59176190Y-129367380D01*
X58842857Y-129367380D02*
X58842857Y-128367380D01*
X58414285Y-129367380D02*
X58414285Y-128843571D01*
X58461904Y-128748333D01*
X58557142Y-128700714D01*
X58700000Y-128700714D01*
X58795238Y-128748333D01*
X58842857Y-128795952D01*
X57509523Y-128700714D02*
X57509523Y-129367380D01*
X57938095Y-128700714D02*
X57938095Y-129224523D01*
X57890476Y-129319761D01*
X57795238Y-129367380D01*
X57652380Y-129367380D01*
X57557142Y-129319761D01*
X57509523Y-129272142D01*
X57033333Y-129367380D02*
X57033333Y-128367380D01*
X57033333Y-128748333D02*
X56938095Y-128700714D01*
X56747619Y-128700714D01*
X56652380Y-128748333D01*
X56604761Y-128795952D01*
X56557142Y-128891190D01*
X56557142Y-129176904D01*
X56604761Y-129272142D01*
X56652380Y-129319761D01*
X56747619Y-129367380D01*
X56938095Y-129367380D01*
X57033333Y-129319761D01*
X56128571Y-129272142D02*
X56080952Y-129319761D01*
X56128571Y-129367380D01*
X56176190Y-129319761D01*
X56128571Y-129272142D01*
X56128571Y-129367380D01*
X55652380Y-129367380D02*
X55652380Y-128700714D01*
X55652380Y-128367380D02*
X55700000Y-128415000D01*
X55652380Y-128462619D01*
X55604761Y-128415000D01*
X55652380Y-128367380D01*
X55652380Y-128462619D01*
X55033333Y-129367380D02*
X55128571Y-129319761D01*
X55176190Y-129272142D01*
X55223809Y-129176904D01*
X55223809Y-128891190D01*
X55176190Y-128795952D01*
X55128571Y-128748333D01*
X55033333Y-128700714D01*
X54890476Y-128700714D01*
X54795238Y-128748333D01*
X54747619Y-128795952D01*
X54700000Y-128891190D01*
X54700000Y-129176904D01*
X54747619Y-129272142D01*
X54795238Y-129319761D01*
X54890476Y-129367380D01*
X55033333Y-129367380D01*
D12*
%TO.C,PS3*%
X139383333Y-83050000D02*
X137983333Y-83050000D01*
X137983333Y-83583333D01*
X138050000Y-83716666D01*
X138116666Y-83783333D01*
X138250000Y-83850000D01*
X138450000Y-83850000D01*
X138583333Y-83783333D01*
X138650000Y-83716666D01*
X138716666Y-83583333D01*
X138716666Y-83050000D01*
X139316666Y-84383333D02*
X139383333Y-84583333D01*
X139383333Y-84916666D01*
X139316666Y-85050000D01*
X139250000Y-85116666D01*
X139116666Y-85183333D01*
X138983333Y-85183333D01*
X138850000Y-85116666D01*
X138783333Y-85050000D01*
X138716666Y-84916666D01*
X138650000Y-84650000D01*
X138583333Y-84516666D01*
X138516666Y-84450000D01*
X138383333Y-84383333D01*
X138250000Y-84383333D01*
X138116666Y-84450000D01*
X138050000Y-84516666D01*
X137983333Y-84650000D01*
X137983333Y-84983333D01*
X138050000Y-85183333D01*
X137983333Y-85650000D02*
X137983333Y-86516666D01*
X138516666Y-86050000D01*
X138516666Y-86250000D01*
X138583333Y-86383333D01*
X138650000Y-86450000D01*
X138783333Y-86516666D01*
X139116666Y-86516666D01*
X139250000Y-86450000D01*
X139316666Y-86383333D01*
X139383333Y-86250000D01*
X139383333Y-85850000D01*
X139316666Y-85716666D01*
X139250000Y-85650000D01*
D11*
%TO.C,Brd1*%
X131316666Y-43928571D02*
X131173809Y-43976190D01*
X131126190Y-44023809D01*
X131078571Y-44119047D01*
X131078571Y-44261904D01*
X131126190Y-44357142D01*
X131173809Y-44404761D01*
X131269047Y-44452380D01*
X131650000Y-44452380D01*
X131650000Y-43452380D01*
X131316666Y-43452380D01*
X131221428Y-43500000D01*
X131173809Y-43547619D01*
X131126190Y-43642857D01*
X131126190Y-43738095D01*
X131173809Y-43833333D01*
X131221428Y-43880952D01*
X131316666Y-43928571D01*
X131650000Y-43928571D01*
X130650000Y-44452380D02*
X130650000Y-43785714D01*
X130650000Y-43976190D02*
X130602380Y-43880952D01*
X130554761Y-43833333D01*
X130459523Y-43785714D01*
X130364285Y-43785714D01*
X129602380Y-44452380D02*
X129602380Y-43452380D01*
X129602380Y-44404761D02*
X129697619Y-44452380D01*
X129888095Y-44452380D01*
X129983333Y-44404761D01*
X130030952Y-44357142D01*
X130078571Y-44261904D01*
X130078571Y-43976190D01*
X130030952Y-43880952D01*
X129983333Y-43833333D01*
X129888095Y-43785714D01*
X129697619Y-43785714D01*
X129602380Y-43833333D01*
X128602380Y-44452380D02*
X129173809Y-44452380D01*
X128888095Y-44452380D02*
X128888095Y-43452380D01*
X128983333Y-43595238D01*
X129078571Y-43690476D01*
X129173809Y-43738095D01*
D12*
%TO.C,PS2*%
X125383333Y-83050000D02*
X123983333Y-83050000D01*
X123983333Y-83583333D01*
X124050000Y-83716666D01*
X124116666Y-83783333D01*
X124250000Y-83850000D01*
X124450000Y-83850000D01*
X124583333Y-83783333D01*
X124650000Y-83716666D01*
X124716666Y-83583333D01*
X124716666Y-83050000D01*
X125316666Y-84383333D02*
X125383333Y-84583333D01*
X125383333Y-84916666D01*
X125316666Y-85050000D01*
X125250000Y-85116666D01*
X125116666Y-85183333D01*
X124983333Y-85183333D01*
X124850000Y-85116666D01*
X124783333Y-85050000D01*
X124716666Y-84916666D01*
X124650000Y-84650000D01*
X124583333Y-84516666D01*
X124516666Y-84450000D01*
X124383333Y-84383333D01*
X124250000Y-84383333D01*
X124116666Y-84450000D01*
X124050000Y-84516666D01*
X123983333Y-84650000D01*
X123983333Y-84983333D01*
X124050000Y-85183333D01*
X124116666Y-85716666D02*
X124050000Y-85783333D01*
X123983333Y-85916666D01*
X123983333Y-86250000D01*
X124050000Y-86383333D01*
X124116666Y-86450000D01*
X124250000Y-86516666D01*
X124383333Y-86516666D01*
X124583333Y-86450000D01*
X125383333Y-85650000D01*
X125383333Y-86516666D01*
%TO.C,PS1*%
X111633333Y-83050000D02*
X110233333Y-83050000D01*
X110233333Y-83583333D01*
X110300000Y-83716666D01*
X110366666Y-83783333D01*
X110500000Y-83850000D01*
X110700000Y-83850000D01*
X110833333Y-83783333D01*
X110900000Y-83716666D01*
X110966666Y-83583333D01*
X110966666Y-83050000D01*
X111566666Y-84383333D02*
X111633333Y-84583333D01*
X111633333Y-84916666D01*
X111566666Y-85050000D01*
X111500000Y-85116666D01*
X111366666Y-85183333D01*
X111233333Y-85183333D01*
X111100000Y-85116666D01*
X111033333Y-85050000D01*
X110966666Y-84916666D01*
X110900000Y-84650000D01*
X110833333Y-84516666D01*
X110766666Y-84450000D01*
X110633333Y-84383333D01*
X110500000Y-84383333D01*
X110366666Y-84450000D01*
X110300000Y-84516666D01*
X110233333Y-84650000D01*
X110233333Y-84983333D01*
X110300000Y-85183333D01*
X111633333Y-86516666D02*
X111633333Y-85716666D01*
X111633333Y-86116666D02*
X110233333Y-86116666D01*
X110433333Y-85983333D01*
X110566666Y-85850000D01*
X110633333Y-85716666D01*
D13*
%TO.C,REF\u002A\u002A*%
X82722281Y-67332571D02*
X82668086Y-67238877D01*
X82668086Y-67238877D02*
X82614293Y-67173736D01*
X82614293Y-67173736D02*
X82557934Y-67126093D01*
X82557934Y-67126093D02*
X82489013Y-67093272D01*
X82489013Y-67093272D02*
X82397532Y-67072594D01*
X82397532Y-67072594D02*
X82273494Y-67061380D01*
X82273494Y-67061380D02*
X82106902Y-67056951D01*
X82106902Y-67056951D02*
X81987149Y-67056437D01*
X81987149Y-67056437D02*
X81546341Y-67056437D01*
X81546341Y-67056437D02*
X81490717Y-67180517D01*
X81490717Y-67180517D02*
X81435093Y-67304598D01*
X81435093Y-67304598D02*
X81917905Y-67319195D01*
X81917905Y-67319195D02*
X82098221Y-67325227D01*
X82098221Y-67325227D02*
X82229099Y-67331555D01*
X82229099Y-67331555D02*
X82319489Y-67339394D01*
X82319489Y-67339394D02*
X82378336Y-67349963D01*
X82378336Y-67349963D02*
X82414587Y-67364477D01*
X82414587Y-67364477D02*
X82437190Y-67384152D01*
X82437190Y-67384152D02*
X82442083Y-67390465D01*
X82442083Y-67390465D02*
X82480294Y-67486112D01*
X82480294Y-67486112D02*
X82465173Y-67582793D01*
X82465173Y-67582793D02*
X82425057Y-67640345D01*
X82425057Y-67640345D02*
X82396630Y-67663755D01*
X82396630Y-67663755D02*
X82359328Y-67679961D01*
X82359328Y-67679961D02*
X82302777Y-67690259D01*
X82302777Y-67690259D02*
X82216606Y-67695951D01*
X82216606Y-67695951D02*
X82090442Y-67698336D01*
X82090442Y-67698336D02*
X81958958Y-67698736D01*
X81958958Y-67698736D02*
X81794001Y-67698814D01*
X81794001Y-67698814D02*
X81677239Y-67701639D01*
X81677239Y-67701639D02*
X81598490Y-67711093D01*
X81598490Y-67711093D02*
X81547569Y-67731060D01*
X81547569Y-67731060D02*
X81514294Y-67765424D01*
X81514294Y-67765424D02*
X81488480Y-67818068D01*
X81488480Y-67818068D02*
X81461656Y-67888383D01*
X81461656Y-67888383D02*
X81432458Y-67965180D01*
X81432458Y-67965180D02*
X81950654Y-67956038D01*
X81950654Y-67956038D02*
X82137461Y-67952357D01*
X82137461Y-67952357D02*
X82275510Y-67948050D01*
X82275510Y-67948050D02*
X82374432Y-67941877D01*
X82374432Y-67941877D02*
X82443855Y-67932598D01*
X82443855Y-67932598D02*
X82493410Y-67918973D01*
X82493410Y-67918973D02*
X82532727Y-67899761D01*
X82532727Y-67899761D02*
X82567416Y-67876598D01*
X82567416Y-67876598D02*
X82678230Y-67764848D01*
X82678230Y-67764848D02*
X82742311Y-67628487D01*
X82742311Y-67628487D02*
X82757661Y-67480175D01*
X82757661Y-67480175D02*
X82722281Y-67332571D01*
X82722281Y-67332571D02*
X82722281Y-67332571D01*
G36*
X82106902Y-67056951D02*
G01*
X82273494Y-67061380D01*
X82397532Y-67072594D01*
X82489013Y-67093272D01*
X82557934Y-67126093D01*
X82614293Y-67173736D01*
X82668086Y-67238877D01*
X82722281Y-67332571D01*
X82757661Y-67480175D01*
X82742311Y-67628487D01*
X82678230Y-67764848D01*
X82567416Y-67876598D01*
X82532727Y-67899761D01*
X82493410Y-67918973D01*
X82443855Y-67932598D01*
X82374432Y-67941877D01*
X82275510Y-67948050D01*
X82137461Y-67952357D01*
X81950654Y-67956038D01*
X81432458Y-67965180D01*
X81461656Y-67888383D01*
X81488480Y-67818068D01*
X81514294Y-67765424D01*
X81547569Y-67731060D01*
X81598490Y-67711093D01*
X81677239Y-67701639D01*
X81794001Y-67698814D01*
X81958958Y-67698736D01*
X82090442Y-67698336D01*
X82216606Y-67695951D01*
X82302777Y-67690259D01*
X82359328Y-67679961D01*
X82396630Y-67663755D01*
X82425057Y-67640345D01*
X82465173Y-67582793D01*
X82480294Y-67486112D01*
X82442083Y-67390465D01*
X82437190Y-67384152D01*
X82414587Y-67364477D01*
X82378336Y-67349963D01*
X82319489Y-67339394D01*
X82229099Y-67331555D01*
X82098221Y-67325227D01*
X81917905Y-67319195D01*
X81435093Y-67304598D01*
X81490717Y-67180517D01*
X81546341Y-67056437D01*
X81987149Y-67056437D01*
X82106902Y-67056951D01*
G37*
X82106902Y-67056951D02*
X82273494Y-67061380D01*
X82397532Y-67072594D01*
X82489013Y-67093272D01*
X82557934Y-67126093D01*
X82614293Y-67173736D01*
X82668086Y-67238877D01*
X82722281Y-67332571D01*
X82757661Y-67480175D01*
X82742311Y-67628487D01*
X82678230Y-67764848D01*
X82567416Y-67876598D01*
X82532727Y-67899761D01*
X82493410Y-67918973D01*
X82443855Y-67932598D01*
X82374432Y-67941877D01*
X82275510Y-67948050D01*
X82137461Y-67952357D01*
X81950654Y-67956038D01*
X81432458Y-67965180D01*
X81461656Y-67888383D01*
X81488480Y-67818068D01*
X81514294Y-67765424D01*
X81547569Y-67731060D01*
X81598490Y-67711093D01*
X81677239Y-67701639D01*
X81794001Y-67698814D01*
X81958958Y-67698736D01*
X82090442Y-67698336D01*
X82216606Y-67695951D01*
X82302777Y-67690259D01*
X82359328Y-67679961D01*
X82396630Y-67663755D01*
X82425057Y-67640345D01*
X82465173Y-67582793D01*
X82480294Y-67486112D01*
X82442083Y-67390465D01*
X82437190Y-67384152D01*
X82414587Y-67364477D01*
X82378336Y-67349963D01*
X82319489Y-67339394D01*
X82229099Y-67331555D01*
X82098221Y-67325227D01*
X81917905Y-67319195D01*
X81435093Y-67304598D01*
X81490717Y-67180517D01*
X81546341Y-67056437D01*
X81987149Y-67056437D01*
X82106902Y-67056951D01*
X82659982Y-59414310D02*
X82644731Y-59379415D01*
X82644731Y-59379415D02*
X82578765Y-59296123D01*
X82578765Y-59296123D02*
X82483382Y-59224897D01*
X82483382Y-59224897D02*
X82381594Y-59180847D01*
X82381594Y-59180847D02*
X82331413Y-59173678D01*
X82331413Y-59173678D02*
X82261353Y-59197715D01*
X82261353Y-59197715D02*
X82224283Y-59250439D01*
X82224283Y-59250439D02*
X82201836Y-59306969D01*
X82201836Y-59306969D02*
X82197700Y-59332854D01*
X82197700Y-59332854D02*
X82227717Y-59345458D01*
X82227717Y-59345458D02*
X82293039Y-59370346D01*
X82293039Y-59370346D02*
X82322555Y-59381265D01*
X82322555Y-59381265D02*
X82424652Y-59442492D01*
X82424652Y-59442492D02*
X82475577Y-59531139D01*
X82475577Y-59531139D02*
X82474011Y-59644807D01*
X82474011Y-59644807D02*
X82472006Y-59653226D01*
X82472006Y-59653226D02*
X82443233Y-59713912D01*
X82443233Y-59713912D02*
X82387141Y-59758526D01*
X82387141Y-59758526D02*
X82296837Y-59788998D01*
X82296837Y-59788998D02*
X82165429Y-59807256D01*
X82165429Y-59807256D02*
X81986026Y-59815229D01*
X81986026Y-59815229D02*
X81890567Y-59815977D01*
X81890567Y-59815977D02*
X81740087Y-59816348D01*
X81740087Y-59816348D02*
X81637505Y-59818777D01*
X81637505Y-59818777D02*
X81572328Y-59825240D01*
X81572328Y-59825240D02*
X81534062Y-59837712D01*
X81534062Y-59837712D02*
X81512215Y-59858167D01*
X81512215Y-59858167D02*
X81496293Y-59888581D01*
X81496293Y-59888581D02*
X81495491Y-59890339D01*
X81495491Y-59890339D02*
X81470728Y-59948909D01*
X81470728Y-59948909D02*
X81461609Y-59977925D01*
X81461609Y-59977925D02*
X81489178Y-59982384D01*
X81489178Y-59982384D02*
X81565380Y-59986201D01*
X81565380Y-59986201D02*
X81680459Y-59989101D01*
X81680459Y-59989101D02*
X81824659Y-59990809D01*
X81824659Y-59990809D02*
X81930186Y-59991149D01*
X81930186Y-59991149D02*
X82134387Y-59989412D01*
X82134387Y-59989412D02*
X82289303Y-59982618D01*
X82289303Y-59982618D02*
X82403976Y-59968393D01*
X82403976Y-59968393D02*
X82487449Y-59944362D01*
X82487449Y-59944362D02*
X82548764Y-59908152D01*
X82548764Y-59908152D02*
X82596966Y-59857388D01*
X82596966Y-59857388D02*
X82630607Y-59807261D01*
X82630607Y-59807261D02*
X82675381Y-59686725D01*
X82675381Y-59686725D02*
X82685479Y-59546443D01*
X82685479Y-59546443D02*
X82659982Y-59414310D01*
X82659982Y-59414310D02*
X82659982Y-59414310D01*
G36*
X82381594Y-59180847D02*
G01*
X82483382Y-59224897D01*
X82578765Y-59296123D01*
X82644731Y-59379415D01*
X82659982Y-59414310D01*
X82685479Y-59546443D01*
X82675381Y-59686725D01*
X82630607Y-59807261D01*
X82596966Y-59857388D01*
X82548764Y-59908152D01*
X82487449Y-59944362D01*
X82403976Y-59968393D01*
X82289303Y-59982618D01*
X82134387Y-59989412D01*
X81930186Y-59991149D01*
X81824659Y-59990809D01*
X81680459Y-59989101D01*
X81565380Y-59986201D01*
X81489178Y-59982384D01*
X81461609Y-59977925D01*
X81470728Y-59948909D01*
X81495491Y-59890339D01*
X81496293Y-59888581D01*
X81512215Y-59858167D01*
X81534062Y-59837712D01*
X81572328Y-59825240D01*
X81637505Y-59818777D01*
X81740087Y-59816348D01*
X81890567Y-59815977D01*
X81986026Y-59815229D01*
X82165429Y-59807256D01*
X82296837Y-59788998D01*
X82387141Y-59758526D01*
X82443233Y-59713912D01*
X82472006Y-59653226D01*
X82474011Y-59644807D01*
X82475577Y-59531139D01*
X82424652Y-59442492D01*
X82322555Y-59381265D01*
X82293039Y-59370346D01*
X82227717Y-59345458D01*
X82197700Y-59332854D01*
X82201836Y-59306969D01*
X82224283Y-59250439D01*
X82261353Y-59197715D01*
X82331413Y-59173678D01*
X82381594Y-59180847D01*
G37*
X82381594Y-59180847D02*
X82483382Y-59224897D01*
X82578765Y-59296123D01*
X82644731Y-59379415D01*
X82659982Y-59414310D01*
X82685479Y-59546443D01*
X82675381Y-59686725D01*
X82630607Y-59807261D01*
X82596966Y-59857388D01*
X82548764Y-59908152D01*
X82487449Y-59944362D01*
X82403976Y-59968393D01*
X82289303Y-59982618D01*
X82134387Y-59989412D01*
X81930186Y-59991149D01*
X81824659Y-59990809D01*
X81680459Y-59989101D01*
X81565380Y-59986201D01*
X81489178Y-59982384D01*
X81461609Y-59977925D01*
X81470728Y-59948909D01*
X81495491Y-59890339D01*
X81496293Y-59888581D01*
X81512215Y-59858167D01*
X81534062Y-59837712D01*
X81572328Y-59825240D01*
X81637505Y-59818777D01*
X81740087Y-59816348D01*
X81890567Y-59815977D01*
X81986026Y-59815229D01*
X82165429Y-59807256D01*
X82296837Y-59788998D01*
X82387141Y-59758526D01*
X82443233Y-59713912D01*
X82472006Y-59653226D01*
X82474011Y-59644807D01*
X82475577Y-59531139D01*
X82424652Y-59442492D01*
X82322555Y-59381265D01*
X82293039Y-59370346D01*
X82227717Y-59345458D01*
X82197700Y-59332854D01*
X82201836Y-59306969D01*
X82224283Y-59250439D01*
X82261353Y-59197715D01*
X82331413Y-59173678D01*
X82381594Y-59180847D01*
X82738097Y-69578100D02*
X82682478Y-69466550D01*
X82682478Y-69466550D02*
X82580069Y-69368092D01*
X82580069Y-69368092D02*
X82542136Y-69340977D01*
X82542136Y-69340977D02*
X82492500Y-69311438D01*
X82492500Y-69311438D02*
X82438588Y-69292272D01*
X82438588Y-69292272D02*
X82366636Y-69281307D01*
X82366636Y-69281307D02*
X82262878Y-69276371D01*
X82262878Y-69276371D02*
X82125899Y-69275287D01*
X82125899Y-69275287D02*
X81938185Y-69280182D01*
X81938185Y-69280182D02*
X81797242Y-69297196D01*
X81797242Y-69297196D02*
X81692092Y-69329823D01*
X81692092Y-69329823D02*
X81611757Y-69381558D01*
X81611757Y-69381558D02*
X81545259Y-69455896D01*
X81545259Y-69455896D02*
X81541322Y-69461358D01*
X81541322Y-69461358D02*
X81501047Y-69534620D01*
X81501047Y-69534620D02*
X81481120Y-69622840D01*
X81481120Y-69622840D02*
X81476207Y-69735038D01*
X81476207Y-69735038D02*
X81476207Y-69917433D01*
X81476207Y-69917433D02*
X81299143Y-69917509D01*
X81299143Y-69917509D02*
X81200530Y-69919207D01*
X81200530Y-69919207D02*
X81142686Y-69929550D01*
X81142686Y-69929550D02*
X81107994Y-69956578D01*
X81107994Y-69956578D02*
X81078836Y-70008332D01*
X81078836Y-70008332D02*
X81072879Y-70020761D01*
X81072879Y-70020761D02*
X81044961Y-70078923D01*
X81044961Y-70078923D02*
X81027328Y-70123956D01*
X81027328Y-70123956D02*
X81025806Y-70157441D01*
X81025806Y-70157441D02*
X81046219Y-70180962D01*
X81046219Y-70180962D02*
X81094393Y-70196100D01*
X81094393Y-70196100D02*
X81176154Y-70204437D01*
X81176154Y-70204437D02*
X81297328Y-70207556D01*
X81297328Y-70207556D02*
X81463740Y-70207040D01*
X81463740Y-70207040D02*
X81681215Y-70204471D01*
X81681215Y-70204471D02*
X81746264Y-70203668D01*
X81746264Y-70203668D02*
X81970498Y-70200778D01*
X81970498Y-70200778D02*
X82117179Y-70198188D01*
X82117179Y-70198188D02*
X82117179Y-69917586D01*
X82117179Y-69917586D02*
X81992674Y-69916009D01*
X81992674Y-69916009D02*
X81911213Y-69909000D01*
X81911213Y-69909000D02*
X81857485Y-69893142D01*
X81857485Y-69893142D02*
X81816177Y-69865019D01*
X81816177Y-69865019D02*
X81796029Y-69845925D01*
X81796029Y-69845925D02*
X81737079Y-69767865D01*
X81737079Y-69767865D02*
X81732280Y-69698753D01*
X81732280Y-69698753D02*
X81780962Y-69627440D01*
X81780962Y-69627440D02*
X81782759Y-69625632D01*
X81782759Y-69625632D02*
X81820382Y-69596617D01*
X81820382Y-69596617D02*
X81871516Y-69578967D01*
X81871516Y-69578967D02*
X81950262Y-69570064D01*
X81950262Y-69570064D02*
X82070724Y-69567291D01*
X82070724Y-69567291D02*
X82097412Y-69567241D01*
X82097412Y-69567241D02*
X82263417Y-69573942D01*
X82263417Y-69573942D02*
X82378495Y-69595752D01*
X82378495Y-69595752D02*
X82448746Y-69635235D01*
X82448746Y-69635235D02*
X82480271Y-69694956D01*
X82480271Y-69694956D02*
X82483448Y-69729472D01*
X82483448Y-69729472D02*
X82468540Y-69811389D01*
X82468540Y-69811389D02*
X82419452Y-69867579D01*
X82419452Y-69867579D02*
X82329638Y-69901402D01*
X82329638Y-69901402D02*
X82192555Y-69916220D01*
X82192555Y-69916220D02*
X82117179Y-69917586D01*
X82117179Y-69917586D02*
X82117179Y-70198188D01*
X82117179Y-70198188D02*
X82144048Y-70197713D01*
X82144048Y-70197713D02*
X82274618Y-70193753D01*
X82274618Y-70193753D02*
X82369913Y-70188174D01*
X82369913Y-70188174D02*
X82437636Y-70180254D01*
X82437636Y-70180254D02*
X82485493Y-70169269D01*
X82485493Y-70169269D02*
X82521187Y-70154499D01*
X82521187Y-70154499D02*
X82552422Y-70135218D01*
X82552422Y-70135218D02*
X82564176Y-70126951D01*
X82564176Y-70126951D02*
X82675203Y-70017288D01*
X82675203Y-70017288D02*
X82738153Y-69878635D01*
X82738153Y-69878635D02*
X82755703Y-69718246D01*
X82755703Y-69718246D02*
X82738097Y-69578100D01*
X82738097Y-69578100D02*
X82738097Y-69578100D01*
G36*
X81970498Y-70200778D02*
G01*
X81746264Y-70203668D01*
X81681215Y-70204471D01*
X81463740Y-70207040D01*
X81297328Y-70207556D01*
X81176154Y-70204437D01*
X81094393Y-70196100D01*
X81046219Y-70180962D01*
X81025806Y-70157441D01*
X81027328Y-70123956D01*
X81044961Y-70078923D01*
X81072879Y-70020761D01*
X81078836Y-70008332D01*
X81107994Y-69956578D01*
X81142686Y-69929550D01*
X81200530Y-69919207D01*
X81299143Y-69917509D01*
X81476207Y-69917433D01*
X81476207Y-69735038D01*
X81477796Y-69698753D01*
X81732280Y-69698753D01*
X81737079Y-69767865D01*
X81796029Y-69845925D01*
X81816177Y-69865019D01*
X81857485Y-69893142D01*
X81911213Y-69909000D01*
X81992674Y-69916009D01*
X82117179Y-69917586D01*
X82192555Y-69916220D01*
X82329638Y-69901402D01*
X82419452Y-69867579D01*
X82468540Y-69811389D01*
X82483448Y-69729472D01*
X82480271Y-69694956D01*
X82448746Y-69635235D01*
X82378495Y-69595752D01*
X82263417Y-69573942D01*
X82097412Y-69567241D01*
X82070724Y-69567291D01*
X81950262Y-69570064D01*
X81871516Y-69578967D01*
X81820382Y-69596617D01*
X81782759Y-69625632D01*
X81780962Y-69627440D01*
X81732280Y-69698753D01*
X81477796Y-69698753D01*
X81481120Y-69622840D01*
X81501047Y-69534620D01*
X81541322Y-69461358D01*
X81545259Y-69455896D01*
X81611757Y-69381558D01*
X81692092Y-69329823D01*
X81797242Y-69297196D01*
X81938185Y-69280182D01*
X82125899Y-69275287D01*
X82262878Y-69276371D01*
X82366636Y-69281307D01*
X82438588Y-69292272D01*
X82492500Y-69311438D01*
X82542136Y-69340977D01*
X82580069Y-69368092D01*
X82682478Y-69466550D01*
X82738097Y-69578100D01*
X82755703Y-69718246D01*
X82738153Y-69878635D01*
X82675203Y-70017288D01*
X82564176Y-70126951D01*
X82552422Y-70135218D01*
X82521187Y-70154499D01*
X82485493Y-70169269D01*
X82437636Y-70180254D01*
X82369913Y-70188174D01*
X82274618Y-70193753D01*
X82144048Y-70197713D01*
X82117179Y-70198188D01*
X81970498Y-70200778D01*
G37*
X81970498Y-70200778D02*
X81746264Y-70203668D01*
X81681215Y-70204471D01*
X81463740Y-70207040D01*
X81297328Y-70207556D01*
X81176154Y-70204437D01*
X81094393Y-70196100D01*
X81046219Y-70180962D01*
X81025806Y-70157441D01*
X81027328Y-70123956D01*
X81044961Y-70078923D01*
X81072879Y-70020761D01*
X81078836Y-70008332D01*
X81107994Y-69956578D01*
X81142686Y-69929550D01*
X81200530Y-69919207D01*
X81299143Y-69917509D01*
X81476207Y-69917433D01*
X81476207Y-69735038D01*
X81477796Y-69698753D01*
X81732280Y-69698753D01*
X81737079Y-69767865D01*
X81796029Y-69845925D01*
X81816177Y-69865019D01*
X81857485Y-69893142D01*
X81911213Y-69909000D01*
X81992674Y-69916009D01*
X82117179Y-69917586D01*
X82192555Y-69916220D01*
X82329638Y-69901402D01*
X82419452Y-69867579D01*
X82468540Y-69811389D01*
X82483448Y-69729472D01*
X82480271Y-69694956D01*
X82448746Y-69635235D01*
X82378495Y-69595752D01*
X82263417Y-69573942D01*
X82097412Y-69567241D01*
X82070724Y-69567291D01*
X81950262Y-69570064D01*
X81871516Y-69578967D01*
X81820382Y-69596617D01*
X81782759Y-69625632D01*
X81780962Y-69627440D01*
X81732280Y-69698753D01*
X81477796Y-69698753D01*
X81481120Y-69622840D01*
X81501047Y-69534620D01*
X81541322Y-69461358D01*
X81545259Y-69455896D01*
X81611757Y-69381558D01*
X81692092Y-69329823D01*
X81797242Y-69297196D01*
X81938185Y-69280182D01*
X82125899Y-69275287D01*
X82262878Y-69276371D01*
X82366636Y-69281307D01*
X82438588Y-69292272D01*
X82492500Y-69311438D01*
X82542136Y-69340977D01*
X82580069Y-69368092D01*
X82682478Y-69466550D01*
X82738097Y-69578100D01*
X82755703Y-69718246D01*
X82738153Y-69878635D01*
X82675203Y-70017288D01*
X82564176Y-70126951D01*
X82552422Y-70135218D01*
X82521187Y-70154499D01*
X82485493Y-70169269D01*
X82437636Y-70180254D01*
X82369913Y-70188174D01*
X82274618Y-70193753D01*
X82144048Y-70197713D01*
X82117179Y-70198188D01*
X81970498Y-70200778D01*
X82643460Y-58406561D02*
X82567966Y-58291050D01*
X82567966Y-58291050D02*
X82500383Y-58235336D01*
X82500383Y-58235336D02*
X82377745Y-58191196D01*
X82377745Y-58191196D02*
X82280702Y-58187691D01*
X82280702Y-58187691D02*
X82150944Y-58195632D01*
X82150944Y-58195632D02*
X82019961Y-58494885D01*
X82019961Y-58494885D02*
X81953042Y-58640389D01*
X81953042Y-58640389D02*
X81899210Y-58735463D01*
X81899210Y-58735463D02*
X81852584Y-58784899D01*
X81852584Y-58784899D02*
X81807280Y-58793489D01*
X81807280Y-58793489D02*
X81757418Y-58766028D01*
X81757418Y-58766028D02*
X81724368Y-58735747D01*
X81724368Y-58735747D02*
X81671367Y-58647637D01*
X81671367Y-58647637D02*
X81667653Y-58551804D01*
X81667653Y-58551804D02*
X81708959Y-58463788D01*
X81708959Y-58463788D02*
X81791017Y-58399131D01*
X81791017Y-58399131D02*
X81819992Y-58387567D01*
X81819992Y-58387567D02*
X81910491Y-58332175D01*
X81910491Y-58332175D02*
X81949060Y-58268447D01*
X81949060Y-58268447D02*
X81982054Y-58181034D01*
X81982054Y-58181034D02*
X81856966Y-58181034D01*
X81856966Y-58181034D02*
X81771844Y-58188762D01*
X81771844Y-58188762D02*
X81700062Y-58219034D01*
X81700062Y-58219034D02*
X81617644Y-58282482D01*
X81617644Y-58282482D02*
X81606934Y-58291912D01*
X81606934Y-58291912D02*
X81533609Y-58362487D01*
X81533609Y-58362487D02*
X81494258Y-58423153D01*
X81494258Y-58423153D02*
X81476155Y-58499050D01*
X81476155Y-58499050D02*
X81470226Y-58561970D01*
X81470226Y-58561970D02*
X81468749Y-58674513D01*
X81468749Y-58674513D02*
X81487465Y-58754630D01*
X81487465Y-58754630D02*
X81515253Y-58804610D01*
X81515253Y-58804610D02*
X81576359Y-58883162D01*
X81576359Y-58883162D02*
X81642446Y-58937537D01*
X81642446Y-58937537D02*
X81725559Y-58971948D01*
X81725559Y-58971948D02*
X81837746Y-58990612D01*
X81837746Y-58990612D02*
X81991054Y-58997744D01*
X81991054Y-58997744D02*
X82068864Y-58998313D01*
X82068864Y-58998313D02*
X82162147Y-58996378D01*
X82162147Y-58996378D02*
X82162147Y-58820101D01*
X82162147Y-58820101D02*
X82112104Y-58818056D01*
X82112104Y-58818056D02*
X82103908Y-58812961D01*
X82103908Y-58812961D02*
X82115042Y-58779334D01*
X82115042Y-58779334D02*
X82144507Y-58706970D01*
X82144507Y-58706970D02*
X82186399Y-58610253D01*
X82186399Y-58610253D02*
X82195403Y-58590027D01*
X82195403Y-58590027D02*
X82257558Y-58467797D01*
X82257558Y-58467797D02*
X82312185Y-58400453D01*
X82312185Y-58400453D02*
X82363351Y-58385652D01*
X82363351Y-58385652D02*
X82415124Y-58421053D01*
X82415124Y-58421053D02*
X82438000Y-58450289D01*
X82438000Y-58450289D02*
X82483750Y-58555784D01*
X82483750Y-58555784D02*
X82476192Y-58654524D01*
X82476192Y-58654524D02*
X82420349Y-58737188D01*
X82420349Y-58737188D02*
X82321247Y-58794452D01*
X82321247Y-58794452D02*
X82242586Y-58812812D01*
X82242586Y-58812812D02*
X82162147Y-58820101D01*
X82162147Y-58820101D02*
X82162147Y-58996378D01*
X82162147Y-58996378D02*
X82250649Y-58994541D01*
X82250649Y-58994541D02*
X82385147Y-58980641D01*
X82385147Y-58980641D02*
X82483084Y-58953106D01*
X82483084Y-58953106D02*
X82555189Y-58908428D01*
X82555189Y-58908428D02*
X82612187Y-58843099D01*
X82612187Y-58843099D02*
X82630607Y-58814617D01*
X82630607Y-58814617D02*
X82678578Y-58685237D01*
X82678578Y-58685237D02*
X82681597Y-58543588D01*
X82681597Y-58543588D02*
X82643460Y-58406561D01*
X82643460Y-58406561D02*
X82643460Y-58406561D01*
G36*
X82068864Y-58998313D02*
G01*
X81991054Y-58997744D01*
X81837746Y-58990612D01*
X81725559Y-58971948D01*
X81642446Y-58937537D01*
X81576359Y-58883162D01*
X81521749Y-58812961D01*
X82103908Y-58812961D01*
X82112104Y-58818056D01*
X82162147Y-58820101D01*
X82242586Y-58812812D01*
X82321247Y-58794452D01*
X82420349Y-58737188D01*
X82476192Y-58654524D01*
X82483750Y-58555784D01*
X82438000Y-58450289D01*
X82415124Y-58421053D01*
X82363351Y-58385652D01*
X82312185Y-58400453D01*
X82257558Y-58467797D01*
X82195403Y-58590027D01*
X82186399Y-58610253D01*
X82144507Y-58706970D01*
X82115042Y-58779334D01*
X82103908Y-58812961D01*
X81521749Y-58812961D01*
X81515253Y-58804610D01*
X81487465Y-58754630D01*
X81468749Y-58674513D01*
X81470226Y-58561970D01*
X81476155Y-58499050D01*
X81494258Y-58423153D01*
X81533609Y-58362487D01*
X81606934Y-58291912D01*
X81617644Y-58282482D01*
X81700062Y-58219034D01*
X81771844Y-58188762D01*
X81856966Y-58181034D01*
X81982054Y-58181034D01*
X81949060Y-58268447D01*
X81910491Y-58332175D01*
X81819992Y-58387567D01*
X81791017Y-58399131D01*
X81708959Y-58463788D01*
X81667653Y-58551804D01*
X81671367Y-58647637D01*
X81724368Y-58735747D01*
X81757418Y-58766028D01*
X81807280Y-58793489D01*
X81852584Y-58784899D01*
X81899210Y-58735463D01*
X81953042Y-58640389D01*
X82019961Y-58494885D01*
X82150944Y-58195632D01*
X82280702Y-58187691D01*
X82377745Y-58191196D01*
X82500383Y-58235336D01*
X82567966Y-58291050D01*
X82643460Y-58406561D01*
X82681597Y-58543588D01*
X82678578Y-58685237D01*
X82630607Y-58814617D01*
X82612187Y-58843099D01*
X82555189Y-58908428D01*
X82483084Y-58953106D01*
X82385147Y-58980641D01*
X82250649Y-58994541D01*
X82162147Y-58996378D01*
X82068864Y-58998313D01*
G37*
X82068864Y-58998313D02*
X81991054Y-58997744D01*
X81837746Y-58990612D01*
X81725559Y-58971948D01*
X81642446Y-58937537D01*
X81576359Y-58883162D01*
X81521749Y-58812961D01*
X82103908Y-58812961D01*
X82112104Y-58818056D01*
X82162147Y-58820101D01*
X82242586Y-58812812D01*
X82321247Y-58794452D01*
X82420349Y-58737188D01*
X82476192Y-58654524D01*
X82483750Y-58555784D01*
X82438000Y-58450289D01*
X82415124Y-58421053D01*
X82363351Y-58385652D01*
X82312185Y-58400453D01*
X82257558Y-58467797D01*
X82195403Y-58590027D01*
X82186399Y-58610253D01*
X82144507Y-58706970D01*
X82115042Y-58779334D01*
X82103908Y-58812961D01*
X81521749Y-58812961D01*
X81515253Y-58804610D01*
X81487465Y-58754630D01*
X81468749Y-58674513D01*
X81470226Y-58561970D01*
X81476155Y-58499050D01*
X81494258Y-58423153D01*
X81533609Y-58362487D01*
X81606934Y-58291912D01*
X81617644Y-58282482D01*
X81700062Y-58219034D01*
X81771844Y-58188762D01*
X81856966Y-58181034D01*
X81982054Y-58181034D01*
X81949060Y-58268447D01*
X81910491Y-58332175D01*
X81819992Y-58387567D01*
X81791017Y-58399131D01*
X81708959Y-58463788D01*
X81667653Y-58551804D01*
X81671367Y-58647637D01*
X81724368Y-58735747D01*
X81757418Y-58766028D01*
X81807280Y-58793489D01*
X81852584Y-58784899D01*
X81899210Y-58735463D01*
X81953042Y-58640389D01*
X82019961Y-58494885D01*
X82150944Y-58195632D01*
X82280702Y-58187691D01*
X82377745Y-58191196D01*
X82500383Y-58235336D01*
X82567966Y-58291050D01*
X82643460Y-58406561D01*
X82681597Y-58543588D01*
X82678578Y-58685237D01*
X82630607Y-58814617D01*
X82612187Y-58843099D01*
X82555189Y-58908428D01*
X82483084Y-58953106D01*
X82385147Y-58980641D01*
X82250649Y-58994541D01*
X82162147Y-58996378D01*
X82068864Y-58998313D01*
X82733985Y-70701779D02*
X82662032Y-70564939D01*
X82662032Y-70564939D02*
X82546234Y-70463949D01*
X82546234Y-70463949D02*
X82471787Y-70428075D01*
X82471787Y-70428075D02*
X82360008Y-70400161D01*
X82360008Y-70400161D02*
X82218773Y-70385871D01*
X82218773Y-70385871D02*
X82064629Y-70384516D01*
X82064629Y-70384516D02*
X81914121Y-70395405D01*
X81914121Y-70395405D02*
X81783795Y-70417847D01*
X81783795Y-70417847D02*
X81690197Y-70451150D01*
X81690197Y-70451150D02*
X81674078Y-70461385D01*
X81674078Y-70461385D02*
X81553751Y-70582618D01*
X81553751Y-70582618D02*
X81481683Y-70726613D01*
X81481683Y-70726613D02*
X81460592Y-70882861D01*
X81460592Y-70882861D02*
X81493198Y-71040852D01*
X81493198Y-71040852D02*
X81512747Y-71084820D01*
X81512747Y-71084820D02*
X81572988Y-71170444D01*
X81572988Y-71170444D02*
X81652865Y-71245592D01*
X81652865Y-71245592D02*
X81662996Y-71252694D01*
X81662996Y-71252694D02*
X81711819Y-71281561D01*
X81711819Y-71281561D02*
X81764010Y-71300643D01*
X81764010Y-71300643D02*
X81832715Y-71311916D01*
X81832715Y-71311916D02*
X81931082Y-71317355D01*
X81931082Y-71317355D02*
X82072256Y-71318938D01*
X82072256Y-71318938D02*
X82103908Y-71318965D01*
X82103908Y-71318965D02*
X82113981Y-71318893D01*
X82113981Y-71318893D02*
X82113981Y-71027011D01*
X82113981Y-71027011D02*
X81980744Y-71025313D01*
X81980744Y-71025313D02*
X81892326Y-71018628D01*
X81892326Y-71018628D02*
X81835215Y-71004575D01*
X81835215Y-71004575D02*
X81795898Y-70980771D01*
X81795898Y-70980771D02*
X81782759Y-70968621D01*
X81782759Y-70968621D02*
X81732828Y-70898764D01*
X81732828Y-70898764D02*
X81735105Y-70830941D01*
X81735105Y-70830941D02*
X81778416Y-70762365D01*
X81778416Y-70762365D02*
X81824654Y-70721465D01*
X81824654Y-70721465D02*
X81892143Y-70697242D01*
X81892143Y-70697242D02*
X81998567Y-70683639D01*
X81998567Y-70683639D02*
X82010980Y-70682706D01*
X82010980Y-70682706D02*
X82203853Y-70680384D01*
X82203853Y-70680384D02*
X82347100Y-70704650D01*
X82347100Y-70704650D02*
X82439840Y-70755176D01*
X82439840Y-70755176D02*
X82481193Y-70831632D01*
X82481193Y-70831632D02*
X82483448Y-70858924D01*
X82483448Y-70858924D02*
X82472107Y-70930589D01*
X82472107Y-70930589D02*
X82432816Y-70979610D01*
X82432816Y-70979610D02*
X82357674Y-71009582D01*
X82357674Y-71009582D02*
X82238778Y-71024101D01*
X82238778Y-71024101D02*
X82113981Y-71027011D01*
X82113981Y-71027011D02*
X82113981Y-71318893D01*
X82113981Y-71318893D02*
X82254341Y-71317878D01*
X82254341Y-71317878D02*
X82359451Y-71313312D01*
X82359451Y-71313312D02*
X82432286Y-71303312D01*
X82432286Y-71303312D02*
X82485892Y-71285921D01*
X82485892Y-71285921D02*
X82533319Y-71259184D01*
X82533319Y-71259184D02*
X82542136Y-71253276D01*
X82542136Y-71253276D02*
X82660993Y-71153968D01*
X82660993Y-71153968D02*
X82729992Y-71045758D01*
X82729992Y-71045758D02*
X82757381Y-70914019D01*
X82757381Y-70914019D02*
X82758719Y-70869283D01*
X82758719Y-70869283D02*
X82733985Y-70701779D01*
X82733985Y-70701779D02*
X82733985Y-70701779D01*
G36*
X82103908Y-71318965D02*
G01*
X82072256Y-71318938D01*
X81931082Y-71317355D01*
X81832715Y-71311916D01*
X81764010Y-71300643D01*
X81711819Y-71281561D01*
X81662996Y-71252694D01*
X81652865Y-71245592D01*
X81572988Y-71170444D01*
X81512747Y-71084820D01*
X81493198Y-71040852D01*
X81463874Y-70898764D01*
X81732828Y-70898764D01*
X81782759Y-70968621D01*
X81795898Y-70980771D01*
X81835215Y-71004575D01*
X81892326Y-71018628D01*
X81980744Y-71025313D01*
X82113981Y-71027011D01*
X82238778Y-71024101D01*
X82357674Y-71009582D01*
X82432816Y-70979610D01*
X82472107Y-70930589D01*
X82483448Y-70858924D01*
X82481193Y-70831632D01*
X82439840Y-70755176D01*
X82347100Y-70704650D01*
X82203853Y-70680384D01*
X82010980Y-70682706D01*
X81998567Y-70683639D01*
X81892143Y-70697242D01*
X81824654Y-70721465D01*
X81778416Y-70762365D01*
X81735105Y-70830941D01*
X81732828Y-70898764D01*
X81463874Y-70898764D01*
X81460592Y-70882861D01*
X81481683Y-70726613D01*
X81553751Y-70582618D01*
X81674078Y-70461385D01*
X81690197Y-70451150D01*
X81783795Y-70417847D01*
X81914121Y-70395405D01*
X82064629Y-70384516D01*
X82218773Y-70385871D01*
X82360008Y-70400161D01*
X82471787Y-70428075D01*
X82546234Y-70463949D01*
X82662032Y-70564939D01*
X82733985Y-70701779D01*
X82758719Y-70869283D01*
X82757381Y-70914019D01*
X82729992Y-71045758D01*
X82660993Y-71153968D01*
X82542136Y-71253276D01*
X82533319Y-71259184D01*
X82485892Y-71285921D01*
X82432286Y-71303312D01*
X82359451Y-71313312D01*
X82254341Y-71317878D01*
X82113981Y-71318893D01*
X82103908Y-71318965D01*
G37*
X82103908Y-71318965D02*
X82072256Y-71318938D01*
X81931082Y-71317355D01*
X81832715Y-71311916D01*
X81764010Y-71300643D01*
X81711819Y-71281561D01*
X81662996Y-71252694D01*
X81652865Y-71245592D01*
X81572988Y-71170444D01*
X81512747Y-71084820D01*
X81493198Y-71040852D01*
X81463874Y-70898764D01*
X81732828Y-70898764D01*
X81782759Y-70968621D01*
X81795898Y-70980771D01*
X81835215Y-71004575D01*
X81892326Y-71018628D01*
X81980744Y-71025313D01*
X82113981Y-71027011D01*
X82238778Y-71024101D01*
X82357674Y-71009582D01*
X82432816Y-70979610D01*
X82472107Y-70930589D01*
X82483448Y-70858924D01*
X82481193Y-70831632D01*
X82439840Y-70755176D01*
X82347100Y-70704650D01*
X82203853Y-70680384D01*
X82010980Y-70682706D01*
X81998567Y-70683639D01*
X81892143Y-70697242D01*
X81824654Y-70721465D01*
X81778416Y-70762365D01*
X81735105Y-70830941D01*
X81732828Y-70898764D01*
X81463874Y-70898764D01*
X81460592Y-70882861D01*
X81481683Y-70726613D01*
X81553751Y-70582618D01*
X81674078Y-70461385D01*
X81690197Y-70451150D01*
X81783795Y-70417847D01*
X81914121Y-70395405D01*
X82064629Y-70384516D01*
X82218773Y-70385871D01*
X82360008Y-70400161D01*
X82471787Y-70428075D01*
X82546234Y-70463949D01*
X82662032Y-70564939D01*
X82733985Y-70701779D01*
X82758719Y-70869283D01*
X82757381Y-70914019D01*
X82729992Y-71045758D01*
X82660993Y-71153968D01*
X82542136Y-71253276D01*
X82533319Y-71259184D01*
X82485892Y-71285921D01*
X82432286Y-71303312D01*
X82359451Y-71313312D01*
X82254341Y-71317878D01*
X82113981Y-71318893D01*
X82103908Y-71318965D01*
X82664844Y-60435594D02*
X82626607Y-60351531D01*
X82626607Y-60351531D02*
X82580274Y-60285550D01*
X82580274Y-60285550D02*
X82528468Y-60237206D01*
X82528468Y-60237206D02*
X82461637Y-60203828D01*
X82461637Y-60203828D02*
X82370231Y-60182747D01*
X82370231Y-60182747D02*
X82244699Y-60171293D01*
X82244699Y-60171293D02*
X82075492Y-60166797D01*
X82075492Y-60166797D02*
X81964067Y-60166322D01*
X81964067Y-60166322D02*
X81529373Y-60166322D01*
X81529373Y-60166322D02*
X81495491Y-60240684D01*
X81495491Y-60240684D02*
X81470728Y-60299254D01*
X81470728Y-60299254D02*
X81461609Y-60328270D01*
X81461609Y-60328270D02*
X81488743Y-60333821D01*
X81488743Y-60333821D02*
X81561906Y-60338225D01*
X81561906Y-60338225D02*
X81668737Y-60340922D01*
X81668737Y-60340922D02*
X81753563Y-60341494D01*
X81753563Y-60341494D02*
X81876113Y-60343954D01*
X81876113Y-60343954D02*
X81973332Y-60350588D01*
X81973332Y-60350588D02*
X82032866Y-60360274D01*
X82032866Y-60360274D02*
X82045517Y-60367968D01*
X82045517Y-60367968D02*
X82032598Y-60419689D01*
X82032598Y-60419689D02*
X81999461Y-60500883D01*
X81999461Y-60500883D02*
X81954539Y-60594898D01*
X81954539Y-60594898D02*
X81906265Y-60685083D01*
X81906265Y-60685083D02*
X81863072Y-60754785D01*
X81863072Y-60754785D02*
X81833392Y-60787352D01*
X81833392Y-60787352D02*
X81833071Y-60787481D01*
X81833071Y-60787481D02*
X81778143Y-60784680D01*
X81778143Y-60784680D02*
X81725708Y-60759561D01*
X81725708Y-60759561D02*
X81683119Y-60715459D01*
X81683119Y-60715459D02*
X81668874Y-60651091D01*
X81668874Y-60651091D02*
X81670534Y-60596079D01*
X81670534Y-60596079D02*
X81671755Y-60518165D01*
X81671755Y-60518165D02*
X81653502Y-60477268D01*
X81653502Y-60477268D02*
X81605274Y-60452705D01*
X81605274Y-60452705D02*
X81596180Y-60449608D01*
X81596180Y-60449608D02*
X81527402Y-60438960D01*
X81527402Y-60438960D02*
X81485640Y-60467435D01*
X81485640Y-60467435D02*
X81465737Y-60541656D01*
X81465737Y-60541656D02*
X81462056Y-60621832D01*
X81462056Y-60621832D02*
X81489342Y-60766110D01*
X81489342Y-60766110D02*
X81528310Y-60840797D01*
X81528310Y-60840797D02*
X81619852Y-60933037D01*
X81619852Y-60933037D02*
X81732218Y-60981957D01*
X81732218Y-60981957D02*
X81850949Y-60986346D01*
X81850949Y-60986346D02*
X81961589Y-60944999D01*
X81961589Y-60944999D02*
X82030920Y-60882803D01*
X82030920Y-60882803D02*
X82069735Y-60820706D01*
X82069735Y-60820706D02*
X82118875Y-60723105D01*
X82118875Y-60723105D02*
X82168708Y-60609368D01*
X82168708Y-60609368D02*
X82176323Y-60590410D01*
X82176323Y-60590410D02*
X82231455Y-60465479D01*
X82231455Y-60465479D02*
X82280046Y-60393461D01*
X82280046Y-60393461D02*
X82328353Y-60370300D01*
X82328353Y-60370300D02*
X82382630Y-60391936D01*
X82382630Y-60391936D02*
X82425057Y-60429080D01*
X82425057Y-60429080D02*
X82477298Y-60516873D01*
X82477298Y-60516873D02*
X82481216Y-60613470D01*
X82481216Y-60613470D02*
X82440959Y-60702056D01*
X82440959Y-60702056D02*
X82360674Y-60765814D01*
X82360674Y-60765814D02*
X82339960Y-60774183D01*
X82339960Y-60774183D02*
X82263775Y-60822904D01*
X82263775Y-60822904D02*
X82207215Y-60894035D01*
X82207215Y-60894035D02*
X82160799Y-60983793D01*
X82160799Y-60983793D02*
X82292416Y-60983793D01*
X82292416Y-60983793D02*
X82372832Y-60978510D01*
X82372832Y-60978510D02*
X82436214Y-60955858D01*
X82436214Y-60955858D02*
X82503837Y-60905633D01*
X82503837Y-60905633D02*
X82555924Y-60857418D01*
X82555924Y-60857418D02*
X82629678Y-60782446D01*
X82629678Y-60782446D02*
X82669298Y-60724194D01*
X82669298Y-60724194D02*
X82685190Y-60661628D01*
X82685190Y-60661628D02*
X82687816Y-60590807D01*
X82687816Y-60590807D02*
X82664844Y-60435594D01*
X82664844Y-60435594D02*
X82664844Y-60435594D01*
G36*
X82075492Y-60166797D02*
G01*
X82244699Y-60171293D01*
X82370231Y-60182747D01*
X82461637Y-60203828D01*
X82528468Y-60237206D01*
X82580274Y-60285550D01*
X82626607Y-60351531D01*
X82664844Y-60435594D01*
X82687816Y-60590807D01*
X82685190Y-60661628D01*
X82669298Y-60724194D01*
X82629678Y-60782446D01*
X82555924Y-60857418D01*
X82503837Y-60905633D01*
X82436214Y-60955858D01*
X82372832Y-60978510D01*
X82292416Y-60983793D01*
X82160799Y-60983793D01*
X82207215Y-60894035D01*
X82263775Y-60822904D01*
X82339960Y-60774183D01*
X82360674Y-60765814D01*
X82440959Y-60702056D01*
X82481216Y-60613470D01*
X82477298Y-60516873D01*
X82425057Y-60429080D01*
X82382630Y-60391936D01*
X82328353Y-60370300D01*
X82280046Y-60393461D01*
X82231455Y-60465479D01*
X82176323Y-60590410D01*
X82168708Y-60609368D01*
X82118875Y-60723105D01*
X82069735Y-60820706D01*
X82030920Y-60882803D01*
X81961589Y-60944999D01*
X81850949Y-60986346D01*
X81732218Y-60981957D01*
X81619852Y-60933037D01*
X81528310Y-60840797D01*
X81489342Y-60766110D01*
X81462056Y-60621832D01*
X81465737Y-60541656D01*
X81485640Y-60467435D01*
X81527402Y-60438960D01*
X81596180Y-60449608D01*
X81605274Y-60452705D01*
X81653502Y-60477268D01*
X81671755Y-60518165D01*
X81670534Y-60596079D01*
X81668874Y-60651091D01*
X81683119Y-60715459D01*
X81725708Y-60759561D01*
X81778143Y-60784680D01*
X81833071Y-60787481D01*
X81833392Y-60787352D01*
X81863072Y-60754785D01*
X81906265Y-60685083D01*
X81954539Y-60594898D01*
X81999461Y-60500883D01*
X82032598Y-60419689D01*
X82045517Y-60367968D01*
X82032866Y-60360274D01*
X81973332Y-60350588D01*
X81876113Y-60343954D01*
X81753563Y-60341494D01*
X81668737Y-60340922D01*
X81561906Y-60338225D01*
X81488743Y-60333821D01*
X81461609Y-60328270D01*
X81470728Y-60299254D01*
X81495491Y-60240684D01*
X81529373Y-60166322D01*
X81964067Y-60166322D01*
X82075492Y-60166797D01*
G37*
X82075492Y-60166797D02*
X82244699Y-60171293D01*
X82370231Y-60182747D01*
X82461637Y-60203828D01*
X82528468Y-60237206D01*
X82580274Y-60285550D01*
X82626607Y-60351531D01*
X82664844Y-60435594D01*
X82687816Y-60590807D01*
X82685190Y-60661628D01*
X82669298Y-60724194D01*
X82629678Y-60782446D01*
X82555924Y-60857418D01*
X82503837Y-60905633D01*
X82436214Y-60955858D01*
X82372832Y-60978510D01*
X82292416Y-60983793D01*
X82160799Y-60983793D01*
X82207215Y-60894035D01*
X82263775Y-60822904D01*
X82339960Y-60774183D01*
X82360674Y-60765814D01*
X82440959Y-60702056D01*
X82481216Y-60613470D01*
X82477298Y-60516873D01*
X82425057Y-60429080D01*
X82382630Y-60391936D01*
X82328353Y-60370300D01*
X82280046Y-60393461D01*
X82231455Y-60465479D01*
X82176323Y-60590410D01*
X82168708Y-60609368D01*
X82118875Y-60723105D01*
X82069735Y-60820706D01*
X82030920Y-60882803D01*
X81961589Y-60944999D01*
X81850949Y-60986346D01*
X81732218Y-60981957D01*
X81619852Y-60933037D01*
X81528310Y-60840797D01*
X81489342Y-60766110D01*
X81462056Y-60621832D01*
X81465737Y-60541656D01*
X81485640Y-60467435D01*
X81527402Y-60438960D01*
X81596180Y-60449608D01*
X81605274Y-60452705D01*
X81653502Y-60477268D01*
X81671755Y-60518165D01*
X81670534Y-60596079D01*
X81668874Y-60651091D01*
X81683119Y-60715459D01*
X81725708Y-60759561D01*
X81778143Y-60784680D01*
X81833071Y-60787481D01*
X81833392Y-60787352D01*
X81863072Y-60754785D01*
X81906265Y-60685083D01*
X81954539Y-60594898D01*
X81999461Y-60500883D01*
X82032598Y-60419689D01*
X82045517Y-60367968D01*
X82032866Y-60360274D01*
X81973332Y-60350588D01*
X81876113Y-60343954D01*
X81753563Y-60341494D01*
X81668737Y-60340922D01*
X81561906Y-60338225D01*
X81488743Y-60333821D01*
X81461609Y-60328270D01*
X81470728Y-60299254D01*
X81495491Y-60240684D01*
X81529373Y-60166322D01*
X81964067Y-60166322D01*
X82075492Y-60166797D01*
X82675640Y-64670056D02*
X82633158Y-64555657D01*
X82633158Y-64555657D02*
X82632342Y-64554348D01*
X82632342Y-64554348D02*
X82580270Y-64483597D01*
X82580270Y-64483597D02*
X82519416Y-64431364D01*
X82519416Y-64431364D02*
X82440113Y-64394629D01*
X82440113Y-64394629D02*
X82332691Y-64370366D01*
X82332691Y-64370366D02*
X82187483Y-64355555D01*
X82187483Y-64355555D02*
X81994821Y-64347171D01*
X81994821Y-64347171D02*
X81967372Y-64346436D01*
X81967372Y-64346436D02*
X81553479Y-64335880D01*
X81553479Y-64335880D02*
X81507544Y-64424709D01*
X81507544Y-64424709D02*
X81476502Y-64488982D01*
X81476502Y-64488982D02*
X81461794Y-64527790D01*
X81461794Y-64527790D02*
X81461609Y-64529585D01*
X81461609Y-64529585D02*
X81488750Y-64536300D01*
X81488750Y-64536300D02*
X81561959Y-64541635D01*
X81561959Y-64541635D02*
X81668919Y-64544917D01*
X81668919Y-64544917D02*
X81755531Y-64545632D01*
X81755531Y-64545632D02*
X81895838Y-64545649D01*
X81895838Y-64545649D02*
X81983949Y-64552063D01*
X81983949Y-64552063D02*
X82025975Y-64574420D01*
X82025975Y-64574420D02*
X82028025Y-64622268D01*
X82028025Y-64622268D02*
X81996210Y-64705151D01*
X81996210Y-64705151D02*
X81937728Y-64830287D01*
X81937728Y-64830287D02*
X81889155Y-64922303D01*
X81889155Y-64922303D02*
X81847014Y-64969629D01*
X81847014Y-64969629D02*
X81801084Y-64983542D01*
X81801084Y-64983542D02*
X81798811Y-64983563D01*
X81798811Y-64983563D02*
X81719689Y-64960605D01*
X81719689Y-64960605D02*
X81676945Y-64892630D01*
X81676945Y-64892630D02*
X81670754Y-64788602D01*
X81670754Y-64788602D02*
X81671828Y-64713670D01*
X81671828Y-64713670D02*
X81650247Y-64674161D01*
X81650247Y-64674161D02*
X81598409Y-64649522D01*
X81598409Y-64649522D02*
X81532368Y-64635341D01*
X81532368Y-64635341D02*
X81494896Y-64655777D01*
X81494896Y-64655777D02*
X81489533Y-64663472D01*
X81489533Y-64663472D02*
X81467994Y-64735917D01*
X81467994Y-64735917D02*
X81464945Y-64837367D01*
X81464945Y-64837367D02*
X81479222Y-64941843D01*
X81479222Y-64941843D02*
X81505312Y-65015875D01*
X81505312Y-65015875D02*
X81592215Y-65118228D01*
X81592215Y-65118228D02*
X81713184Y-65176409D01*
X81713184Y-65176409D02*
X81807692Y-65187931D01*
X81807692Y-65187931D02*
X81892938Y-65179138D01*
X81892938Y-65179138D02*
X81962524Y-65147320D01*
X81962524Y-65147320D02*
X82024328Y-65084316D01*
X82024328Y-65084316D02*
X82086228Y-64981969D01*
X82086228Y-64981969D02*
X82156103Y-64832118D01*
X82156103Y-64832118D02*
X82160052Y-64822988D01*
X82160052Y-64822988D02*
X82222412Y-64688003D01*
X82222412Y-64688003D02*
X82273554Y-64604706D01*
X82273554Y-64604706D02*
X82319512Y-64569003D01*
X82319512Y-64569003D02*
X82366317Y-64576797D01*
X82366317Y-64576797D02*
X82420002Y-64623993D01*
X82420002Y-64623993D02*
X82432356Y-64638106D01*
X82432356Y-64638106D02*
X82480259Y-64732641D01*
X82480259Y-64732641D02*
X82478242Y-64830594D01*
X82478242Y-64830594D02*
X82431276Y-64915903D01*
X82431276Y-64915903D02*
X82344331Y-64972504D01*
X82344331Y-64972504D02*
X82327266Y-64977763D01*
X82327266Y-64977763D02*
X82244496Y-65028977D01*
X82244496Y-65028977D02*
X82204628Y-65093963D01*
X82204628Y-65093963D02*
X82165118Y-65187931D01*
X82165118Y-65187931D02*
X82267342Y-65187931D01*
X82267342Y-65187931D02*
X82415928Y-65159347D01*
X82415928Y-65159347D02*
X82552216Y-65074505D01*
X82552216Y-65074505D02*
X82597809Y-65030355D01*
X82597809Y-65030355D02*
X82656326Y-64929995D01*
X82656326Y-64929995D02*
X82682816Y-64802365D01*
X82682816Y-64802365D02*
X82675640Y-64670056D01*
X82675640Y-64670056D02*
X82675640Y-64670056D01*
G36*
X81967372Y-64346436D02*
G01*
X81994821Y-64347171D01*
X82187483Y-64355555D01*
X82332691Y-64370366D01*
X82440113Y-64394629D01*
X82519416Y-64431364D01*
X82580270Y-64483597D01*
X82632342Y-64554348D01*
X82633158Y-64555657D01*
X82675640Y-64670056D01*
X82682816Y-64802365D01*
X82656326Y-64929995D01*
X82597809Y-65030355D01*
X82552216Y-65074505D01*
X82415928Y-65159347D01*
X82267342Y-65187931D01*
X82165118Y-65187931D01*
X82204628Y-65093963D01*
X82244496Y-65028977D01*
X82327266Y-64977763D01*
X82344331Y-64972504D01*
X82431276Y-64915903D01*
X82478242Y-64830594D01*
X82480259Y-64732641D01*
X82432356Y-64638106D01*
X82420002Y-64623993D01*
X82366317Y-64576797D01*
X82319512Y-64569003D01*
X82273554Y-64604706D01*
X82222412Y-64688003D01*
X82160052Y-64822988D01*
X82156103Y-64832118D01*
X82086228Y-64981969D01*
X82024328Y-65084316D01*
X81962524Y-65147320D01*
X81892938Y-65179138D01*
X81807692Y-65187931D01*
X81713184Y-65176409D01*
X81592215Y-65118228D01*
X81505312Y-65015875D01*
X81479222Y-64941843D01*
X81464945Y-64837367D01*
X81467994Y-64735917D01*
X81489533Y-64663472D01*
X81494896Y-64655777D01*
X81532368Y-64635341D01*
X81598409Y-64649522D01*
X81650247Y-64674161D01*
X81671828Y-64713670D01*
X81670754Y-64788602D01*
X81676945Y-64892630D01*
X81719689Y-64960605D01*
X81798811Y-64983563D01*
X81801084Y-64983542D01*
X81847014Y-64969629D01*
X81889155Y-64922303D01*
X81937728Y-64830287D01*
X81996210Y-64705151D01*
X82028025Y-64622268D01*
X82025975Y-64574420D01*
X81983949Y-64552063D01*
X81895838Y-64545649D01*
X81755531Y-64545632D01*
X81668919Y-64544917D01*
X81561959Y-64541635D01*
X81488750Y-64536300D01*
X81461609Y-64529585D01*
X81461794Y-64527790D01*
X81476502Y-64488982D01*
X81507544Y-64424709D01*
X81553479Y-64335880D01*
X81967372Y-64346436D01*
G37*
X81967372Y-64346436D02*
X81994821Y-64347171D01*
X82187483Y-64355555D01*
X82332691Y-64370366D01*
X82440113Y-64394629D01*
X82519416Y-64431364D01*
X82580270Y-64483597D01*
X82632342Y-64554348D01*
X82633158Y-64555657D01*
X82675640Y-64670056D01*
X82682816Y-64802365D01*
X82656326Y-64929995D01*
X82597809Y-65030355D01*
X82552216Y-65074505D01*
X82415928Y-65159347D01*
X82267342Y-65187931D01*
X82165118Y-65187931D01*
X82204628Y-65093963D01*
X82244496Y-65028977D01*
X82327266Y-64977763D01*
X82344331Y-64972504D01*
X82431276Y-64915903D01*
X82478242Y-64830594D01*
X82480259Y-64732641D01*
X82432356Y-64638106D01*
X82420002Y-64623993D01*
X82366317Y-64576797D01*
X82319512Y-64569003D01*
X82273554Y-64604706D01*
X82222412Y-64688003D01*
X82160052Y-64822988D01*
X82156103Y-64832118D01*
X82086228Y-64981969D01*
X82024328Y-65084316D01*
X81962524Y-65147320D01*
X81892938Y-65179138D01*
X81807692Y-65187931D01*
X81713184Y-65176409D01*
X81592215Y-65118228D01*
X81505312Y-65015875D01*
X81479222Y-64941843D01*
X81464945Y-64837367D01*
X81467994Y-64735917D01*
X81489533Y-64663472D01*
X81494896Y-64655777D01*
X81532368Y-64635341D01*
X81598409Y-64649522D01*
X81650247Y-64674161D01*
X81671828Y-64713670D01*
X81670754Y-64788602D01*
X81676945Y-64892630D01*
X81719689Y-64960605D01*
X81798811Y-64983563D01*
X81801084Y-64983542D01*
X81847014Y-64969629D01*
X81889155Y-64922303D01*
X81937728Y-64830287D01*
X81996210Y-64705151D01*
X82028025Y-64622268D01*
X82025975Y-64574420D01*
X81983949Y-64552063D01*
X81895838Y-64545649D01*
X81755531Y-64545632D01*
X81668919Y-64544917D01*
X81561959Y-64541635D01*
X81488750Y-64536300D01*
X81461609Y-64529585D01*
X81461794Y-64527790D01*
X81476502Y-64488982D01*
X81507544Y-64424709D01*
X81553479Y-64335880D01*
X81967372Y-64346436D01*
X82876143Y-66005402D02*
X82756812Y-65996846D01*
X82756812Y-65996846D02*
X82686494Y-65987019D01*
X82686494Y-65987019D02*
X82655821Y-65973401D01*
X82655821Y-65973401D02*
X82655429Y-65953473D01*
X82655429Y-65953473D02*
X82659090Y-65947011D01*
X82659090Y-65947011D02*
X82685602Y-65861060D01*
X82685602Y-65861060D02*
X82684054Y-65749255D01*
X82684054Y-65749255D02*
X82656801Y-65635586D01*
X82656801Y-65635586D02*
X82621545Y-65564490D01*
X82621545Y-65564490D02*
X82565222Y-65491595D01*
X82565222Y-65491595D02*
X82501481Y-65438307D01*
X82501481Y-65438307D02*
X82420490Y-65401725D01*
X82420490Y-65401725D02*
X82312414Y-65378950D01*
X82312414Y-65378950D02*
X82167420Y-65367081D01*
X82167420Y-65367081D02*
X81975674Y-65363218D01*
X81975674Y-65363218D02*
X81938891Y-65363149D01*
X81938891Y-65363149D02*
X81525712Y-65363103D01*
X81525712Y-65363103D02*
X81493661Y-65455046D01*
X81493661Y-65455046D02*
X81471856Y-65520348D01*
X81471856Y-65520348D02*
X81461703Y-65556176D01*
X81461703Y-65556176D02*
X81461609Y-65557230D01*
X81461609Y-65557230D02*
X81489140Y-65560758D01*
X81489140Y-65560758D02*
X81565077Y-65563761D01*
X81565077Y-65563761D02*
X81679435Y-65566010D01*
X81679435Y-65566010D02*
X81822231Y-65567276D01*
X81822231Y-65567276D02*
X81909049Y-65567471D01*
X81909049Y-65567471D02*
X82080227Y-65567877D01*
X82080227Y-65567877D02*
X82202912Y-65569968D01*
X82202912Y-65569968D02*
X82287000Y-65575053D01*
X82287000Y-65575053D02*
X82342386Y-65584440D01*
X82342386Y-65584440D02*
X82378968Y-65599439D01*
X82378968Y-65599439D02*
X82406641Y-65621358D01*
X82406641Y-65621358D02*
X82419968Y-65635043D01*
X82419968Y-65635043D02*
X82473672Y-65729051D01*
X82473672Y-65729051D02*
X82477693Y-65831636D01*
X82477693Y-65831636D02*
X82432275Y-65924710D01*
X82432275Y-65924710D02*
X82415877Y-65941922D01*
X82415877Y-65941922D02*
X82385043Y-65967168D01*
X82385043Y-65967168D02*
X82348469Y-65984680D01*
X82348469Y-65984680D02*
X82295585Y-65995858D01*
X82295585Y-65995858D02*
X82215823Y-66002104D01*
X82215823Y-66002104D02*
X82098615Y-66004818D01*
X82098615Y-66004818D02*
X81937009Y-66005402D01*
X81937009Y-66005402D02*
X81525712Y-66005402D01*
X81525712Y-66005402D02*
X81493661Y-66097345D01*
X81493661Y-66097345D02*
X81471856Y-66162647D01*
X81471856Y-66162647D02*
X81461703Y-66198475D01*
X81461703Y-66198475D02*
X81461609Y-66199529D01*
X81461609Y-66199529D02*
X81489552Y-66202225D01*
X81489552Y-66202225D02*
X81568370Y-66204655D01*
X81568370Y-66204655D02*
X81690547Y-66206722D01*
X81690547Y-66206722D02*
X81848568Y-66208329D01*
X81848568Y-66208329D02*
X82034917Y-66209377D01*
X82034917Y-66209377D02*
X82242080Y-66209769D01*
X82242080Y-66209769D02*
X82251294Y-66209770D01*
X82251294Y-66209770D02*
X83040980Y-66209770D01*
X83040980Y-66209770D02*
X83081003Y-66114885D01*
X83081003Y-66114885D02*
X83121027Y-66020000D01*
X83121027Y-66020000D02*
X82876143Y-66005402D01*
X82876143Y-66005402D02*
X82876143Y-66005402D01*
G36*
X81938891Y-65363149D02*
G01*
X81975674Y-65363218D01*
X82167420Y-65367081D01*
X82312414Y-65378950D01*
X82420490Y-65401725D01*
X82501481Y-65438307D01*
X82565222Y-65491595D01*
X82621545Y-65564490D01*
X82656801Y-65635586D01*
X82684054Y-65749255D01*
X82685602Y-65861060D01*
X82659090Y-65947011D01*
X82655429Y-65953473D01*
X82655821Y-65973401D01*
X82686494Y-65987019D01*
X82756812Y-65996846D01*
X82876143Y-66005402D01*
X83121027Y-66020000D01*
X83081003Y-66114885D01*
X83040980Y-66209770D01*
X82251294Y-66209770D01*
X82242080Y-66209769D01*
X82034917Y-66209377D01*
X81848568Y-66208329D01*
X81690547Y-66206722D01*
X81568370Y-66204655D01*
X81489552Y-66202225D01*
X81461609Y-66199529D01*
X81461703Y-66198475D01*
X81471856Y-66162647D01*
X81493661Y-66097345D01*
X81525712Y-66005402D01*
X81937009Y-66005402D01*
X82098615Y-66004818D01*
X82215823Y-66002104D01*
X82295585Y-65995858D01*
X82348469Y-65984680D01*
X82385043Y-65967168D01*
X82415877Y-65941922D01*
X82432275Y-65924710D01*
X82477693Y-65831636D01*
X82473672Y-65729051D01*
X82419968Y-65635043D01*
X82406641Y-65621358D01*
X82378968Y-65599439D01*
X82342386Y-65584440D01*
X82287000Y-65575053D01*
X82202912Y-65569968D01*
X82080227Y-65567877D01*
X81909049Y-65567471D01*
X81822231Y-65567276D01*
X81679435Y-65566010D01*
X81565077Y-65563761D01*
X81489140Y-65560758D01*
X81461609Y-65557230D01*
X81461703Y-65556176D01*
X81471856Y-65520348D01*
X81493661Y-65455046D01*
X81525712Y-65363103D01*
X81938891Y-65363149D01*
G37*
X81938891Y-65363149D02*
X81975674Y-65363218D01*
X82167420Y-65367081D01*
X82312414Y-65378950D01*
X82420490Y-65401725D01*
X82501481Y-65438307D01*
X82565222Y-65491595D01*
X82621545Y-65564490D01*
X82656801Y-65635586D01*
X82684054Y-65749255D01*
X82685602Y-65861060D01*
X82659090Y-65947011D01*
X82655429Y-65953473D01*
X82655821Y-65973401D01*
X82686494Y-65987019D01*
X82756812Y-65996846D01*
X82876143Y-66005402D01*
X83121027Y-66020000D01*
X83081003Y-66114885D01*
X83040980Y-66209770D01*
X82251294Y-66209770D01*
X82242080Y-66209769D01*
X82034917Y-66209377D01*
X81848568Y-66208329D01*
X81690547Y-66206722D01*
X81568370Y-66204655D01*
X81489552Y-66202225D01*
X81461609Y-66199529D01*
X81461703Y-66198475D01*
X81471856Y-66162647D01*
X81493661Y-66097345D01*
X81525712Y-66005402D01*
X81937009Y-66005402D01*
X82098615Y-66004818D01*
X82215823Y-66002104D01*
X82295585Y-65995858D01*
X82348469Y-65984680D01*
X82385043Y-65967168D01*
X82415877Y-65941922D01*
X82432275Y-65924710D01*
X82477693Y-65831636D01*
X82473672Y-65729051D01*
X82419968Y-65635043D01*
X82406641Y-65621358D01*
X82378968Y-65599439D01*
X82342386Y-65584440D01*
X82287000Y-65575053D01*
X82202912Y-65569968D01*
X82080227Y-65567877D01*
X81909049Y-65567471D01*
X81822231Y-65567276D01*
X81679435Y-65566010D01*
X81565077Y-65563761D01*
X81489140Y-65560758D01*
X81461609Y-65557230D01*
X81461703Y-65556176D01*
X81471856Y-65520348D01*
X81493661Y-65455046D01*
X81525712Y-65363103D01*
X81938891Y-65363149D01*
X82660160Y-61169876D02*
X82583347Y-61165421D01*
X82583347Y-61165421D02*
X82466609Y-61161929D01*
X82466609Y-61161929D02*
X82319179Y-61159685D01*
X82319179Y-61159685D02*
X82164545Y-61158965D01*
X82164545Y-61158965D02*
X81641273Y-61158965D01*
X81641273Y-61158965D02*
X81548883Y-61251355D01*
X81548883Y-61251355D02*
X81491953Y-61315022D01*
X81491953Y-61315022D02*
X81468893Y-61370911D01*
X81468893Y-61370911D02*
X81470353Y-61447298D01*
X81470353Y-61447298D02*
X81474066Y-61477620D01*
X81474066Y-61477620D02*
X81484874Y-61572390D01*
X81484874Y-61572390D02*
X81491067Y-61650778D01*
X81491067Y-61650778D02*
X81491639Y-61669885D01*
X81491639Y-61669885D02*
X81487898Y-61734301D01*
X81487898Y-61734301D02*
X81478506Y-61826429D01*
X81478506Y-61826429D02*
X81474066Y-61862150D01*
X81474066Y-61862150D02*
X81467199Y-61949886D01*
X81467199Y-61949886D02*
X81482115Y-62008847D01*
X81482115Y-62008847D02*
X81528165Y-62067310D01*
X81528165Y-62067310D02*
X81548883Y-62088415D01*
X81548883Y-62088415D02*
X81641273Y-62180805D01*
X81641273Y-62180805D02*
X82620053Y-62180805D01*
X82620053Y-62180805D02*
X82653934Y-62106442D01*
X82653934Y-62106442D02*
X82679030Y-62042410D01*
X82679030Y-62042410D02*
X82687816Y-62004948D01*
X82687816Y-62004948D02*
X82660050Y-61995343D01*
X82660050Y-61995343D02*
X82582470Y-61986365D01*
X82582470Y-61986365D02*
X82463652Y-61978614D01*
X82463652Y-61978614D02*
X82312172Y-61972686D01*
X82312172Y-61972686D02*
X82184195Y-61969827D01*
X82184195Y-61969827D02*
X81680575Y-61961839D01*
X81680575Y-61961839D02*
X81670722Y-61892152D01*
X81670722Y-61892152D02*
X81677611Y-61828771D01*
X81677611Y-61828771D02*
X81699917Y-61797714D01*
X81699917Y-61797714D02*
X81741621Y-61789033D01*
X81741621Y-61789033D02*
X81830456Y-61781622D01*
X81830456Y-61781622D02*
X81955166Y-61776069D01*
X81955166Y-61776069D02*
X82104493Y-61772964D01*
X82104493Y-61772964D02*
X82181339Y-61772516D01*
X82181339Y-61772516D02*
X82623713Y-61772069D01*
X82623713Y-61772069D02*
X82655765Y-61680126D01*
X82655765Y-61680126D02*
X82677557Y-61615051D01*
X82677557Y-61615051D02*
X82687719Y-61579653D01*
X82687719Y-61579653D02*
X82687816Y-61578632D01*
X82687816Y-61578632D02*
X82660191Y-61575080D01*
X82660191Y-61575080D02*
X82583589Y-61571177D01*
X82583589Y-61571177D02*
X82467421Y-61567249D01*
X82467421Y-61567249D02*
X82321096Y-61563624D01*
X82321096Y-61563624D02*
X82184195Y-61561092D01*
X82184195Y-61561092D02*
X81680575Y-61553103D01*
X81680575Y-61553103D02*
X81680575Y-61377931D01*
X81680575Y-61377931D02*
X82140035Y-61369893D01*
X82140035Y-61369893D02*
X82599495Y-61361854D01*
X82599495Y-61361854D02*
X82643656Y-61276457D01*
X82643656Y-61276457D02*
X82673981Y-61213407D01*
X82673981Y-61213407D02*
X82687742Y-61176090D01*
X82687742Y-61176090D02*
X82687816Y-61175013D01*
X82687816Y-61175013D02*
X82660160Y-61169876D01*
X82660160Y-61169876D02*
X82660160Y-61169876D01*
G36*
X82319179Y-61159685D02*
G01*
X82466609Y-61161929D01*
X82583347Y-61165421D01*
X82660160Y-61169876D01*
X82687816Y-61175013D01*
X82687742Y-61176090D01*
X82673981Y-61213407D01*
X82643656Y-61276457D01*
X82599495Y-61361854D01*
X82140035Y-61369893D01*
X81680575Y-61377931D01*
X81680575Y-61553103D01*
X82184195Y-61561092D01*
X82321096Y-61563624D01*
X82467421Y-61567249D01*
X82583589Y-61571177D01*
X82660191Y-61575080D01*
X82687816Y-61578632D01*
X82687719Y-61579653D01*
X82677557Y-61615051D01*
X82655765Y-61680126D01*
X82623713Y-61772069D01*
X82181339Y-61772516D01*
X82104493Y-61772964D01*
X81955166Y-61776069D01*
X81830456Y-61781622D01*
X81741621Y-61789033D01*
X81699917Y-61797714D01*
X81677611Y-61828771D01*
X81670722Y-61892152D01*
X81680575Y-61961839D01*
X82184195Y-61969827D01*
X82312172Y-61972686D01*
X82463652Y-61978614D01*
X82582470Y-61986365D01*
X82660050Y-61995343D01*
X82687816Y-62004948D01*
X82679030Y-62042410D01*
X82653934Y-62106442D01*
X82620053Y-62180805D01*
X81641273Y-62180805D01*
X81548883Y-62088415D01*
X81528165Y-62067310D01*
X81482115Y-62008847D01*
X81467199Y-61949886D01*
X81474066Y-61862150D01*
X81478506Y-61826429D01*
X81487898Y-61734301D01*
X81491639Y-61669885D01*
X81491067Y-61650778D01*
X81484874Y-61572390D01*
X81474066Y-61477620D01*
X81470353Y-61447298D01*
X81468893Y-61370911D01*
X81491953Y-61315022D01*
X81548883Y-61251355D01*
X81641273Y-61158965D01*
X82164545Y-61158965D01*
X82319179Y-61159685D01*
G37*
X82319179Y-61159685D02*
X82466609Y-61161929D01*
X82583347Y-61165421D01*
X82660160Y-61169876D01*
X82687816Y-61175013D01*
X82687742Y-61176090D01*
X82673981Y-61213407D01*
X82643656Y-61276457D01*
X82599495Y-61361854D01*
X82140035Y-61369893D01*
X81680575Y-61377931D01*
X81680575Y-61553103D01*
X82184195Y-61561092D01*
X82321096Y-61563624D01*
X82467421Y-61567249D01*
X82583589Y-61571177D01*
X82660191Y-61575080D01*
X82687816Y-61578632D01*
X82687719Y-61579653D01*
X82677557Y-61615051D01*
X82655765Y-61680126D01*
X82623713Y-61772069D01*
X82181339Y-61772516D01*
X82104493Y-61772964D01*
X81955166Y-61776069D01*
X81830456Y-61781622D01*
X81741621Y-61789033D01*
X81699917Y-61797714D01*
X81677611Y-61828771D01*
X81670722Y-61892152D01*
X81680575Y-61961839D01*
X82184195Y-61969827D01*
X82312172Y-61972686D01*
X82463652Y-61978614D01*
X82582470Y-61986365D01*
X82660050Y-61995343D01*
X82687816Y-62004948D01*
X82679030Y-62042410D01*
X82653934Y-62106442D01*
X82620053Y-62180805D01*
X81641273Y-62180805D01*
X81548883Y-62088415D01*
X81528165Y-62067310D01*
X81482115Y-62008847D01*
X81467199Y-61949886D01*
X81474066Y-61862150D01*
X81478506Y-61826429D01*
X81487898Y-61734301D01*
X81491639Y-61669885D01*
X81491067Y-61650778D01*
X81484874Y-61572390D01*
X81474066Y-61477620D01*
X81470353Y-61447298D01*
X81468893Y-61370911D01*
X81491953Y-61315022D01*
X81548883Y-61251355D01*
X81641273Y-61158965D01*
X82164545Y-61158965D01*
X82319179Y-61159685D01*
X82678080Y-63684057D02*
X82629141Y-63551435D01*
X82629141Y-63551435D02*
X82542581Y-63443990D01*
X82542581Y-63443990D02*
X82481648Y-63401968D01*
X82481648Y-63401968D02*
X82369839Y-63356157D01*
X82369839Y-63356157D02*
X82288994Y-63357109D01*
X82288994Y-63357109D02*
X82234622Y-63405192D01*
X82234622Y-63405192D02*
X82225376Y-63422983D01*
X82225376Y-63422983D02*
X82196550Y-63499796D01*
X82196550Y-63499796D02*
X82203935Y-63539024D01*
X82203935Y-63539024D02*
X82252342Y-63552311D01*
X82252342Y-63552311D02*
X82279080Y-63552988D01*
X82279080Y-63552988D02*
X82377452Y-63577314D01*
X82377452Y-63577314D02*
X82446266Y-63640719D01*
X82446266Y-63640719D02*
X82479502Y-63728846D01*
X82479502Y-63728846D02*
X82471139Y-63827337D01*
X82471139Y-63827337D02*
X82427704Y-63907398D01*
X82427704Y-63907398D02*
X82402928Y-63934439D01*
X82402928Y-63934439D02*
X82372871Y-63953606D01*
X82372871Y-63953606D02*
X82327435Y-63966554D01*
X82327435Y-63966554D02*
X82256524Y-63974936D01*
X82256524Y-63974936D02*
X82150040Y-63980407D01*
X82150040Y-63980407D02*
X81997888Y-63984622D01*
X81997888Y-63984622D02*
X81949713Y-63985713D01*
X81949713Y-63985713D02*
X81784905Y-63989693D01*
X81784905Y-63989693D02*
X81668912Y-63994219D01*
X81668912Y-63994219D02*
X81592167Y-64001005D01*
X81592167Y-64001005D02*
X81545107Y-64011769D01*
X81545107Y-64011769D02*
X81518165Y-64028227D01*
X81518165Y-64028227D02*
X81501777Y-64052094D01*
X81501777Y-64052094D02*
X81494537Y-64067374D01*
X81494537Y-64067374D02*
X81469780Y-64132267D01*
X81469780Y-64132267D02*
X81461609Y-64170466D01*
X81461609Y-64170466D02*
X81488897Y-64183088D01*
X81488897Y-64183088D02*
X81571397Y-64190792D01*
X81571397Y-64190792D02*
X81710059Y-64193620D01*
X81710059Y-64193620D02*
X81905838Y-64191614D01*
X81905838Y-64191614D02*
X81936035Y-64190989D01*
X81936035Y-64190989D02*
X82114651Y-64186579D01*
X82114651Y-64186579D02*
X82245077Y-64181365D01*
X82245077Y-64181365D02*
X82337508Y-64173945D01*
X82337508Y-64173945D02*
X82402142Y-64162918D01*
X82402142Y-64162918D02*
X82449175Y-64146883D01*
X82449175Y-64146883D02*
X82488804Y-64124439D01*
X82488804Y-64124439D02*
X82505785Y-64112698D01*
X82505785Y-64112698D02*
X82580920Y-64045381D01*
X82580920Y-64045381D02*
X82639362Y-63970090D01*
X82639362Y-63970090D02*
X82644464Y-63960872D01*
X82644464Y-63960872D02*
X82684740Y-63825867D01*
X82684740Y-63825867D02*
X82678080Y-63684057D01*
X82678080Y-63684057D02*
X82678080Y-63684057D01*
G36*
X82481648Y-63401968D02*
G01*
X82542581Y-63443990D01*
X82629141Y-63551435D01*
X82678080Y-63684057D01*
X82684740Y-63825867D01*
X82644464Y-63960872D01*
X82639362Y-63970090D01*
X82580920Y-64045381D01*
X82505785Y-64112698D01*
X82488804Y-64124439D01*
X82449175Y-64146883D01*
X82402142Y-64162918D01*
X82337508Y-64173945D01*
X82245077Y-64181365D01*
X82114651Y-64186579D01*
X81936035Y-64190989D01*
X81905838Y-64191614D01*
X81710059Y-64193620D01*
X81571397Y-64190792D01*
X81488897Y-64183088D01*
X81461609Y-64170466D01*
X81469780Y-64132267D01*
X81494537Y-64067374D01*
X81501777Y-64052094D01*
X81518165Y-64028227D01*
X81545107Y-64011769D01*
X81592167Y-64001005D01*
X81668912Y-63994219D01*
X81784905Y-63989693D01*
X81949713Y-63985713D01*
X81997888Y-63984622D01*
X82150040Y-63980407D01*
X82256524Y-63974936D01*
X82327435Y-63966554D01*
X82372871Y-63953606D01*
X82402928Y-63934439D01*
X82427704Y-63907398D01*
X82471139Y-63827337D01*
X82479502Y-63728846D01*
X82446266Y-63640719D01*
X82377452Y-63577314D01*
X82279080Y-63552988D01*
X82252342Y-63552311D01*
X82203935Y-63539024D01*
X82196550Y-63499796D01*
X82225376Y-63422983D01*
X82234622Y-63405192D01*
X82288994Y-63357109D01*
X82369839Y-63356157D01*
X82481648Y-63401968D01*
G37*
X82481648Y-63401968D02*
X82542581Y-63443990D01*
X82629141Y-63551435D01*
X82678080Y-63684057D01*
X82684740Y-63825867D01*
X82644464Y-63960872D01*
X82639362Y-63970090D01*
X82580920Y-64045381D01*
X82505785Y-64112698D01*
X82488804Y-64124439D01*
X82449175Y-64146883D01*
X82402142Y-64162918D01*
X82337508Y-64173945D01*
X82245077Y-64181365D01*
X82114651Y-64186579D01*
X81936035Y-64190989D01*
X81905838Y-64191614D01*
X81710059Y-64193620D01*
X81571397Y-64190792D01*
X81488897Y-64183088D01*
X81461609Y-64170466D01*
X81469780Y-64132267D01*
X81494537Y-64067374D01*
X81501777Y-64052094D01*
X81518165Y-64028227D01*
X81545107Y-64011769D01*
X81592167Y-64001005D01*
X81668912Y-63994219D01*
X81784905Y-63989693D01*
X81949713Y-63985713D01*
X81997888Y-63984622D01*
X82150040Y-63980407D01*
X82256524Y-63974936D01*
X82327435Y-63966554D01*
X82372871Y-63953606D01*
X82402928Y-63934439D01*
X82427704Y-63907398D01*
X82471139Y-63827337D01*
X82479502Y-63728846D01*
X82446266Y-63640719D01*
X82377452Y-63577314D01*
X82279080Y-63552988D01*
X82252342Y-63552311D01*
X82203935Y-63539024D01*
X82196550Y-63499796D01*
X82225376Y-63422983D01*
X82234622Y-63405192D01*
X82288994Y-63357109D01*
X82369839Y-63356157D01*
X82481648Y-63401968D01*
X82445545Y-62356086D02*
X82227339Y-62356457D01*
X82227339Y-62356457D02*
X82059481Y-62357892D01*
X82059481Y-62357892D02*
X81933930Y-62360998D01*
X81933930Y-62360998D02*
X81842645Y-62366378D01*
X81842645Y-62366378D02*
X81777585Y-62374638D01*
X81777585Y-62374638D02*
X81730709Y-62386384D01*
X81730709Y-62386384D02*
X81693976Y-62402219D01*
X81693976Y-62402219D02*
X81673009Y-62414210D01*
X81673009Y-62414210D02*
X81559306Y-62513510D01*
X81559306Y-62513510D02*
X81488035Y-62639412D01*
X81488035Y-62639412D02*
X81462462Y-62778709D01*
X81462462Y-62778709D02*
X81485850Y-62918195D01*
X81485850Y-62918195D02*
X81527881Y-63001257D01*
X81527881Y-63001257D02*
X81600589Y-63088455D01*
X81600589Y-63088455D02*
X81689388Y-63147883D01*
X81689388Y-63147883D02*
X81805680Y-63183739D01*
X81805680Y-63183739D02*
X81960865Y-63200219D01*
X81960865Y-63200219D02*
X82074713Y-63202553D01*
X82074713Y-63202553D02*
X82082894Y-63202239D01*
X82082894Y-63202239D02*
X82082894Y-62998276D01*
X82082894Y-62998276D02*
X81952343Y-62997030D01*
X81952343Y-62997030D02*
X81865920Y-62991322D01*
X81865920Y-62991322D02*
X81809382Y-62978196D01*
X81809382Y-62978196D02*
X81768486Y-62954694D01*
X81768486Y-62954694D02*
X81737638Y-62926614D01*
X81737638Y-62926614D02*
X81678095Y-62832312D01*
X81678095Y-62832312D02*
X81673008Y-62731060D01*
X81673008Y-62731060D02*
X81722721Y-62635364D01*
X81722721Y-62635364D02*
X81729457Y-62627916D01*
X81729457Y-62627916D02*
X81764498Y-62596126D01*
X81764498Y-62596126D02*
X81806189Y-62576192D01*
X81806189Y-62576192D02*
X81868238Y-62565400D01*
X81868238Y-62565400D02*
X81964356Y-62561035D01*
X81964356Y-62561035D02*
X82070621Y-62560345D01*
X82070621Y-62560345D02*
X82204120Y-62561841D01*
X82204120Y-62561841D02*
X82293178Y-62568036D01*
X82293178Y-62568036D02*
X82351707Y-62581486D01*
X82351707Y-62581486D02*
X82393618Y-62604749D01*
X82393618Y-62604749D02*
X82415877Y-62623825D01*
X82415877Y-62623825D02*
X82472015Y-62712437D01*
X82472015Y-62712437D02*
X82478765Y-62814492D01*
X82478765Y-62814492D02*
X82435886Y-62911905D01*
X82435886Y-62911905D02*
X82419968Y-62930704D01*
X82419968Y-62930704D02*
X82384618Y-62962707D01*
X82384618Y-62962707D02*
X82342498Y-62982682D01*
X82342498Y-62982682D02*
X82279749Y-62993407D01*
X82279749Y-62993407D02*
X82182513Y-62997661D01*
X82182513Y-62997661D02*
X82082894Y-62998276D01*
X82082894Y-62998276D02*
X82082894Y-63202239D01*
X82082894Y-63202239D02*
X82258053Y-63195496D01*
X82258053Y-63195496D02*
X82395805Y-63171528D01*
X82395805Y-63171528D02*
X82499368Y-63126452D01*
X82499368Y-63126452D02*
X82580144Y-63056072D01*
X82580144Y-63056072D02*
X82621545Y-63001257D01*
X82621545Y-63001257D02*
X82666272Y-62901624D01*
X82666272Y-62901624D02*
X82687033Y-62786145D01*
X82687033Y-62786145D02*
X82681475Y-62678801D01*
X82681475Y-62678801D02*
X82659057Y-62618736D01*
X82659057Y-62618736D02*
X82652677Y-62595165D01*
X82652677Y-62595165D02*
X82676465Y-62579523D01*
X82676465Y-62579523D02*
X82740212Y-62568605D01*
X82740212Y-62568605D02*
X82837313Y-62560345D01*
X82837313Y-62560345D02*
X82945459Y-62551301D01*
X82945459Y-62551301D02*
X83010525Y-62538739D01*
X83010525Y-62538739D02*
X83047732Y-62515881D01*
X83047732Y-62515881D02*
X83072301Y-62475949D01*
X83072301Y-62475949D02*
X83083181Y-62450862D01*
X83083181Y-62450862D02*
X83122928Y-62355977D01*
X83122928Y-62355977D02*
X82445545Y-62356086D01*
X82445545Y-62356086D02*
X82445545Y-62356086D01*
G36*
X82074713Y-63202553D02*
G01*
X81960865Y-63200219D01*
X81805680Y-63183739D01*
X81689388Y-63147883D01*
X81600589Y-63088455D01*
X81527881Y-63001257D01*
X81485850Y-62918195D01*
X81462462Y-62778709D01*
X81471210Y-62731060D01*
X81673008Y-62731060D01*
X81678095Y-62832312D01*
X81737638Y-62926614D01*
X81768486Y-62954694D01*
X81809382Y-62978196D01*
X81865920Y-62991322D01*
X81952343Y-62997030D01*
X82082894Y-62998276D01*
X82182513Y-62997661D01*
X82279749Y-62993407D01*
X82342498Y-62982682D01*
X82384618Y-62962707D01*
X82419968Y-62930704D01*
X82435886Y-62911905D01*
X82478765Y-62814492D01*
X82472015Y-62712437D01*
X82415877Y-62623825D01*
X82393618Y-62604749D01*
X82351707Y-62581486D01*
X82293178Y-62568036D01*
X82204120Y-62561841D01*
X82070621Y-62560345D01*
X81964356Y-62561035D01*
X81868238Y-62565400D01*
X81806189Y-62576192D01*
X81764498Y-62596126D01*
X81729457Y-62627916D01*
X81722721Y-62635364D01*
X81673008Y-62731060D01*
X81471210Y-62731060D01*
X81488035Y-62639412D01*
X81559306Y-62513510D01*
X81673009Y-62414210D01*
X81693976Y-62402219D01*
X81730709Y-62386384D01*
X81777585Y-62374638D01*
X81842645Y-62366378D01*
X81933930Y-62360998D01*
X82059481Y-62357892D01*
X82227339Y-62356457D01*
X82445545Y-62356086D01*
X83122928Y-62355977D01*
X83083181Y-62450862D01*
X83072301Y-62475949D01*
X83047732Y-62515881D01*
X83010525Y-62538739D01*
X82945459Y-62551301D01*
X82837313Y-62560345D01*
X82740212Y-62568605D01*
X82676465Y-62579523D01*
X82652677Y-62595165D01*
X82659057Y-62618736D01*
X82681475Y-62678801D01*
X82687033Y-62786145D01*
X82666272Y-62901624D01*
X82621545Y-63001257D01*
X82580144Y-63056072D01*
X82499368Y-63126452D01*
X82395805Y-63171528D01*
X82258053Y-63195496D01*
X82082894Y-63202239D01*
X82074713Y-63202553D01*
G37*
X82074713Y-63202553D02*
X81960865Y-63200219D01*
X81805680Y-63183739D01*
X81689388Y-63147883D01*
X81600589Y-63088455D01*
X81527881Y-63001257D01*
X81485850Y-62918195D01*
X81462462Y-62778709D01*
X81471210Y-62731060D01*
X81673008Y-62731060D01*
X81678095Y-62832312D01*
X81737638Y-62926614D01*
X81768486Y-62954694D01*
X81809382Y-62978196D01*
X81865920Y-62991322D01*
X81952343Y-62997030D01*
X82082894Y-62998276D01*
X82182513Y-62997661D01*
X82279749Y-62993407D01*
X82342498Y-62982682D01*
X82384618Y-62962707D01*
X82419968Y-62930704D01*
X82435886Y-62911905D01*
X82478765Y-62814492D01*
X82472015Y-62712437D01*
X82415877Y-62623825D01*
X82393618Y-62604749D01*
X82351707Y-62581486D01*
X82293178Y-62568036D01*
X82204120Y-62561841D01*
X82070621Y-62560345D01*
X81964356Y-62561035D01*
X81868238Y-62565400D01*
X81806189Y-62576192D01*
X81764498Y-62596126D01*
X81729457Y-62627916D01*
X81722721Y-62635364D01*
X81673008Y-62731060D01*
X81471210Y-62731060D01*
X81488035Y-62639412D01*
X81559306Y-62513510D01*
X81673009Y-62414210D01*
X81693976Y-62402219D01*
X81730709Y-62386384D01*
X81777585Y-62374638D01*
X81842645Y-62366378D01*
X81933930Y-62360998D01*
X82059481Y-62357892D01*
X82227339Y-62356457D01*
X82445545Y-62356086D01*
X83122928Y-62355977D01*
X83083181Y-62450862D01*
X83072301Y-62475949D01*
X83047732Y-62515881D01*
X83010525Y-62538739D01*
X82945459Y-62551301D01*
X82837313Y-62560345D01*
X82740212Y-62568605D01*
X82676465Y-62579523D01*
X82652677Y-62595165D01*
X82659057Y-62618736D01*
X82681475Y-62678801D01*
X82687033Y-62786145D01*
X82666272Y-62901624D01*
X82621545Y-63001257D01*
X82580144Y-63056072D01*
X82499368Y-63126452D01*
X82395805Y-63171528D01*
X82258053Y-63195496D01*
X82082894Y-63202239D01*
X82074713Y-63202553D01*
X82715324Y-68434448D02*
X82637889Y-68319342D01*
X82637889Y-68319342D02*
X82526051Y-68230389D01*
X82526051Y-68230389D02*
X82383735Y-68177251D01*
X82383735Y-68177251D02*
X82278985Y-68166503D01*
X82278985Y-68166503D02*
X82235274Y-68167724D01*
X82235274Y-68167724D02*
X82201806Y-68177944D01*
X82201806Y-68177944D02*
X82171821Y-68206039D01*
X82171821Y-68206039D02*
X82138560Y-68260884D01*
X82138560Y-68260884D02*
X82095262Y-68351355D01*
X82095262Y-68351355D02*
X82035167Y-68486328D01*
X82035167Y-68486328D02*
X82034866Y-68487011D01*
X82034866Y-68487011D02*
X81977963Y-68611249D01*
X81977963Y-68611249D02*
X81927435Y-68713127D01*
X81927435Y-68713127D02*
X81888720Y-68782233D01*
X81888720Y-68782233D02*
X81867260Y-68808154D01*
X81867260Y-68808154D02*
X81867087Y-68808161D01*
X81867087Y-68808161D02*
X81820356Y-68785315D01*
X81820356Y-68785315D02*
X81768846Y-68731891D01*
X81768846Y-68731891D02*
X81731739Y-68670558D01*
X81731739Y-68670558D02*
X81724368Y-68639485D01*
X81724368Y-68639485D02*
X81749862Y-68554711D01*
X81749862Y-68554711D02*
X81813709Y-68481707D01*
X81813709Y-68481707D02*
X81883906Y-68446087D01*
X81883906Y-68446087D02*
X81935657Y-68411820D01*
X81935657Y-68411820D02*
X81994591Y-68344697D01*
X81994591Y-68344697D02*
X82045504Y-68265792D01*
X82045504Y-68265792D02*
X82073191Y-68196179D01*
X82073191Y-68196179D02*
X82074713Y-68181623D01*
X82074713Y-68181623D02*
X82049679Y-68165237D01*
X82049679Y-68165237D02*
X81985689Y-68164250D01*
X81985689Y-68164250D02*
X81899407Y-68176292D01*
X81899407Y-68176292D02*
X81807499Y-68198993D01*
X81807499Y-68198993D02*
X81726631Y-68229986D01*
X81726631Y-68229986D02*
X81723491Y-68231552D01*
X81723491Y-68231552D02*
X81593266Y-68324819D01*
X81593266Y-68324819D02*
X81504689Y-68445696D01*
X81504689Y-68445696D02*
X81461214Y-68582973D01*
X81461214Y-68582973D02*
X81466294Y-68725440D01*
X81466294Y-68725440D02*
X81523384Y-68861888D01*
X81523384Y-68861888D02*
X81527398Y-68867955D01*
X81527398Y-68867955D02*
X81624674Y-68975290D01*
X81624674Y-68975290D02*
X81751591Y-69045868D01*
X81751591Y-69045868D02*
X81918474Y-69084926D01*
X81918474Y-69084926D02*
X81965361Y-69090168D01*
X81965361Y-69090168D02*
X82186671Y-69099452D01*
X82186671Y-69099452D02*
X82289876Y-69088322D01*
X82289876Y-69088322D02*
X82289876Y-68808161D01*
X82289876Y-68808161D02*
X82225497Y-68804521D01*
X82225497Y-68804521D02*
X82206709Y-68784611D01*
X82206709Y-68784611D02*
X82220765Y-68734974D01*
X82220765Y-68734974D02*
X82253991Y-68656733D01*
X82253991Y-68656733D02*
X82295641Y-68569274D01*
X82295641Y-68569274D02*
X82296744Y-68567101D01*
X82296744Y-68567101D02*
X82335735Y-68492970D01*
X82335735Y-68492970D02*
X82361756Y-68463219D01*
X82361756Y-68463219D02*
X82389035Y-68470555D01*
X82389035Y-68470555D02*
X82424879Y-68501447D01*
X82424879Y-68501447D02*
X82476749Y-68580040D01*
X82476749Y-68580040D02*
X82480561Y-68664677D01*
X82480561Y-68664677D02*
X82442811Y-68740597D01*
X82442811Y-68740597D02*
X82369999Y-68793035D01*
X82369999Y-68793035D02*
X82289876Y-68808161D01*
X82289876Y-68808161D02*
X82289876Y-69088322D01*
X82289876Y-69088322D02*
X82363739Y-69080356D01*
X82363739Y-69080356D02*
X82504171Y-69031366D01*
X82504171Y-69031366D02*
X82602553Y-68963164D01*
X82602553Y-68963164D02*
X82701970Y-68840065D01*
X82701970Y-68840065D02*
X82751289Y-68704472D01*
X82751289Y-68704472D02*
X82754432Y-68566045D01*
X82754432Y-68566045D02*
X82715324Y-68434448D01*
X82715324Y-68434448D02*
X82715324Y-68434448D01*
G36*
X82186671Y-69099452D02*
G01*
X81965361Y-69090168D01*
X81918474Y-69084926D01*
X81751591Y-69045868D01*
X81624674Y-68975290D01*
X81527398Y-68867955D01*
X81523384Y-68861888D01*
X81466294Y-68725440D01*
X81461214Y-68582973D01*
X81504689Y-68445696D01*
X81593266Y-68324819D01*
X81723491Y-68231552D01*
X81726631Y-68229986D01*
X81807499Y-68198993D01*
X81899407Y-68176292D01*
X81985689Y-68164250D01*
X82049679Y-68165237D01*
X82074713Y-68181623D01*
X82073191Y-68196179D01*
X82045504Y-68265792D01*
X81994591Y-68344697D01*
X81935657Y-68411820D01*
X81883906Y-68446087D01*
X81813709Y-68481707D01*
X81749862Y-68554711D01*
X81724368Y-68639485D01*
X81731739Y-68670558D01*
X81768846Y-68731891D01*
X81820356Y-68785315D01*
X81867087Y-68808161D01*
X81867260Y-68808154D01*
X81886751Y-68784611D01*
X82206709Y-68784611D01*
X82225497Y-68804521D01*
X82289876Y-68808161D01*
X82369999Y-68793035D01*
X82442811Y-68740597D01*
X82480561Y-68664677D01*
X82476749Y-68580040D01*
X82424879Y-68501447D01*
X82389035Y-68470555D01*
X82361756Y-68463219D01*
X82335735Y-68492970D01*
X82296744Y-68567101D01*
X82295641Y-68569274D01*
X82253991Y-68656733D01*
X82220765Y-68734974D01*
X82206709Y-68784611D01*
X81886751Y-68784611D01*
X81888720Y-68782233D01*
X81927435Y-68713127D01*
X81977963Y-68611249D01*
X82034866Y-68487011D01*
X82035167Y-68486328D01*
X82095262Y-68351355D01*
X82138560Y-68260884D01*
X82171821Y-68206039D01*
X82201806Y-68177944D01*
X82235274Y-68167724D01*
X82278985Y-68166503D01*
X82383735Y-68177251D01*
X82526051Y-68230389D01*
X82637889Y-68319342D01*
X82715324Y-68434448D01*
X82754432Y-68566045D01*
X82751289Y-68704472D01*
X82701970Y-68840065D01*
X82602553Y-68963164D01*
X82504171Y-69031366D01*
X82363739Y-69080356D01*
X82289876Y-69088322D01*
X82186671Y-69099452D01*
G37*
X82186671Y-69099452D02*
X81965361Y-69090168D01*
X81918474Y-69084926D01*
X81751591Y-69045868D01*
X81624674Y-68975290D01*
X81527398Y-68867955D01*
X81523384Y-68861888D01*
X81466294Y-68725440D01*
X81461214Y-68582973D01*
X81504689Y-68445696D01*
X81593266Y-68324819D01*
X81723491Y-68231552D01*
X81726631Y-68229986D01*
X81807499Y-68198993D01*
X81899407Y-68176292D01*
X81985689Y-68164250D01*
X82049679Y-68165237D01*
X82074713Y-68181623D01*
X82073191Y-68196179D01*
X82045504Y-68265792D01*
X81994591Y-68344697D01*
X81935657Y-68411820D01*
X81883906Y-68446087D01*
X81813709Y-68481707D01*
X81749862Y-68554711D01*
X81724368Y-68639485D01*
X81731739Y-68670558D01*
X81768846Y-68731891D01*
X81820356Y-68785315D01*
X81867087Y-68808161D01*
X81867260Y-68808154D01*
X81886751Y-68784611D01*
X82206709Y-68784611D01*
X82225497Y-68804521D01*
X82289876Y-68808161D01*
X82369999Y-68793035D01*
X82442811Y-68740597D01*
X82480561Y-68664677D01*
X82476749Y-68580040D01*
X82424879Y-68501447D01*
X82389035Y-68470555D01*
X82361756Y-68463219D01*
X82335735Y-68492970D01*
X82296744Y-68567101D01*
X82295641Y-68569274D01*
X82253991Y-68656733D01*
X82220765Y-68734974D01*
X82206709Y-68784611D01*
X81886751Y-68784611D01*
X81888720Y-68782233D01*
X81927435Y-68713127D01*
X81977963Y-68611249D01*
X82034866Y-68487011D01*
X82035167Y-68486328D01*
X82095262Y-68351355D01*
X82138560Y-68260884D01*
X82171821Y-68206039D01*
X82201806Y-68177944D01*
X82235274Y-68167724D01*
X82278985Y-68166503D01*
X82383735Y-68177251D01*
X82526051Y-68230389D01*
X82637889Y-68319342D01*
X82715324Y-68434448D01*
X82754432Y-68566045D01*
X82751289Y-68704472D01*
X82701970Y-68840065D01*
X82602553Y-68963164D01*
X82504171Y-69031366D01*
X82363739Y-69080356D01*
X82289876Y-69088322D01*
X82186671Y-69099452D01*
X92147002Y-64540986D02*
X92146137Y-64382994D01*
X92146137Y-64382994D02*
X92143795Y-64268653D01*
X92143795Y-64268653D02*
X92139238Y-64190593D01*
X92139238Y-64190593D02*
X92131730Y-64141446D01*
X92131730Y-64141446D02*
X92120534Y-64113841D01*
X92120534Y-64113841D02*
X92104912Y-64100408D01*
X92104912Y-64100408D02*
X92084127Y-64093779D01*
X92084127Y-64093779D02*
X92081437Y-64093135D01*
X92081437Y-64093135D02*
X92032887Y-64083065D01*
X92032887Y-64083065D02*
X91937095Y-64064425D01*
X91937095Y-64064425D02*
X91804257Y-64039155D01*
X91804257Y-64039155D02*
X91644569Y-64009193D01*
X91644569Y-64009193D02*
X91468226Y-63976478D01*
X91468226Y-63976478D02*
X91462033Y-63975336D01*
X91462033Y-63975336D02*
X91289218Y-63942567D01*
X91289218Y-63942567D02*
X91136531Y-63911907D01*
X91136531Y-63911907D02*
X91013129Y-63885336D01*
X91013129Y-63885336D02*
X90928169Y-63864833D01*
X90928169Y-63864833D02*
X90890810Y-63852374D01*
X90890810Y-63852374D02*
X90890148Y-63851780D01*
X90890148Y-63851780D02*
X90871905Y-63815081D01*
X90871905Y-63815081D02*
X90841503Y-63739414D01*
X90841503Y-63739414D02*
X90805507Y-63641122D01*
X90805507Y-63641122D02*
X90805315Y-63640575D01*
X90805315Y-63640575D02*
X90758778Y-63516767D01*
X90758778Y-63516767D02*
X90699496Y-63370804D01*
X90699496Y-63370804D02*
X90639891Y-63233219D01*
X90639891Y-63233219D02*
X90636944Y-63226707D01*
X90636944Y-63226707D02*
X90535235Y-63002610D01*
X90535235Y-63002610D02*
X90874103Y-62506381D01*
X90874103Y-62506381D02*
X90977408Y-62354154D01*
X90977408Y-62354154D02*
X91069763Y-62216259D01*
X91069763Y-62216259D02*
X91145916Y-62100685D01*
X91145916Y-62100685D02*
X91200615Y-62015421D01*
X91200615Y-62015421D02*
X91228607Y-61968456D01*
X91228607Y-61968456D02*
X91230683Y-61963996D01*
X91230683Y-61963996D02*
X91221440Y-61929866D01*
X91221440Y-61929866D02*
X91176844Y-61866119D01*
X91176844Y-61866119D02*
X91094791Y-61770269D01*
X91094791Y-61770269D02*
X90973179Y-61639831D01*
X90973179Y-61639831D02*
X90843795Y-61506672D01*
X90843795Y-61506672D02*
X90716298Y-61378306D01*
X90716298Y-61378306D02*
X90599954Y-61263419D01*
X90599954Y-61263419D02*
X90501948Y-61168927D01*
X90501948Y-61168927D02*
X90429464Y-61101747D01*
X90429464Y-61101747D02*
X90389687Y-61068794D01*
X90389687Y-61068794D02*
X90387639Y-61067568D01*
X90387639Y-61067568D02*
X90360344Y-61063926D01*
X90360344Y-61063926D02*
X90315766Y-61077650D01*
X90315766Y-61077650D02*
X90247888Y-61112131D01*
X90247888Y-61112131D02*
X90150689Y-61170761D01*
X90150689Y-61170761D02*
X90018149Y-61256930D01*
X90018149Y-61256930D02*
X89847524Y-61371800D01*
X89847524Y-61371800D02*
X89697345Y-61473746D01*
X89697345Y-61473746D02*
X89562650Y-61564877D01*
X89562650Y-61564877D02*
X89451260Y-61639927D01*
X89451260Y-61639927D02*
X89370995Y-61693631D01*
X89370995Y-61693631D02*
X89329675Y-61720720D01*
X89329675Y-61720720D02*
X89326870Y-61722426D01*
X89326870Y-61722426D02*
X89287279Y-61719118D01*
X89287279Y-61719118D02*
X89210331Y-61694047D01*
X89210331Y-61694047D02*
X89110568Y-61652202D01*
X89110568Y-61652202D02*
X89078709Y-61637288D01*
X89078709Y-61637288D02*
X88936774Y-61572214D01*
X88936774Y-61572214D02*
X88775727Y-61502788D01*
X88775727Y-61502788D02*
X88636379Y-61446391D01*
X88636379Y-61446391D02*
X88532956Y-61405753D01*
X88532956Y-61405753D02*
X88454358Y-61373474D01*
X88454358Y-61373474D02*
X88413280Y-61354822D01*
X88413280Y-61354822D02*
X88410115Y-61352503D01*
X88410115Y-61352503D02*
X88404872Y-61318197D01*
X88404872Y-61318197D02*
X88390506Y-61237331D01*
X88390506Y-61237331D02*
X88369063Y-61120657D01*
X88369063Y-61120657D02*
X88342587Y-60978925D01*
X88342587Y-60978925D02*
X88313123Y-60822890D01*
X88313123Y-60822890D02*
X88282717Y-60663302D01*
X88282717Y-60663302D02*
X88253412Y-60510915D01*
X88253412Y-60510915D02*
X88227255Y-60376479D01*
X88227255Y-60376479D02*
X88206290Y-60270748D01*
X88206290Y-60270748D02*
X88192561Y-60204474D01*
X88192561Y-60204474D02*
X88188680Y-60188218D01*
X88188680Y-60188218D02*
X88179100Y-60171427D01*
X88179100Y-60171427D02*
X88157464Y-60158751D01*
X88157464Y-60158751D02*
X88116469Y-60149622D01*
X88116469Y-60149622D02*
X88048811Y-60143469D01*
X88048811Y-60143469D02*
X87947188Y-60139720D01*
X87947188Y-60139720D02*
X87804297Y-60137808D01*
X87804297Y-60137808D02*
X87612835Y-60137160D01*
X87612835Y-60137160D02*
X87534355Y-60137126D01*
X87534355Y-60137126D02*
X86896094Y-60137126D01*
X86896094Y-60137126D02*
X86865840Y-60290402D01*
X86865840Y-60290402D02*
X86849436Y-60375678D01*
X86849436Y-60375678D02*
X86825491Y-60502930D01*
X86825491Y-60502930D02*
X86796893Y-60656685D01*
X86796893Y-60656685D02*
X86766533Y-60821466D01*
X86766533Y-60821466D02*
X86758194Y-60867011D01*
X86758194Y-60867011D02*
X86728630Y-61019068D01*
X86728630Y-61019068D02*
X86699558Y-61151532D01*
X86699558Y-61151532D02*
X86673671Y-61253286D01*
X86673671Y-61253286D02*
X86653663Y-61313212D01*
X86653663Y-61313212D02*
X86647699Y-61323195D01*
X86647699Y-61323195D02*
X86605466Y-61347707D01*
X86605466Y-61347707D02*
X86523630Y-61382852D01*
X86523630Y-61382852D02*
X86418317Y-61421827D01*
X86418317Y-61421827D02*
X86395632Y-61429558D01*
X86395632Y-61429558D02*
X86254982Y-61480640D01*
X86254982Y-61480640D02*
X86096286Y-61544046D01*
X86096286Y-61544046D02*
X85953775Y-61606096D01*
X85953775Y-61606096D02*
X85953114Y-61606402D01*
X85953114Y-61606402D02*
X85729560Y-61709733D01*
X85729560Y-61709733D02*
X84729768Y-61030039D01*
X84729768Y-61030039D02*
X84292700Y-61466379D01*
X84292700Y-61466379D02*
X84162619Y-61598351D01*
X84162619Y-61598351D02*
X84047952Y-61718721D01*
X84047952Y-61718721D02*
X83954819Y-61820727D01*
X83954819Y-61820727D02*
X83889342Y-61897609D01*
X83889342Y-61897609D02*
X83857643Y-61942607D01*
X83857643Y-61942607D02*
X83855632Y-61949062D01*
X83855632Y-61949062D02*
X83871471Y-61986960D01*
X83871471Y-61986960D02*
X83915504Y-62064292D01*
X83915504Y-62064292D02*
X83982510Y-62172611D01*
X83982510Y-62172611D02*
X84067266Y-62303468D01*
X84067266Y-62303468D02*
X84162184Y-62444948D01*
X84162184Y-62444948D02*
X84259002Y-62588539D01*
X84259002Y-62588539D02*
X84343249Y-62716565D01*
X84343249Y-62716565D02*
X84409742Y-62820895D01*
X84409742Y-62820895D02*
X84453298Y-62893400D01*
X84453298Y-62893400D02*
X84468736Y-62925842D01*
X84468736Y-62925842D02*
X84455672Y-62965424D01*
X84455672Y-62965424D02*
X84421250Y-63040481D01*
X84421250Y-63040481D02*
X84372620Y-63135532D01*
X84372620Y-63135532D02*
X84367215Y-63145608D01*
X84367215Y-63145608D02*
X84303020Y-63273609D01*
X84303020Y-63273609D02*
X84271537Y-63361382D01*
X84271537Y-63361382D02*
X84271202Y-63415972D01*
X84271202Y-63415972D02*
X84300452Y-63444425D01*
X84300452Y-63444425D02*
X84300862Y-63444590D01*
X84300862Y-63444590D02*
X84335502Y-63458812D01*
X84335502Y-63458812D02*
X84417731Y-63492731D01*
X84417731Y-63492731D02*
X84541186Y-63543716D01*
X84541186Y-63543716D02*
X84699502Y-63609138D01*
X84699502Y-63609138D02*
X84886314Y-63686366D01*
X84886314Y-63686366D02*
X85095258Y-63772771D01*
X85095258Y-63772771D02*
X85297554Y-63856449D01*
X85297554Y-63856449D02*
X85520800Y-63948412D01*
X85520800Y-63948412D02*
X85727608Y-64032850D01*
X85727608Y-64032850D02*
X85911638Y-64107231D01*
X85911638Y-64107231D02*
X86066549Y-64169026D01*
X86066549Y-64169026D02*
X86186004Y-64215703D01*
X86186004Y-64215703D02*
X86263661Y-64244732D01*
X86263661Y-64244732D02*
X86292644Y-64253678D01*
X86292644Y-64253678D02*
X86325890Y-64231244D01*
X86325890Y-64231244D02*
X86378877Y-64172561D01*
X86378877Y-64172561D02*
X86437296Y-64094311D01*
X86437296Y-64094311D02*
X86622048Y-63871466D01*
X86622048Y-63871466D02*
X86833818Y-63697282D01*
X86833818Y-63697282D02*
X87068144Y-63573846D01*
X87068144Y-63573846D02*
X87320566Y-63503246D01*
X87320566Y-63503246D02*
X87586623Y-63487569D01*
X87586623Y-63487569D02*
X87709425Y-63498964D01*
X87709425Y-63498964D02*
X87964207Y-63561050D01*
X87964207Y-63561050D02*
X88189199Y-63667977D01*
X88189199Y-63667977D02*
X88382183Y-63813111D01*
X88382183Y-63813111D02*
X88540939Y-63989822D01*
X88540939Y-63989822D02*
X88663250Y-64191478D01*
X88663250Y-64191478D02*
X88746895Y-64411446D01*
X88746895Y-64411446D02*
X88789656Y-64643094D01*
X88789656Y-64643094D02*
X88789313Y-64879791D01*
X88789313Y-64879791D02*
X88743648Y-65114905D01*
X88743648Y-65114905D02*
X88650441Y-65341804D01*
X88650441Y-65341804D02*
X88507473Y-65553856D01*
X88507473Y-65553856D02*
X88426617Y-65642364D01*
X88426617Y-65642364D02*
X88218993Y-65812111D01*
X88218993Y-65812111D02*
X87992105Y-65930301D01*
X87992105Y-65930301D02*
X87752567Y-65997722D01*
X87752567Y-65997722D02*
X87506993Y-66015160D01*
X87506993Y-66015160D02*
X87261997Y-65983402D01*
X87261997Y-65983402D02*
X87024192Y-65903235D01*
X87024192Y-65903235D02*
X86800193Y-65775445D01*
X86800193Y-65775445D02*
X86596613Y-65600820D01*
X86596613Y-65600820D02*
X86437296Y-65405688D01*
X86437296Y-65405688D02*
X86376398Y-65324409D01*
X86376398Y-65324409D02*
X86323985Y-65266991D01*
X86323985Y-65266991D02*
X86292594Y-65246322D01*
X86292594Y-65246322D02*
X86258361Y-65257144D01*
X86258361Y-65257144D02*
X86176581Y-65287923D01*
X86176581Y-65287923D02*
X86053593Y-65336126D01*
X86053593Y-65336126D02*
X85895737Y-65399222D01*
X85895737Y-65399222D02*
X85709351Y-65474678D01*
X85709351Y-65474678D02*
X85500774Y-65559962D01*
X85500774Y-65559962D02*
X85297504Y-65643781D01*
X85297504Y-65643781D02*
X85074067Y-65736255D01*
X85074067Y-65736255D02*
X84867016Y-65821911D01*
X84867016Y-65821911D02*
X84682714Y-65898118D01*
X84682714Y-65898118D02*
X84527525Y-65962247D01*
X84527525Y-65962247D02*
X84407812Y-66011668D01*
X84407812Y-66011668D02*
X84329939Y-66043752D01*
X84329939Y-66043752D02*
X84300862Y-66055641D01*
X84300862Y-66055641D02*
X84271323Y-66083726D01*
X84271323Y-66083726D02*
X84271409Y-66138051D01*
X84271409Y-66138051D02*
X84302674Y-66225605D01*
X84302674Y-66225605D02*
X84366671Y-66353381D01*
X84366671Y-66353381D02*
X84367215Y-66354392D01*
X84367215Y-66354392D02*
X84416879Y-66450598D01*
X84416879Y-66450598D02*
X84453055Y-66528369D01*
X84453055Y-66528369D02*
X84468592Y-66572223D01*
X84468592Y-66572223D02*
X84468736Y-66574158D01*
X84468736Y-66574158D02*
X84452976Y-66607171D01*
X84452976Y-66607171D02*
X84409150Y-66680054D01*
X84409150Y-66680054D02*
X84342443Y-66784678D01*
X84342443Y-66784678D02*
X84258036Y-66912910D01*
X84258036Y-66912910D02*
X84162184Y-67055052D01*
X84162184Y-67055052D02*
X84065133Y-67199767D01*
X84065133Y-67199767D02*
X83980730Y-67330196D01*
X83980730Y-67330196D02*
X83914199Y-67437890D01*
X83914199Y-67437890D02*
X83870762Y-67514402D01*
X83870762Y-67514402D02*
X83855632Y-67550938D01*
X83855632Y-67550938D02*
X83875518Y-67584582D01*
X83875518Y-67584582D02*
X83931097Y-67652224D01*
X83931097Y-67652224D02*
X84016246Y-67747107D01*
X84016246Y-67747107D02*
X84124847Y-67862470D01*
X84124847Y-67862470D02*
X84250779Y-67991555D01*
X84250779Y-67991555D02*
X84292851Y-68033771D01*
X84292851Y-68033771D02*
X84730069Y-68470261D01*
X84730069Y-68470261D02*
X85217660Y-68138023D01*
X85217660Y-68138023D02*
X85367395Y-68037054D01*
X85367395Y-68037054D02*
X85501780Y-67948438D01*
X85501780Y-67948438D02*
X85613031Y-67877146D01*
X85613031Y-67877146D02*
X85693361Y-67828150D01*
X85693361Y-67828150D02*
X85734986Y-67806422D01*
X85734986Y-67806422D02*
X85737947Y-67805785D01*
X85737947Y-67805785D02*
X85777182Y-67817240D01*
X85777182Y-67817240D02*
X85856105Y-67848051D01*
X85856105Y-67848051D02*
X85961491Y-67892884D01*
X85961491Y-67892884D02*
X86032046Y-67924353D01*
X86032046Y-67924353D02*
X86167124Y-67983192D01*
X86167124Y-67983192D02*
X86303591Y-68038604D01*
X86303591Y-68038604D02*
X86418897Y-68081564D01*
X86418897Y-68081564D02*
X86454023Y-68093234D01*
X86454023Y-68093234D02*
X86547826Y-68126389D01*
X86547826Y-68126389D02*
X86620306Y-68158799D01*
X86620306Y-68158799D02*
X86647699Y-68176601D01*
X86647699Y-68176601D02*
X86664464Y-68215886D01*
X86664464Y-68215886D02*
X86688230Y-68301626D01*
X86688230Y-68301626D02*
X86716303Y-68422697D01*
X86716303Y-68422697D02*
X86745991Y-68567973D01*
X86745991Y-68567973D02*
X86758194Y-68632988D01*
X86758194Y-68632988D02*
X86788532Y-68798087D01*
X86788532Y-68798087D02*
X86817907Y-68956448D01*
X86817907Y-68956448D02*
X86843431Y-69092596D01*
X86843431Y-69092596D02*
X86862215Y-69191057D01*
X86862215Y-69191057D02*
X86865840Y-69209598D01*
X86865840Y-69209598D02*
X86896094Y-69362873D01*
X86896094Y-69362873D02*
X87534355Y-69362873D01*
X87534355Y-69362873D02*
X87744230Y-69362529D01*
X87744230Y-69362529D02*
X87903020Y-69361116D01*
X87903020Y-69361116D02*
X88018027Y-69358064D01*
X88018027Y-69358064D02*
X88096554Y-69352803D01*
X88096554Y-69352803D02*
X88145904Y-69344763D01*
X88145904Y-69344763D02*
X88173381Y-69333373D01*
X88173381Y-69333373D02*
X88186287Y-69318063D01*
X88186287Y-69318063D02*
X88188680Y-69311782D01*
X88188680Y-69311782D02*
X88197167Y-69273896D01*
X88197167Y-69273896D02*
X88214100Y-69190195D01*
X88214100Y-69190195D02*
X88237434Y-69071433D01*
X88237434Y-69071433D02*
X88265125Y-68928361D01*
X88265125Y-68928361D02*
X88295127Y-68771732D01*
X88295127Y-68771732D02*
X88325396Y-68612297D01*
X88325396Y-68612297D02*
X88353885Y-68460809D01*
X88353885Y-68460809D02*
X88378551Y-68328019D01*
X88378551Y-68328019D02*
X88397349Y-68224681D01*
X88397349Y-68224681D02*
X88408233Y-68161545D01*
X88408233Y-68161545D02*
X88410115Y-68147497D01*
X88410115Y-68147497D02*
X88435296Y-68134770D01*
X88435296Y-68134770D02*
X88502378Y-68106600D01*
X88502378Y-68106600D02*
X88598667Y-68068252D01*
X88598667Y-68068252D02*
X88636379Y-68053609D01*
X88636379Y-68053609D02*
X88782079Y-67994548D01*
X88782079Y-67994548D02*
X88943049Y-67925000D01*
X88943049Y-67925000D02*
X89078709Y-67862712D01*
X89078709Y-67862712D02*
X89182439Y-67816879D01*
X89182439Y-67816879D02*
X89267674Y-67786387D01*
X89267674Y-67786387D02*
X89319874Y-67776208D01*
X89319874Y-67776208D02*
X89326870Y-67777831D01*
X89326870Y-67777831D02*
X89359898Y-67799343D01*
X89359898Y-67799343D02*
X89433357Y-67848465D01*
X89433357Y-67848465D02*
X89539423Y-67919923D01*
X89539423Y-67919923D02*
X89670274Y-68008445D01*
X89670274Y-68008445D02*
X89818088Y-68108759D01*
X89818088Y-68108759D02*
X89847266Y-68128594D01*
X89847266Y-68128594D02*
X90020137Y-68244988D01*
X90020137Y-68244988D02*
X90151774Y-68330548D01*
X90151774Y-68330548D02*
X90248239Y-68388684D01*
X90248239Y-68388684D02*
X90315592Y-68422808D01*
X90315592Y-68422808D02*
X90359894Y-68436331D01*
X90359894Y-68436331D02*
X90387206Y-68432664D01*
X90387206Y-68432664D02*
X90387380Y-68432570D01*
X90387380Y-68432570D02*
X90423254Y-68403707D01*
X90423254Y-68403707D02*
X90492609Y-68339867D01*
X90492609Y-68339867D02*
X90588255Y-68247969D01*
X90588255Y-68247969D02*
X90703001Y-68134933D01*
X90703001Y-68134933D02*
X90829659Y-68007679D01*
X90829659Y-68007679D02*
X90843795Y-67993328D01*
X90843795Y-67993328D02*
X90999097Y-67832957D01*
X90999097Y-67832957D02*
X91113130Y-67709195D01*
X91113130Y-67709195D02*
X91187998Y-67619555D01*
X91187998Y-67619555D02*
X91225804Y-67561552D01*
X91225804Y-67561552D02*
X91230683Y-67536004D01*
X91230683Y-67536004D02*
X91209397Y-67498718D01*
X91209397Y-67498718D02*
X91160227Y-67421343D01*
X91160227Y-67421343D02*
X91088425Y-67311867D01*
X91088425Y-67311867D02*
X90999245Y-67178280D01*
X90999245Y-67178280D02*
X90897937Y-67028570D01*
X90897937Y-67028570D02*
X90874103Y-66993618D01*
X90874103Y-66993618D02*
X90535235Y-66497390D01*
X90535235Y-66497390D02*
X90636944Y-66273293D01*
X90636944Y-66273293D02*
X90696217Y-66137011D01*
X90696217Y-66137011D02*
X90755830Y-65990724D01*
X90755830Y-65990724D02*
X90803360Y-65864965D01*
X90803360Y-65864965D02*
X90805315Y-65859425D01*
X90805315Y-65859425D02*
X90841323Y-65761057D01*
X90841323Y-65761057D02*
X90871771Y-65685229D01*
X90871771Y-65685229D02*
X90890095Y-65648282D01*
X90890095Y-65648282D02*
X90890148Y-65648220D01*
X90890148Y-65648220D02*
X90923271Y-65636496D01*
X90923271Y-65636496D02*
X91004733Y-65616568D01*
X91004733Y-65616568D02*
X91125375Y-65590413D01*
X91125375Y-65590413D02*
X91276041Y-65560010D01*
X91276041Y-65560010D02*
X91447572Y-65527337D01*
X91447572Y-65527337D02*
X91462033Y-65524664D01*
X91462033Y-65524664D02*
X91638765Y-65491890D01*
X91638765Y-65491890D02*
X91799190Y-65461802D01*
X91799190Y-65461802D02*
X91933112Y-65436339D01*
X91933112Y-65436339D02*
X92030337Y-65417441D01*
X92030337Y-65417441D02*
X92080668Y-65407047D01*
X92080668Y-65407047D02*
X92081437Y-65406865D01*
X92081437Y-65406865D02*
X92102847Y-65400539D01*
X92102847Y-65400539D02*
X92119012Y-65388239D01*
X92119012Y-65388239D02*
X92130669Y-65362594D01*
X92130669Y-65362594D02*
X92138555Y-65316235D01*
X92138555Y-65316235D02*
X92143407Y-65241792D01*
X92143407Y-65241792D02*
X92145961Y-65131895D01*
X92145961Y-65131895D02*
X92146955Y-64979175D01*
X92146955Y-64979175D02*
X92147126Y-64776262D01*
X92147126Y-64776262D02*
X92147126Y-64750000D01*
X92147126Y-64750000D02*
X92147002Y-64540986D01*
X92147002Y-64540986D02*
X92147002Y-64540986D01*
G36*
X87612835Y-60137160D02*
G01*
X87804297Y-60137808D01*
X87947188Y-60139720D01*
X88048811Y-60143469D01*
X88116469Y-60149622D01*
X88157464Y-60158751D01*
X88179100Y-60171427D01*
X88188680Y-60188218D01*
X88192561Y-60204474D01*
X88206290Y-60270748D01*
X88227255Y-60376479D01*
X88253412Y-60510915D01*
X88282717Y-60663302D01*
X88313123Y-60822890D01*
X88342587Y-60978925D01*
X88369063Y-61120657D01*
X88390506Y-61237331D01*
X88404872Y-61318197D01*
X88410115Y-61352503D01*
X88413280Y-61354822D01*
X88454358Y-61373474D01*
X88532956Y-61405753D01*
X88636379Y-61446391D01*
X88775727Y-61502788D01*
X88936774Y-61572214D01*
X89078709Y-61637288D01*
X89110568Y-61652202D01*
X89210331Y-61694047D01*
X89287279Y-61719118D01*
X89326870Y-61722426D01*
X89329675Y-61720720D01*
X89370995Y-61693631D01*
X89451260Y-61639927D01*
X89562650Y-61564877D01*
X89697345Y-61473746D01*
X89847524Y-61371800D01*
X90018149Y-61256930D01*
X90150689Y-61170761D01*
X90247888Y-61112131D01*
X90315766Y-61077650D01*
X90360344Y-61063926D01*
X90387639Y-61067568D01*
X90389687Y-61068794D01*
X90429464Y-61101747D01*
X90501948Y-61168927D01*
X90599954Y-61263419D01*
X90716298Y-61378306D01*
X90843795Y-61506672D01*
X90973179Y-61639831D01*
X91094791Y-61770269D01*
X91176844Y-61866119D01*
X91221440Y-61929866D01*
X91230683Y-61963996D01*
X91228607Y-61968456D01*
X91200615Y-62015421D01*
X91145916Y-62100685D01*
X91069763Y-62216259D01*
X90977408Y-62354154D01*
X90874103Y-62506381D01*
X90535235Y-63002610D01*
X90636944Y-63226707D01*
X90639891Y-63233219D01*
X90699496Y-63370804D01*
X90758778Y-63516767D01*
X90805315Y-63640575D01*
X90805507Y-63641122D01*
X90841503Y-63739414D01*
X90871905Y-63815081D01*
X90890148Y-63851780D01*
X90890810Y-63852374D01*
X90928169Y-63864833D01*
X91013129Y-63885336D01*
X91136531Y-63911907D01*
X91289218Y-63942567D01*
X91462033Y-63975336D01*
X91468226Y-63976478D01*
X91644569Y-64009193D01*
X91804257Y-64039155D01*
X91937095Y-64064425D01*
X92032887Y-64083065D01*
X92081437Y-64093135D01*
X92084127Y-64093779D01*
X92104912Y-64100408D01*
X92120534Y-64113841D01*
X92131730Y-64141446D01*
X92139238Y-64190593D01*
X92143795Y-64268653D01*
X92146137Y-64382994D01*
X92147002Y-64540986D01*
X92147126Y-64750000D01*
X92147126Y-64776262D01*
X92146955Y-64979175D01*
X92145961Y-65131895D01*
X92143407Y-65241792D01*
X92138555Y-65316235D01*
X92130669Y-65362594D01*
X92119012Y-65388239D01*
X92102847Y-65400539D01*
X92081437Y-65406865D01*
X92080668Y-65407047D01*
X92030337Y-65417441D01*
X91933112Y-65436339D01*
X91799190Y-65461802D01*
X91638765Y-65491890D01*
X91462033Y-65524664D01*
X91447572Y-65527337D01*
X91276041Y-65560010D01*
X91125375Y-65590413D01*
X91004733Y-65616568D01*
X90923271Y-65636496D01*
X90890148Y-65648220D01*
X90890095Y-65648282D01*
X90871771Y-65685229D01*
X90841323Y-65761057D01*
X90805315Y-65859425D01*
X90803360Y-65864965D01*
X90755830Y-65990724D01*
X90696217Y-66137011D01*
X90636944Y-66273293D01*
X90535235Y-66497390D01*
X90874103Y-66993618D01*
X90897937Y-67028570D01*
X90999245Y-67178280D01*
X91088425Y-67311867D01*
X91160227Y-67421343D01*
X91209397Y-67498718D01*
X91230683Y-67536004D01*
X91225804Y-67561552D01*
X91187998Y-67619555D01*
X91113130Y-67709195D01*
X90999097Y-67832957D01*
X90843795Y-67993328D01*
X90829659Y-68007679D01*
X90703001Y-68134933D01*
X90588255Y-68247969D01*
X90492609Y-68339867D01*
X90423254Y-68403707D01*
X90387380Y-68432570D01*
X90387206Y-68432664D01*
X90359894Y-68436331D01*
X90315592Y-68422808D01*
X90248239Y-68388684D01*
X90151774Y-68330548D01*
X90020137Y-68244988D01*
X89847266Y-68128594D01*
X89818088Y-68108759D01*
X89670274Y-68008445D01*
X89539423Y-67919923D01*
X89433357Y-67848465D01*
X89359898Y-67799343D01*
X89326870Y-67777831D01*
X89319874Y-67776208D01*
X89267674Y-67786387D01*
X89182439Y-67816879D01*
X89078709Y-67862712D01*
X88943049Y-67925000D01*
X88782079Y-67994548D01*
X88636379Y-68053609D01*
X88598667Y-68068252D01*
X88502378Y-68106600D01*
X88435296Y-68134770D01*
X88410115Y-68147497D01*
X88408233Y-68161545D01*
X88397349Y-68224681D01*
X88378551Y-68328019D01*
X88353885Y-68460809D01*
X88325396Y-68612297D01*
X88295127Y-68771732D01*
X88265125Y-68928361D01*
X88237434Y-69071433D01*
X88214100Y-69190195D01*
X88197167Y-69273896D01*
X88188680Y-69311782D01*
X88186287Y-69318063D01*
X88173381Y-69333373D01*
X88145904Y-69344763D01*
X88096554Y-69352803D01*
X88018027Y-69358064D01*
X87903020Y-69361116D01*
X87744230Y-69362529D01*
X87534355Y-69362873D01*
X86896094Y-69362873D01*
X86865840Y-69209598D01*
X86862215Y-69191057D01*
X86843431Y-69092596D01*
X86817907Y-68956448D01*
X86788532Y-68798087D01*
X86758194Y-68632988D01*
X86745991Y-68567973D01*
X86716303Y-68422697D01*
X86688230Y-68301626D01*
X86664464Y-68215886D01*
X86647699Y-68176601D01*
X86620306Y-68158799D01*
X86547826Y-68126389D01*
X86454023Y-68093234D01*
X86418897Y-68081564D01*
X86303591Y-68038604D01*
X86167124Y-67983192D01*
X86032046Y-67924353D01*
X85961491Y-67892884D01*
X85856105Y-67848051D01*
X85777182Y-67817240D01*
X85737947Y-67805785D01*
X85734986Y-67806422D01*
X85693361Y-67828150D01*
X85613031Y-67877146D01*
X85501780Y-67948438D01*
X85367395Y-68037054D01*
X85217660Y-68138023D01*
X84730069Y-68470261D01*
X84292851Y-68033771D01*
X84250779Y-67991555D01*
X84124847Y-67862470D01*
X84016246Y-67747107D01*
X83931097Y-67652224D01*
X83875518Y-67584582D01*
X83855632Y-67550938D01*
X83870762Y-67514402D01*
X83914199Y-67437890D01*
X83980730Y-67330196D01*
X84065133Y-67199767D01*
X84162184Y-67055052D01*
X84258036Y-66912910D01*
X84342443Y-66784678D01*
X84409150Y-66680054D01*
X84452976Y-66607171D01*
X84468736Y-66574158D01*
X84468592Y-66572223D01*
X84453055Y-66528369D01*
X84416879Y-66450598D01*
X84367215Y-66354392D01*
X84366671Y-66353381D01*
X84302674Y-66225605D01*
X84271409Y-66138051D01*
X84271323Y-66083726D01*
X84300862Y-66055641D01*
X84329939Y-66043752D01*
X84407812Y-66011668D01*
X84527525Y-65962247D01*
X84682714Y-65898118D01*
X84867016Y-65821911D01*
X85074067Y-65736255D01*
X85297504Y-65643781D01*
X85500774Y-65559962D01*
X85709351Y-65474678D01*
X85895737Y-65399222D01*
X86053593Y-65336126D01*
X86176581Y-65287923D01*
X86258361Y-65257144D01*
X86292594Y-65246322D01*
X86323985Y-65266991D01*
X86376398Y-65324409D01*
X86437296Y-65405688D01*
X86596613Y-65600820D01*
X86800193Y-65775445D01*
X87024192Y-65903235D01*
X87261997Y-65983402D01*
X87506993Y-66015160D01*
X87752567Y-65997722D01*
X87992105Y-65930301D01*
X88218993Y-65812111D01*
X88426617Y-65642364D01*
X88507473Y-65553856D01*
X88650441Y-65341804D01*
X88743648Y-65114905D01*
X88789313Y-64879791D01*
X88789656Y-64643094D01*
X88746895Y-64411446D01*
X88663250Y-64191478D01*
X88540939Y-63989822D01*
X88382183Y-63813111D01*
X88189199Y-63667977D01*
X87964207Y-63561050D01*
X87709425Y-63498964D01*
X87586623Y-63487569D01*
X87320566Y-63503246D01*
X87068144Y-63573846D01*
X86833818Y-63697282D01*
X86622048Y-63871466D01*
X86437296Y-64094311D01*
X86378877Y-64172561D01*
X86325890Y-64231244D01*
X86292644Y-64253678D01*
X86263661Y-64244732D01*
X86186004Y-64215703D01*
X86066549Y-64169026D01*
X85911638Y-64107231D01*
X85727608Y-64032850D01*
X85520800Y-63948412D01*
X85297554Y-63856449D01*
X85095258Y-63772771D01*
X84886314Y-63686366D01*
X84699502Y-63609138D01*
X84541186Y-63543716D01*
X84417731Y-63492731D01*
X84335502Y-63458812D01*
X84300862Y-63444590D01*
X84300452Y-63444425D01*
X84271202Y-63415972D01*
X84271537Y-63361382D01*
X84303020Y-63273609D01*
X84367215Y-63145608D01*
X84372620Y-63135532D01*
X84421250Y-63040481D01*
X84455672Y-62965424D01*
X84468736Y-62925842D01*
X84453298Y-62893400D01*
X84409742Y-62820895D01*
X84343249Y-62716565D01*
X84259002Y-62588539D01*
X84162184Y-62444948D01*
X84067266Y-62303468D01*
X83982510Y-62172611D01*
X83915504Y-62064292D01*
X83871471Y-61986960D01*
X83855632Y-61949062D01*
X83857643Y-61942607D01*
X83889342Y-61897609D01*
X83954819Y-61820727D01*
X84047952Y-61718721D01*
X84162619Y-61598351D01*
X84292700Y-61466379D01*
X84729768Y-61030039D01*
X85729560Y-61709733D01*
X85953114Y-61606402D01*
X85953775Y-61606096D01*
X86096286Y-61544046D01*
X86254982Y-61480640D01*
X86395632Y-61429558D01*
X86418317Y-61421827D01*
X86523630Y-61382852D01*
X86605466Y-61347707D01*
X86647699Y-61323195D01*
X86653663Y-61313212D01*
X86673671Y-61253286D01*
X86699558Y-61151532D01*
X86728630Y-61019068D01*
X86758194Y-60867011D01*
X86766533Y-60821466D01*
X86796893Y-60656685D01*
X86825491Y-60502930D01*
X86849436Y-60375678D01*
X86865840Y-60290402D01*
X86896094Y-60137126D01*
X87534355Y-60137126D01*
X87612835Y-60137160D01*
G37*
X87612835Y-60137160D02*
X87804297Y-60137808D01*
X87947188Y-60139720D01*
X88048811Y-60143469D01*
X88116469Y-60149622D01*
X88157464Y-60158751D01*
X88179100Y-60171427D01*
X88188680Y-60188218D01*
X88192561Y-60204474D01*
X88206290Y-60270748D01*
X88227255Y-60376479D01*
X88253412Y-60510915D01*
X88282717Y-60663302D01*
X88313123Y-60822890D01*
X88342587Y-60978925D01*
X88369063Y-61120657D01*
X88390506Y-61237331D01*
X88404872Y-61318197D01*
X88410115Y-61352503D01*
X88413280Y-61354822D01*
X88454358Y-61373474D01*
X88532956Y-61405753D01*
X88636379Y-61446391D01*
X88775727Y-61502788D01*
X88936774Y-61572214D01*
X89078709Y-61637288D01*
X89110568Y-61652202D01*
X89210331Y-61694047D01*
X89287279Y-61719118D01*
X89326870Y-61722426D01*
X89329675Y-61720720D01*
X89370995Y-61693631D01*
X89451260Y-61639927D01*
X89562650Y-61564877D01*
X89697345Y-61473746D01*
X89847524Y-61371800D01*
X90018149Y-61256930D01*
X90150689Y-61170761D01*
X90247888Y-61112131D01*
X90315766Y-61077650D01*
X90360344Y-61063926D01*
X90387639Y-61067568D01*
X90389687Y-61068794D01*
X90429464Y-61101747D01*
X90501948Y-61168927D01*
X90599954Y-61263419D01*
X90716298Y-61378306D01*
X90843795Y-61506672D01*
X90973179Y-61639831D01*
X91094791Y-61770269D01*
X91176844Y-61866119D01*
X91221440Y-61929866D01*
X91230683Y-61963996D01*
X91228607Y-61968456D01*
X91200615Y-62015421D01*
X91145916Y-62100685D01*
X91069763Y-62216259D01*
X90977408Y-62354154D01*
X90874103Y-62506381D01*
X90535235Y-63002610D01*
X90636944Y-63226707D01*
X90639891Y-63233219D01*
X90699496Y-63370804D01*
X90758778Y-63516767D01*
X90805315Y-63640575D01*
X90805507Y-63641122D01*
X90841503Y-63739414D01*
X90871905Y-63815081D01*
X90890148Y-63851780D01*
X90890810Y-63852374D01*
X90928169Y-63864833D01*
X91013129Y-63885336D01*
X91136531Y-63911907D01*
X91289218Y-63942567D01*
X91462033Y-63975336D01*
X91468226Y-63976478D01*
X91644569Y-64009193D01*
X91804257Y-64039155D01*
X91937095Y-64064425D01*
X92032887Y-64083065D01*
X92081437Y-64093135D01*
X92084127Y-64093779D01*
X92104912Y-64100408D01*
X92120534Y-64113841D01*
X92131730Y-64141446D01*
X92139238Y-64190593D01*
X92143795Y-64268653D01*
X92146137Y-64382994D01*
X92147002Y-64540986D01*
X92147126Y-64750000D01*
X92147126Y-64776262D01*
X92146955Y-64979175D01*
X92145961Y-65131895D01*
X92143407Y-65241792D01*
X92138555Y-65316235D01*
X92130669Y-65362594D01*
X92119012Y-65388239D01*
X92102847Y-65400539D01*
X92081437Y-65406865D01*
X92080668Y-65407047D01*
X92030337Y-65417441D01*
X91933112Y-65436339D01*
X91799190Y-65461802D01*
X91638765Y-65491890D01*
X91462033Y-65524664D01*
X91447572Y-65527337D01*
X91276041Y-65560010D01*
X91125375Y-65590413D01*
X91004733Y-65616568D01*
X90923271Y-65636496D01*
X90890148Y-65648220D01*
X90890095Y-65648282D01*
X90871771Y-65685229D01*
X90841323Y-65761057D01*
X90805315Y-65859425D01*
X90803360Y-65864965D01*
X90755830Y-65990724D01*
X90696217Y-66137011D01*
X90636944Y-66273293D01*
X90535235Y-66497390D01*
X90874103Y-66993618D01*
X90897937Y-67028570D01*
X90999245Y-67178280D01*
X91088425Y-67311867D01*
X91160227Y-67421343D01*
X91209397Y-67498718D01*
X91230683Y-67536004D01*
X91225804Y-67561552D01*
X91187998Y-67619555D01*
X91113130Y-67709195D01*
X90999097Y-67832957D01*
X90843795Y-67993328D01*
X90829659Y-68007679D01*
X90703001Y-68134933D01*
X90588255Y-68247969D01*
X90492609Y-68339867D01*
X90423254Y-68403707D01*
X90387380Y-68432570D01*
X90387206Y-68432664D01*
X90359894Y-68436331D01*
X90315592Y-68422808D01*
X90248239Y-68388684D01*
X90151774Y-68330548D01*
X90020137Y-68244988D01*
X89847266Y-68128594D01*
X89818088Y-68108759D01*
X89670274Y-68008445D01*
X89539423Y-67919923D01*
X89433357Y-67848465D01*
X89359898Y-67799343D01*
X89326870Y-67777831D01*
X89319874Y-67776208D01*
X89267674Y-67786387D01*
X89182439Y-67816879D01*
X89078709Y-67862712D01*
X88943049Y-67925000D01*
X88782079Y-67994548D01*
X88636379Y-68053609D01*
X88598667Y-68068252D01*
X88502378Y-68106600D01*
X88435296Y-68134770D01*
X88410115Y-68147497D01*
X88408233Y-68161545D01*
X88397349Y-68224681D01*
X88378551Y-68328019D01*
X88353885Y-68460809D01*
X88325396Y-68612297D01*
X88295127Y-68771732D01*
X88265125Y-68928361D01*
X88237434Y-69071433D01*
X88214100Y-69190195D01*
X88197167Y-69273896D01*
X88188680Y-69311782D01*
X88186287Y-69318063D01*
X88173381Y-69333373D01*
X88145904Y-69344763D01*
X88096554Y-69352803D01*
X88018027Y-69358064D01*
X87903020Y-69361116D01*
X87744230Y-69362529D01*
X87534355Y-69362873D01*
X86896094Y-69362873D01*
X86865840Y-69209598D01*
X86862215Y-69191057D01*
X86843431Y-69092596D01*
X86817907Y-68956448D01*
X86788532Y-68798087D01*
X86758194Y-68632988D01*
X86745991Y-68567973D01*
X86716303Y-68422697D01*
X86688230Y-68301626D01*
X86664464Y-68215886D01*
X86647699Y-68176601D01*
X86620306Y-68158799D01*
X86547826Y-68126389D01*
X86454023Y-68093234D01*
X86418897Y-68081564D01*
X86303591Y-68038604D01*
X86167124Y-67983192D01*
X86032046Y-67924353D01*
X85961491Y-67892884D01*
X85856105Y-67848051D01*
X85777182Y-67817240D01*
X85737947Y-67805785D01*
X85734986Y-67806422D01*
X85693361Y-67828150D01*
X85613031Y-67877146D01*
X85501780Y-67948438D01*
X85367395Y-68037054D01*
X85217660Y-68138023D01*
X84730069Y-68470261D01*
X84292851Y-68033771D01*
X84250779Y-67991555D01*
X84124847Y-67862470D01*
X84016246Y-67747107D01*
X83931097Y-67652224D01*
X83875518Y-67584582D01*
X83855632Y-67550938D01*
X83870762Y-67514402D01*
X83914199Y-67437890D01*
X83980730Y-67330196D01*
X84065133Y-67199767D01*
X84162184Y-67055052D01*
X84258036Y-66912910D01*
X84342443Y-66784678D01*
X84409150Y-66680054D01*
X84452976Y-66607171D01*
X84468736Y-66574158D01*
X84468592Y-66572223D01*
X84453055Y-66528369D01*
X84416879Y-66450598D01*
X84367215Y-66354392D01*
X84366671Y-66353381D01*
X84302674Y-66225605D01*
X84271409Y-66138051D01*
X84271323Y-66083726D01*
X84300862Y-66055641D01*
X84329939Y-66043752D01*
X84407812Y-66011668D01*
X84527525Y-65962247D01*
X84682714Y-65898118D01*
X84867016Y-65821911D01*
X85074067Y-65736255D01*
X85297504Y-65643781D01*
X85500774Y-65559962D01*
X85709351Y-65474678D01*
X85895737Y-65399222D01*
X86053593Y-65336126D01*
X86176581Y-65287923D01*
X86258361Y-65257144D01*
X86292594Y-65246322D01*
X86323985Y-65266991D01*
X86376398Y-65324409D01*
X86437296Y-65405688D01*
X86596613Y-65600820D01*
X86800193Y-65775445D01*
X87024192Y-65903235D01*
X87261997Y-65983402D01*
X87506993Y-66015160D01*
X87752567Y-65997722D01*
X87992105Y-65930301D01*
X88218993Y-65812111D01*
X88426617Y-65642364D01*
X88507473Y-65553856D01*
X88650441Y-65341804D01*
X88743648Y-65114905D01*
X88789313Y-64879791D01*
X88789656Y-64643094D01*
X88746895Y-64411446D01*
X88663250Y-64191478D01*
X88540939Y-63989822D01*
X88382183Y-63813111D01*
X88189199Y-63667977D01*
X87964207Y-63561050D01*
X87709425Y-63498964D01*
X87586623Y-63487569D01*
X87320566Y-63503246D01*
X87068144Y-63573846D01*
X86833818Y-63697282D01*
X86622048Y-63871466D01*
X86437296Y-64094311D01*
X86378877Y-64172561D01*
X86325890Y-64231244D01*
X86292644Y-64253678D01*
X86263661Y-64244732D01*
X86186004Y-64215703D01*
X86066549Y-64169026D01*
X85911638Y-64107231D01*
X85727608Y-64032850D01*
X85520800Y-63948412D01*
X85297554Y-63856449D01*
X85095258Y-63772771D01*
X84886314Y-63686366D01*
X84699502Y-63609138D01*
X84541186Y-63543716D01*
X84417731Y-63492731D01*
X84335502Y-63458812D01*
X84300862Y-63444590D01*
X84300452Y-63444425D01*
X84271202Y-63415972D01*
X84271537Y-63361382D01*
X84303020Y-63273609D01*
X84367215Y-63145608D01*
X84372620Y-63135532D01*
X84421250Y-63040481D01*
X84455672Y-62965424D01*
X84468736Y-62925842D01*
X84453298Y-62893400D01*
X84409742Y-62820895D01*
X84343249Y-62716565D01*
X84259002Y-62588539D01*
X84162184Y-62444948D01*
X84067266Y-62303468D01*
X83982510Y-62172611D01*
X83915504Y-62064292D01*
X83871471Y-61986960D01*
X83855632Y-61949062D01*
X83857643Y-61942607D01*
X83889342Y-61897609D01*
X83954819Y-61820727D01*
X84047952Y-61718721D01*
X84162619Y-61598351D01*
X84292700Y-61466379D01*
X84729768Y-61030039D01*
X85729560Y-61709733D01*
X85953114Y-61606402D01*
X85953775Y-61606096D01*
X86096286Y-61544046D01*
X86254982Y-61480640D01*
X86395632Y-61429558D01*
X86418317Y-61421827D01*
X86523630Y-61382852D01*
X86605466Y-61347707D01*
X86647699Y-61323195D01*
X86653663Y-61313212D01*
X86673671Y-61253286D01*
X86699558Y-61151532D01*
X86728630Y-61019068D01*
X86758194Y-60867011D01*
X86766533Y-60821466D01*
X86796893Y-60656685D01*
X86825491Y-60502930D01*
X86849436Y-60375678D01*
X86865840Y-60290402D01*
X86896094Y-60137126D01*
X87534355Y-60137126D01*
X87612835Y-60137160D01*
D14*
%TO.C,PS3*%
X137500000Y-95000000D02*
X136895000Y-95000000D01*
X136895000Y-84000000D02*
X137500000Y-84000000D01*
X130105000Y-95000000D02*
X129500000Y-95000000D01*
X137500000Y-84000000D02*
X137500000Y-95000000D01*
X129500000Y-84000000D02*
X130105000Y-84000000D01*
X129500000Y-95000000D02*
X129500000Y-84000000D01*
D15*
X136140000Y-82890000D02*
G75*
G03*
X136140000Y-82890000I-100000J0D01*
G01*
D16*
%TO.C,Brd1*%
X132900000Y-42450000D02*
X105500000Y-42450000D01*
X106038000Y-45733000D02*
X106292000Y-45745000D01*
X109378000Y-62345000D02*
X132478000Y-62345000D01*
X132900000Y-69750000D02*
X132900000Y-42450000D01*
X114420000Y-45352000D02*
X124199000Y-45352000D01*
X105500000Y-69750000D02*
X132900000Y-69750000D01*
X106038000Y-62370000D02*
X106038000Y-45733000D01*
X109378000Y-62345000D02*
X106038000Y-62370000D01*
X132478000Y-62345000D02*
X132478000Y-45745000D01*
X124199000Y-42939000D02*
X114420000Y-42939000D01*
X114420000Y-42939000D02*
X114420000Y-45352000D01*
X109378000Y-45745000D02*
X106292000Y-45745000D01*
X132478000Y-45745000D02*
X109378000Y-45745000D01*
X105500000Y-42450000D02*
X105500000Y-69750000D01*
X124199000Y-42939000D02*
X124199000Y-45352000D01*
D14*
%TO.C,PS2*%
X115500000Y-84000000D02*
X116105000Y-84000000D01*
X123500000Y-95000000D02*
X122895000Y-95000000D01*
X122895000Y-84000000D02*
X123500000Y-84000000D01*
X123500000Y-84000000D02*
X123500000Y-95000000D01*
X115500000Y-95000000D02*
X115500000Y-84000000D01*
X116105000Y-95000000D02*
X115500000Y-95000000D01*
D15*
X122140000Y-82890000D02*
G75*
G03*
X122140000Y-82890000I-100000J0D01*
G01*
D14*
%TO.C,PS1*%
X101500000Y-84000000D02*
X102105000Y-84000000D01*
X108895000Y-84000000D02*
X109500000Y-84000000D01*
X109500000Y-84000000D02*
X109500000Y-95000000D01*
X102105000Y-95000000D02*
X101500000Y-95000000D01*
X109500000Y-95000000D02*
X108895000Y-95000000D01*
X101500000Y-95000000D02*
X101500000Y-84000000D01*
D15*
X108140000Y-82890000D02*
G75*
G03*
X108140000Y-82890000I-100000J0D01*
G01*
%TD*%
M02*
