M48
; DRILL file {KiCad (5.99.0-10406-ge27733587d)} date Tue Jun  8 13:11:26 2021
; FORMAT={-:-/ absolute / inch / decimal}
; #@! TF.CreationDate,2021-06-08T13:11:26+05:30
; #@! TF.GenerationSoftware,Kicad,Pcbnew,(5.99.0-10406-ge27733587d)
; #@! TF.FileFunction,MixedPlating,1,2
FMAT,2
INCH
; #@! TA.AperFunction,Plated,PTH,ViaDrill
T1C0.0157
; #@! TA.AperFunction,Plated,PTH,ComponentDrill
T2C0.0197
; #@! TA.AperFunction,Plated,PTH,ComponentDrill
T3C0.0287
; #@! TA.AperFunction,Plated,PTH,ViaDrill
T4C0.0315
; #@! TA.AperFunction,Plated,PTH,ComponentDrill
T5C0.0315
; #@! TA.AperFunction,Plated,PTH,ComponentDrill
T6C0.0374
; #@! TA.AperFunction,Plated,PTH,ComponentDrill
T7C0.0394
; #@! TA.AperFunction,Plated,PTH,ComponentDrill
T8C0.0402
; #@! TA.AperFunction,Plated,PTH,ComponentDrill
T9C0.0433
; #@! TA.AperFunction,Plated,PTH,ComponentDrill
T10C0.0512
; #@! TA.AperFunction,Plated,PTH,ComponentDrill
T11C0.0598
; #@! TA.AperFunction,Plated,PTH,ComponentDrill
T12C0.1260
; #@! TA.AperFunction,NonPlated,NPTH,ComponentDrill
T13C0.0394
%
G90
G05
T1
X2.2244Y-2.6969
X2.2638Y-2.7362
X2.3031Y-3.6417
X2.3425Y-3.6713
X2.5Y-2.4803
X2.5Y-2.5591
X2.5Y-2.6378
X2.5Y-2.7165
X2.5Y-3.6122
X2.5787Y-2.4803
X2.5787Y-2.5591
X2.5787Y-2.6378
X2.5787Y-2.7165
X2.6299Y-3.4016
X2.6575Y-2.4803
X2.6575Y-2.5591
X2.6575Y-2.6378
X2.6575Y-2.7165
X2.6732Y-2.9961
X2.7362Y-2.3228
X2.7362Y-2.4803
X2.7362Y-2.5591
X2.7362Y-2.6378
X2.7362Y-2.7165
X2.7362Y-3.4134
X2.7559Y-3.2244
X2.815Y-2.3228
X2.815Y-2.4803
X2.815Y-2.5591
X2.815Y-2.6378
X2.815Y-2.7165
X2.8937Y-2.3228
X2.8937Y-2.4803
X2.8937Y-2.5591
X2.8937Y-2.6378
X2.8937Y-2.7165
X3.3346Y-2.4213
X3.3858Y-2.4803
X3.3858Y-2.5591
X3.3858Y-2.6378
X3.4646Y-2.4803
X3.4646Y-2.5591
X3.4646Y-2.6378
X3.5039Y-3.1654
X3.5433Y-2.4803
X3.5433Y-2.5591
X3.5433Y-2.6378
X3.622Y-2.4803
X3.622Y-2.5591
X3.622Y-2.6378
X3.7008Y-2.4803
X3.7008Y-2.5591
X3.7008Y-2.6378
X3.7795Y-2.4803
X3.7795Y-2.5591
X3.7795Y-2.6378
X3.8189Y-1.7362
X3.9567Y-3.3819
X3.9646Y-1.874
X4.0247Y-3.5236
X4.0551Y-3.1929
X4.0551Y-3.4803
X4.1024Y-3.5236
X4.4213Y-2.9567
X4.4213Y-3.0866
X4.4843Y-3.3661
X4.5Y-3.6496
X4.5472Y-2.315
X4.6063Y-3.4803
X4.6102Y-2.4173
X4.6457Y-2.1457
X4.8031Y-1.9921
X4.8228Y-2.0748
X4.8425Y-2.0315
X4.878Y-2.3071
X4.8976Y-3.6496
X5.0197Y-2.5118
X5.0315Y-3.201
X5.0551Y-2.4803
X5.0945Y-2.4488
X5.0984Y-3.0868
X5.0984Y-3.1419
X5.1575Y-3.4803
X5.1732Y-3.0238
X5.2756Y-1.6535
X5.3543Y-1.6535
X5.3543Y-1.7323
X5.4331Y-1.6535
X5.4331Y-1.7323
X5.4331Y-1.811
X5.4488Y-3.6496
X5.5118Y-1.6535
X5.5118Y-1.7323
X5.5118Y-1.811
X5.5118Y-1.8898
X5.5118Y-1.9685
X5.5906Y-1.9685
X5.6693Y-1.9685
X5.748Y-1.9685
X5.8268Y-1.9685
T2
X2.0709Y-1.7717
X2.0709Y-5.315
X2.0985Y-1.7048
X2.0985Y-1.8385
X2.0985Y-5.2481
X2.0985Y-5.3818
X2.1654Y-1.6772
X2.1654Y-1.8661
X2.1654Y-5.2205
X2.1654Y-5.4094
X2.2322Y-1.7048
X2.2322Y-1.8385
X2.2322Y-5.2481
X2.2322Y-5.3818
X2.2598Y-1.7717
X2.2598Y-5.315
X5.6142Y-1.7717
X5.6142Y-5.315
X5.6418Y-1.7048
X5.6418Y-1.8385
X5.6418Y-5.2481
X5.6418Y-5.3818
X5.7087Y-1.6772
X5.7087Y-1.8661
X5.7087Y-5.2205
X5.7087Y-5.4094
X5.7755Y-1.7048
X5.7755Y-1.8385
X5.7755Y-5.2481
X5.7755Y-5.3818
X5.8031Y-1.7717
X5.8031Y-5.315
T3
X4.0535Y-3.3022
X4.0535Y-3.7451
X4.1535Y-3.3022
X4.1535Y-3.7451
X4.2535Y-3.3022
X4.2535Y-3.7451
X4.6047Y-3.3022
X4.6047Y-3.7451
X4.7047Y-3.3022
X4.7047Y-3.7451
X4.8047Y-3.3022
X4.8047Y-3.7451
X5.1559Y-3.3022
X5.1559Y-3.7451
X5.2559Y-3.3022
X5.2559Y-3.7451
X5.3559Y-3.3022
X5.3559Y-3.7451
T4
X5.2913Y-1.7913
T5
X3.1632Y-3.3435
X3.1632Y-3.6435
X3.2632Y-3.3435
X3.2632Y-3.6435
X3.3632Y-3.3435
X3.3632Y-3.6435
X3.4632Y-3.3435
X3.4632Y-3.6435
X3.5632Y-3.3435
X3.5632Y-3.6435
X3.6632Y-3.3435
X3.6632Y-3.6435
X3.7632Y-3.3435
X3.7632Y-3.6435
X3.8632Y-3.3435
X3.8632Y-3.6435
X5.374Y-3.9507
X5.374Y-4.0885
X5.374Y-4.3641
X5.374Y-4.5019
T6
X2.1368Y-3.8189
X2.1368Y-3.9173
X2.1368Y-4.0157
X2.1368Y-4.1142
X2.815Y-1.7431
X2.9134Y-1.7431
X3.0118Y-1.7431
X3.1102Y-1.7431
T7
X2.1368Y-3.4055
X2.1368Y-3.5039
X2.6654Y-3.5335
X2.9646Y-3.5335
X3.5728Y-1.7431
X3.6713Y-1.7431
X4.5472Y-1.7382
X4.6472Y-1.7382
X4.7472Y-1.7382
X4.8472Y-1.7382
X5.7372Y-3.1201
X5.7372Y-3.2185
T8
X2.0551Y-2.0341
X2.0551Y-3.0841
X2.1387Y-2.2091
X2.1387Y-2.9091
X2.1551Y-2.0341
X2.1551Y-3.0841
X2.2387Y-2.2091
X2.2387Y-2.9091
X2.2551Y-2.0341
X2.2551Y-3.0841
X2.3387Y-2.2091
X2.3387Y-2.9091
X2.3551Y-2.0341
X2.3551Y-3.0841
X2.4387Y-2.2091
X2.4387Y-2.9091
X2.4551Y-2.0341
X2.4551Y-3.0841
X2.5387Y-2.2091
X2.5387Y-2.9091
X2.5551Y-2.0341
X2.5551Y-3.0841
X2.6387Y-2.2091
X2.6387Y-2.9091
X2.6551Y-2.0341
X2.6551Y-3.0841
X2.7387Y-2.2091
X2.7387Y-2.9091
X2.7551Y-2.0341
X2.7551Y-3.0841
X2.8387Y-2.2091
X2.8387Y-2.9091
X2.8551Y-2.0341
X2.8551Y-3.0841
X2.9387Y-2.2091
X2.9387Y-2.9091
X2.9551Y-2.0341
X2.9551Y-3.0841
X3.0387Y-2.2091
X3.0387Y-2.9091
X3.0551Y-2.0341
X3.0551Y-3.0841
X3.1387Y-2.2091
X3.1387Y-2.9091
X3.1551Y-2.0341
X3.1551Y-3.0841
X3.2387Y-2.2091
X3.2387Y-2.9091
X3.2551Y-2.0341
X3.2551Y-3.0841
X3.3387Y-2.2091
X3.3387Y-2.9091
X3.3551Y-2.0341
X3.3551Y-3.0841
X3.4387Y-2.2091
X3.4387Y-2.9091
X3.4551Y-2.0341
X3.4551Y-3.0841
X3.5387Y-2.2091
X3.5387Y-2.9091
X3.5551Y-2.0341
X3.5551Y-3.0841
X3.6387Y-2.2091
X3.6387Y-2.9091
X3.6551Y-2.0341
X3.6551Y-3.0841
X3.7387Y-2.2091
X3.7387Y-2.9091
X3.7551Y-2.0341
X3.7551Y-3.0841
X3.8387Y-2.2091
X3.8387Y-2.9091
X3.8551Y-2.0341
X3.8551Y-3.0841
X3.9551Y-2.0341
X3.9551Y-3.0841
X4.0551Y-2.0341
X4.0551Y-3.0841
T9
X3.2264Y-4.8642
X3.2264Y-5.0
X3.6264Y-4.8642
X3.6264Y-5.0
X3.9339Y-4.8642
X3.9339Y-5.0
X4.3339Y-4.8642
X4.3339Y-5.0
X4.6425Y-4.8642
X4.6425Y-5.0
X5.0425Y-4.8642
X5.0425Y-5.0
X5.6911Y-3.6205
X5.6911Y-3.7205
X5.6911Y-3.8205
X5.6911Y-4.2504
X5.6911Y-4.3504
X5.6911Y-4.4504
T10
X2.4803Y-4.1535
X2.4803Y-4.6339
X2.7165Y-4.0748
X2.9528Y-4.1535
X2.9528Y-4.6339
X3.189Y-4.1535
X3.189Y-4.6339
X3.4252Y-4.0748
X3.6614Y-4.1535
X3.6614Y-4.6339
X3.8976Y-4.1535
X3.8976Y-4.6339
X4.1339Y-4.0748
X4.3701Y-4.1535
X4.3701Y-4.6339
X4.6063Y-4.1535
X4.6063Y-4.6339
X4.8425Y-4.0748
X5.0787Y-4.1535
X5.0787Y-4.6339
T11
X2.126Y-4.4669
X2.126Y-4.6669
X2.6559Y-5.3543
X2.8559Y-5.3543
X3.2264Y-5.3543
X3.4264Y-5.3543
X3.6264Y-5.3543
X3.9339Y-5.3543
X4.1339Y-5.3543
X4.3339Y-5.3543
X4.6425Y-5.3543
X4.8425Y-5.3543
X5.0425Y-5.3543
X5.7087Y-2.1047
X5.7087Y-2.3047
X5.7087Y-2.5969
X5.7087Y-2.7969
T12
X2.1654Y-1.7717
X2.1654Y-5.315
X5.7087Y-1.7717
X5.7087Y-5.315
T13
X4.2035Y-3.5433
X4.7547Y-3.5433
X5.3059Y-3.5433
T5
G00X5.3406Y-4.9764
M15
G01X5.3406Y-4.874
M16
G05
G00X5.502Y-4.7362
M15
G01X5.4154Y-4.7362
M16
G05
G00X5.5689Y-4.9685
M15
G01X5.5689Y-4.8819
M16
G05
T0
M30
