%TF.GenerationSoftware,KiCad,Pcbnew,(5.99.0-10406-ge27733587d)*%
%TF.CreationDate,2021-05-29T12:27:52+05:30*%
%TF.ProjectId,OxiKit-Brainboard_v1,4f78694b-6974-42d4-9272-61696e626f61,rev?*%
%TF.SameCoordinates,Original*%
%TF.FileFunction,Soldermask,Bot*%
%TF.FilePolarity,Negative*%
%FSLAX46Y46*%
G04 Gerber Fmt 4.6, Leading zero omitted, Abs format (unit mm)*
G04 Created by KiCad (PCBNEW (5.99.0-10406-ge27733587d)) date 2021-05-29 12:27:52*
%MOMM*%
%LPD*%
G01*
G04 APERTURE LIST*
G04 Aperture macros list*
%AMRoundRect*
0 Rectangle with rounded corners*
0 $1 Rounding radius*
0 $2 $3 $4 $5 $6 $7 $8 $9 X,Y pos of 4 corners*
0 Add a 4 corners polygon primitive as box body*
4,1,4,$2,$3,$4,$5,$6,$7,$8,$9,$2,$3,0*
0 Add four circle primitives for the rounded corners*
1,1,$1+$1,$2,$3*
1,1,$1+$1,$4,$5*
1,1,$1+$1,$6,$7*
1,1,$1+$1,$8,$9*
0 Add four rect primitives between the rounded corners*
20,1,$1+$1,$2,$3,$4,$5,0*
20,1,$1+$1,$4,$5,$6,$7,0*
20,1,$1+$1,$6,$7,$8,$9,0*
20,1,$1+$1,$8,$9,$2,$3,0*%
G04 Aperture macros list end*
%ADD10R,1.600000X1.600000*%
%ADD11C,1.600000*%
%ADD12R,2.200000X2.200000*%
%ADD13O,2.200000X2.200000*%
%ADD14R,3.000000X3.000000*%
%ADD15C,3.000000*%
%ADD16C,0.800000*%
%ADD17C,6.400000*%
%ADD18R,2.000000X2.000000*%
%ADD19C,2.000000*%
%ADD20C,1.800000*%
%ADD21RoundRect,0.250000X0.600000X0.725000X-0.600000X0.725000X-0.600000X-0.725000X0.600000X-0.725000X0*%
%ADD22O,1.700000X1.950000*%
%ADD23R,2.000000X1.905000*%
%ADD24O,2.000000X1.905000*%
%ADD25C,1.900000*%
%ADD26RoundRect,0.250000X-0.750000X0.600000X-0.750000X-0.600000X0.750000X-0.600000X0.750000X0.600000X0*%
%ADD27O,2.000000X1.700000*%
%ADD28RoundRect,0.250000X0.750000X-0.600000X0.750000X0.600000X-0.750000X0.600000X-0.750000X-0.600000X0*%
%ADD29RoundRect,0.250000X0.600000X0.750000X-0.600000X0.750000X-0.600000X-0.750000X0.600000X-0.750000X0*%
%ADD30O,1.700000X2.000000*%
%ADD31RoundRect,0.250000X-0.725000X0.600000X-0.725000X-0.600000X0.725000X-0.600000X0.725000X0.600000X0*%
%ADD32O,1.950000X1.700000*%
%ADD33R,1.600000X2.400000*%
%ADD34O,1.600000X2.400000*%
%ADD35R,1.800000X4.400000*%
%ADD36O,1.800000X4.000000*%
%ADD37O,4.000000X1.800000*%
%ADD38C,1.000000*%
%ADD39R,1.130000X1.130000*%
%ADD40C,1.130000*%
%ADD41O,1.600000X2.000000*%
G04 APERTURE END LIST*
D10*
%TO.C,C1*%
X136500000Y-110847349D03*
D11*
X136500000Y-114347349D03*
%TD*%
D12*
%TO.C,D12*%
X92110000Y-127000000D03*
D13*
X81950000Y-127000000D03*
%TD*%
D14*
%TO.C,J11*%
X67460000Y-136000000D03*
D15*
X72540000Y-136000000D03*
%TD*%
%TO.C,K4*%
X69000000Y-103500000D03*
X75000000Y-117700000D03*
X63000000Y-117700000D03*
X63000000Y-105500000D03*
X75000000Y-105500000D03*
%TD*%
D16*
%TO.C,H3*%
X147400000Y-135000000D03*
X143302944Y-133302944D03*
X146697056Y-136697056D03*
X146697056Y-133302944D03*
D17*
X145000000Y-135000000D03*
D16*
X145000000Y-132600000D03*
X143302944Y-136697056D03*
X142600000Y-135000000D03*
X145000000Y-137400000D03*
%TD*%
D12*
%TO.C,D4*%
X117920000Y-123550000D03*
D13*
X128080000Y-123550000D03*
%TD*%
D14*
%TO.C,J9*%
X54000000Y-113460000D03*
D15*
X54000000Y-118540000D03*
%TD*%
%TO.C,K3*%
X87000000Y-103500000D03*
X93000000Y-117700000D03*
X81000000Y-117700000D03*
X81000000Y-105500000D03*
X93000000Y-105500000D03*
%TD*%
D18*
%TO.C,BZ1*%
X67700000Y-89750000D03*
D19*
X75300000Y-89750000D03*
%TD*%
D20*
%TO.C,U5*%
X103000000Y-51665000D03*
X100460000Y-51665000D03*
X97920000Y-51665000D03*
X95380000Y-51665000D03*
X92840000Y-51665000D03*
X90300000Y-51665000D03*
X87760000Y-51665000D03*
X85220000Y-51665000D03*
X82680000Y-51665000D03*
X80140000Y-51665000D03*
X77600000Y-51665000D03*
X75060000Y-51665000D03*
X72520000Y-51665000D03*
X69980000Y-51665000D03*
X67440000Y-51665000D03*
X64900000Y-51665000D03*
X62360000Y-51665000D03*
X59820000Y-51665000D03*
X57280000Y-51665000D03*
X54740000Y-51665000D03*
X52200000Y-51665000D03*
X103000000Y-78335000D03*
X100460000Y-78335000D03*
X97920000Y-78335000D03*
X95380000Y-78335000D03*
X92840000Y-78335000D03*
X90300000Y-78335000D03*
X87760000Y-78335000D03*
X85220000Y-78335000D03*
X82680000Y-78335000D03*
X80140000Y-78335000D03*
X77600000Y-78335000D03*
X75060000Y-78335000D03*
X72520000Y-78335000D03*
X69980000Y-78335000D03*
X67440000Y-78335000D03*
X64900000Y-78335000D03*
X62360000Y-78335000D03*
X59820000Y-78335000D03*
X57280000Y-78335000D03*
X54740000Y-78335000D03*
X52200000Y-78335000D03*
%TD*%
D12*
%TO.C,D8*%
X110080000Y-127000000D03*
D13*
X99920000Y-127000000D03*
%TD*%
D10*
%TO.C,C7*%
X136500000Y-100347349D03*
D11*
X136500000Y-103847349D03*
%TD*%
D15*
%TO.C,K2*%
X105000000Y-103500000D03*
X111000000Y-117700000D03*
X99000000Y-117700000D03*
X99000000Y-105500000D03*
X111000000Y-105500000D03*
%TD*%
D14*
%TO.C,J5*%
X145000000Y-71040000D03*
D15*
X145000000Y-65960000D03*
%TD*%
D16*
%TO.C,H1*%
X55000000Y-132600000D03*
X55000000Y-137400000D03*
X53302944Y-133302944D03*
X57400000Y-135000000D03*
D17*
X55000000Y-135000000D03*
D16*
X52600000Y-135000000D03*
X53302944Y-136697056D03*
X56697056Y-136697056D03*
X56697056Y-133302944D03*
%TD*%
D14*
%TO.C,J8*%
X99920000Y-136000000D03*
D15*
X105000000Y-136000000D03*
X110080000Y-136000000D03*
%TD*%
D14*
%TO.C,J4*%
X145000000Y-58540000D03*
D15*
X145000000Y-53460000D03*
%TD*%
D14*
%TO.C,J7*%
X117920000Y-136000000D03*
D15*
X123000000Y-136000000D03*
X128080000Y-136000000D03*
%TD*%
D21*
%TO.C,J3*%
X79000000Y-44275000D03*
D22*
X76500000Y-44275000D03*
X74000000Y-44275000D03*
X71500000Y-44275000D03*
%TD*%
D23*
%TO.C,U3*%
X144555000Y-91960000D03*
D24*
X144555000Y-94500000D03*
X144555000Y-97040000D03*
%TD*%
D16*
%TO.C,H4*%
X146697056Y-46697056D03*
D17*
X145000000Y-45000000D03*
D16*
X147400000Y-45000000D03*
X142600000Y-45000000D03*
X145000000Y-42600000D03*
X146697056Y-43302944D03*
X143302944Y-43302944D03*
X143302944Y-46697056D03*
X145000000Y-47400000D03*
%TD*%
D25*
%TO.C,U1*%
X54322500Y-73890000D03*
X56862500Y-73890000D03*
X59402500Y-73890000D03*
X61942500Y-73890000D03*
X64482500Y-73890000D03*
X67022500Y-73890000D03*
X69562500Y-73890000D03*
X72102500Y-73890000D03*
X74642500Y-73890000D03*
X77182500Y-73890000D03*
X79722500Y-73890000D03*
X82262500Y-73890000D03*
X84802500Y-73890000D03*
X87342500Y-73890000D03*
X89882500Y-73890000D03*
X92422500Y-73890000D03*
X94962500Y-73890000D03*
X97502500Y-73890000D03*
X97502500Y-56110000D03*
X94962500Y-56110000D03*
X92422500Y-56110000D03*
X89882500Y-56110000D03*
X87342500Y-56110000D03*
X84802500Y-56110000D03*
X82262500Y-56110000D03*
X79722500Y-56110000D03*
X77182500Y-56110000D03*
X74642500Y-56110000D03*
X72102500Y-56110000D03*
X69562500Y-56110000D03*
X67022500Y-56110000D03*
X64482500Y-56110000D03*
X61942500Y-56110000D03*
X59402500Y-56110000D03*
X56862500Y-56110000D03*
X54322500Y-56110000D03*
%TD*%
D12*
%TO.C,D11*%
X81950000Y-123550000D03*
D13*
X92110000Y-123550000D03*
%TD*%
D26*
%TO.C,SW2*%
X54275000Y-86500000D03*
D27*
X54275000Y-89000000D03*
%TD*%
D28*
%TO.C,SW1*%
X145725000Y-81750000D03*
D27*
X145725000Y-79250000D03*
%TD*%
D29*
%TO.C,J1*%
X93250000Y-44275000D03*
D30*
X90750000Y-44275000D03*
%TD*%
D31*
%TO.C,J6*%
X54275000Y-97000000D03*
D32*
X54275000Y-99500000D03*
X54275000Y-102000000D03*
X54275000Y-104500000D03*
%TD*%
D12*
%TO.C,D5*%
X128080000Y-127000000D03*
D13*
X117920000Y-127000000D03*
%TD*%
D33*
%TO.C,U6*%
X98125000Y-84925000D03*
D34*
X95585000Y-84925000D03*
X93045000Y-84925000D03*
X90505000Y-84925000D03*
X87965000Y-84925000D03*
X85425000Y-84925000D03*
X82885000Y-84925000D03*
X80345000Y-84925000D03*
X80345000Y-92545000D03*
X82885000Y-92545000D03*
X85425000Y-92545000D03*
X87965000Y-92545000D03*
X90505000Y-92545000D03*
X93045000Y-92545000D03*
X95585000Y-92545000D03*
X98125000Y-92545000D03*
%TD*%
D16*
%TO.C,H2*%
X53302944Y-46697056D03*
D17*
X55000000Y-45000000D03*
D16*
X55000000Y-42600000D03*
X52600000Y-45000000D03*
X55000000Y-47400000D03*
X57400000Y-45000000D03*
X56697056Y-43302944D03*
X56697056Y-46697056D03*
X53302944Y-43302944D03*
%TD*%
D14*
%TO.C,J10*%
X81950000Y-136000000D03*
D15*
X87030000Y-136000000D03*
X92110000Y-136000000D03*
%TD*%
%TO.C,K1*%
X123000000Y-103500000D03*
X129000000Y-117700000D03*
X117000000Y-117700000D03*
X117000000Y-105500000D03*
X129000000Y-105500000D03*
%TD*%
D35*
%TO.C,J2*%
X135650000Y-125100000D03*
D36*
X141450000Y-125100000D03*
D37*
X138650000Y-120300000D03*
%TD*%
D12*
%TO.C,D7*%
X99920000Y-123550000D03*
D13*
X110080000Y-123550000D03*
%TD*%
D23*
%TO.C,U4*%
X144555000Y-107960000D03*
D24*
X144555000Y-110500000D03*
X144555000Y-113040000D03*
%TD*%
D38*
%TO.C,PS3*%
X134770000Y-90000000D03*
D39*
X136040000Y-83875000D03*
D40*
X133500000Y-83875000D03*
X130960000Y-83875000D03*
X130960000Y-95125000D03*
X133500000Y-95125000D03*
X136040000Y-95125000D03*
%TD*%
D41*
%TO.C,Brd1*%
X115500000Y-44150000D03*
X118040000Y-44150000D03*
X120580000Y-44150000D03*
X123120000Y-44150000D03*
%TD*%
D38*
%TO.C,PS2*%
X120770000Y-90000000D03*
D39*
X122040000Y-83875000D03*
D40*
X119500000Y-83875000D03*
X116960000Y-83875000D03*
X116960000Y-95125000D03*
X119500000Y-95125000D03*
X122040000Y-95125000D03*
%TD*%
D38*
%TO.C,PS1*%
X106770000Y-90000000D03*
D39*
X108040000Y-83875000D03*
D40*
X105500000Y-83875000D03*
X102960000Y-83875000D03*
X102960000Y-95125000D03*
X105500000Y-95125000D03*
X108040000Y-95125000D03*
%TD*%
M02*
