%TF.GenerationSoftware,KiCad,Pcbnew,(5.99.0-10406-ge27733587d)*%
%TF.CreationDate,2021-06-08T13:11:29+05:30*%
%TF.ProjectId,OxiKit-Brainboard_v1,4f78694b-6974-42d4-9272-61696e626f61,rev?*%
%TF.SameCoordinates,Original*%
%TF.FileFunction,Legend,Bot*%
%TF.FilePolarity,Positive*%
%FSLAX46Y46*%
G04 Gerber Fmt 4.6, Leading zero omitted, Abs format (unit mm)*
G04 Created by KiCad (PCBNEW (5.99.0-10406-ge27733587d)) date 2021-06-08 13:11:29*
%MOMM*%
%LPD*%
G01*
G04 APERTURE LIST*
%ADD10C,0.300000*%
%ADD11C,0.180000*%
%ADD12C,0.150000*%
%ADD13C,0.015000*%
%ADD14C,0.127000*%
%ADD15C,0.200000*%
%ADD16C,0.120000*%
G04 APERTURE END LIST*
D10*
X123142857Y-96571071D02*
X122142857Y-96571071D01*
X123142857Y-98071071D01*
X122142857Y-98071071D01*
X121000000Y-97999642D02*
X121142857Y-98071071D01*
X121428571Y-98071071D01*
X121571428Y-97999642D01*
X121642857Y-97856785D01*
X121642857Y-97285357D01*
X121571428Y-97142500D01*
X121428571Y-97071071D01*
X121142857Y-97071071D01*
X121000000Y-97142500D01*
X120928571Y-97285357D01*
X120928571Y-97428214D01*
X121642857Y-97571071D01*
X120071428Y-98071071D02*
X120214285Y-97999642D01*
X120285714Y-97928214D01*
X120357142Y-97785357D01*
X120357142Y-97356785D01*
X120285714Y-97213928D01*
X120214285Y-97142500D01*
X120071428Y-97071071D01*
X119857142Y-97071071D01*
X119714285Y-97142500D01*
X119642857Y-97213928D01*
X119571428Y-97356785D01*
X119571428Y-97785357D01*
X119642857Y-97928214D01*
X119714285Y-97999642D01*
X119857142Y-98071071D01*
X120071428Y-98071071D01*
X118714285Y-98071071D02*
X118857142Y-97999642D01*
X118928571Y-97856785D01*
X118928571Y-96571071D01*
X118142857Y-98071071D02*
X118142857Y-97071071D01*
X118142857Y-96571071D02*
X118214285Y-96642500D01*
X118142857Y-96713928D01*
X118071428Y-96642500D01*
X118142857Y-96571071D01*
X118142857Y-96713928D01*
X117642857Y-97071071D02*
X117071428Y-97071071D01*
X117428571Y-96571071D02*
X117428571Y-97856785D01*
X117357142Y-97999642D01*
X117214285Y-98071071D01*
X117071428Y-98071071D01*
X116000000Y-97999642D02*
X116142857Y-98071071D01*
X116428571Y-98071071D01*
X116571428Y-97999642D01*
X116642857Y-97856785D01*
X116642857Y-97285357D01*
X116571428Y-97142500D01*
X116428571Y-97071071D01*
X116142857Y-97071071D01*
X116000000Y-97142500D01*
X115928571Y-97285357D01*
X115928571Y-97428214D01*
X116642857Y-97571071D01*
X122035714Y-99700357D02*
X121821428Y-99771785D01*
X121750000Y-99843214D01*
X121678571Y-99986071D01*
X121678571Y-100200357D01*
X121750000Y-100343214D01*
X121821428Y-100414642D01*
X121964285Y-100486071D01*
X122535714Y-100486071D01*
X122535714Y-98986071D01*
X122035714Y-98986071D01*
X121892857Y-99057500D01*
X121821428Y-99128928D01*
X121750000Y-99271785D01*
X121750000Y-99414642D01*
X121821428Y-99557500D01*
X121892857Y-99628928D01*
X122035714Y-99700357D01*
X122535714Y-99700357D01*
X120464285Y-100414642D02*
X120607142Y-100486071D01*
X120892857Y-100486071D01*
X121035714Y-100414642D01*
X121107142Y-100271785D01*
X121107142Y-99700357D01*
X121035714Y-99557500D01*
X120892857Y-99486071D01*
X120607142Y-99486071D01*
X120464285Y-99557500D01*
X120392857Y-99700357D01*
X120392857Y-99843214D01*
X121107142Y-99986071D01*
X119107142Y-100486071D02*
X119107142Y-98986071D01*
X119107142Y-100414642D02*
X119250000Y-100486071D01*
X119535714Y-100486071D01*
X119678571Y-100414642D01*
X119750000Y-100343214D01*
X119821428Y-100200357D01*
X119821428Y-99771785D01*
X119750000Y-99628928D01*
X119678571Y-99557500D01*
X119535714Y-99486071D01*
X119250000Y-99486071D01*
X119107142Y-99557500D01*
X116750000Y-99700357D02*
X116535714Y-99771785D01*
X116464285Y-99843214D01*
X116392857Y-99986071D01*
X116392857Y-100200357D01*
X116464285Y-100343214D01*
X116535714Y-100414642D01*
X116678571Y-100486071D01*
X117250000Y-100486071D01*
X117250000Y-98986071D01*
X116750000Y-98986071D01*
X116607142Y-99057500D01*
X116535714Y-99128928D01*
X116464285Y-99271785D01*
X116464285Y-99414642D01*
X116535714Y-99557500D01*
X116607142Y-99628928D01*
X116750000Y-99700357D01*
X117250000Y-99700357D01*
X136380714Y-96263571D02*
X136095000Y-96263571D01*
X135952142Y-96335000D01*
X135809285Y-96477857D01*
X135737857Y-96763571D01*
X135737857Y-97263571D01*
X135809285Y-97549285D01*
X135952142Y-97692142D01*
X136095000Y-97763571D01*
X136380714Y-97763571D01*
X136523571Y-97692142D01*
X136666428Y-97549285D01*
X136737857Y-97263571D01*
X136737857Y-96763571D01*
X136666428Y-96477857D01*
X136523571Y-96335000D01*
X136380714Y-96263571D01*
X135237857Y-97763571D02*
X134452142Y-96763571D01*
X135237857Y-96763571D02*
X134452142Y-97763571D01*
X134023571Y-96763571D02*
X133666428Y-97763571D01*
X133309285Y-96763571D02*
X133666428Y-97763571D01*
X133809285Y-98120714D01*
X133880714Y-98192142D01*
X134023571Y-98263571D01*
X132095000Y-96763571D02*
X132095000Y-97977857D01*
X132166428Y-98120714D01*
X132237857Y-98192142D01*
X132380714Y-98263571D01*
X132595000Y-98263571D01*
X132737857Y-98192142D01*
X132095000Y-97692142D02*
X132237857Y-97763571D01*
X132523571Y-97763571D01*
X132666428Y-97692142D01*
X132737857Y-97620714D01*
X132809285Y-97477857D01*
X132809285Y-97049285D01*
X132737857Y-96906428D01*
X132666428Y-96835000D01*
X132523571Y-96763571D01*
X132237857Y-96763571D01*
X132095000Y-96835000D01*
X130809285Y-97692142D02*
X130952142Y-97763571D01*
X131237857Y-97763571D01*
X131380714Y-97692142D01*
X131452142Y-97549285D01*
X131452142Y-96977857D01*
X131380714Y-96835000D01*
X131237857Y-96763571D01*
X130952142Y-96763571D01*
X130809285Y-96835000D01*
X130737857Y-96977857D01*
X130737857Y-97120714D01*
X131452142Y-97263571D01*
X130095000Y-96763571D02*
X130095000Y-97763571D01*
X130095000Y-96906428D02*
X130023571Y-96835000D01*
X129880714Y-96763571D01*
X129666428Y-96763571D01*
X129523571Y-96835000D01*
X129452142Y-96977857D01*
X129452142Y-97763571D01*
X135095000Y-100107142D02*
X134880714Y-100178571D01*
X134523571Y-100178571D01*
X134380714Y-100107142D01*
X134309285Y-100035714D01*
X134237857Y-99892857D01*
X134237857Y-99750000D01*
X134309285Y-99607142D01*
X134380714Y-99535714D01*
X134523571Y-99464285D01*
X134809285Y-99392857D01*
X134952142Y-99321428D01*
X135023571Y-99250000D01*
X135095000Y-99107142D01*
X135095000Y-98964285D01*
X135023571Y-98821428D01*
X134952142Y-98750000D01*
X134809285Y-98678571D01*
X134452142Y-98678571D01*
X134237857Y-98750000D01*
X133023571Y-100107142D02*
X133166428Y-100178571D01*
X133452142Y-100178571D01*
X133595000Y-100107142D01*
X133666428Y-99964285D01*
X133666428Y-99392857D01*
X133595000Y-99250000D01*
X133452142Y-99178571D01*
X133166428Y-99178571D01*
X133023571Y-99250000D01*
X132952142Y-99392857D01*
X132952142Y-99535714D01*
X133666428Y-99678571D01*
X132309285Y-100178571D02*
X132309285Y-99178571D01*
X132309285Y-99464285D02*
X132237857Y-99321428D01*
X132166428Y-99250000D01*
X132023571Y-99178571D01*
X131880714Y-99178571D01*
X130737857Y-99178571D02*
X130737857Y-100392857D01*
X130809285Y-100535714D01*
X130880714Y-100607142D01*
X131023571Y-100678571D01*
X131237857Y-100678571D01*
X131380714Y-100607142D01*
X130737857Y-100107142D02*
X130880714Y-100178571D01*
X131166428Y-100178571D01*
X131309285Y-100107142D01*
X131380714Y-100035714D01*
X131452142Y-99892857D01*
X131452142Y-99464285D01*
X131380714Y-99321428D01*
X131309285Y-99250000D01*
X131166428Y-99178571D01*
X130880714Y-99178571D01*
X130737857Y-99250000D01*
X129452142Y-100107142D02*
X129595000Y-100178571D01*
X129880714Y-100178571D01*
X130023571Y-100107142D01*
X130095000Y-99964285D01*
X130095000Y-99392857D01*
X130023571Y-99250000D01*
X129880714Y-99178571D01*
X129595000Y-99178571D01*
X129452142Y-99250000D01*
X129380714Y-99392857D01*
X129380714Y-99535714D01*
X130095000Y-99678571D01*
X134023571Y-101093571D02*
X133166428Y-101093571D01*
X133595000Y-102593571D02*
X133595000Y-101093571D01*
X132023571Y-102593571D02*
X132023571Y-101807857D01*
X132095000Y-101665000D01*
X132237857Y-101593571D01*
X132523571Y-101593571D01*
X132666428Y-101665000D01*
X132023571Y-102522142D02*
X132166428Y-102593571D01*
X132523571Y-102593571D01*
X132666428Y-102522142D01*
X132737857Y-102379285D01*
X132737857Y-102236428D01*
X132666428Y-102093571D01*
X132523571Y-102022142D01*
X132166428Y-102022142D01*
X132023571Y-101950714D01*
X131309285Y-101593571D02*
X131309285Y-102593571D01*
X131309285Y-101736428D02*
X131237857Y-101665000D01*
X131095000Y-101593571D01*
X130880714Y-101593571D01*
X130737857Y-101665000D01*
X130666428Y-101807857D01*
X130666428Y-102593571D01*
X129952142Y-102593571D02*
X129952142Y-101093571D01*
X129809285Y-102022142D02*
X129380714Y-102593571D01*
X129380714Y-101593571D02*
X129952142Y-102165000D01*
D11*
X60814285Y-67843928D02*
X60814285Y-69343928D01*
X61171428Y-69343928D01*
X61385714Y-69272500D01*
X61528571Y-69129642D01*
X61600000Y-68986785D01*
X61671428Y-68701071D01*
X61671428Y-68486785D01*
X61600000Y-68201071D01*
X61528571Y-68058214D01*
X61385714Y-67915357D01*
X61171428Y-67843928D01*
X60814285Y-67843928D01*
X62885714Y-67915357D02*
X62742857Y-67843928D01*
X62457142Y-67843928D01*
X62314285Y-67915357D01*
X62242857Y-68058214D01*
X62242857Y-68629642D01*
X62314285Y-68772500D01*
X62457142Y-68843928D01*
X62742857Y-68843928D01*
X62885714Y-68772500D01*
X62957142Y-68629642D01*
X62957142Y-68486785D01*
X62242857Y-68343928D01*
X63528571Y-67915357D02*
X63671428Y-67843928D01*
X63957142Y-67843928D01*
X64100000Y-67915357D01*
X64171428Y-68058214D01*
X64171428Y-68129642D01*
X64100000Y-68272500D01*
X63957142Y-68343928D01*
X63742857Y-68343928D01*
X63600000Y-68415357D01*
X63528571Y-68558214D01*
X63528571Y-68629642D01*
X63600000Y-68772500D01*
X63742857Y-68843928D01*
X63957142Y-68843928D01*
X64100000Y-68772500D01*
X64814285Y-67843928D02*
X64814285Y-68843928D01*
X64814285Y-69343928D02*
X64742857Y-69272500D01*
X64814285Y-69201071D01*
X64885714Y-69272500D01*
X64814285Y-69343928D01*
X64814285Y-69201071D01*
X66171428Y-68843928D02*
X66171428Y-67629642D01*
X66100000Y-67486785D01*
X66028571Y-67415357D01*
X65885714Y-67343928D01*
X65671428Y-67343928D01*
X65528571Y-67415357D01*
X66171428Y-67915357D02*
X66028571Y-67843928D01*
X65742857Y-67843928D01*
X65600000Y-67915357D01*
X65528571Y-67986785D01*
X65457142Y-68129642D01*
X65457142Y-68558214D01*
X65528571Y-68701071D01*
X65600000Y-68772500D01*
X65742857Y-68843928D01*
X66028571Y-68843928D01*
X66171428Y-68772500D01*
X66885714Y-68843928D02*
X66885714Y-67843928D01*
X66885714Y-68701071D02*
X66957142Y-68772500D01*
X67100000Y-68843928D01*
X67314285Y-68843928D01*
X67457142Y-68772500D01*
X67528571Y-68629642D01*
X67528571Y-67843928D01*
X68814285Y-67915357D02*
X68671428Y-67843928D01*
X68385714Y-67843928D01*
X68242857Y-67915357D01*
X68171428Y-68058214D01*
X68171428Y-68629642D01*
X68242857Y-68772500D01*
X68385714Y-68843928D01*
X68671428Y-68843928D01*
X68814285Y-68772500D01*
X68885714Y-68629642D01*
X68885714Y-68486785D01*
X68171428Y-68343928D01*
X70171428Y-67843928D02*
X70171428Y-69343928D01*
X70171428Y-67915357D02*
X70028571Y-67843928D01*
X69742857Y-67843928D01*
X69600000Y-67915357D01*
X69528571Y-67986785D01*
X69457142Y-68129642D01*
X69457142Y-68558214D01*
X69528571Y-68701071D01*
X69600000Y-68772500D01*
X69742857Y-68843928D01*
X70028571Y-68843928D01*
X70171428Y-68772500D01*
X73242857Y-67843928D02*
X73171428Y-67843928D01*
X73028571Y-67915357D01*
X72814285Y-68129642D01*
X72457142Y-68558214D01*
X72314285Y-68772500D01*
X72242857Y-68986785D01*
X72242857Y-69129642D01*
X72314285Y-69272500D01*
X72457142Y-69343928D01*
X72528571Y-69343928D01*
X72671428Y-69272500D01*
X72742857Y-69129642D01*
X72742857Y-69058214D01*
X72671428Y-68915357D01*
X72600000Y-68843928D01*
X72171428Y-68558214D01*
X72100000Y-68486785D01*
X72028571Y-68343928D01*
X72028571Y-68129642D01*
X72100000Y-67986785D01*
X72171428Y-67915357D01*
X72314285Y-67843928D01*
X72528571Y-67843928D01*
X72671428Y-67915357D01*
X72742857Y-67986785D01*
X72957142Y-68272500D01*
X73028571Y-68486785D01*
X73028571Y-68629642D01*
X75028571Y-67843928D02*
X75028571Y-69343928D01*
X75528571Y-68272500D01*
X76028571Y-69343928D01*
X76028571Y-67843928D01*
X77385714Y-67843928D02*
X77385714Y-68629642D01*
X77314285Y-68772500D01*
X77171428Y-68843928D01*
X76885714Y-68843928D01*
X76742857Y-68772500D01*
X77385714Y-67915357D02*
X77242857Y-67843928D01*
X76885714Y-67843928D01*
X76742857Y-67915357D01*
X76671428Y-68058214D01*
X76671428Y-68201071D01*
X76742857Y-68343928D01*
X76885714Y-68415357D01*
X77242857Y-68415357D01*
X77385714Y-68486785D01*
X78100000Y-67843928D02*
X78100000Y-68843928D01*
X78100000Y-69343928D02*
X78028571Y-69272500D01*
X78100000Y-69201071D01*
X78171428Y-69272500D01*
X78100000Y-69343928D01*
X78100000Y-69201071D01*
X78814285Y-68843928D02*
X78814285Y-67843928D01*
X78814285Y-68701071D02*
X78885714Y-68772500D01*
X79028571Y-68843928D01*
X79242857Y-68843928D01*
X79385714Y-68772500D01*
X79457142Y-68629642D01*
X79457142Y-67843928D01*
X79957142Y-68843928D02*
X80528571Y-68843928D01*
X80171428Y-69343928D02*
X80171428Y-68058214D01*
X80242857Y-67915357D01*
X80385714Y-67843928D01*
X80528571Y-67843928D01*
X81671428Y-67843928D02*
X81671428Y-68629642D01*
X81600000Y-68772500D01*
X81457142Y-68843928D01*
X81171428Y-68843928D01*
X81028571Y-68772500D01*
X81671428Y-67915357D02*
X81528571Y-67843928D01*
X81171428Y-67843928D01*
X81028571Y-67915357D01*
X80957142Y-68058214D01*
X80957142Y-68201071D01*
X81028571Y-68343928D01*
X81171428Y-68415357D01*
X81528571Y-68415357D01*
X81671428Y-68486785D01*
X82385714Y-67843928D02*
X82385714Y-68843928D01*
X82385714Y-69343928D02*
X82314285Y-69272500D01*
X82385714Y-69201071D01*
X82457142Y-69272500D01*
X82385714Y-69343928D01*
X82385714Y-69201071D01*
X83100000Y-68843928D02*
X83100000Y-67843928D01*
X83100000Y-68701071D02*
X83171428Y-68772500D01*
X83314285Y-68843928D01*
X83528571Y-68843928D01*
X83671428Y-68772500D01*
X83742857Y-68629642D01*
X83742857Y-67843928D01*
X85028571Y-67915357D02*
X84885714Y-67843928D01*
X84600000Y-67843928D01*
X84457142Y-67915357D01*
X84385714Y-68058214D01*
X84385714Y-68629642D01*
X84457142Y-68772500D01*
X84600000Y-68843928D01*
X84885714Y-68843928D01*
X85028571Y-68772500D01*
X85100000Y-68629642D01*
X85100000Y-68486785D01*
X84385714Y-68343928D01*
X86385714Y-67843928D02*
X86385714Y-69343928D01*
X86385714Y-67915357D02*
X86242857Y-67843928D01*
X85957142Y-67843928D01*
X85814285Y-67915357D01*
X85742857Y-67986785D01*
X85671428Y-68129642D01*
X85671428Y-68558214D01*
X85742857Y-68701071D01*
X85814285Y-68772500D01*
X85957142Y-68843928D01*
X86242857Y-68843928D01*
X86385714Y-68772500D01*
X72707142Y-65428928D02*
X72707142Y-66928928D01*
X72707142Y-66357500D02*
X72850000Y-66428928D01*
X73135714Y-66428928D01*
X73278571Y-66357500D01*
X73350000Y-66286071D01*
X73421428Y-66143214D01*
X73421428Y-65714642D01*
X73350000Y-65571785D01*
X73278571Y-65500357D01*
X73135714Y-65428928D01*
X72850000Y-65428928D01*
X72707142Y-65500357D01*
X73921428Y-66428928D02*
X74278571Y-65428928D01*
X74635714Y-66428928D02*
X74278571Y-65428928D01*
X74135714Y-65071785D01*
X74064285Y-65000357D01*
X73921428Y-64928928D01*
X64992857Y-63085357D02*
X65207142Y-63013928D01*
X65564285Y-63013928D01*
X65707142Y-63085357D01*
X65778571Y-63156785D01*
X65850000Y-63299642D01*
X65850000Y-63442500D01*
X65778571Y-63585357D01*
X65707142Y-63656785D01*
X65564285Y-63728214D01*
X65278571Y-63799642D01*
X65135714Y-63871071D01*
X65064285Y-63942500D01*
X64992857Y-64085357D01*
X64992857Y-64228214D01*
X65064285Y-64371071D01*
X65135714Y-64442500D01*
X65278571Y-64513928D01*
X65635714Y-64513928D01*
X65850000Y-64442500D01*
X66492857Y-63013928D02*
X66492857Y-64513928D01*
X67135714Y-63013928D02*
X67135714Y-63799642D01*
X67064285Y-63942500D01*
X66921428Y-64013928D01*
X66707142Y-64013928D01*
X66564285Y-63942500D01*
X66492857Y-63871071D01*
X67850000Y-63013928D02*
X67850000Y-64013928D01*
X67850000Y-63728214D02*
X67921428Y-63871071D01*
X67992857Y-63942500D01*
X68135714Y-64013928D01*
X68278571Y-64013928D01*
X68778571Y-63013928D02*
X68778571Y-64013928D01*
X68778571Y-64513928D02*
X68707142Y-64442500D01*
X68778571Y-64371071D01*
X68850000Y-64442500D01*
X68778571Y-64513928D01*
X68778571Y-64371071D01*
X70135714Y-63013928D02*
X70135714Y-64513928D01*
X70135714Y-63085357D02*
X69992857Y-63013928D01*
X69707142Y-63013928D01*
X69564285Y-63085357D01*
X69492857Y-63156785D01*
X69421428Y-63299642D01*
X69421428Y-63728214D01*
X69492857Y-63871071D01*
X69564285Y-63942500D01*
X69707142Y-64013928D01*
X69992857Y-64013928D01*
X70135714Y-63942500D01*
X71492857Y-63013928D02*
X71492857Y-63799642D01*
X71421428Y-63942500D01*
X71278571Y-64013928D01*
X70992857Y-64013928D01*
X70850000Y-63942500D01*
X71492857Y-63085357D02*
X71350000Y-63013928D01*
X70992857Y-63013928D01*
X70850000Y-63085357D01*
X70778571Y-63228214D01*
X70778571Y-63371071D01*
X70850000Y-63513928D01*
X70992857Y-63585357D01*
X71350000Y-63585357D01*
X71492857Y-63656785D01*
X71992857Y-64013928D02*
X72564285Y-64013928D01*
X72207142Y-64513928D02*
X72207142Y-63228214D01*
X72278571Y-63085357D01*
X72421428Y-63013928D01*
X72564285Y-63013928D01*
X72850000Y-64013928D02*
X73421428Y-64013928D01*
X73064285Y-64513928D02*
X73064285Y-63228214D01*
X73135714Y-63085357D01*
X73278571Y-63013928D01*
X73421428Y-63013928D01*
X75064285Y-63013928D02*
X75064285Y-64513928D01*
X75421428Y-64513928D01*
X75635714Y-64442500D01*
X75778571Y-64299642D01*
X75850000Y-64156785D01*
X75921428Y-63871071D01*
X75921428Y-63656785D01*
X75850000Y-63371071D01*
X75778571Y-63228214D01*
X75635714Y-63085357D01*
X75421428Y-63013928D01*
X75064285Y-63013928D01*
X77207142Y-64013928D02*
X77207142Y-63013928D01*
X76564285Y-64013928D02*
X76564285Y-63228214D01*
X76635714Y-63085357D01*
X76778571Y-63013928D01*
X76992857Y-63013928D01*
X77135714Y-63085357D01*
X77207142Y-63156785D01*
X78564285Y-63013928D02*
X78564285Y-64513928D01*
X78564285Y-63085357D02*
X78421428Y-63013928D01*
X78135714Y-63013928D01*
X77992857Y-63085357D01*
X77921428Y-63156785D01*
X77850000Y-63299642D01*
X77850000Y-63728214D01*
X77921428Y-63871071D01*
X77992857Y-63942500D01*
X78135714Y-64013928D01*
X78421428Y-64013928D01*
X78564285Y-63942500D01*
X79278571Y-63013928D02*
X79278571Y-64513928D01*
X79921428Y-63013928D02*
X79921428Y-63799642D01*
X79850000Y-63942500D01*
X79707142Y-64013928D01*
X79492857Y-64013928D01*
X79350000Y-63942500D01*
X79278571Y-63871071D01*
X81278571Y-63013928D02*
X81278571Y-63799642D01*
X81207142Y-63942500D01*
X81064285Y-64013928D01*
X80778571Y-64013928D01*
X80635714Y-63942500D01*
X81278571Y-63085357D02*
X81135714Y-63013928D01*
X80778571Y-63013928D01*
X80635714Y-63085357D01*
X80564285Y-63228214D01*
X80564285Y-63371071D01*
X80635714Y-63513928D01*
X80778571Y-63585357D01*
X81135714Y-63585357D01*
X81278571Y-63656785D01*
X81778571Y-64013928D02*
X82350000Y-64013928D01*
X81992857Y-64513928D02*
X81992857Y-63228214D01*
X82064285Y-63085357D01*
X82207142Y-63013928D01*
X82350000Y-63013928D01*
X56421428Y-60598928D02*
X56421428Y-62098928D01*
X57064285Y-60598928D02*
X57064285Y-61384642D01*
X56992857Y-61527500D01*
X56850000Y-61598928D01*
X56635714Y-61598928D01*
X56492857Y-61527500D01*
X56421428Y-61456071D01*
X57564285Y-61598928D02*
X58135714Y-61598928D01*
X57778571Y-62098928D02*
X57778571Y-60813214D01*
X57850000Y-60670357D01*
X57992857Y-60598928D01*
X58135714Y-60598928D01*
X58421428Y-61598928D02*
X58992857Y-61598928D01*
X58635714Y-62098928D02*
X58635714Y-60813214D01*
X58707142Y-60670357D01*
X58850000Y-60598928D01*
X58992857Y-60598928D01*
X59492857Y-61598928D02*
X59492857Y-60098928D01*
X59492857Y-61527500D02*
X59635714Y-61598928D01*
X59921428Y-61598928D01*
X60064285Y-61527500D01*
X60135714Y-61456071D01*
X60207142Y-61313214D01*
X60207142Y-60884642D01*
X60135714Y-60741785D01*
X60064285Y-60670357D01*
X59921428Y-60598928D01*
X59635714Y-60598928D01*
X59492857Y-60670357D01*
X60850000Y-60741785D02*
X60921428Y-60670357D01*
X60850000Y-60598928D01*
X60778571Y-60670357D01*
X60850000Y-60741785D01*
X60850000Y-60598928D01*
X60850000Y-61527500D02*
X60921428Y-61456071D01*
X60850000Y-61384642D01*
X60778571Y-61456071D01*
X60850000Y-61527500D01*
X60850000Y-61384642D01*
X62635714Y-62170357D02*
X61350000Y-60241785D01*
X64207142Y-62170357D02*
X62921428Y-60241785D01*
X64635714Y-60670357D02*
X64778571Y-60598928D01*
X65064285Y-60598928D01*
X65207142Y-60670357D01*
X65278571Y-60813214D01*
X65278571Y-60884642D01*
X65207142Y-61027500D01*
X65064285Y-61098928D01*
X64850000Y-61098928D01*
X64707142Y-61170357D01*
X64635714Y-61313214D01*
X64635714Y-61384642D01*
X64707142Y-61527500D01*
X64850000Y-61598928D01*
X65064285Y-61598928D01*
X65207142Y-61527500D01*
X65921428Y-60598928D02*
X65921428Y-62098928D01*
X66564285Y-60598928D02*
X66564285Y-61384642D01*
X66492857Y-61527500D01*
X66350000Y-61598928D01*
X66135714Y-61598928D01*
X65992857Y-61527500D01*
X65921428Y-61456071D01*
X67278571Y-60598928D02*
X67278571Y-61598928D01*
X67278571Y-61313214D02*
X67350000Y-61456071D01*
X67421428Y-61527500D01*
X67564285Y-61598928D01*
X67707142Y-61598928D01*
X68207142Y-60598928D02*
X68207142Y-61598928D01*
X68207142Y-62098928D02*
X68135714Y-62027500D01*
X68207142Y-61956071D01*
X68278571Y-62027500D01*
X68207142Y-62098928D01*
X68207142Y-61956071D01*
X69564285Y-60598928D02*
X69564285Y-62098928D01*
X69564285Y-60670357D02*
X69421428Y-60598928D01*
X69135714Y-60598928D01*
X68992857Y-60670357D01*
X68921428Y-60741785D01*
X68850000Y-60884642D01*
X68850000Y-61313214D01*
X68921428Y-61456071D01*
X68992857Y-61527500D01*
X69135714Y-61598928D01*
X69421428Y-61598928D01*
X69564285Y-61527500D01*
X70921428Y-60598928D02*
X70921428Y-61384642D01*
X70850000Y-61527500D01*
X70707142Y-61598928D01*
X70421428Y-61598928D01*
X70278571Y-61527500D01*
X70921428Y-60670357D02*
X70778571Y-60598928D01*
X70421428Y-60598928D01*
X70278571Y-60670357D01*
X70207142Y-60813214D01*
X70207142Y-60956071D01*
X70278571Y-61098928D01*
X70421428Y-61170357D01*
X70778571Y-61170357D01*
X70921428Y-61241785D01*
X71421428Y-61598928D02*
X71992857Y-61598928D01*
X71635714Y-62098928D02*
X71635714Y-60813214D01*
X71707142Y-60670357D01*
X71850000Y-60598928D01*
X71992857Y-60598928D01*
X72278571Y-61598928D02*
X72850000Y-61598928D01*
X72492857Y-62098928D02*
X72492857Y-60813214D01*
X72564285Y-60670357D01*
X72707142Y-60598928D01*
X72850000Y-60598928D01*
X73992857Y-60598928D02*
X73992857Y-62098928D01*
X73992857Y-60670357D02*
X73850000Y-60598928D01*
X73564285Y-60598928D01*
X73421428Y-60670357D01*
X73350000Y-60741785D01*
X73278571Y-60884642D01*
X73278571Y-61313214D01*
X73350000Y-61456071D01*
X73421428Y-61527500D01*
X73564285Y-61598928D01*
X73850000Y-61598928D01*
X73992857Y-61527500D01*
X75350000Y-61598928D02*
X75350000Y-60598928D01*
X74707142Y-61598928D02*
X74707142Y-60813214D01*
X74778571Y-60670357D01*
X74921428Y-60598928D01*
X75135714Y-60598928D01*
X75278571Y-60670357D01*
X75350000Y-60741785D01*
X76707142Y-60598928D02*
X76707142Y-62098928D01*
X76707142Y-60670357D02*
X76564285Y-60598928D01*
X76278571Y-60598928D01*
X76135714Y-60670357D01*
X76064285Y-60741785D01*
X75992857Y-60884642D01*
X75992857Y-61313214D01*
X76064285Y-61456071D01*
X76135714Y-61527500D01*
X76278571Y-61598928D01*
X76564285Y-61598928D01*
X76707142Y-61527500D01*
X77421428Y-60598928D02*
X77421428Y-62098928D01*
X78064285Y-60598928D02*
X78064285Y-61384642D01*
X77992857Y-61527500D01*
X77850000Y-61598928D01*
X77635714Y-61598928D01*
X77492857Y-61527500D01*
X77421428Y-61456071D01*
X79421428Y-60598928D02*
X79421428Y-61384642D01*
X79350000Y-61527500D01*
X79207142Y-61598928D01*
X78921428Y-61598928D01*
X78778571Y-61527500D01*
X79421428Y-60670357D02*
X79278571Y-60598928D01*
X78921428Y-60598928D01*
X78778571Y-60670357D01*
X78707142Y-60813214D01*
X78707142Y-60956071D01*
X78778571Y-61098928D01*
X78921428Y-61170357D01*
X79278571Y-61170357D01*
X79421428Y-61241785D01*
X79921428Y-61598928D02*
X80492857Y-61598928D01*
X80135714Y-62098928D02*
X80135714Y-60813214D01*
X80207142Y-60670357D01*
X80350000Y-60598928D01*
X80492857Y-60598928D01*
X80992857Y-60741785D02*
X81064285Y-60670357D01*
X80992857Y-60598928D01*
X80921428Y-60670357D01*
X80992857Y-60741785D01*
X80992857Y-60598928D01*
X82350000Y-61598928D02*
X82350000Y-60384642D01*
X82278571Y-60241785D01*
X82207142Y-60170357D01*
X82064285Y-60098928D01*
X81850000Y-60098928D01*
X81707142Y-60170357D01*
X82350000Y-60670357D02*
X82207142Y-60598928D01*
X81921428Y-60598928D01*
X81778571Y-60670357D01*
X81707142Y-60741785D01*
X81635714Y-60884642D01*
X81635714Y-61313214D01*
X81707142Y-61456071D01*
X81778571Y-61527500D01*
X81921428Y-61598928D01*
X82207142Y-61598928D01*
X82350000Y-61527500D01*
X83064285Y-60598928D02*
X83064285Y-61598928D01*
X83064285Y-62098928D02*
X82992857Y-62027500D01*
X83064285Y-61956071D01*
X83135714Y-62027500D01*
X83064285Y-62098928D01*
X83064285Y-61956071D01*
X83564285Y-61598928D02*
X84135714Y-61598928D01*
X83778571Y-62098928D02*
X83778571Y-60813214D01*
X83850000Y-60670357D01*
X83992857Y-60598928D01*
X84135714Y-60598928D01*
X84635714Y-60598928D02*
X84635714Y-62098928D01*
X85278571Y-60598928D02*
X85278571Y-61384642D01*
X85207142Y-61527500D01*
X85064285Y-61598928D01*
X84850000Y-61598928D01*
X84707142Y-61527500D01*
X84635714Y-61456071D01*
X86635714Y-61598928D02*
X86635714Y-60598928D01*
X85992857Y-61598928D02*
X85992857Y-60813214D01*
X86064285Y-60670357D01*
X86207142Y-60598928D01*
X86421428Y-60598928D01*
X86564285Y-60670357D01*
X86635714Y-60741785D01*
X87350000Y-60598928D02*
X87350000Y-62098928D01*
X87350000Y-61527500D02*
X87492857Y-61598928D01*
X87778571Y-61598928D01*
X87921428Y-61527500D01*
X87992857Y-61456071D01*
X88064285Y-61313214D01*
X88064285Y-60884642D01*
X87992857Y-60741785D01*
X87921428Y-60670357D01*
X87778571Y-60598928D01*
X87492857Y-60598928D01*
X87350000Y-60670357D01*
X88707142Y-60741785D02*
X88778571Y-60670357D01*
X88707142Y-60598928D01*
X88635714Y-60670357D01*
X88707142Y-60741785D01*
X88707142Y-60598928D01*
X89421428Y-60598928D02*
X89421428Y-61598928D01*
X89421428Y-62098928D02*
X89350000Y-62027500D01*
X89421428Y-61956071D01*
X89492857Y-62027500D01*
X89421428Y-62098928D01*
X89421428Y-61956071D01*
X90350000Y-60598928D02*
X90207142Y-60670357D01*
X90135714Y-60741785D01*
X90064285Y-60884642D01*
X90064285Y-61313214D01*
X90135714Y-61456071D01*
X90207142Y-61527500D01*
X90350000Y-61598928D01*
X90564285Y-61598928D01*
X90707142Y-61527500D01*
X90778571Y-61456071D01*
X90850000Y-61313214D01*
X90850000Y-60884642D01*
X90778571Y-60741785D01*
X90707142Y-60670357D01*
X90564285Y-60598928D01*
X90350000Y-60598928D01*
D10*
X109042857Y-96571071D02*
X108042857Y-96571071D01*
X109042857Y-98071071D01*
X108042857Y-98071071D01*
X106900000Y-97999642D02*
X107042857Y-98071071D01*
X107328571Y-98071071D01*
X107471428Y-97999642D01*
X107542857Y-97856785D01*
X107542857Y-97285357D01*
X107471428Y-97142500D01*
X107328571Y-97071071D01*
X107042857Y-97071071D01*
X106900000Y-97142500D01*
X106828571Y-97285357D01*
X106828571Y-97428214D01*
X107542857Y-97571071D01*
X105971428Y-98071071D02*
X106114285Y-97999642D01*
X106185714Y-97928214D01*
X106257142Y-97785357D01*
X106257142Y-97356785D01*
X106185714Y-97213928D01*
X106114285Y-97142500D01*
X105971428Y-97071071D01*
X105757142Y-97071071D01*
X105614285Y-97142500D01*
X105542857Y-97213928D01*
X105471428Y-97356785D01*
X105471428Y-97785357D01*
X105542857Y-97928214D01*
X105614285Y-97999642D01*
X105757142Y-98071071D01*
X105971428Y-98071071D01*
X104614285Y-98071071D02*
X104757142Y-97999642D01*
X104828571Y-97856785D01*
X104828571Y-96571071D01*
X104042857Y-98071071D02*
X104042857Y-97071071D01*
X104042857Y-96571071D02*
X104114285Y-96642500D01*
X104042857Y-96713928D01*
X103971428Y-96642500D01*
X104042857Y-96571071D01*
X104042857Y-96713928D01*
X103542857Y-97071071D02*
X102971428Y-97071071D01*
X103328571Y-96571071D02*
X103328571Y-97856785D01*
X103257142Y-97999642D01*
X103114285Y-98071071D01*
X102971428Y-98071071D01*
X101900000Y-97999642D02*
X102042857Y-98071071D01*
X102328571Y-98071071D01*
X102471428Y-97999642D01*
X102542857Y-97856785D01*
X102542857Y-97285357D01*
X102471428Y-97142500D01*
X102328571Y-97071071D01*
X102042857Y-97071071D01*
X101900000Y-97142500D01*
X101828571Y-97285357D01*
X101828571Y-97428214D01*
X102542857Y-97571071D01*
X107828571Y-99700357D02*
X107614285Y-99771785D01*
X107542857Y-99843214D01*
X107471428Y-99986071D01*
X107471428Y-100200357D01*
X107542857Y-100343214D01*
X107614285Y-100414642D01*
X107757142Y-100486071D01*
X108328571Y-100486071D01*
X108328571Y-98986071D01*
X107828571Y-98986071D01*
X107685714Y-99057500D01*
X107614285Y-99128928D01*
X107542857Y-99271785D01*
X107542857Y-99414642D01*
X107614285Y-99557500D01*
X107685714Y-99628928D01*
X107828571Y-99700357D01*
X108328571Y-99700357D01*
X106257142Y-100414642D02*
X106400000Y-100486071D01*
X106685714Y-100486071D01*
X106828571Y-100414642D01*
X106900000Y-100271785D01*
X106900000Y-99700357D01*
X106828571Y-99557500D01*
X106685714Y-99486071D01*
X106400000Y-99486071D01*
X106257142Y-99557500D01*
X106185714Y-99700357D01*
X106185714Y-99843214D01*
X106900000Y-99986071D01*
X104900000Y-100486071D02*
X104900000Y-98986071D01*
X104900000Y-100414642D02*
X105042857Y-100486071D01*
X105328571Y-100486071D01*
X105471428Y-100414642D01*
X105542857Y-100343214D01*
X105614285Y-100200357D01*
X105614285Y-99771785D01*
X105542857Y-99628928D01*
X105471428Y-99557500D01*
X105328571Y-99486071D01*
X105042857Y-99486071D01*
X104900000Y-99557500D01*
X103114285Y-100057500D02*
X102400000Y-100057500D01*
X103257142Y-100486071D02*
X102757142Y-98986071D01*
X102257142Y-100486071D01*
D12*
X98357619Y-71073928D02*
X98357619Y-70883452D01*
X98310000Y-70788214D01*
X98214761Y-70692976D01*
X98024285Y-70645357D01*
X97690952Y-70645357D01*
X97500476Y-70692976D01*
X97405238Y-70788214D01*
X97357619Y-70883452D01*
X97357619Y-71073928D01*
X97405238Y-71169166D01*
X97500476Y-71264404D01*
X97690952Y-71312023D01*
X98024285Y-71312023D01*
X98214761Y-71264404D01*
X98310000Y-71169166D01*
X98357619Y-71073928D01*
X97357619Y-70312023D02*
X98024285Y-69788214D01*
X98024285Y-70312023D02*
X97357619Y-69788214D01*
X97357619Y-69407261D02*
X98024285Y-69407261D01*
X98357619Y-69407261D02*
X98310000Y-69454880D01*
X98262380Y-69407261D01*
X98310000Y-69359642D01*
X98357619Y-69407261D01*
X98262380Y-69407261D01*
X97357619Y-68931071D02*
X98357619Y-68931071D01*
X97738571Y-68835833D02*
X97357619Y-68550119D01*
X98024285Y-68550119D02*
X97643333Y-68931071D01*
X97357619Y-68121547D02*
X98024285Y-68121547D01*
X98357619Y-68121547D02*
X98310000Y-68169166D01*
X98262380Y-68121547D01*
X98310000Y-68073928D01*
X98357619Y-68121547D01*
X98262380Y-68121547D01*
X98024285Y-67788214D02*
X98024285Y-67407261D01*
X98357619Y-67645357D02*
X97500476Y-67645357D01*
X97405238Y-67597738D01*
X97357619Y-67502500D01*
X97357619Y-67407261D01*
X97881428Y-65978690D02*
X97833809Y-65835833D01*
X97786190Y-65788214D01*
X97690952Y-65740595D01*
X97548095Y-65740595D01*
X97452857Y-65788214D01*
X97405238Y-65835833D01*
X97357619Y-65931071D01*
X97357619Y-66312023D01*
X98357619Y-66312023D01*
X98357619Y-65978690D01*
X98310000Y-65883452D01*
X98262380Y-65835833D01*
X98167142Y-65788214D01*
X98071904Y-65788214D01*
X97976666Y-65835833D01*
X97929047Y-65883452D01*
X97881428Y-65978690D01*
X97881428Y-66312023D01*
X97357619Y-65312023D02*
X98024285Y-65312023D01*
X97833809Y-65312023D02*
X97929047Y-65264404D01*
X97976666Y-65216785D01*
X98024285Y-65121547D01*
X98024285Y-65026309D01*
X97357619Y-64264404D02*
X97881428Y-64264404D01*
X97976666Y-64312023D01*
X98024285Y-64407261D01*
X98024285Y-64597738D01*
X97976666Y-64692976D01*
X97405238Y-64264404D02*
X97357619Y-64359642D01*
X97357619Y-64597738D01*
X97405238Y-64692976D01*
X97500476Y-64740595D01*
X97595714Y-64740595D01*
X97690952Y-64692976D01*
X97738571Y-64597738D01*
X97738571Y-64359642D01*
X97786190Y-64264404D01*
X97357619Y-63788214D02*
X98024285Y-63788214D01*
X98357619Y-63788214D02*
X98310000Y-63835833D01*
X98262380Y-63788214D01*
X98310000Y-63740595D01*
X98357619Y-63788214D01*
X98262380Y-63788214D01*
X98024285Y-63312023D02*
X97357619Y-63312023D01*
X97929047Y-63312023D02*
X97976666Y-63264404D01*
X98024285Y-63169166D01*
X98024285Y-63026309D01*
X97976666Y-62931071D01*
X97881428Y-62883452D01*
X97357619Y-62883452D01*
X97357619Y-62407261D02*
X98357619Y-62407261D01*
X97976666Y-62407261D02*
X98024285Y-62312023D01*
X98024285Y-62121547D01*
X97976666Y-62026309D01*
X97929047Y-61978690D01*
X97833809Y-61931071D01*
X97548095Y-61931071D01*
X97452857Y-61978690D01*
X97405238Y-62026309D01*
X97357619Y-62121547D01*
X97357619Y-62312023D01*
X97405238Y-62407261D01*
X97357619Y-61359642D02*
X97405238Y-61454880D01*
X97452857Y-61502500D01*
X97548095Y-61550119D01*
X97833809Y-61550119D01*
X97929047Y-61502500D01*
X97976666Y-61454880D01*
X98024285Y-61359642D01*
X98024285Y-61216785D01*
X97976666Y-61121547D01*
X97929047Y-61073928D01*
X97833809Y-61026309D01*
X97548095Y-61026309D01*
X97452857Y-61073928D01*
X97405238Y-61121547D01*
X97357619Y-61216785D01*
X97357619Y-61359642D01*
X97357619Y-60169166D02*
X97881428Y-60169166D01*
X97976666Y-60216785D01*
X98024285Y-60312023D01*
X98024285Y-60502500D01*
X97976666Y-60597738D01*
X97405238Y-60169166D02*
X97357619Y-60264404D01*
X97357619Y-60502500D01*
X97405238Y-60597738D01*
X97500476Y-60645357D01*
X97595714Y-60645357D01*
X97690952Y-60597738D01*
X97738571Y-60502500D01*
X97738571Y-60264404D01*
X97786190Y-60169166D01*
X97357619Y-59692976D02*
X98024285Y-59692976D01*
X97833809Y-59692976D02*
X97929047Y-59645357D01*
X97976666Y-59597738D01*
X98024285Y-59502500D01*
X98024285Y-59407261D01*
X97357619Y-58645357D02*
X98357619Y-58645357D01*
X97405238Y-58645357D02*
X97357619Y-58740595D01*
X97357619Y-58931071D01*
X97405238Y-59026309D01*
X97452857Y-59073928D01*
X97548095Y-59121547D01*
X97833809Y-59121547D01*
X97929047Y-59073928D01*
X97976666Y-59026309D01*
X98024285Y-58931071D01*
X98024285Y-58740595D01*
X97976666Y-58645357D01*
X95747619Y-70692976D02*
X96223809Y-71026309D01*
X95747619Y-71264404D02*
X96747619Y-71264404D01*
X96747619Y-70883452D01*
X96700000Y-70788214D01*
X96652380Y-70740595D01*
X96557142Y-70692976D01*
X96414285Y-70692976D01*
X96319047Y-70740595D01*
X96271428Y-70788214D01*
X96223809Y-70883452D01*
X96223809Y-71264404D01*
X95795238Y-69883452D02*
X95747619Y-69978690D01*
X95747619Y-70169166D01*
X95795238Y-70264404D01*
X95890476Y-70312023D01*
X96271428Y-70312023D01*
X96366666Y-70264404D01*
X96414285Y-70169166D01*
X96414285Y-69978690D01*
X96366666Y-69883452D01*
X96271428Y-69835833D01*
X96176190Y-69835833D01*
X96080952Y-70312023D01*
X96414285Y-69502500D02*
X95747619Y-69264404D01*
X96414285Y-69026309D01*
X95842857Y-68645357D02*
X95795238Y-68597738D01*
X95747619Y-68645357D01*
X95795238Y-68692976D01*
X95842857Y-68645357D01*
X95747619Y-68645357D01*
X95747619Y-66883452D02*
X95747619Y-67454880D01*
X95747619Y-67169166D02*
X96747619Y-67169166D01*
X96604761Y-67264404D01*
X96509523Y-67359642D01*
X96461904Y-67454880D01*
X95842857Y-66454880D02*
X95795238Y-66407261D01*
X95747619Y-66454880D01*
X95795238Y-66502500D01*
X95842857Y-66454880D01*
X95747619Y-66454880D01*
X96652380Y-66026309D02*
X96700000Y-65978690D01*
X96747619Y-65883452D01*
X96747619Y-65645357D01*
X96700000Y-65550119D01*
X96652380Y-65502500D01*
X96557142Y-65454880D01*
X96461904Y-65454880D01*
X96319047Y-65502500D01*
X95747619Y-66073928D01*
X95747619Y-65454880D01*
X95137619Y-71073928D02*
X95137619Y-70978690D01*
X95090000Y-70883452D01*
X95042380Y-70835833D01*
X94947142Y-70788214D01*
X94756666Y-70740595D01*
X94518571Y-70740595D01*
X94328095Y-70788214D01*
X94232857Y-70835833D01*
X94185238Y-70883452D01*
X94137619Y-70978690D01*
X94137619Y-71073928D01*
X94185238Y-71169166D01*
X94232857Y-71216785D01*
X94328095Y-71264404D01*
X94518571Y-71312023D01*
X94756666Y-71312023D01*
X94947142Y-71264404D01*
X95042380Y-71216785D01*
X95090000Y-71169166D01*
X95137619Y-71073928D01*
X94709047Y-70169166D02*
X94756666Y-70264404D01*
X94804285Y-70312023D01*
X94899523Y-70359642D01*
X94947142Y-70359642D01*
X95042380Y-70312023D01*
X95090000Y-70264404D01*
X95137619Y-70169166D01*
X95137619Y-69978690D01*
X95090000Y-69883452D01*
X95042380Y-69835833D01*
X94947142Y-69788214D01*
X94899523Y-69788214D01*
X94804285Y-69835833D01*
X94756666Y-69883452D01*
X94709047Y-69978690D01*
X94709047Y-70169166D01*
X94661428Y-70264404D01*
X94613809Y-70312023D01*
X94518571Y-70359642D01*
X94328095Y-70359642D01*
X94232857Y-70312023D01*
X94185238Y-70264404D01*
X94137619Y-70169166D01*
X94137619Y-69978690D01*
X94185238Y-69883452D01*
X94232857Y-69835833D01*
X94328095Y-69788214D01*
X94518571Y-69788214D01*
X94613809Y-69835833D01*
X94661428Y-69883452D01*
X94709047Y-69978690D01*
X95137619Y-68312023D02*
X94423333Y-68312023D01*
X94280476Y-68359642D01*
X94185238Y-68454880D01*
X94137619Y-68597738D01*
X94137619Y-68692976D01*
X94804285Y-67407261D02*
X94137619Y-67407261D01*
X94804285Y-67835833D02*
X94280476Y-67835833D01*
X94185238Y-67788214D01*
X94137619Y-67692976D01*
X94137619Y-67550119D01*
X94185238Y-67454880D01*
X94232857Y-67407261D01*
X94804285Y-66931071D02*
X94137619Y-66931071D01*
X94709047Y-66931071D02*
X94756666Y-66883452D01*
X94804285Y-66788214D01*
X94804285Y-66645357D01*
X94756666Y-66550119D01*
X94661428Y-66502499D01*
X94137619Y-66502499D01*
X95137619Y-65216785D02*
X94947142Y-65312023D01*
X95042380Y-64835833D02*
X95090000Y-64788214D01*
X95137619Y-64692976D01*
X95137619Y-64454880D01*
X95090000Y-64359642D01*
X95042380Y-64312023D01*
X94947142Y-64264404D01*
X94851904Y-64264404D01*
X94709047Y-64312023D01*
X94137619Y-64883452D01*
X94137619Y-64264404D01*
X94137619Y-63312023D02*
X94137619Y-63883452D01*
X94137619Y-63597738D02*
X95137619Y-63597738D01*
X94994761Y-63692976D01*
X94899523Y-63788214D01*
X94851904Y-63883452D01*
D13*
%TO.C,PS3*%
X139383333Y-83050000D02*
X137983333Y-83050000D01*
X137983333Y-83583333D01*
X138050000Y-83716666D01*
X138116666Y-83783333D01*
X138250000Y-83850000D01*
X138450000Y-83850000D01*
X138583333Y-83783333D01*
X138650000Y-83716666D01*
X138716666Y-83583333D01*
X138716666Y-83050000D01*
X139316666Y-84383333D02*
X139383333Y-84583333D01*
X139383333Y-84916666D01*
X139316666Y-85050000D01*
X139250000Y-85116666D01*
X139116666Y-85183333D01*
X138983333Y-85183333D01*
X138850000Y-85116666D01*
X138783333Y-85050000D01*
X138716666Y-84916666D01*
X138650000Y-84650000D01*
X138583333Y-84516666D01*
X138516666Y-84450000D01*
X138383333Y-84383333D01*
X138250000Y-84383333D01*
X138116666Y-84450000D01*
X138050000Y-84516666D01*
X137983333Y-84650000D01*
X137983333Y-84983333D01*
X138050000Y-85183333D01*
X137983333Y-85650000D02*
X137983333Y-86516666D01*
X138516666Y-86050000D01*
X138516666Y-86250000D01*
X138583333Y-86383333D01*
X138650000Y-86450000D01*
X138783333Y-86516666D01*
X139116666Y-86516666D01*
X139250000Y-86450000D01*
X139316666Y-86383333D01*
X139383333Y-86250000D01*
X139383333Y-85850000D01*
X139316666Y-85716666D01*
X139250000Y-85650000D01*
D12*
%TO.C,Brd1*%
X131316666Y-43928571D02*
X131173809Y-43976190D01*
X131126190Y-44023809D01*
X131078571Y-44119047D01*
X131078571Y-44261904D01*
X131126190Y-44357142D01*
X131173809Y-44404761D01*
X131269047Y-44452380D01*
X131650000Y-44452380D01*
X131650000Y-43452380D01*
X131316666Y-43452380D01*
X131221428Y-43500000D01*
X131173809Y-43547619D01*
X131126190Y-43642857D01*
X131126190Y-43738095D01*
X131173809Y-43833333D01*
X131221428Y-43880952D01*
X131316666Y-43928571D01*
X131650000Y-43928571D01*
X130650000Y-44452380D02*
X130650000Y-43785714D01*
X130650000Y-43976190D02*
X130602380Y-43880952D01*
X130554761Y-43833333D01*
X130459523Y-43785714D01*
X130364285Y-43785714D01*
X129602380Y-44452380D02*
X129602380Y-43452380D01*
X129602380Y-44404761D02*
X129697619Y-44452380D01*
X129888095Y-44452380D01*
X129983333Y-44404761D01*
X130030952Y-44357142D01*
X130078571Y-44261904D01*
X130078571Y-43976190D01*
X130030952Y-43880952D01*
X129983333Y-43833333D01*
X129888095Y-43785714D01*
X129697619Y-43785714D01*
X129602380Y-43833333D01*
X128602380Y-44452380D02*
X129173809Y-44452380D01*
X128888095Y-44452380D02*
X128888095Y-43452380D01*
X128983333Y-43595238D01*
X129078571Y-43690476D01*
X129173809Y-43738095D01*
D13*
%TO.C,PS2*%
X125383333Y-83050000D02*
X123983333Y-83050000D01*
X123983333Y-83583333D01*
X124050000Y-83716666D01*
X124116666Y-83783333D01*
X124250000Y-83850000D01*
X124450000Y-83850000D01*
X124583333Y-83783333D01*
X124650000Y-83716666D01*
X124716666Y-83583333D01*
X124716666Y-83050000D01*
X125316666Y-84383333D02*
X125383333Y-84583333D01*
X125383333Y-84916666D01*
X125316666Y-85050000D01*
X125250000Y-85116666D01*
X125116666Y-85183333D01*
X124983333Y-85183333D01*
X124850000Y-85116666D01*
X124783333Y-85050000D01*
X124716666Y-84916666D01*
X124650000Y-84650000D01*
X124583333Y-84516666D01*
X124516666Y-84450000D01*
X124383333Y-84383333D01*
X124250000Y-84383333D01*
X124116666Y-84450000D01*
X124050000Y-84516666D01*
X123983333Y-84650000D01*
X123983333Y-84983333D01*
X124050000Y-85183333D01*
X124116666Y-85716666D02*
X124050000Y-85783333D01*
X123983333Y-85916666D01*
X123983333Y-86250000D01*
X124050000Y-86383333D01*
X124116666Y-86450000D01*
X124250000Y-86516666D01*
X124383333Y-86516666D01*
X124583333Y-86450000D01*
X125383333Y-85650000D01*
X125383333Y-86516666D01*
%TO.C,PS1*%
X111633333Y-83050000D02*
X110233333Y-83050000D01*
X110233333Y-83583333D01*
X110300000Y-83716666D01*
X110366666Y-83783333D01*
X110500000Y-83850000D01*
X110700000Y-83850000D01*
X110833333Y-83783333D01*
X110900000Y-83716666D01*
X110966666Y-83583333D01*
X110966666Y-83050000D01*
X111566666Y-84383333D02*
X111633333Y-84583333D01*
X111633333Y-84916666D01*
X111566666Y-85050000D01*
X111500000Y-85116666D01*
X111366666Y-85183333D01*
X111233333Y-85183333D01*
X111100000Y-85116666D01*
X111033333Y-85050000D01*
X110966666Y-84916666D01*
X110900000Y-84650000D01*
X110833333Y-84516666D01*
X110766666Y-84450000D01*
X110633333Y-84383333D01*
X110500000Y-84383333D01*
X110366666Y-84450000D01*
X110300000Y-84516666D01*
X110233333Y-84650000D01*
X110233333Y-84983333D01*
X110300000Y-85183333D01*
X111633333Y-86516666D02*
X111633333Y-85716666D01*
X111633333Y-86116666D02*
X110233333Y-86116666D01*
X110433333Y-85983333D01*
X110566666Y-85850000D01*
X110633333Y-85716666D01*
D14*
%TO.C,PS3*%
X137500000Y-95000000D02*
X136895000Y-95000000D01*
X136895000Y-84000000D02*
X137500000Y-84000000D01*
X130105000Y-95000000D02*
X129500000Y-95000000D01*
X137500000Y-84000000D02*
X137500000Y-95000000D01*
X129500000Y-84000000D02*
X130105000Y-84000000D01*
X129500000Y-95000000D02*
X129500000Y-84000000D01*
D15*
X136140000Y-82890000D02*
G75*
G03*
X136140000Y-82890000I-100000J0D01*
G01*
D16*
%TO.C,Brd1*%
X124199000Y-42939000D02*
X124199000Y-45352000D01*
X105500000Y-42450000D02*
X105500000Y-69750000D01*
X132478000Y-45745000D02*
X109378000Y-45745000D01*
X109378000Y-45745000D02*
X106292000Y-45745000D01*
X114420000Y-42939000D02*
X114420000Y-45352000D01*
X124199000Y-42939000D02*
X114420000Y-42939000D01*
X132478000Y-62345000D02*
X132478000Y-45745000D01*
X109378000Y-62345000D02*
X106038000Y-62370000D01*
X106038000Y-62370000D02*
X106038000Y-45733000D01*
X105500000Y-69750000D02*
X132900000Y-69750000D01*
X114420000Y-45352000D02*
X124199000Y-45352000D01*
X132900000Y-69750000D02*
X132900000Y-42450000D01*
X109378000Y-62345000D02*
X132478000Y-62345000D01*
X106038000Y-45733000D02*
X106292000Y-45745000D01*
X132900000Y-42450000D02*
X105500000Y-42450000D01*
D14*
%TO.C,PS2*%
X115500000Y-84000000D02*
X116105000Y-84000000D01*
X123500000Y-95000000D02*
X122895000Y-95000000D01*
X122895000Y-84000000D02*
X123500000Y-84000000D01*
X123500000Y-84000000D02*
X123500000Y-95000000D01*
X115500000Y-95000000D02*
X115500000Y-84000000D01*
X116105000Y-95000000D02*
X115500000Y-95000000D01*
D15*
X122140000Y-82890000D02*
G75*
G03*
X122140000Y-82890000I-100000J0D01*
G01*
D14*
%TO.C,PS1*%
X101500000Y-84000000D02*
X102105000Y-84000000D01*
X108895000Y-84000000D02*
X109500000Y-84000000D01*
X109500000Y-84000000D02*
X109500000Y-95000000D01*
X102105000Y-95000000D02*
X101500000Y-95000000D01*
X109500000Y-95000000D02*
X108895000Y-95000000D01*
X101500000Y-95000000D02*
X101500000Y-84000000D01*
D15*
X108140000Y-82890000D02*
G75*
G03*
X108140000Y-82890000I-100000J0D01*
G01*
%TD*%
M02*
