%TF.GenerationSoftware,KiCad,Pcbnew,(5.99.0-10406-ge27733587d)*%
%TF.CreationDate,2021-05-26T11:48:17+05:30*%
%TF.ProjectId,OxiKit-Brainboard_v1,4f78694b-6974-42d4-9272-61696e626f61,rev?*%
%TF.SameCoordinates,Original*%
%TF.FileFunction,Legend,Bot*%
%TF.FilePolarity,Positive*%
%FSLAX46Y46*%
G04 Gerber Fmt 4.6, Leading zero omitted, Abs format (unit mm)*
G04 Created by KiCad (PCBNEW (5.99.0-10406-ge27733587d)) date 2021-05-26 11:48:17*
%MOMM*%
%LPD*%
G01*
G04 APERTURE LIST*
%ADD10C,0.150000*%
%ADD11C,0.010000*%
%ADD12C,0.120000*%
G04 APERTURE END LIST*
D10*
X132023809Y-94537380D02*
X132023809Y-93537380D01*
X131785714Y-93537380D01*
X131642857Y-93585000D01*
X131547619Y-93680238D01*
X131500000Y-93775476D01*
X131452380Y-93965952D01*
X131452380Y-94108809D01*
X131500000Y-94299285D01*
X131547619Y-94394523D01*
X131642857Y-94489761D01*
X131785714Y-94537380D01*
X132023809Y-94537380D01*
X130642857Y-94489761D02*
X130738095Y-94537380D01*
X130928571Y-94537380D01*
X131023809Y-94489761D01*
X131071428Y-94394523D01*
X131071428Y-94013571D01*
X131023809Y-93918333D01*
X130928571Y-93870714D01*
X130738095Y-93870714D01*
X130642857Y-93918333D01*
X130595238Y-94013571D01*
X130595238Y-94108809D01*
X131071428Y-94204047D01*
X130214285Y-94489761D02*
X130119047Y-94537380D01*
X129928571Y-94537380D01*
X129833333Y-94489761D01*
X129785714Y-94394523D01*
X129785714Y-94346904D01*
X129833333Y-94251666D01*
X129928571Y-94204047D01*
X130071428Y-94204047D01*
X130166666Y-94156428D01*
X130214285Y-94061190D01*
X130214285Y-94013571D01*
X130166666Y-93918333D01*
X130071428Y-93870714D01*
X129928571Y-93870714D01*
X129833333Y-93918333D01*
X129357142Y-94537380D02*
X129357142Y-93870714D01*
X129357142Y-93537380D02*
X129404761Y-93585000D01*
X129357142Y-93632619D01*
X129309523Y-93585000D01*
X129357142Y-93537380D01*
X129357142Y-93632619D01*
X128452380Y-93870714D02*
X128452380Y-94680238D01*
X128500000Y-94775476D01*
X128547619Y-94823095D01*
X128642857Y-94870714D01*
X128785714Y-94870714D01*
X128880952Y-94823095D01*
X128452380Y-94489761D02*
X128547619Y-94537380D01*
X128738095Y-94537380D01*
X128833333Y-94489761D01*
X128880952Y-94442142D01*
X128928571Y-94346904D01*
X128928571Y-94061190D01*
X128880952Y-93965952D01*
X128833333Y-93918333D01*
X128738095Y-93870714D01*
X128547619Y-93870714D01*
X128452380Y-93918333D01*
X127976190Y-93870714D02*
X127976190Y-94537380D01*
X127976190Y-93965952D02*
X127928571Y-93918333D01*
X127833333Y-93870714D01*
X127690476Y-93870714D01*
X127595238Y-93918333D01*
X127547619Y-94013571D01*
X127547619Y-94537380D01*
X126690476Y-94489761D02*
X126785714Y-94537380D01*
X126976190Y-94537380D01*
X127071428Y-94489761D01*
X127119047Y-94394523D01*
X127119047Y-94013571D01*
X127071428Y-93918333D01*
X126976190Y-93870714D01*
X126785714Y-93870714D01*
X126690476Y-93918333D01*
X126642857Y-94013571D01*
X126642857Y-94108809D01*
X127119047Y-94204047D01*
X125785714Y-94537380D02*
X125785714Y-93537380D01*
X125785714Y-94489761D02*
X125880952Y-94537380D01*
X126071428Y-94537380D01*
X126166666Y-94489761D01*
X126214285Y-94442142D01*
X126261904Y-94346904D01*
X126261904Y-94061190D01*
X126214285Y-93965952D01*
X126166666Y-93918333D01*
X126071428Y-93870714D01*
X125880952Y-93870714D01*
X125785714Y-93918333D01*
X123738095Y-94537380D02*
X123785714Y-94537380D01*
X123880952Y-94489761D01*
X124023809Y-94346904D01*
X124261904Y-94061190D01*
X124357142Y-93918333D01*
X124404761Y-93775476D01*
X124404761Y-93680238D01*
X124357142Y-93585000D01*
X124261904Y-93537380D01*
X124214285Y-93537380D01*
X124119047Y-93585000D01*
X124071428Y-93680238D01*
X124071428Y-93727857D01*
X124119047Y-93823095D01*
X124166666Y-93870714D01*
X124452380Y-94061190D01*
X124500000Y-94108809D01*
X124547619Y-94204047D01*
X124547619Y-94346904D01*
X124500000Y-94442142D01*
X124452380Y-94489761D01*
X124357142Y-94537380D01*
X124214285Y-94537380D01*
X124119047Y-94489761D01*
X124071428Y-94442142D01*
X123928571Y-94251666D01*
X123880952Y-94108809D01*
X123880952Y-94013571D01*
X122547619Y-94537380D02*
X122547619Y-93537380D01*
X122214285Y-94251666D01*
X121880952Y-93537380D01*
X121880952Y-94537380D01*
X120976190Y-94537380D02*
X120976190Y-94013571D01*
X121023809Y-93918333D01*
X121119047Y-93870714D01*
X121309523Y-93870714D01*
X121404761Y-93918333D01*
X120976190Y-94489761D02*
X121071428Y-94537380D01*
X121309523Y-94537380D01*
X121404761Y-94489761D01*
X121452380Y-94394523D01*
X121452380Y-94299285D01*
X121404761Y-94204047D01*
X121309523Y-94156428D01*
X121071428Y-94156428D01*
X120976190Y-94108809D01*
X120500000Y-94537380D02*
X120500000Y-93870714D01*
X120500000Y-93537380D02*
X120547619Y-93585000D01*
X120500000Y-93632619D01*
X120452380Y-93585000D01*
X120500000Y-93537380D01*
X120500000Y-93632619D01*
X120023809Y-93870714D02*
X120023809Y-94537380D01*
X120023809Y-93965952D02*
X119976190Y-93918333D01*
X119880952Y-93870714D01*
X119738095Y-93870714D01*
X119642857Y-93918333D01*
X119595238Y-94013571D01*
X119595238Y-94537380D01*
X119261904Y-93870714D02*
X118880952Y-93870714D01*
X119119047Y-93537380D02*
X119119047Y-94394523D01*
X119071428Y-94489761D01*
X118976190Y-94537380D01*
X118880952Y-94537380D01*
X118119047Y-94537380D02*
X118119047Y-94013571D01*
X118166666Y-93918333D01*
X118261904Y-93870714D01*
X118452380Y-93870714D01*
X118547619Y-93918333D01*
X118119047Y-94489761D02*
X118214285Y-94537380D01*
X118452380Y-94537380D01*
X118547619Y-94489761D01*
X118595238Y-94394523D01*
X118595238Y-94299285D01*
X118547619Y-94204047D01*
X118452380Y-94156428D01*
X118214285Y-94156428D01*
X118119047Y-94108809D01*
X117642857Y-94537380D02*
X117642857Y-93870714D01*
X117642857Y-93537380D02*
X117690476Y-93585000D01*
X117642857Y-93632619D01*
X117595238Y-93585000D01*
X117642857Y-93537380D01*
X117642857Y-93632619D01*
X117166666Y-93870714D02*
X117166666Y-94537380D01*
X117166666Y-93965952D02*
X117119047Y-93918333D01*
X117023809Y-93870714D01*
X116880952Y-93870714D01*
X116785714Y-93918333D01*
X116738095Y-94013571D01*
X116738095Y-94537380D01*
X115880952Y-94489761D02*
X115976190Y-94537380D01*
X116166666Y-94537380D01*
X116261904Y-94489761D01*
X116309523Y-94394523D01*
X116309523Y-94013571D01*
X116261904Y-93918333D01*
X116166666Y-93870714D01*
X115976190Y-93870714D01*
X115880952Y-93918333D01*
X115833333Y-94013571D01*
X115833333Y-94108809D01*
X116309523Y-94204047D01*
X114976190Y-94537380D02*
X114976190Y-93537380D01*
X114976190Y-94489761D02*
X115071428Y-94537380D01*
X115261904Y-94537380D01*
X115357142Y-94489761D01*
X115404761Y-94442142D01*
X115452380Y-94346904D01*
X115452380Y-94061190D01*
X115404761Y-93965952D01*
X115357142Y-93918333D01*
X115261904Y-93870714D01*
X115071428Y-93870714D01*
X114976190Y-93918333D01*
X124095238Y-96147380D02*
X124095238Y-95147380D01*
X124095238Y-95528333D02*
X124000000Y-95480714D01*
X123809523Y-95480714D01*
X123714285Y-95528333D01*
X123666666Y-95575952D01*
X123619047Y-95671190D01*
X123619047Y-95956904D01*
X123666666Y-96052142D01*
X123714285Y-96099761D01*
X123809523Y-96147380D01*
X124000000Y-96147380D01*
X124095238Y-96099761D01*
X123285714Y-95480714D02*
X123047619Y-96147380D01*
X122809523Y-95480714D02*
X123047619Y-96147380D01*
X123142857Y-96385476D01*
X123190476Y-96433095D01*
X123285714Y-96480714D01*
X129238095Y-97709761D02*
X129095238Y-97757380D01*
X128857142Y-97757380D01*
X128761904Y-97709761D01*
X128714285Y-97662142D01*
X128666666Y-97566904D01*
X128666666Y-97471666D01*
X128714285Y-97376428D01*
X128761904Y-97328809D01*
X128857142Y-97281190D01*
X129047619Y-97233571D01*
X129142857Y-97185952D01*
X129190476Y-97138333D01*
X129238095Y-97043095D01*
X129238095Y-96947857D01*
X129190476Y-96852619D01*
X129142857Y-96805000D01*
X129047619Y-96757380D01*
X128809523Y-96757380D01*
X128666666Y-96805000D01*
X128238095Y-97757380D02*
X128238095Y-96757380D01*
X127809523Y-97757380D02*
X127809523Y-97233571D01*
X127857142Y-97138333D01*
X127952380Y-97090714D01*
X128095238Y-97090714D01*
X128190476Y-97138333D01*
X128238095Y-97185952D01*
X127333333Y-97757380D02*
X127333333Y-97090714D01*
X127333333Y-97281190D02*
X127285714Y-97185952D01*
X127238095Y-97138333D01*
X127142857Y-97090714D01*
X127047619Y-97090714D01*
X126714285Y-97757380D02*
X126714285Y-97090714D01*
X126714285Y-96757380D02*
X126761904Y-96805000D01*
X126714285Y-96852619D01*
X126666666Y-96805000D01*
X126714285Y-96757380D01*
X126714285Y-96852619D01*
X125809523Y-97757380D02*
X125809523Y-96757380D01*
X125809523Y-97709761D02*
X125904761Y-97757380D01*
X126095238Y-97757380D01*
X126190476Y-97709761D01*
X126238095Y-97662142D01*
X126285714Y-97566904D01*
X126285714Y-97281190D01*
X126238095Y-97185952D01*
X126190476Y-97138333D01*
X126095238Y-97090714D01*
X125904761Y-97090714D01*
X125809523Y-97138333D01*
X124904761Y-97757380D02*
X124904761Y-97233571D01*
X124952380Y-97138333D01*
X125047619Y-97090714D01*
X125238095Y-97090714D01*
X125333333Y-97138333D01*
X124904761Y-97709761D02*
X125000000Y-97757380D01*
X125238095Y-97757380D01*
X125333333Y-97709761D01*
X125380952Y-97614523D01*
X125380952Y-97519285D01*
X125333333Y-97424047D01*
X125238095Y-97376428D01*
X125000000Y-97376428D01*
X124904761Y-97328809D01*
X124571428Y-97090714D02*
X124190476Y-97090714D01*
X124428571Y-96757380D02*
X124428571Y-97614523D01*
X124380952Y-97709761D01*
X124285714Y-97757380D01*
X124190476Y-97757380D01*
X124000000Y-97090714D02*
X123619047Y-97090714D01*
X123857142Y-96757380D02*
X123857142Y-97614523D01*
X123809523Y-97709761D01*
X123714285Y-97757380D01*
X123619047Y-97757380D01*
X122523809Y-97757380D02*
X122523809Y-96757380D01*
X122285714Y-96757380D01*
X122142857Y-96805000D01*
X122047619Y-96900238D01*
X122000000Y-96995476D01*
X121952380Y-97185952D01*
X121952380Y-97328809D01*
X122000000Y-97519285D01*
X122047619Y-97614523D01*
X122142857Y-97709761D01*
X122285714Y-97757380D01*
X122523809Y-97757380D01*
X121095238Y-97090714D02*
X121095238Y-97757380D01*
X121523809Y-97090714D02*
X121523809Y-97614523D01*
X121476190Y-97709761D01*
X121380952Y-97757380D01*
X121238095Y-97757380D01*
X121142857Y-97709761D01*
X121095238Y-97662142D01*
X120190476Y-97757380D02*
X120190476Y-96757380D01*
X120190476Y-97709761D02*
X120285714Y-97757380D01*
X120476190Y-97757380D01*
X120571428Y-97709761D01*
X120619047Y-97662142D01*
X120666666Y-97566904D01*
X120666666Y-97281190D01*
X120619047Y-97185952D01*
X120571428Y-97138333D01*
X120476190Y-97090714D01*
X120285714Y-97090714D01*
X120190476Y-97138333D01*
X119714285Y-97757380D02*
X119714285Y-96757380D01*
X119285714Y-97757380D02*
X119285714Y-97233571D01*
X119333333Y-97138333D01*
X119428571Y-97090714D01*
X119571428Y-97090714D01*
X119666666Y-97138333D01*
X119714285Y-97185952D01*
X118380952Y-97757380D02*
X118380952Y-97233571D01*
X118428571Y-97138333D01*
X118523809Y-97090714D01*
X118714285Y-97090714D01*
X118809523Y-97138333D01*
X118380952Y-97709761D02*
X118476190Y-97757380D01*
X118714285Y-97757380D01*
X118809523Y-97709761D01*
X118857142Y-97614523D01*
X118857142Y-97519285D01*
X118809523Y-97424047D01*
X118714285Y-97376428D01*
X118476190Y-97376428D01*
X118380952Y-97328809D01*
X118047619Y-97090714D02*
X117666666Y-97090714D01*
X117904761Y-96757380D02*
X117904761Y-97614523D01*
X117857142Y-97709761D01*
X117761904Y-97757380D01*
X117666666Y-97757380D01*
X134952380Y-99367380D02*
X134952380Y-98367380D01*
X134523809Y-99367380D02*
X134523809Y-98843571D01*
X134571428Y-98748333D01*
X134666666Y-98700714D01*
X134809523Y-98700714D01*
X134904761Y-98748333D01*
X134952380Y-98795952D01*
X134190476Y-98700714D02*
X133809523Y-98700714D01*
X134047619Y-98367380D02*
X134047619Y-99224523D01*
X134000000Y-99319761D01*
X133904761Y-99367380D01*
X133809523Y-99367380D01*
X133619047Y-98700714D02*
X133238095Y-98700714D01*
X133476190Y-98367380D02*
X133476190Y-99224523D01*
X133428571Y-99319761D01*
X133333333Y-99367380D01*
X133238095Y-99367380D01*
X132904761Y-98700714D02*
X132904761Y-99700714D01*
X132904761Y-98748333D02*
X132809523Y-98700714D01*
X132619047Y-98700714D01*
X132523809Y-98748333D01*
X132476190Y-98795952D01*
X132428571Y-98891190D01*
X132428571Y-99176904D01*
X132476190Y-99272142D01*
X132523809Y-99319761D01*
X132619047Y-99367380D01*
X132809523Y-99367380D01*
X132904761Y-99319761D01*
X132000000Y-99272142D02*
X131952380Y-99319761D01*
X132000000Y-99367380D01*
X132047619Y-99319761D01*
X132000000Y-99272142D01*
X132000000Y-99367380D01*
X132000000Y-98748333D02*
X131952380Y-98795952D01*
X132000000Y-98843571D01*
X132047619Y-98795952D01*
X132000000Y-98748333D01*
X132000000Y-98843571D01*
X130809523Y-98319761D02*
X131666666Y-99605476D01*
X129761904Y-98319761D02*
X130619047Y-99605476D01*
X129476190Y-99319761D02*
X129380952Y-99367380D01*
X129190476Y-99367380D01*
X129095238Y-99319761D01*
X129047619Y-99224523D01*
X129047619Y-99176904D01*
X129095238Y-99081666D01*
X129190476Y-99034047D01*
X129333333Y-99034047D01*
X129428571Y-98986428D01*
X129476190Y-98891190D01*
X129476190Y-98843571D01*
X129428571Y-98748333D01*
X129333333Y-98700714D01*
X129190476Y-98700714D01*
X129095238Y-98748333D01*
X128619047Y-99367380D02*
X128619047Y-98367380D01*
X128190476Y-99367380D02*
X128190476Y-98843571D01*
X128238095Y-98748333D01*
X128333333Y-98700714D01*
X128476190Y-98700714D01*
X128571428Y-98748333D01*
X128619047Y-98795952D01*
X127714285Y-99367380D02*
X127714285Y-98700714D01*
X127714285Y-98891190D02*
X127666666Y-98795952D01*
X127619047Y-98748333D01*
X127523809Y-98700714D01*
X127428571Y-98700714D01*
X127095238Y-99367380D02*
X127095238Y-98700714D01*
X127095238Y-98367380D02*
X127142857Y-98415000D01*
X127095238Y-98462619D01*
X127047619Y-98415000D01*
X127095238Y-98367380D01*
X127095238Y-98462619D01*
X126190476Y-99367380D02*
X126190476Y-98367380D01*
X126190476Y-99319761D02*
X126285714Y-99367380D01*
X126476190Y-99367380D01*
X126571428Y-99319761D01*
X126619047Y-99272142D01*
X126666666Y-99176904D01*
X126666666Y-98891190D01*
X126619047Y-98795952D01*
X126571428Y-98748333D01*
X126476190Y-98700714D01*
X126285714Y-98700714D01*
X126190476Y-98748333D01*
X125285714Y-99367380D02*
X125285714Y-98843571D01*
X125333333Y-98748333D01*
X125428571Y-98700714D01*
X125619047Y-98700714D01*
X125714285Y-98748333D01*
X125285714Y-99319761D02*
X125380952Y-99367380D01*
X125619047Y-99367380D01*
X125714285Y-99319761D01*
X125761904Y-99224523D01*
X125761904Y-99129285D01*
X125714285Y-99034047D01*
X125619047Y-98986428D01*
X125380952Y-98986428D01*
X125285714Y-98938809D01*
X124952380Y-98700714D02*
X124571428Y-98700714D01*
X124809523Y-98367380D02*
X124809523Y-99224523D01*
X124761904Y-99319761D01*
X124666666Y-99367380D01*
X124571428Y-99367380D01*
X124380952Y-98700714D02*
X124000000Y-98700714D01*
X124238095Y-98367380D02*
X124238095Y-99224523D01*
X124190476Y-99319761D01*
X124095238Y-99367380D01*
X124000000Y-99367380D01*
X123238095Y-99367380D02*
X123238095Y-98367380D01*
X123238095Y-99319761D02*
X123333333Y-99367380D01*
X123523809Y-99367380D01*
X123619047Y-99319761D01*
X123666666Y-99272142D01*
X123714285Y-99176904D01*
X123714285Y-98891190D01*
X123666666Y-98795952D01*
X123619047Y-98748333D01*
X123523809Y-98700714D01*
X123333333Y-98700714D01*
X123238095Y-98748333D01*
X122333333Y-98700714D02*
X122333333Y-99367380D01*
X122761904Y-98700714D02*
X122761904Y-99224523D01*
X122714285Y-99319761D01*
X122619047Y-99367380D01*
X122476190Y-99367380D01*
X122380952Y-99319761D01*
X122333333Y-99272142D01*
X121428571Y-99367380D02*
X121428571Y-98367380D01*
X121428571Y-99319761D02*
X121523809Y-99367380D01*
X121714285Y-99367380D01*
X121809523Y-99319761D01*
X121857142Y-99272142D01*
X121904761Y-99176904D01*
X121904761Y-98891190D01*
X121857142Y-98795952D01*
X121809523Y-98748333D01*
X121714285Y-98700714D01*
X121523809Y-98700714D01*
X121428571Y-98748333D01*
X120952380Y-99367380D02*
X120952380Y-98367380D01*
X120523809Y-99367380D02*
X120523809Y-98843571D01*
X120571428Y-98748333D01*
X120666666Y-98700714D01*
X120809523Y-98700714D01*
X120904761Y-98748333D01*
X120952380Y-98795952D01*
X119619047Y-99367380D02*
X119619047Y-98843571D01*
X119666666Y-98748333D01*
X119761904Y-98700714D01*
X119952380Y-98700714D01*
X120047619Y-98748333D01*
X119619047Y-99319761D02*
X119714285Y-99367380D01*
X119952380Y-99367380D01*
X120047619Y-99319761D01*
X120095238Y-99224523D01*
X120095238Y-99129285D01*
X120047619Y-99034047D01*
X119952380Y-98986428D01*
X119714285Y-98986428D01*
X119619047Y-98938809D01*
X119285714Y-98700714D02*
X118904761Y-98700714D01*
X119142857Y-98367380D02*
X119142857Y-99224523D01*
X119095238Y-99319761D01*
X119000000Y-99367380D01*
X118904761Y-99367380D01*
X118571428Y-99272142D02*
X118523809Y-99319761D01*
X118571428Y-99367380D01*
X118619047Y-99319761D01*
X118571428Y-99272142D01*
X118571428Y-99367380D01*
X117666666Y-98700714D02*
X117666666Y-99510238D01*
X117714285Y-99605476D01*
X117761904Y-99653095D01*
X117857142Y-99700714D01*
X118000000Y-99700714D01*
X118095238Y-99653095D01*
X117666666Y-99319761D02*
X117761904Y-99367380D01*
X117952380Y-99367380D01*
X118047619Y-99319761D01*
X118095238Y-99272142D01*
X118142857Y-99176904D01*
X118142857Y-98891190D01*
X118095238Y-98795952D01*
X118047619Y-98748333D01*
X117952380Y-98700714D01*
X117761904Y-98700714D01*
X117666666Y-98748333D01*
X117190476Y-99367380D02*
X117190476Y-98700714D01*
X117190476Y-98367380D02*
X117238095Y-98415000D01*
X117190476Y-98462619D01*
X117142857Y-98415000D01*
X117190476Y-98367380D01*
X117190476Y-98462619D01*
X116857142Y-98700714D02*
X116476190Y-98700714D01*
X116714285Y-98367380D02*
X116714285Y-99224523D01*
X116666666Y-99319761D01*
X116571428Y-99367380D01*
X116476190Y-99367380D01*
X116142857Y-99367380D02*
X116142857Y-98367380D01*
X115714285Y-99367380D02*
X115714285Y-98843571D01*
X115761904Y-98748333D01*
X115857142Y-98700714D01*
X116000000Y-98700714D01*
X116095238Y-98748333D01*
X116142857Y-98795952D01*
X114809523Y-98700714D02*
X114809523Y-99367380D01*
X115238095Y-98700714D02*
X115238095Y-99224523D01*
X115190476Y-99319761D01*
X115095238Y-99367380D01*
X114952380Y-99367380D01*
X114857142Y-99319761D01*
X114809523Y-99272142D01*
X114333333Y-99367380D02*
X114333333Y-98367380D01*
X114333333Y-98748333D02*
X114238095Y-98700714D01*
X114047619Y-98700714D01*
X113952380Y-98748333D01*
X113904761Y-98795952D01*
X113857142Y-98891190D01*
X113857142Y-99176904D01*
X113904761Y-99272142D01*
X113952380Y-99319761D01*
X114047619Y-99367380D01*
X114238095Y-99367380D01*
X114333333Y-99319761D01*
X113428571Y-99272142D02*
X113380952Y-99319761D01*
X113428571Y-99367380D01*
X113476190Y-99319761D01*
X113428571Y-99272142D01*
X113428571Y-99367380D01*
X112952380Y-99367380D02*
X112952380Y-98700714D01*
X112952380Y-98367380D02*
X113000000Y-98415000D01*
X112952380Y-98462619D01*
X112904761Y-98415000D01*
X112952380Y-98367380D01*
X112952380Y-98462619D01*
X112333333Y-99367380D02*
X112428571Y-99319761D01*
X112476190Y-99272142D01*
X112523809Y-99176904D01*
X112523809Y-98891190D01*
X112476190Y-98795952D01*
X112428571Y-98748333D01*
X112333333Y-98700714D01*
X112190476Y-98700714D01*
X112095238Y-98748333D01*
X112047619Y-98795952D01*
X112000000Y-98891190D01*
X112000000Y-99176904D01*
X112047619Y-99272142D01*
X112095238Y-99319761D01*
X112190476Y-99367380D01*
X112333333Y-99367380D01*
X130723928Y-84342380D02*
X130533452Y-84342380D01*
X130438214Y-84390000D01*
X130342976Y-84485238D01*
X130295357Y-84675714D01*
X130295357Y-85009047D01*
X130342976Y-85199523D01*
X130438214Y-85294761D01*
X130533452Y-85342380D01*
X130723928Y-85342380D01*
X130819166Y-85294761D01*
X130914404Y-85199523D01*
X130962023Y-85009047D01*
X130962023Y-84675714D01*
X130914404Y-84485238D01*
X130819166Y-84390000D01*
X130723928Y-84342380D01*
X129962023Y-85342380D02*
X129438214Y-84675714D01*
X129962023Y-84675714D02*
X129438214Y-85342380D01*
X129057261Y-85342380D02*
X129057261Y-84675714D01*
X129057261Y-84342380D02*
X129104880Y-84390000D01*
X129057261Y-84437619D01*
X129009642Y-84390000D01*
X129057261Y-84342380D01*
X129057261Y-84437619D01*
X128581071Y-85342380D02*
X128581071Y-84342380D01*
X128485833Y-84961428D02*
X128200119Y-85342380D01*
X128200119Y-84675714D02*
X128581071Y-85056666D01*
X127771547Y-85342380D02*
X127771547Y-84675714D01*
X127771547Y-84342380D02*
X127819166Y-84390000D01*
X127771547Y-84437619D01*
X127723928Y-84390000D01*
X127771547Y-84342380D01*
X127771547Y-84437619D01*
X127438214Y-84675714D02*
X127057261Y-84675714D01*
X127295357Y-84342380D02*
X127295357Y-85199523D01*
X127247738Y-85294761D01*
X127152500Y-85342380D01*
X127057261Y-85342380D01*
X125628690Y-84818571D02*
X125485833Y-84866190D01*
X125438214Y-84913809D01*
X125390595Y-85009047D01*
X125390595Y-85151904D01*
X125438214Y-85247142D01*
X125485833Y-85294761D01*
X125581071Y-85342380D01*
X125962023Y-85342380D01*
X125962023Y-84342380D01*
X125628690Y-84342380D01*
X125533452Y-84390000D01*
X125485833Y-84437619D01*
X125438214Y-84532857D01*
X125438214Y-84628095D01*
X125485833Y-84723333D01*
X125533452Y-84770952D01*
X125628690Y-84818571D01*
X125962023Y-84818571D01*
X124962023Y-85342380D02*
X124962023Y-84675714D01*
X124962023Y-84866190D02*
X124914404Y-84770952D01*
X124866785Y-84723333D01*
X124771547Y-84675714D01*
X124676309Y-84675714D01*
X123914404Y-85342380D02*
X123914404Y-84818571D01*
X123962023Y-84723333D01*
X124057261Y-84675714D01*
X124247738Y-84675714D01*
X124342976Y-84723333D01*
X123914404Y-85294761D02*
X124009642Y-85342380D01*
X124247738Y-85342380D01*
X124342976Y-85294761D01*
X124390595Y-85199523D01*
X124390595Y-85104285D01*
X124342976Y-85009047D01*
X124247738Y-84961428D01*
X124009642Y-84961428D01*
X123914404Y-84913809D01*
X123438214Y-85342380D02*
X123438214Y-84675714D01*
X123438214Y-84342380D02*
X123485833Y-84390000D01*
X123438214Y-84437619D01*
X123390595Y-84390000D01*
X123438214Y-84342380D01*
X123438214Y-84437619D01*
X122962023Y-84675714D02*
X122962023Y-85342380D01*
X122962023Y-84770952D02*
X122914404Y-84723333D01*
X122819166Y-84675714D01*
X122676309Y-84675714D01*
X122581071Y-84723333D01*
X122533452Y-84818571D01*
X122533452Y-85342380D01*
X122057261Y-85342380D02*
X122057261Y-84342380D01*
X122057261Y-84723333D02*
X121962023Y-84675714D01*
X121771547Y-84675714D01*
X121676309Y-84723333D01*
X121628690Y-84770952D01*
X121581071Y-84866190D01*
X121581071Y-85151904D01*
X121628690Y-85247142D01*
X121676309Y-85294761D01*
X121771547Y-85342380D01*
X121962023Y-85342380D01*
X122057261Y-85294761D01*
X121009642Y-85342380D02*
X121104880Y-85294761D01*
X121152500Y-85247142D01*
X121200119Y-85151904D01*
X121200119Y-84866190D01*
X121152500Y-84770952D01*
X121104880Y-84723333D01*
X121009642Y-84675714D01*
X120866785Y-84675714D01*
X120771547Y-84723333D01*
X120723928Y-84770952D01*
X120676309Y-84866190D01*
X120676309Y-85151904D01*
X120723928Y-85247142D01*
X120771547Y-85294761D01*
X120866785Y-85342380D01*
X121009642Y-85342380D01*
X119819166Y-85342380D02*
X119819166Y-84818571D01*
X119866785Y-84723333D01*
X119962023Y-84675714D01*
X120152500Y-84675714D01*
X120247738Y-84723333D01*
X119819166Y-85294761D02*
X119914404Y-85342380D01*
X120152500Y-85342380D01*
X120247738Y-85294761D01*
X120295357Y-85199523D01*
X120295357Y-85104285D01*
X120247738Y-85009047D01*
X120152500Y-84961428D01*
X119914404Y-84961428D01*
X119819166Y-84913809D01*
X119342976Y-85342380D02*
X119342976Y-84675714D01*
X119342976Y-84866190D02*
X119295357Y-84770952D01*
X119247738Y-84723333D01*
X119152500Y-84675714D01*
X119057261Y-84675714D01*
X118295357Y-85342380D02*
X118295357Y-84342380D01*
X118295357Y-85294761D02*
X118390595Y-85342380D01*
X118581071Y-85342380D01*
X118676309Y-85294761D01*
X118723928Y-85247142D01*
X118771547Y-85151904D01*
X118771547Y-84866190D01*
X118723928Y-84770952D01*
X118676309Y-84723333D01*
X118581071Y-84675714D01*
X118390595Y-84675714D01*
X118295357Y-84723333D01*
X130342976Y-86952380D02*
X130676309Y-86476190D01*
X130914404Y-86952380D02*
X130914404Y-85952380D01*
X130533452Y-85952380D01*
X130438214Y-86000000D01*
X130390595Y-86047619D01*
X130342976Y-86142857D01*
X130342976Y-86285714D01*
X130390595Y-86380952D01*
X130438214Y-86428571D01*
X130533452Y-86476190D01*
X130914404Y-86476190D01*
X129533452Y-86904761D02*
X129628690Y-86952380D01*
X129819166Y-86952380D01*
X129914404Y-86904761D01*
X129962023Y-86809523D01*
X129962023Y-86428571D01*
X129914404Y-86333333D01*
X129819166Y-86285714D01*
X129628690Y-86285714D01*
X129533452Y-86333333D01*
X129485833Y-86428571D01*
X129485833Y-86523809D01*
X129962023Y-86619047D01*
X129152500Y-86285714D02*
X128914404Y-86952380D01*
X128676309Y-86285714D01*
X128295357Y-86857142D02*
X128247738Y-86904761D01*
X128295357Y-86952380D01*
X128342976Y-86904761D01*
X128295357Y-86857142D01*
X128295357Y-86952380D01*
X126533452Y-86952380D02*
X127104880Y-86952380D01*
X126819166Y-86952380D02*
X126819166Y-85952380D01*
X126914404Y-86095238D01*
X127009642Y-86190476D01*
X127104880Y-86238095D01*
X130962023Y-87657619D02*
X130914404Y-87610000D01*
X130819166Y-87562380D01*
X130581071Y-87562380D01*
X130485833Y-87610000D01*
X130438214Y-87657619D01*
X130390595Y-87752857D01*
X130390595Y-87848095D01*
X130438214Y-87990952D01*
X131009642Y-88562380D01*
X130390595Y-88562380D01*
X129533452Y-87562380D02*
X129723928Y-87562380D01*
X129819166Y-87610000D01*
X129866785Y-87657619D01*
X129962023Y-87800476D01*
X130009642Y-87990952D01*
X130009642Y-88371904D01*
X129962023Y-88467142D01*
X129914404Y-88514761D01*
X129819166Y-88562380D01*
X129628690Y-88562380D01*
X129533452Y-88514761D01*
X129485833Y-88467142D01*
X129438214Y-88371904D01*
X129438214Y-88133809D01*
X129485833Y-88038571D01*
X129533452Y-87990952D01*
X129628690Y-87943333D01*
X129819166Y-87943333D01*
X129914404Y-87990952D01*
X129962023Y-88038571D01*
X130009642Y-88133809D01*
X128247738Y-88562380D02*
X128247738Y-87562380D01*
X127914404Y-88276666D01*
X127581071Y-87562380D01*
X127581071Y-88562380D01*
X126676309Y-88562380D02*
X126676309Y-88038571D01*
X126723928Y-87943333D01*
X126819166Y-87895714D01*
X127009642Y-87895714D01*
X127104880Y-87943333D01*
X126676309Y-88514761D02*
X126771547Y-88562380D01*
X127009642Y-88562380D01*
X127104880Y-88514761D01*
X127152500Y-88419523D01*
X127152500Y-88324285D01*
X127104880Y-88229047D01*
X127009642Y-88181428D01*
X126771547Y-88181428D01*
X126676309Y-88133809D01*
X126295357Y-87895714D02*
X126057261Y-88562380D01*
X125819166Y-87895714D02*
X126057261Y-88562380D01*
X126152500Y-88800476D01*
X126200119Y-88848095D01*
X126295357Y-88895714D01*
X124628690Y-87562380D02*
X124723928Y-87752857D01*
X124247738Y-87657619D02*
X124200119Y-87610000D01*
X124104880Y-87562380D01*
X123866785Y-87562380D01*
X123771547Y-87610000D01*
X123723928Y-87657619D01*
X123676309Y-87752857D01*
X123676309Y-87848095D01*
X123723928Y-87990952D01*
X124295357Y-88562380D01*
X123676309Y-88562380D01*
X122723928Y-88562380D02*
X123295357Y-88562380D01*
X123009642Y-88562380D02*
X123009642Y-87562380D01*
X123104880Y-87705238D01*
X123200119Y-87800476D01*
X123295357Y-87848095D01*
%TO.C,Brd1*%
X136566666Y-43928571D02*
X136423809Y-43976190D01*
X136376190Y-44023809D01*
X136328571Y-44119047D01*
X136328571Y-44261904D01*
X136376190Y-44357142D01*
X136423809Y-44404761D01*
X136519047Y-44452380D01*
X136900000Y-44452380D01*
X136900000Y-43452380D01*
X136566666Y-43452380D01*
X136471428Y-43500000D01*
X136423809Y-43547619D01*
X136376190Y-43642857D01*
X136376190Y-43738095D01*
X136423809Y-43833333D01*
X136471428Y-43880952D01*
X136566666Y-43928571D01*
X136900000Y-43928571D01*
X135900000Y-44452380D02*
X135900000Y-43785714D01*
X135900000Y-43976190D02*
X135852380Y-43880952D01*
X135804761Y-43833333D01*
X135709523Y-43785714D01*
X135614285Y-43785714D01*
X134852380Y-44452380D02*
X134852380Y-43452380D01*
X134852380Y-44404761D02*
X134947619Y-44452380D01*
X135138095Y-44452380D01*
X135233333Y-44404761D01*
X135280952Y-44357142D01*
X135328571Y-44261904D01*
X135328571Y-43976190D01*
X135280952Y-43880952D01*
X135233333Y-43833333D01*
X135138095Y-43785714D01*
X134947619Y-43785714D01*
X134852380Y-43833333D01*
X133852380Y-44452380D02*
X134423809Y-44452380D01*
X134138095Y-44452380D02*
X134138095Y-43452380D01*
X134233333Y-43595238D01*
X134328571Y-43690476D01*
X134423809Y-43738095D01*
D11*
%TO.C,REF\u002A\u002A*%
X127082571Y-81877719D02*
X126988877Y-81931914D01*
X126988877Y-81931914D02*
X126923736Y-81985707D01*
X126923736Y-81985707D02*
X126876093Y-82042066D01*
X126876093Y-82042066D02*
X126843272Y-82110987D01*
X126843272Y-82110987D02*
X126822594Y-82202468D01*
X126822594Y-82202468D02*
X126811380Y-82326506D01*
X126811380Y-82326506D02*
X126806951Y-82493098D01*
X126806951Y-82493098D02*
X126806437Y-82612851D01*
X126806437Y-82612851D02*
X126806437Y-83053659D01*
X126806437Y-83053659D02*
X126930517Y-83109283D01*
X126930517Y-83109283D02*
X127054598Y-83164907D01*
X127054598Y-83164907D02*
X127069195Y-82682095D01*
X127069195Y-82682095D02*
X127075227Y-82501779D01*
X127075227Y-82501779D02*
X127081555Y-82370901D01*
X127081555Y-82370901D02*
X127089394Y-82280511D01*
X127089394Y-82280511D02*
X127099963Y-82221664D01*
X127099963Y-82221664D02*
X127114477Y-82185413D01*
X127114477Y-82185413D02*
X127134152Y-82162810D01*
X127134152Y-82162810D02*
X127140465Y-82157917D01*
X127140465Y-82157917D02*
X127236112Y-82119706D01*
X127236112Y-82119706D02*
X127332793Y-82134827D01*
X127332793Y-82134827D02*
X127390345Y-82174943D01*
X127390345Y-82174943D02*
X127413755Y-82203370D01*
X127413755Y-82203370D02*
X127429961Y-82240672D01*
X127429961Y-82240672D02*
X127440259Y-82297223D01*
X127440259Y-82297223D02*
X127445951Y-82383394D01*
X127445951Y-82383394D02*
X127448336Y-82509558D01*
X127448336Y-82509558D02*
X127448736Y-82641042D01*
X127448736Y-82641042D02*
X127448814Y-82805999D01*
X127448814Y-82805999D02*
X127451639Y-82922761D01*
X127451639Y-82922761D02*
X127461093Y-83001510D01*
X127461093Y-83001510D02*
X127481060Y-83052431D01*
X127481060Y-83052431D02*
X127515424Y-83085706D01*
X127515424Y-83085706D02*
X127568068Y-83111520D01*
X127568068Y-83111520D02*
X127638383Y-83138344D01*
X127638383Y-83138344D02*
X127715180Y-83167542D01*
X127715180Y-83167542D02*
X127706038Y-82649346D01*
X127706038Y-82649346D02*
X127702357Y-82462539D01*
X127702357Y-82462539D02*
X127698050Y-82324490D01*
X127698050Y-82324490D02*
X127691877Y-82225568D01*
X127691877Y-82225568D02*
X127682598Y-82156145D01*
X127682598Y-82156145D02*
X127668973Y-82106590D01*
X127668973Y-82106590D02*
X127649761Y-82067273D01*
X127649761Y-82067273D02*
X127626598Y-82032584D01*
X127626598Y-82032584D02*
X127514848Y-81921770D01*
X127514848Y-81921770D02*
X127378487Y-81857689D01*
X127378487Y-81857689D02*
X127230175Y-81842339D01*
X127230175Y-81842339D02*
X127082571Y-81877719D01*
X127082571Y-81877719D02*
X127082571Y-81877719D01*
G36*
X127378487Y-81857689D02*
G01*
X127514848Y-81921770D01*
X127626598Y-82032584D01*
X127649761Y-82067273D01*
X127668973Y-82106590D01*
X127682598Y-82156145D01*
X127691877Y-82225568D01*
X127698050Y-82324490D01*
X127702357Y-82462539D01*
X127706038Y-82649346D01*
X127715180Y-83167542D01*
X127638383Y-83138344D01*
X127568068Y-83111520D01*
X127515424Y-83085706D01*
X127481060Y-83052431D01*
X127461093Y-83001510D01*
X127451639Y-82922761D01*
X127448814Y-82805999D01*
X127448736Y-82641042D01*
X127448336Y-82509558D01*
X127445951Y-82383394D01*
X127440259Y-82297223D01*
X127429961Y-82240672D01*
X127413755Y-82203370D01*
X127390345Y-82174943D01*
X127332793Y-82134827D01*
X127236112Y-82119706D01*
X127140465Y-82157917D01*
X127134152Y-82162810D01*
X127114477Y-82185413D01*
X127099963Y-82221664D01*
X127089394Y-82280511D01*
X127081555Y-82370901D01*
X127075227Y-82501779D01*
X127069195Y-82682095D01*
X127054598Y-83164907D01*
X126930517Y-83109283D01*
X126806437Y-83053659D01*
X126806437Y-82612851D01*
X126806951Y-82493098D01*
X126811380Y-82326506D01*
X126822594Y-82202468D01*
X126843272Y-82110987D01*
X126876093Y-82042066D01*
X126923736Y-81985707D01*
X126988877Y-81931914D01*
X127082571Y-81877719D01*
X127230175Y-81842339D01*
X127378487Y-81857689D01*
G37*
X127378487Y-81857689D02*
X127514848Y-81921770D01*
X127626598Y-82032584D01*
X127649761Y-82067273D01*
X127668973Y-82106590D01*
X127682598Y-82156145D01*
X127691877Y-82225568D01*
X127698050Y-82324490D01*
X127702357Y-82462539D01*
X127706038Y-82649346D01*
X127715180Y-83167542D01*
X127638383Y-83138344D01*
X127568068Y-83111520D01*
X127515424Y-83085706D01*
X127481060Y-83052431D01*
X127461093Y-83001510D01*
X127451639Y-82922761D01*
X127448814Y-82805999D01*
X127448736Y-82641042D01*
X127448336Y-82509558D01*
X127445951Y-82383394D01*
X127440259Y-82297223D01*
X127429961Y-82240672D01*
X127413755Y-82203370D01*
X127390345Y-82174943D01*
X127332793Y-82134827D01*
X127236112Y-82119706D01*
X127140465Y-82157917D01*
X127134152Y-82162810D01*
X127114477Y-82185413D01*
X127099963Y-82221664D01*
X127089394Y-82280511D01*
X127081555Y-82370901D01*
X127075227Y-82501779D01*
X127069195Y-82682095D01*
X127054598Y-83164907D01*
X126930517Y-83109283D01*
X126806437Y-83053659D01*
X126806437Y-82612851D01*
X126806951Y-82493098D01*
X126811380Y-82326506D01*
X126822594Y-82202468D01*
X126843272Y-82110987D01*
X126876093Y-82042066D01*
X126923736Y-81985707D01*
X126988877Y-81931914D01*
X127082571Y-81877719D01*
X127230175Y-81842339D01*
X127378487Y-81857689D01*
X119164310Y-81940018D02*
X119129415Y-81955269D01*
X119129415Y-81955269D02*
X119046123Y-82021235D01*
X119046123Y-82021235D02*
X118974897Y-82116618D01*
X118974897Y-82116618D02*
X118930847Y-82218406D01*
X118930847Y-82218406D02*
X118923678Y-82268587D01*
X118923678Y-82268587D02*
X118947715Y-82338647D01*
X118947715Y-82338647D02*
X119000439Y-82375717D01*
X119000439Y-82375717D02*
X119056969Y-82398164D01*
X119056969Y-82398164D02*
X119082854Y-82402300D01*
X119082854Y-82402300D02*
X119095458Y-82372283D01*
X119095458Y-82372283D02*
X119120346Y-82306961D01*
X119120346Y-82306961D02*
X119131265Y-82277445D01*
X119131265Y-82277445D02*
X119192492Y-82175348D01*
X119192492Y-82175348D02*
X119281139Y-82124423D01*
X119281139Y-82124423D02*
X119394807Y-82125989D01*
X119394807Y-82125989D02*
X119403226Y-82127994D01*
X119403226Y-82127994D02*
X119463912Y-82156767D01*
X119463912Y-82156767D02*
X119508526Y-82212859D01*
X119508526Y-82212859D02*
X119538998Y-82303163D01*
X119538998Y-82303163D02*
X119557256Y-82434571D01*
X119557256Y-82434571D02*
X119565229Y-82613974D01*
X119565229Y-82613974D02*
X119565977Y-82709433D01*
X119565977Y-82709433D02*
X119566348Y-82859913D01*
X119566348Y-82859913D02*
X119568777Y-82962495D01*
X119568777Y-82962495D02*
X119575240Y-83027672D01*
X119575240Y-83027672D02*
X119587712Y-83065938D01*
X119587712Y-83065938D02*
X119608167Y-83087785D01*
X119608167Y-83087785D02*
X119638581Y-83103707D01*
X119638581Y-83103707D02*
X119640339Y-83104509D01*
X119640339Y-83104509D02*
X119698909Y-83129272D01*
X119698909Y-83129272D02*
X119727925Y-83138391D01*
X119727925Y-83138391D02*
X119732384Y-83110822D01*
X119732384Y-83110822D02*
X119736201Y-83034620D01*
X119736201Y-83034620D02*
X119739101Y-82919541D01*
X119739101Y-82919541D02*
X119740809Y-82775341D01*
X119740809Y-82775341D02*
X119741149Y-82669814D01*
X119741149Y-82669814D02*
X119739412Y-82465613D01*
X119739412Y-82465613D02*
X119732618Y-82310697D01*
X119732618Y-82310697D02*
X119718393Y-82196024D01*
X119718393Y-82196024D02*
X119694362Y-82112551D01*
X119694362Y-82112551D02*
X119658152Y-82051236D01*
X119658152Y-82051236D02*
X119607388Y-82003034D01*
X119607388Y-82003034D02*
X119557261Y-81969393D01*
X119557261Y-81969393D02*
X119436725Y-81924619D01*
X119436725Y-81924619D02*
X119296443Y-81914521D01*
X119296443Y-81914521D02*
X119164310Y-81940018D01*
X119164310Y-81940018D02*
X119164310Y-81940018D01*
G36*
X119436725Y-81924619D02*
G01*
X119557261Y-81969393D01*
X119607388Y-82003034D01*
X119658152Y-82051236D01*
X119694362Y-82112551D01*
X119718393Y-82196024D01*
X119732618Y-82310697D01*
X119739412Y-82465613D01*
X119741149Y-82669814D01*
X119740809Y-82775341D01*
X119739101Y-82919541D01*
X119736201Y-83034620D01*
X119732384Y-83110822D01*
X119727925Y-83138391D01*
X119698909Y-83129272D01*
X119640339Y-83104509D01*
X119638581Y-83103707D01*
X119608167Y-83087785D01*
X119587712Y-83065938D01*
X119575240Y-83027672D01*
X119568777Y-82962495D01*
X119566348Y-82859913D01*
X119565977Y-82709433D01*
X119565229Y-82613974D01*
X119557256Y-82434571D01*
X119538998Y-82303163D01*
X119508526Y-82212859D01*
X119463912Y-82156767D01*
X119403226Y-82127994D01*
X119394807Y-82125989D01*
X119281139Y-82124423D01*
X119192492Y-82175348D01*
X119131265Y-82277445D01*
X119120346Y-82306961D01*
X119095458Y-82372283D01*
X119082854Y-82402300D01*
X119056969Y-82398164D01*
X119000439Y-82375717D01*
X118947715Y-82338647D01*
X118923678Y-82268587D01*
X118930847Y-82218406D01*
X118974897Y-82116618D01*
X119046123Y-82021235D01*
X119129415Y-81955269D01*
X119164310Y-81940018D01*
X119296443Y-81914521D01*
X119436725Y-81924619D01*
G37*
X119436725Y-81924619D02*
X119557261Y-81969393D01*
X119607388Y-82003034D01*
X119658152Y-82051236D01*
X119694362Y-82112551D01*
X119718393Y-82196024D01*
X119732618Y-82310697D01*
X119739412Y-82465613D01*
X119741149Y-82669814D01*
X119740809Y-82775341D01*
X119739101Y-82919541D01*
X119736201Y-83034620D01*
X119732384Y-83110822D01*
X119727925Y-83138391D01*
X119698909Y-83129272D01*
X119640339Y-83104509D01*
X119638581Y-83103707D01*
X119608167Y-83087785D01*
X119587712Y-83065938D01*
X119575240Y-83027672D01*
X119568777Y-82962495D01*
X119566348Y-82859913D01*
X119565977Y-82709433D01*
X119565229Y-82613974D01*
X119557256Y-82434571D01*
X119538998Y-82303163D01*
X119508526Y-82212859D01*
X119463912Y-82156767D01*
X119403226Y-82127994D01*
X119394807Y-82125989D01*
X119281139Y-82124423D01*
X119192492Y-82175348D01*
X119131265Y-82277445D01*
X119120346Y-82306961D01*
X119095458Y-82372283D01*
X119082854Y-82402300D01*
X119056969Y-82398164D01*
X119000439Y-82375717D01*
X118947715Y-82338647D01*
X118923678Y-82268587D01*
X118930847Y-82218406D01*
X118974897Y-82116618D01*
X119046123Y-82021235D01*
X119129415Y-81955269D01*
X119164310Y-81940018D01*
X119296443Y-81914521D01*
X119436725Y-81924619D01*
X129328100Y-81861903D02*
X129216550Y-81917522D01*
X129216550Y-81917522D02*
X129118092Y-82019931D01*
X129118092Y-82019931D02*
X129090977Y-82057864D01*
X129090977Y-82057864D02*
X129061438Y-82107500D01*
X129061438Y-82107500D02*
X129042272Y-82161412D01*
X129042272Y-82161412D02*
X129031307Y-82233364D01*
X129031307Y-82233364D02*
X129026371Y-82337122D01*
X129026371Y-82337122D02*
X129025287Y-82474101D01*
X129025287Y-82474101D02*
X129030182Y-82661815D01*
X129030182Y-82661815D02*
X129047196Y-82802758D01*
X129047196Y-82802758D02*
X129079823Y-82907908D01*
X129079823Y-82907908D02*
X129131558Y-82988243D01*
X129131558Y-82988243D02*
X129205896Y-83054741D01*
X129205896Y-83054741D02*
X129211358Y-83058678D01*
X129211358Y-83058678D02*
X129284620Y-83098953D01*
X129284620Y-83098953D02*
X129372840Y-83118880D01*
X129372840Y-83118880D02*
X129485038Y-83123793D01*
X129485038Y-83123793D02*
X129667433Y-83123793D01*
X129667433Y-83123793D02*
X129667509Y-83300857D01*
X129667509Y-83300857D02*
X129669207Y-83399470D01*
X129669207Y-83399470D02*
X129679550Y-83457314D01*
X129679550Y-83457314D02*
X129706578Y-83492006D01*
X129706578Y-83492006D02*
X129758332Y-83521164D01*
X129758332Y-83521164D02*
X129770761Y-83527121D01*
X129770761Y-83527121D02*
X129828923Y-83555039D01*
X129828923Y-83555039D02*
X129873956Y-83572672D01*
X129873956Y-83572672D02*
X129907441Y-83574194D01*
X129907441Y-83574194D02*
X129930962Y-83553781D01*
X129930962Y-83553781D02*
X129946100Y-83505607D01*
X129946100Y-83505607D02*
X129954437Y-83423846D01*
X129954437Y-83423846D02*
X129957556Y-83302672D01*
X129957556Y-83302672D02*
X129957040Y-83136260D01*
X129957040Y-83136260D02*
X129954471Y-82918785D01*
X129954471Y-82918785D02*
X129953668Y-82853736D01*
X129953668Y-82853736D02*
X129950778Y-82629502D01*
X129950778Y-82629502D02*
X129948188Y-82482821D01*
X129948188Y-82482821D02*
X129667586Y-82482821D01*
X129667586Y-82482821D02*
X129666009Y-82607326D01*
X129666009Y-82607326D02*
X129659000Y-82688787D01*
X129659000Y-82688787D02*
X129643142Y-82742515D01*
X129643142Y-82742515D02*
X129615019Y-82783823D01*
X129615019Y-82783823D02*
X129595925Y-82803971D01*
X129595925Y-82803971D02*
X129517865Y-82862921D01*
X129517865Y-82862921D02*
X129448753Y-82867720D01*
X129448753Y-82867720D02*
X129377440Y-82819038D01*
X129377440Y-82819038D02*
X129375632Y-82817241D01*
X129375632Y-82817241D02*
X129346617Y-82779618D01*
X129346617Y-82779618D02*
X129328967Y-82728484D01*
X129328967Y-82728484D02*
X129320064Y-82649738D01*
X129320064Y-82649738D02*
X129317291Y-82529276D01*
X129317291Y-82529276D02*
X129317241Y-82502588D01*
X129317241Y-82502588D02*
X129323942Y-82336583D01*
X129323942Y-82336583D02*
X129345752Y-82221505D01*
X129345752Y-82221505D02*
X129385235Y-82151254D01*
X129385235Y-82151254D02*
X129444956Y-82119729D01*
X129444956Y-82119729D02*
X129479472Y-82116552D01*
X129479472Y-82116552D02*
X129561389Y-82131460D01*
X129561389Y-82131460D02*
X129617579Y-82180548D01*
X129617579Y-82180548D02*
X129651402Y-82270362D01*
X129651402Y-82270362D02*
X129666220Y-82407445D01*
X129666220Y-82407445D02*
X129667586Y-82482821D01*
X129667586Y-82482821D02*
X129948188Y-82482821D01*
X129948188Y-82482821D02*
X129947713Y-82455952D01*
X129947713Y-82455952D02*
X129943753Y-82325382D01*
X129943753Y-82325382D02*
X129938174Y-82230087D01*
X129938174Y-82230087D02*
X129930254Y-82162364D01*
X129930254Y-82162364D02*
X129919269Y-82114507D01*
X129919269Y-82114507D02*
X129904499Y-82078813D01*
X129904499Y-82078813D02*
X129885218Y-82047578D01*
X129885218Y-82047578D02*
X129876951Y-82035824D01*
X129876951Y-82035824D02*
X129767288Y-81924797D01*
X129767288Y-81924797D02*
X129628635Y-81861847D01*
X129628635Y-81861847D02*
X129468246Y-81844297D01*
X129468246Y-81844297D02*
X129328100Y-81861903D01*
X129328100Y-81861903D02*
X129328100Y-81861903D01*
G36*
X129953668Y-82853736D02*
G01*
X129954471Y-82918785D01*
X129957040Y-83136260D01*
X129957556Y-83302672D01*
X129954437Y-83423846D01*
X129946100Y-83505607D01*
X129930962Y-83553781D01*
X129907441Y-83574194D01*
X129873956Y-83572672D01*
X129828923Y-83555039D01*
X129770761Y-83527121D01*
X129758332Y-83521164D01*
X129706578Y-83492006D01*
X129679550Y-83457314D01*
X129669207Y-83399470D01*
X129667509Y-83300857D01*
X129667433Y-83123793D01*
X129485038Y-83123793D01*
X129372840Y-83118880D01*
X129284620Y-83098953D01*
X129211358Y-83058678D01*
X129205896Y-83054741D01*
X129131558Y-82988243D01*
X129079823Y-82907908D01*
X129047196Y-82802758D01*
X129030182Y-82661815D01*
X129026030Y-82502588D01*
X129317241Y-82502588D01*
X129317291Y-82529276D01*
X129320064Y-82649738D01*
X129328967Y-82728484D01*
X129346617Y-82779618D01*
X129375632Y-82817241D01*
X129377440Y-82819038D01*
X129448753Y-82867720D01*
X129517865Y-82862921D01*
X129595925Y-82803971D01*
X129615019Y-82783823D01*
X129643142Y-82742515D01*
X129659000Y-82688787D01*
X129666009Y-82607326D01*
X129667586Y-82482821D01*
X129666220Y-82407445D01*
X129651402Y-82270362D01*
X129617579Y-82180548D01*
X129561389Y-82131460D01*
X129479472Y-82116552D01*
X129444956Y-82119729D01*
X129385235Y-82151254D01*
X129345752Y-82221505D01*
X129323942Y-82336583D01*
X129317241Y-82502588D01*
X129026030Y-82502588D01*
X129025287Y-82474101D01*
X129026371Y-82337122D01*
X129031307Y-82233364D01*
X129042272Y-82161412D01*
X129061438Y-82107500D01*
X129090977Y-82057864D01*
X129118092Y-82019931D01*
X129216550Y-81917522D01*
X129328100Y-81861903D01*
X129468246Y-81844297D01*
X129628635Y-81861847D01*
X129767288Y-81924797D01*
X129876951Y-82035824D01*
X129885218Y-82047578D01*
X129904499Y-82078813D01*
X129919269Y-82114507D01*
X129930254Y-82162364D01*
X129938174Y-82230087D01*
X129943753Y-82325382D01*
X129947713Y-82455952D01*
X129948188Y-82482821D01*
X129950778Y-82629502D01*
X129953668Y-82853736D01*
G37*
X129953668Y-82853736D02*
X129954471Y-82918785D01*
X129957040Y-83136260D01*
X129957556Y-83302672D01*
X129954437Y-83423846D01*
X129946100Y-83505607D01*
X129930962Y-83553781D01*
X129907441Y-83574194D01*
X129873956Y-83572672D01*
X129828923Y-83555039D01*
X129770761Y-83527121D01*
X129758332Y-83521164D01*
X129706578Y-83492006D01*
X129679550Y-83457314D01*
X129669207Y-83399470D01*
X129667509Y-83300857D01*
X129667433Y-83123793D01*
X129485038Y-83123793D01*
X129372840Y-83118880D01*
X129284620Y-83098953D01*
X129211358Y-83058678D01*
X129205896Y-83054741D01*
X129131558Y-82988243D01*
X129079823Y-82907908D01*
X129047196Y-82802758D01*
X129030182Y-82661815D01*
X129026030Y-82502588D01*
X129317241Y-82502588D01*
X129317291Y-82529276D01*
X129320064Y-82649738D01*
X129328967Y-82728484D01*
X129346617Y-82779618D01*
X129375632Y-82817241D01*
X129377440Y-82819038D01*
X129448753Y-82867720D01*
X129517865Y-82862921D01*
X129595925Y-82803971D01*
X129615019Y-82783823D01*
X129643142Y-82742515D01*
X129659000Y-82688787D01*
X129666009Y-82607326D01*
X129667586Y-82482821D01*
X129666220Y-82407445D01*
X129651402Y-82270362D01*
X129617579Y-82180548D01*
X129561389Y-82131460D01*
X129479472Y-82116552D01*
X129444956Y-82119729D01*
X129385235Y-82151254D01*
X129345752Y-82221505D01*
X129323942Y-82336583D01*
X129317241Y-82502588D01*
X129026030Y-82502588D01*
X129025287Y-82474101D01*
X129026371Y-82337122D01*
X129031307Y-82233364D01*
X129042272Y-82161412D01*
X129061438Y-82107500D01*
X129090977Y-82057864D01*
X129118092Y-82019931D01*
X129216550Y-81917522D01*
X129328100Y-81861903D01*
X129468246Y-81844297D01*
X129628635Y-81861847D01*
X129767288Y-81924797D01*
X129876951Y-82035824D01*
X129885218Y-82047578D01*
X129904499Y-82078813D01*
X129919269Y-82114507D01*
X129930254Y-82162364D01*
X129938174Y-82230087D01*
X129943753Y-82325382D01*
X129947713Y-82455952D01*
X129948188Y-82482821D01*
X129950778Y-82629502D01*
X129953668Y-82853736D01*
X118156561Y-81956540D02*
X118041050Y-82032034D01*
X118041050Y-82032034D02*
X117985336Y-82099617D01*
X117985336Y-82099617D02*
X117941196Y-82222255D01*
X117941196Y-82222255D02*
X117937691Y-82319298D01*
X117937691Y-82319298D02*
X117945632Y-82449056D01*
X117945632Y-82449056D02*
X118244885Y-82580039D01*
X118244885Y-82580039D02*
X118390389Y-82646958D01*
X118390389Y-82646958D02*
X118485463Y-82700790D01*
X118485463Y-82700790D02*
X118534899Y-82747416D01*
X118534899Y-82747416D02*
X118543489Y-82792720D01*
X118543489Y-82792720D02*
X118516028Y-82842582D01*
X118516028Y-82842582D02*
X118485747Y-82875632D01*
X118485747Y-82875632D02*
X118397637Y-82928633D01*
X118397637Y-82928633D02*
X118301804Y-82932347D01*
X118301804Y-82932347D02*
X118213788Y-82891041D01*
X118213788Y-82891041D02*
X118149131Y-82808983D01*
X118149131Y-82808983D02*
X118137567Y-82780008D01*
X118137567Y-82780008D02*
X118082175Y-82689509D01*
X118082175Y-82689509D02*
X118018447Y-82650940D01*
X118018447Y-82650940D02*
X117931034Y-82617946D01*
X117931034Y-82617946D02*
X117931034Y-82743034D01*
X117931034Y-82743034D02*
X117938762Y-82828156D01*
X117938762Y-82828156D02*
X117969034Y-82899938D01*
X117969034Y-82899938D02*
X118032482Y-82982356D01*
X118032482Y-82982356D02*
X118041912Y-82993066D01*
X118041912Y-82993066D02*
X118112487Y-83066391D01*
X118112487Y-83066391D02*
X118173153Y-83105742D01*
X118173153Y-83105742D02*
X118249050Y-83123845D01*
X118249050Y-83123845D02*
X118311970Y-83129774D01*
X118311970Y-83129774D02*
X118424513Y-83131251D01*
X118424513Y-83131251D02*
X118504630Y-83112535D01*
X118504630Y-83112535D02*
X118554610Y-83084747D01*
X118554610Y-83084747D02*
X118633162Y-83023641D01*
X118633162Y-83023641D02*
X118687537Y-82957554D01*
X118687537Y-82957554D02*
X118721948Y-82874441D01*
X118721948Y-82874441D02*
X118740612Y-82762254D01*
X118740612Y-82762254D02*
X118747744Y-82608946D01*
X118747744Y-82608946D02*
X118748313Y-82531136D01*
X118748313Y-82531136D02*
X118746378Y-82437853D01*
X118746378Y-82437853D02*
X118570101Y-82437853D01*
X118570101Y-82437853D02*
X118568056Y-82487896D01*
X118568056Y-82487896D02*
X118562961Y-82496092D01*
X118562961Y-82496092D02*
X118529334Y-82484958D01*
X118529334Y-82484958D02*
X118456970Y-82455493D01*
X118456970Y-82455493D02*
X118360253Y-82413601D01*
X118360253Y-82413601D02*
X118340027Y-82404597D01*
X118340027Y-82404597D02*
X118217797Y-82342442D01*
X118217797Y-82342442D02*
X118150453Y-82287815D01*
X118150453Y-82287815D02*
X118135652Y-82236649D01*
X118135652Y-82236649D02*
X118171053Y-82184876D01*
X118171053Y-82184876D02*
X118200289Y-82162000D01*
X118200289Y-82162000D02*
X118305784Y-82116250D01*
X118305784Y-82116250D02*
X118404524Y-82123808D01*
X118404524Y-82123808D02*
X118487188Y-82179651D01*
X118487188Y-82179651D02*
X118544452Y-82278753D01*
X118544452Y-82278753D02*
X118562812Y-82357414D01*
X118562812Y-82357414D02*
X118570101Y-82437853D01*
X118570101Y-82437853D02*
X118746378Y-82437853D01*
X118746378Y-82437853D02*
X118744541Y-82349351D01*
X118744541Y-82349351D02*
X118730641Y-82214853D01*
X118730641Y-82214853D02*
X118703106Y-82116916D01*
X118703106Y-82116916D02*
X118658428Y-82044811D01*
X118658428Y-82044811D02*
X118593099Y-81987813D01*
X118593099Y-81987813D02*
X118564617Y-81969393D01*
X118564617Y-81969393D02*
X118435237Y-81921422D01*
X118435237Y-81921422D02*
X118293588Y-81918403D01*
X118293588Y-81918403D02*
X118156561Y-81956540D01*
X118156561Y-81956540D02*
X118156561Y-81956540D01*
G36*
X118747744Y-82608946D02*
G01*
X118740612Y-82762254D01*
X118721948Y-82874441D01*
X118687537Y-82957554D01*
X118633162Y-83023641D01*
X118554610Y-83084747D01*
X118504630Y-83112535D01*
X118424513Y-83131251D01*
X118311970Y-83129774D01*
X118249050Y-83123845D01*
X118173153Y-83105742D01*
X118112487Y-83066391D01*
X118041912Y-82993066D01*
X118032482Y-82982356D01*
X117969034Y-82899938D01*
X117938762Y-82828156D01*
X117931034Y-82743034D01*
X117931034Y-82617946D01*
X118018447Y-82650940D01*
X118082175Y-82689509D01*
X118137567Y-82780008D01*
X118149131Y-82808983D01*
X118213788Y-82891041D01*
X118301804Y-82932347D01*
X118397637Y-82928633D01*
X118485747Y-82875632D01*
X118516028Y-82842582D01*
X118543489Y-82792720D01*
X118534899Y-82747416D01*
X118485463Y-82700790D01*
X118390389Y-82646958D01*
X118244885Y-82580039D01*
X117945632Y-82449056D01*
X117937691Y-82319298D01*
X117940676Y-82236649D01*
X118135652Y-82236649D01*
X118150453Y-82287815D01*
X118217797Y-82342442D01*
X118340027Y-82404597D01*
X118360253Y-82413601D01*
X118456970Y-82455493D01*
X118529334Y-82484958D01*
X118562961Y-82496092D01*
X118568056Y-82487896D01*
X118570101Y-82437853D01*
X118562812Y-82357414D01*
X118544452Y-82278753D01*
X118487188Y-82179651D01*
X118404524Y-82123808D01*
X118305784Y-82116250D01*
X118200289Y-82162000D01*
X118171053Y-82184876D01*
X118135652Y-82236649D01*
X117940676Y-82236649D01*
X117941196Y-82222255D01*
X117985336Y-82099617D01*
X118041050Y-82032034D01*
X118156561Y-81956540D01*
X118293588Y-81918403D01*
X118435237Y-81921422D01*
X118564617Y-81969393D01*
X118593099Y-81987813D01*
X118658428Y-82044811D01*
X118703106Y-82116916D01*
X118730641Y-82214853D01*
X118744541Y-82349351D01*
X118746378Y-82437853D01*
X118748313Y-82531136D01*
X118747744Y-82608946D01*
G37*
X118747744Y-82608946D02*
X118740612Y-82762254D01*
X118721948Y-82874441D01*
X118687537Y-82957554D01*
X118633162Y-83023641D01*
X118554610Y-83084747D01*
X118504630Y-83112535D01*
X118424513Y-83131251D01*
X118311970Y-83129774D01*
X118249050Y-83123845D01*
X118173153Y-83105742D01*
X118112487Y-83066391D01*
X118041912Y-82993066D01*
X118032482Y-82982356D01*
X117969034Y-82899938D01*
X117938762Y-82828156D01*
X117931034Y-82743034D01*
X117931034Y-82617946D01*
X118018447Y-82650940D01*
X118082175Y-82689509D01*
X118137567Y-82780008D01*
X118149131Y-82808983D01*
X118213788Y-82891041D01*
X118301804Y-82932347D01*
X118397637Y-82928633D01*
X118485747Y-82875632D01*
X118516028Y-82842582D01*
X118543489Y-82792720D01*
X118534899Y-82747416D01*
X118485463Y-82700790D01*
X118390389Y-82646958D01*
X118244885Y-82580039D01*
X117945632Y-82449056D01*
X117937691Y-82319298D01*
X117940676Y-82236649D01*
X118135652Y-82236649D01*
X118150453Y-82287815D01*
X118217797Y-82342442D01*
X118340027Y-82404597D01*
X118360253Y-82413601D01*
X118456970Y-82455493D01*
X118529334Y-82484958D01*
X118562961Y-82496092D01*
X118568056Y-82487896D01*
X118570101Y-82437853D01*
X118562812Y-82357414D01*
X118544452Y-82278753D01*
X118487188Y-82179651D01*
X118404524Y-82123808D01*
X118305784Y-82116250D01*
X118200289Y-82162000D01*
X118171053Y-82184876D01*
X118135652Y-82236649D01*
X117940676Y-82236649D01*
X117941196Y-82222255D01*
X117985336Y-82099617D01*
X118041050Y-82032034D01*
X118156561Y-81956540D01*
X118293588Y-81918403D01*
X118435237Y-81921422D01*
X118564617Y-81969393D01*
X118593099Y-81987813D01*
X118658428Y-82044811D01*
X118703106Y-82116916D01*
X118730641Y-82214853D01*
X118744541Y-82349351D01*
X118746378Y-82437853D01*
X118748313Y-82531136D01*
X118747744Y-82608946D01*
X130451779Y-81866015D02*
X130314939Y-81937968D01*
X130314939Y-81937968D02*
X130213949Y-82053766D01*
X130213949Y-82053766D02*
X130178075Y-82128213D01*
X130178075Y-82128213D02*
X130150161Y-82239992D01*
X130150161Y-82239992D02*
X130135871Y-82381227D01*
X130135871Y-82381227D02*
X130134516Y-82535371D01*
X130134516Y-82535371D02*
X130145405Y-82685879D01*
X130145405Y-82685879D02*
X130167847Y-82816205D01*
X130167847Y-82816205D02*
X130201150Y-82909803D01*
X130201150Y-82909803D02*
X130211385Y-82925922D01*
X130211385Y-82925922D02*
X130332618Y-83046249D01*
X130332618Y-83046249D02*
X130476613Y-83118317D01*
X130476613Y-83118317D02*
X130632861Y-83139408D01*
X130632861Y-83139408D02*
X130790852Y-83106802D01*
X130790852Y-83106802D02*
X130834820Y-83087253D01*
X130834820Y-83087253D02*
X130920444Y-83027012D01*
X130920444Y-83027012D02*
X130995592Y-82947135D01*
X130995592Y-82947135D02*
X131002694Y-82937004D01*
X131002694Y-82937004D02*
X131031561Y-82888181D01*
X131031561Y-82888181D02*
X131050643Y-82835990D01*
X131050643Y-82835990D02*
X131061916Y-82767285D01*
X131061916Y-82767285D02*
X131067355Y-82668918D01*
X131067355Y-82668918D02*
X131068938Y-82527744D01*
X131068938Y-82527744D02*
X131068965Y-82496092D01*
X131068965Y-82496092D02*
X131068893Y-82486019D01*
X131068893Y-82486019D02*
X130777011Y-82486019D01*
X130777011Y-82486019D02*
X130775313Y-82619256D01*
X130775313Y-82619256D02*
X130768628Y-82707674D01*
X130768628Y-82707674D02*
X130754575Y-82764785D01*
X130754575Y-82764785D02*
X130730771Y-82804102D01*
X130730771Y-82804102D02*
X130718621Y-82817241D01*
X130718621Y-82817241D02*
X130648764Y-82867172D01*
X130648764Y-82867172D02*
X130580941Y-82864895D01*
X130580941Y-82864895D02*
X130512365Y-82821584D01*
X130512365Y-82821584D02*
X130471465Y-82775346D01*
X130471465Y-82775346D02*
X130447242Y-82707857D01*
X130447242Y-82707857D02*
X130433639Y-82601433D01*
X130433639Y-82601433D02*
X130432706Y-82589020D01*
X130432706Y-82589020D02*
X130430384Y-82396147D01*
X130430384Y-82396147D02*
X130454650Y-82252900D01*
X130454650Y-82252900D02*
X130505176Y-82160160D01*
X130505176Y-82160160D02*
X130581632Y-82118807D01*
X130581632Y-82118807D02*
X130608924Y-82116552D01*
X130608924Y-82116552D02*
X130680589Y-82127893D01*
X130680589Y-82127893D02*
X130729610Y-82167184D01*
X130729610Y-82167184D02*
X130759582Y-82242326D01*
X130759582Y-82242326D02*
X130774101Y-82361222D01*
X130774101Y-82361222D02*
X130777011Y-82486019D01*
X130777011Y-82486019D02*
X131068893Y-82486019D01*
X131068893Y-82486019D02*
X131067878Y-82345659D01*
X131067878Y-82345659D02*
X131063312Y-82240549D01*
X131063312Y-82240549D02*
X131053312Y-82167714D01*
X131053312Y-82167714D02*
X131035921Y-82114108D01*
X131035921Y-82114108D02*
X131009184Y-82066681D01*
X131009184Y-82066681D02*
X131003276Y-82057864D01*
X131003276Y-82057864D02*
X130903968Y-81939007D01*
X130903968Y-81939007D02*
X130795758Y-81870008D01*
X130795758Y-81870008D02*
X130664019Y-81842619D01*
X130664019Y-81842619D02*
X130619283Y-81841281D01*
X130619283Y-81841281D02*
X130451779Y-81866015D01*
X130451779Y-81866015D02*
X130451779Y-81866015D01*
G36*
X131068938Y-82527744D02*
G01*
X131067355Y-82668918D01*
X131061916Y-82767285D01*
X131050643Y-82835990D01*
X131031561Y-82888181D01*
X131002694Y-82937004D01*
X130995592Y-82947135D01*
X130920444Y-83027012D01*
X130834820Y-83087253D01*
X130790852Y-83106802D01*
X130632861Y-83139408D01*
X130476613Y-83118317D01*
X130332618Y-83046249D01*
X130211385Y-82925922D01*
X130201150Y-82909803D01*
X130167847Y-82816205D01*
X130145405Y-82685879D01*
X130134516Y-82535371D01*
X130135740Y-82396147D01*
X130430384Y-82396147D01*
X130432706Y-82589020D01*
X130433639Y-82601433D01*
X130447242Y-82707857D01*
X130471465Y-82775346D01*
X130512365Y-82821584D01*
X130580941Y-82864895D01*
X130648764Y-82867172D01*
X130718621Y-82817241D01*
X130730771Y-82804102D01*
X130754575Y-82764785D01*
X130768628Y-82707674D01*
X130775313Y-82619256D01*
X130777011Y-82486019D01*
X130774101Y-82361222D01*
X130759582Y-82242326D01*
X130729610Y-82167184D01*
X130680589Y-82127893D01*
X130608924Y-82116552D01*
X130581632Y-82118807D01*
X130505176Y-82160160D01*
X130454650Y-82252900D01*
X130430384Y-82396147D01*
X130135740Y-82396147D01*
X130135871Y-82381227D01*
X130150161Y-82239992D01*
X130178075Y-82128213D01*
X130213949Y-82053766D01*
X130314939Y-81937968D01*
X130451779Y-81866015D01*
X130619283Y-81841281D01*
X130664019Y-81842619D01*
X130795758Y-81870008D01*
X130903968Y-81939007D01*
X131003276Y-82057864D01*
X131009184Y-82066681D01*
X131035921Y-82114108D01*
X131053312Y-82167714D01*
X131063312Y-82240549D01*
X131067878Y-82345659D01*
X131068893Y-82486019D01*
X131068965Y-82496092D01*
X131068938Y-82527744D01*
G37*
X131068938Y-82527744D02*
X131067355Y-82668918D01*
X131061916Y-82767285D01*
X131050643Y-82835990D01*
X131031561Y-82888181D01*
X131002694Y-82937004D01*
X130995592Y-82947135D01*
X130920444Y-83027012D01*
X130834820Y-83087253D01*
X130790852Y-83106802D01*
X130632861Y-83139408D01*
X130476613Y-83118317D01*
X130332618Y-83046249D01*
X130211385Y-82925922D01*
X130201150Y-82909803D01*
X130167847Y-82816205D01*
X130145405Y-82685879D01*
X130134516Y-82535371D01*
X130135740Y-82396147D01*
X130430384Y-82396147D01*
X130432706Y-82589020D01*
X130433639Y-82601433D01*
X130447242Y-82707857D01*
X130471465Y-82775346D01*
X130512365Y-82821584D01*
X130580941Y-82864895D01*
X130648764Y-82867172D01*
X130718621Y-82817241D01*
X130730771Y-82804102D01*
X130754575Y-82764785D01*
X130768628Y-82707674D01*
X130775313Y-82619256D01*
X130777011Y-82486019D01*
X130774101Y-82361222D01*
X130759582Y-82242326D01*
X130729610Y-82167184D01*
X130680589Y-82127893D01*
X130608924Y-82116552D01*
X130581632Y-82118807D01*
X130505176Y-82160160D01*
X130454650Y-82252900D01*
X130430384Y-82396147D01*
X130135740Y-82396147D01*
X130135871Y-82381227D01*
X130150161Y-82239992D01*
X130178075Y-82128213D01*
X130213949Y-82053766D01*
X130314939Y-81937968D01*
X130451779Y-81866015D01*
X130619283Y-81841281D01*
X130664019Y-81842619D01*
X130795758Y-81870008D01*
X130903968Y-81939007D01*
X131003276Y-82057864D01*
X131009184Y-82066681D01*
X131035921Y-82114108D01*
X131053312Y-82167714D01*
X131063312Y-82240549D01*
X131067878Y-82345659D01*
X131068893Y-82486019D01*
X131068965Y-82496092D01*
X131068938Y-82527744D01*
X120185594Y-81935156D02*
X120101531Y-81973393D01*
X120101531Y-81973393D02*
X120035550Y-82019726D01*
X120035550Y-82019726D02*
X119987206Y-82071532D01*
X119987206Y-82071532D02*
X119953828Y-82138363D01*
X119953828Y-82138363D02*
X119932747Y-82229769D01*
X119932747Y-82229769D02*
X119921293Y-82355301D01*
X119921293Y-82355301D02*
X119916797Y-82524508D01*
X119916797Y-82524508D02*
X119916322Y-82635933D01*
X119916322Y-82635933D02*
X119916322Y-83070627D01*
X119916322Y-83070627D02*
X119990684Y-83104509D01*
X119990684Y-83104509D02*
X120049254Y-83129272D01*
X120049254Y-83129272D02*
X120078270Y-83138391D01*
X120078270Y-83138391D02*
X120083821Y-83111257D01*
X120083821Y-83111257D02*
X120088225Y-83038094D01*
X120088225Y-83038094D02*
X120090922Y-82931263D01*
X120090922Y-82931263D02*
X120091494Y-82846437D01*
X120091494Y-82846437D02*
X120093954Y-82723887D01*
X120093954Y-82723887D02*
X120100588Y-82626668D01*
X120100588Y-82626668D02*
X120110274Y-82567134D01*
X120110274Y-82567134D02*
X120117968Y-82554483D01*
X120117968Y-82554483D02*
X120169689Y-82567402D01*
X120169689Y-82567402D02*
X120250883Y-82600539D01*
X120250883Y-82600539D02*
X120344898Y-82645461D01*
X120344898Y-82645461D02*
X120435083Y-82693735D01*
X120435083Y-82693735D02*
X120504785Y-82736928D01*
X120504785Y-82736928D02*
X120537352Y-82766608D01*
X120537352Y-82766608D02*
X120537481Y-82766929D01*
X120537481Y-82766929D02*
X120534680Y-82821857D01*
X120534680Y-82821857D02*
X120509561Y-82874292D01*
X120509561Y-82874292D02*
X120465459Y-82916881D01*
X120465459Y-82916881D02*
X120401091Y-82931126D01*
X120401091Y-82931126D02*
X120346079Y-82929466D01*
X120346079Y-82929466D02*
X120268165Y-82928245D01*
X120268165Y-82928245D02*
X120227268Y-82946498D01*
X120227268Y-82946498D02*
X120202705Y-82994726D01*
X120202705Y-82994726D02*
X120199608Y-83003820D01*
X120199608Y-83003820D02*
X120188960Y-83072598D01*
X120188960Y-83072598D02*
X120217435Y-83114360D01*
X120217435Y-83114360D02*
X120291656Y-83134263D01*
X120291656Y-83134263D02*
X120371832Y-83137944D01*
X120371832Y-83137944D02*
X120516110Y-83110658D01*
X120516110Y-83110658D02*
X120590797Y-83071690D01*
X120590797Y-83071690D02*
X120683037Y-82980148D01*
X120683037Y-82980148D02*
X120731957Y-82867782D01*
X120731957Y-82867782D02*
X120736346Y-82749051D01*
X120736346Y-82749051D02*
X120694999Y-82638411D01*
X120694999Y-82638411D02*
X120632803Y-82569080D01*
X120632803Y-82569080D02*
X120570706Y-82530265D01*
X120570706Y-82530265D02*
X120473105Y-82481125D01*
X120473105Y-82481125D02*
X120359368Y-82431292D01*
X120359368Y-82431292D02*
X120340410Y-82423677D01*
X120340410Y-82423677D02*
X120215479Y-82368545D01*
X120215479Y-82368545D02*
X120143461Y-82319954D01*
X120143461Y-82319954D02*
X120120300Y-82271647D01*
X120120300Y-82271647D02*
X120141936Y-82217370D01*
X120141936Y-82217370D02*
X120179080Y-82174943D01*
X120179080Y-82174943D02*
X120266873Y-82122702D01*
X120266873Y-82122702D02*
X120363470Y-82118784D01*
X120363470Y-82118784D02*
X120452056Y-82159041D01*
X120452056Y-82159041D02*
X120515814Y-82239326D01*
X120515814Y-82239326D02*
X120524183Y-82260040D01*
X120524183Y-82260040D02*
X120572904Y-82336225D01*
X120572904Y-82336225D02*
X120644035Y-82392785D01*
X120644035Y-82392785D02*
X120733793Y-82439201D01*
X120733793Y-82439201D02*
X120733793Y-82307584D01*
X120733793Y-82307584D02*
X120728510Y-82227168D01*
X120728510Y-82227168D02*
X120705858Y-82163786D01*
X120705858Y-82163786D02*
X120655633Y-82096163D01*
X120655633Y-82096163D02*
X120607418Y-82044076D01*
X120607418Y-82044076D02*
X120532446Y-81970322D01*
X120532446Y-81970322D02*
X120474194Y-81930702D01*
X120474194Y-81930702D02*
X120411628Y-81914810D01*
X120411628Y-81914810D02*
X120340807Y-81912184D01*
X120340807Y-81912184D02*
X120185594Y-81935156D01*
X120185594Y-81935156D02*
X120185594Y-81935156D01*
G36*
X120411628Y-81914810D02*
G01*
X120474194Y-81930702D01*
X120532446Y-81970322D01*
X120607418Y-82044076D01*
X120655633Y-82096163D01*
X120705858Y-82163786D01*
X120728510Y-82227168D01*
X120733793Y-82307584D01*
X120733793Y-82439201D01*
X120644035Y-82392785D01*
X120572904Y-82336225D01*
X120524183Y-82260040D01*
X120515814Y-82239326D01*
X120452056Y-82159041D01*
X120363470Y-82118784D01*
X120266873Y-82122702D01*
X120179080Y-82174943D01*
X120141936Y-82217370D01*
X120120300Y-82271647D01*
X120143461Y-82319954D01*
X120215479Y-82368545D01*
X120340410Y-82423677D01*
X120359368Y-82431292D01*
X120473105Y-82481125D01*
X120570706Y-82530265D01*
X120632803Y-82569080D01*
X120694999Y-82638411D01*
X120736346Y-82749051D01*
X120731957Y-82867782D01*
X120683037Y-82980148D01*
X120590797Y-83071690D01*
X120516110Y-83110658D01*
X120371832Y-83137944D01*
X120291656Y-83134263D01*
X120217435Y-83114360D01*
X120188960Y-83072598D01*
X120199608Y-83003820D01*
X120202705Y-82994726D01*
X120227268Y-82946498D01*
X120268165Y-82928245D01*
X120346079Y-82929466D01*
X120401091Y-82931126D01*
X120465459Y-82916881D01*
X120509561Y-82874292D01*
X120534680Y-82821857D01*
X120537481Y-82766929D01*
X120537352Y-82766608D01*
X120504785Y-82736928D01*
X120435083Y-82693735D01*
X120344898Y-82645461D01*
X120250883Y-82600539D01*
X120169689Y-82567402D01*
X120117968Y-82554483D01*
X120110274Y-82567134D01*
X120100588Y-82626668D01*
X120093954Y-82723887D01*
X120091494Y-82846437D01*
X120090922Y-82931263D01*
X120088225Y-83038094D01*
X120083821Y-83111257D01*
X120078270Y-83138391D01*
X120049254Y-83129272D01*
X119990684Y-83104509D01*
X119916322Y-83070627D01*
X119916322Y-82635933D01*
X119916797Y-82524508D01*
X119921293Y-82355301D01*
X119932747Y-82229769D01*
X119953828Y-82138363D01*
X119987206Y-82071532D01*
X120035550Y-82019726D01*
X120101531Y-81973393D01*
X120185594Y-81935156D01*
X120340807Y-81912184D01*
X120411628Y-81914810D01*
G37*
X120411628Y-81914810D02*
X120474194Y-81930702D01*
X120532446Y-81970322D01*
X120607418Y-82044076D01*
X120655633Y-82096163D01*
X120705858Y-82163786D01*
X120728510Y-82227168D01*
X120733793Y-82307584D01*
X120733793Y-82439201D01*
X120644035Y-82392785D01*
X120572904Y-82336225D01*
X120524183Y-82260040D01*
X120515814Y-82239326D01*
X120452056Y-82159041D01*
X120363470Y-82118784D01*
X120266873Y-82122702D01*
X120179080Y-82174943D01*
X120141936Y-82217370D01*
X120120300Y-82271647D01*
X120143461Y-82319954D01*
X120215479Y-82368545D01*
X120340410Y-82423677D01*
X120359368Y-82431292D01*
X120473105Y-82481125D01*
X120570706Y-82530265D01*
X120632803Y-82569080D01*
X120694999Y-82638411D01*
X120736346Y-82749051D01*
X120731957Y-82867782D01*
X120683037Y-82980148D01*
X120590797Y-83071690D01*
X120516110Y-83110658D01*
X120371832Y-83137944D01*
X120291656Y-83134263D01*
X120217435Y-83114360D01*
X120188960Y-83072598D01*
X120199608Y-83003820D01*
X120202705Y-82994726D01*
X120227268Y-82946498D01*
X120268165Y-82928245D01*
X120346079Y-82929466D01*
X120401091Y-82931126D01*
X120465459Y-82916881D01*
X120509561Y-82874292D01*
X120534680Y-82821857D01*
X120537481Y-82766929D01*
X120537352Y-82766608D01*
X120504785Y-82736928D01*
X120435083Y-82693735D01*
X120344898Y-82645461D01*
X120250883Y-82600539D01*
X120169689Y-82567402D01*
X120117968Y-82554483D01*
X120110274Y-82567134D01*
X120100588Y-82626668D01*
X120093954Y-82723887D01*
X120091494Y-82846437D01*
X120090922Y-82931263D01*
X120088225Y-83038094D01*
X120083821Y-83111257D01*
X120078270Y-83138391D01*
X120049254Y-83129272D01*
X119990684Y-83104509D01*
X119916322Y-83070627D01*
X119916322Y-82635933D01*
X119916797Y-82524508D01*
X119921293Y-82355301D01*
X119932747Y-82229769D01*
X119953828Y-82138363D01*
X119987206Y-82071532D01*
X120035550Y-82019726D01*
X120101531Y-81973393D01*
X120185594Y-81935156D01*
X120340807Y-81912184D01*
X120411628Y-81914810D01*
X124420056Y-81924360D02*
X124305657Y-81966842D01*
X124305657Y-81966842D02*
X124304348Y-81967658D01*
X124304348Y-81967658D02*
X124233597Y-82019730D01*
X124233597Y-82019730D02*
X124181364Y-82080584D01*
X124181364Y-82080584D02*
X124144629Y-82159887D01*
X124144629Y-82159887D02*
X124120366Y-82267309D01*
X124120366Y-82267309D02*
X124105555Y-82412517D01*
X124105555Y-82412517D02*
X124097171Y-82605179D01*
X124097171Y-82605179D02*
X124096436Y-82632628D01*
X124096436Y-82632628D02*
X124085880Y-83046521D01*
X124085880Y-83046521D02*
X124174709Y-83092456D01*
X124174709Y-83092456D02*
X124238982Y-83123498D01*
X124238982Y-83123498D02*
X124277790Y-83138206D01*
X124277790Y-83138206D02*
X124279585Y-83138391D01*
X124279585Y-83138391D02*
X124286300Y-83111250D01*
X124286300Y-83111250D02*
X124291635Y-83038041D01*
X124291635Y-83038041D02*
X124294917Y-82931081D01*
X124294917Y-82931081D02*
X124295632Y-82844469D01*
X124295632Y-82844469D02*
X124295649Y-82704162D01*
X124295649Y-82704162D02*
X124302063Y-82616051D01*
X124302063Y-82616051D02*
X124324420Y-82574025D01*
X124324420Y-82574025D02*
X124372268Y-82571975D01*
X124372268Y-82571975D02*
X124455151Y-82603790D01*
X124455151Y-82603790D02*
X124580287Y-82662272D01*
X124580287Y-82662272D02*
X124672303Y-82710845D01*
X124672303Y-82710845D02*
X124719629Y-82752986D01*
X124719629Y-82752986D02*
X124733542Y-82798916D01*
X124733542Y-82798916D02*
X124733563Y-82801189D01*
X124733563Y-82801189D02*
X124710605Y-82880311D01*
X124710605Y-82880311D02*
X124642630Y-82923055D01*
X124642630Y-82923055D02*
X124538602Y-82929246D01*
X124538602Y-82929246D02*
X124463670Y-82928172D01*
X124463670Y-82928172D02*
X124424161Y-82949753D01*
X124424161Y-82949753D02*
X124399522Y-83001591D01*
X124399522Y-83001591D02*
X124385341Y-83067632D01*
X124385341Y-83067632D02*
X124405777Y-83105104D01*
X124405777Y-83105104D02*
X124413472Y-83110467D01*
X124413472Y-83110467D02*
X124485917Y-83132006D01*
X124485917Y-83132006D02*
X124587367Y-83135055D01*
X124587367Y-83135055D02*
X124691843Y-83120778D01*
X124691843Y-83120778D02*
X124765875Y-83094688D01*
X124765875Y-83094688D02*
X124868228Y-83007785D01*
X124868228Y-83007785D02*
X124926409Y-82886816D01*
X124926409Y-82886816D02*
X124937931Y-82792308D01*
X124937931Y-82792308D02*
X124929138Y-82707062D01*
X124929138Y-82707062D02*
X124897320Y-82637476D01*
X124897320Y-82637476D02*
X124834316Y-82575672D01*
X124834316Y-82575672D02*
X124731969Y-82513772D01*
X124731969Y-82513772D02*
X124582118Y-82443897D01*
X124582118Y-82443897D02*
X124572988Y-82439948D01*
X124572988Y-82439948D02*
X124438003Y-82377588D01*
X124438003Y-82377588D02*
X124354706Y-82326446D01*
X124354706Y-82326446D02*
X124319003Y-82280488D01*
X124319003Y-82280488D02*
X124326797Y-82233683D01*
X124326797Y-82233683D02*
X124373993Y-82179998D01*
X124373993Y-82179998D02*
X124388106Y-82167644D01*
X124388106Y-82167644D02*
X124482641Y-82119741D01*
X124482641Y-82119741D02*
X124580594Y-82121758D01*
X124580594Y-82121758D02*
X124665903Y-82168724D01*
X124665903Y-82168724D02*
X124722504Y-82255669D01*
X124722504Y-82255669D02*
X124727763Y-82272734D01*
X124727763Y-82272734D02*
X124778977Y-82355504D01*
X124778977Y-82355504D02*
X124843963Y-82395372D01*
X124843963Y-82395372D02*
X124937931Y-82434882D01*
X124937931Y-82434882D02*
X124937931Y-82332658D01*
X124937931Y-82332658D02*
X124909347Y-82184072D01*
X124909347Y-82184072D02*
X124824505Y-82047784D01*
X124824505Y-82047784D02*
X124780355Y-82002191D01*
X124780355Y-82002191D02*
X124679995Y-81943674D01*
X124679995Y-81943674D02*
X124552365Y-81917184D01*
X124552365Y-81917184D02*
X124420056Y-81924360D01*
X124420056Y-81924360D02*
X124420056Y-81924360D01*
G36*
X124679995Y-81943674D02*
G01*
X124780355Y-82002191D01*
X124824505Y-82047784D01*
X124909347Y-82184072D01*
X124937931Y-82332658D01*
X124937931Y-82434882D01*
X124843963Y-82395372D01*
X124778977Y-82355504D01*
X124727763Y-82272734D01*
X124722504Y-82255669D01*
X124665903Y-82168724D01*
X124580594Y-82121758D01*
X124482641Y-82119741D01*
X124388106Y-82167644D01*
X124373993Y-82179998D01*
X124326797Y-82233683D01*
X124319003Y-82280488D01*
X124354706Y-82326446D01*
X124438003Y-82377588D01*
X124572988Y-82439948D01*
X124582118Y-82443897D01*
X124731969Y-82513772D01*
X124834316Y-82575672D01*
X124897320Y-82637476D01*
X124929138Y-82707062D01*
X124937931Y-82792308D01*
X124926409Y-82886816D01*
X124868228Y-83007785D01*
X124765875Y-83094688D01*
X124691843Y-83120778D01*
X124587367Y-83135055D01*
X124485917Y-83132006D01*
X124413472Y-83110467D01*
X124405777Y-83105104D01*
X124385341Y-83067632D01*
X124399522Y-83001591D01*
X124424161Y-82949753D01*
X124463670Y-82928172D01*
X124538602Y-82929246D01*
X124642630Y-82923055D01*
X124710605Y-82880311D01*
X124733563Y-82801189D01*
X124733542Y-82798916D01*
X124719629Y-82752986D01*
X124672303Y-82710845D01*
X124580287Y-82662272D01*
X124455151Y-82603790D01*
X124372268Y-82571975D01*
X124324420Y-82574025D01*
X124302063Y-82616051D01*
X124295649Y-82704162D01*
X124295632Y-82844469D01*
X124294917Y-82931081D01*
X124291635Y-83038041D01*
X124286300Y-83111250D01*
X124279585Y-83138391D01*
X124277790Y-83138206D01*
X124238982Y-83123498D01*
X124174709Y-83092456D01*
X124085880Y-83046521D01*
X124096436Y-82632628D01*
X124097171Y-82605179D01*
X124105555Y-82412517D01*
X124120366Y-82267309D01*
X124144629Y-82159887D01*
X124181364Y-82080584D01*
X124233597Y-82019730D01*
X124304348Y-81967658D01*
X124305657Y-81966842D01*
X124420056Y-81924360D01*
X124552365Y-81917184D01*
X124679995Y-81943674D01*
G37*
X124679995Y-81943674D02*
X124780355Y-82002191D01*
X124824505Y-82047784D01*
X124909347Y-82184072D01*
X124937931Y-82332658D01*
X124937931Y-82434882D01*
X124843963Y-82395372D01*
X124778977Y-82355504D01*
X124727763Y-82272734D01*
X124722504Y-82255669D01*
X124665903Y-82168724D01*
X124580594Y-82121758D01*
X124482641Y-82119741D01*
X124388106Y-82167644D01*
X124373993Y-82179998D01*
X124326797Y-82233683D01*
X124319003Y-82280488D01*
X124354706Y-82326446D01*
X124438003Y-82377588D01*
X124572988Y-82439948D01*
X124582118Y-82443897D01*
X124731969Y-82513772D01*
X124834316Y-82575672D01*
X124897320Y-82637476D01*
X124929138Y-82707062D01*
X124937931Y-82792308D01*
X124926409Y-82886816D01*
X124868228Y-83007785D01*
X124765875Y-83094688D01*
X124691843Y-83120778D01*
X124587367Y-83135055D01*
X124485917Y-83132006D01*
X124413472Y-83110467D01*
X124405777Y-83105104D01*
X124385341Y-83067632D01*
X124399522Y-83001591D01*
X124424161Y-82949753D01*
X124463670Y-82928172D01*
X124538602Y-82929246D01*
X124642630Y-82923055D01*
X124710605Y-82880311D01*
X124733563Y-82801189D01*
X124733542Y-82798916D01*
X124719629Y-82752986D01*
X124672303Y-82710845D01*
X124580287Y-82662272D01*
X124455151Y-82603790D01*
X124372268Y-82571975D01*
X124324420Y-82574025D01*
X124302063Y-82616051D01*
X124295649Y-82704162D01*
X124295632Y-82844469D01*
X124294917Y-82931081D01*
X124291635Y-83038041D01*
X124286300Y-83111250D01*
X124279585Y-83138391D01*
X124277790Y-83138206D01*
X124238982Y-83123498D01*
X124174709Y-83092456D01*
X124085880Y-83046521D01*
X124096436Y-82632628D01*
X124097171Y-82605179D01*
X124105555Y-82412517D01*
X124120366Y-82267309D01*
X124144629Y-82159887D01*
X124181364Y-82080584D01*
X124233597Y-82019730D01*
X124304348Y-81967658D01*
X124305657Y-81966842D01*
X124420056Y-81924360D01*
X124552365Y-81917184D01*
X124679995Y-81943674D01*
X125755402Y-81723857D02*
X125746846Y-81843188D01*
X125746846Y-81843188D02*
X125737019Y-81913506D01*
X125737019Y-81913506D02*
X125723401Y-81944179D01*
X125723401Y-81944179D02*
X125703473Y-81944571D01*
X125703473Y-81944571D02*
X125697011Y-81940910D01*
X125697011Y-81940910D02*
X125611060Y-81914398D01*
X125611060Y-81914398D02*
X125499255Y-81915946D01*
X125499255Y-81915946D02*
X125385586Y-81943199D01*
X125385586Y-81943199D02*
X125314490Y-81978455D01*
X125314490Y-81978455D02*
X125241595Y-82034778D01*
X125241595Y-82034778D02*
X125188307Y-82098519D01*
X125188307Y-82098519D02*
X125151725Y-82179510D01*
X125151725Y-82179510D02*
X125128950Y-82287586D01*
X125128950Y-82287586D02*
X125117081Y-82432580D01*
X125117081Y-82432580D02*
X125113218Y-82624326D01*
X125113218Y-82624326D02*
X125113149Y-82661109D01*
X125113149Y-82661109D02*
X125113103Y-83074288D01*
X125113103Y-83074288D02*
X125205046Y-83106339D01*
X125205046Y-83106339D02*
X125270348Y-83128144D01*
X125270348Y-83128144D02*
X125306176Y-83138297D01*
X125306176Y-83138297D02*
X125307230Y-83138391D01*
X125307230Y-83138391D02*
X125310758Y-83110860D01*
X125310758Y-83110860D02*
X125313761Y-83034923D01*
X125313761Y-83034923D02*
X125316010Y-82920565D01*
X125316010Y-82920565D02*
X125317276Y-82777769D01*
X125317276Y-82777769D02*
X125317471Y-82690951D01*
X125317471Y-82690951D02*
X125317877Y-82519773D01*
X125317877Y-82519773D02*
X125319968Y-82397088D01*
X125319968Y-82397088D02*
X125325053Y-82313000D01*
X125325053Y-82313000D02*
X125334440Y-82257614D01*
X125334440Y-82257614D02*
X125349439Y-82221032D01*
X125349439Y-82221032D02*
X125371358Y-82193359D01*
X125371358Y-82193359D02*
X125385043Y-82180032D01*
X125385043Y-82180032D02*
X125479051Y-82126328D01*
X125479051Y-82126328D02*
X125581636Y-82122307D01*
X125581636Y-82122307D02*
X125674710Y-82167725D01*
X125674710Y-82167725D02*
X125691922Y-82184123D01*
X125691922Y-82184123D02*
X125717168Y-82214957D01*
X125717168Y-82214957D02*
X125734680Y-82251531D01*
X125734680Y-82251531D02*
X125745858Y-82304415D01*
X125745858Y-82304415D02*
X125752104Y-82384177D01*
X125752104Y-82384177D02*
X125754818Y-82501385D01*
X125754818Y-82501385D02*
X125755402Y-82662991D01*
X125755402Y-82662991D02*
X125755402Y-83074288D01*
X125755402Y-83074288D02*
X125847345Y-83106339D01*
X125847345Y-83106339D02*
X125912647Y-83128144D01*
X125912647Y-83128144D02*
X125948475Y-83138297D01*
X125948475Y-83138297D02*
X125949529Y-83138391D01*
X125949529Y-83138391D02*
X125952225Y-83110448D01*
X125952225Y-83110448D02*
X125954655Y-83031630D01*
X125954655Y-83031630D02*
X125956722Y-82909453D01*
X125956722Y-82909453D02*
X125958329Y-82751432D01*
X125958329Y-82751432D02*
X125959377Y-82565083D01*
X125959377Y-82565083D02*
X125959769Y-82357920D01*
X125959769Y-82357920D02*
X125959770Y-82348706D01*
X125959770Y-82348706D02*
X125959770Y-81559020D01*
X125959770Y-81559020D02*
X125864885Y-81518997D01*
X125864885Y-81518997D02*
X125770000Y-81478973D01*
X125770000Y-81478973D02*
X125755402Y-81723857D01*
X125755402Y-81723857D02*
X125755402Y-81723857D01*
G36*
X125864885Y-81518997D02*
G01*
X125959770Y-81559020D01*
X125959770Y-82348706D01*
X125959769Y-82357920D01*
X125959377Y-82565083D01*
X125958329Y-82751432D01*
X125956722Y-82909453D01*
X125954655Y-83031630D01*
X125952225Y-83110448D01*
X125949529Y-83138391D01*
X125948475Y-83138297D01*
X125912647Y-83128144D01*
X125847345Y-83106339D01*
X125755402Y-83074288D01*
X125755402Y-82662991D01*
X125754818Y-82501385D01*
X125752104Y-82384177D01*
X125745858Y-82304415D01*
X125734680Y-82251531D01*
X125717168Y-82214957D01*
X125691922Y-82184123D01*
X125674710Y-82167725D01*
X125581636Y-82122307D01*
X125479051Y-82126328D01*
X125385043Y-82180032D01*
X125371358Y-82193359D01*
X125349439Y-82221032D01*
X125334440Y-82257614D01*
X125325053Y-82313000D01*
X125319968Y-82397088D01*
X125317877Y-82519773D01*
X125317471Y-82690951D01*
X125317276Y-82777769D01*
X125316010Y-82920565D01*
X125313761Y-83034923D01*
X125310758Y-83110860D01*
X125307230Y-83138391D01*
X125306176Y-83138297D01*
X125270348Y-83128144D01*
X125205046Y-83106339D01*
X125113103Y-83074288D01*
X125113149Y-82661109D01*
X125113218Y-82624326D01*
X125117081Y-82432580D01*
X125128950Y-82287586D01*
X125151725Y-82179510D01*
X125188307Y-82098519D01*
X125241595Y-82034778D01*
X125314490Y-81978455D01*
X125385586Y-81943199D01*
X125499255Y-81915946D01*
X125611060Y-81914398D01*
X125697011Y-81940910D01*
X125703473Y-81944571D01*
X125723401Y-81944179D01*
X125737019Y-81913506D01*
X125746846Y-81843188D01*
X125755402Y-81723857D01*
X125770000Y-81478973D01*
X125864885Y-81518997D01*
G37*
X125864885Y-81518997D02*
X125959770Y-81559020D01*
X125959770Y-82348706D01*
X125959769Y-82357920D01*
X125959377Y-82565083D01*
X125958329Y-82751432D01*
X125956722Y-82909453D01*
X125954655Y-83031630D01*
X125952225Y-83110448D01*
X125949529Y-83138391D01*
X125948475Y-83138297D01*
X125912647Y-83128144D01*
X125847345Y-83106339D01*
X125755402Y-83074288D01*
X125755402Y-82662991D01*
X125754818Y-82501385D01*
X125752104Y-82384177D01*
X125745858Y-82304415D01*
X125734680Y-82251531D01*
X125717168Y-82214957D01*
X125691922Y-82184123D01*
X125674710Y-82167725D01*
X125581636Y-82122307D01*
X125479051Y-82126328D01*
X125385043Y-82180032D01*
X125371358Y-82193359D01*
X125349439Y-82221032D01*
X125334440Y-82257614D01*
X125325053Y-82313000D01*
X125319968Y-82397088D01*
X125317877Y-82519773D01*
X125317471Y-82690951D01*
X125317276Y-82777769D01*
X125316010Y-82920565D01*
X125313761Y-83034923D01*
X125310758Y-83110860D01*
X125307230Y-83138391D01*
X125306176Y-83138297D01*
X125270348Y-83128144D01*
X125205046Y-83106339D01*
X125113103Y-83074288D01*
X125113149Y-82661109D01*
X125113218Y-82624326D01*
X125117081Y-82432580D01*
X125128950Y-82287586D01*
X125151725Y-82179510D01*
X125188307Y-82098519D01*
X125241595Y-82034778D01*
X125314490Y-81978455D01*
X125385586Y-81943199D01*
X125499255Y-81915946D01*
X125611060Y-81914398D01*
X125697011Y-81940910D01*
X125703473Y-81944571D01*
X125723401Y-81944179D01*
X125737019Y-81913506D01*
X125746846Y-81843188D01*
X125755402Y-81723857D01*
X125770000Y-81478973D01*
X125864885Y-81518997D01*
X120919876Y-81939840D02*
X120915421Y-82016653D01*
X120915421Y-82016653D02*
X120911929Y-82133391D01*
X120911929Y-82133391D02*
X120909685Y-82280821D01*
X120909685Y-82280821D02*
X120908965Y-82435455D01*
X120908965Y-82435455D02*
X120908965Y-82958727D01*
X120908965Y-82958727D02*
X121001355Y-83051117D01*
X121001355Y-83051117D02*
X121065022Y-83108047D01*
X121065022Y-83108047D02*
X121120911Y-83131107D01*
X121120911Y-83131107D02*
X121197298Y-83129647D01*
X121197298Y-83129647D02*
X121227620Y-83125934D01*
X121227620Y-83125934D02*
X121322390Y-83115126D01*
X121322390Y-83115126D02*
X121400778Y-83108933D01*
X121400778Y-83108933D02*
X121419885Y-83108361D01*
X121419885Y-83108361D02*
X121484301Y-83112102D01*
X121484301Y-83112102D02*
X121576429Y-83121494D01*
X121576429Y-83121494D02*
X121612150Y-83125934D01*
X121612150Y-83125934D02*
X121699886Y-83132801D01*
X121699886Y-83132801D02*
X121758847Y-83117885D01*
X121758847Y-83117885D02*
X121817310Y-83071835D01*
X121817310Y-83071835D02*
X121838415Y-83051117D01*
X121838415Y-83051117D02*
X121930805Y-82958727D01*
X121930805Y-82958727D02*
X121930805Y-81979947D01*
X121930805Y-81979947D02*
X121856442Y-81946066D01*
X121856442Y-81946066D02*
X121792410Y-81920970D01*
X121792410Y-81920970D02*
X121754948Y-81912184D01*
X121754948Y-81912184D02*
X121745343Y-81939950D01*
X121745343Y-81939950D02*
X121736365Y-82017530D01*
X121736365Y-82017530D02*
X121728614Y-82136348D01*
X121728614Y-82136348D02*
X121722686Y-82287828D01*
X121722686Y-82287828D02*
X121719827Y-82415805D01*
X121719827Y-82415805D02*
X121711839Y-82919425D01*
X121711839Y-82919425D02*
X121642152Y-82929278D01*
X121642152Y-82929278D02*
X121578771Y-82922389D01*
X121578771Y-82922389D02*
X121547714Y-82900083D01*
X121547714Y-82900083D02*
X121539033Y-82858379D01*
X121539033Y-82858379D02*
X121531622Y-82769544D01*
X121531622Y-82769544D02*
X121526069Y-82644834D01*
X121526069Y-82644834D02*
X121522964Y-82495507D01*
X121522964Y-82495507D02*
X121522516Y-82418661D01*
X121522516Y-82418661D02*
X121522069Y-81976287D01*
X121522069Y-81976287D02*
X121430126Y-81944235D01*
X121430126Y-81944235D02*
X121365051Y-81922443D01*
X121365051Y-81922443D02*
X121329653Y-81912281D01*
X121329653Y-81912281D02*
X121328632Y-81912184D01*
X121328632Y-81912184D02*
X121325080Y-81939809D01*
X121325080Y-81939809D02*
X121321177Y-82016411D01*
X121321177Y-82016411D02*
X121317249Y-82132579D01*
X121317249Y-82132579D02*
X121313624Y-82278904D01*
X121313624Y-82278904D02*
X121311092Y-82415805D01*
X121311092Y-82415805D02*
X121303103Y-82919425D01*
X121303103Y-82919425D02*
X121127931Y-82919425D01*
X121127931Y-82919425D02*
X121119893Y-82459965D01*
X121119893Y-82459965D02*
X121111854Y-82000505D01*
X121111854Y-82000505D02*
X121026457Y-81956344D01*
X121026457Y-81956344D02*
X120963407Y-81926019D01*
X120963407Y-81926019D02*
X120926090Y-81912258D01*
X120926090Y-81912258D02*
X120925013Y-81912184D01*
X120925013Y-81912184D02*
X120919876Y-81939840D01*
X120919876Y-81939840D02*
X120919876Y-81939840D01*
G36*
X121792410Y-81920970D02*
G01*
X121856442Y-81946066D01*
X121930805Y-81979947D01*
X121930805Y-82958727D01*
X121838415Y-83051117D01*
X121817310Y-83071835D01*
X121758847Y-83117885D01*
X121699886Y-83132801D01*
X121612150Y-83125934D01*
X121576429Y-83121494D01*
X121484301Y-83112102D01*
X121419885Y-83108361D01*
X121400778Y-83108933D01*
X121322390Y-83115126D01*
X121227620Y-83125934D01*
X121197298Y-83129647D01*
X121120911Y-83131107D01*
X121065022Y-83108047D01*
X121001355Y-83051117D01*
X120908965Y-82958727D01*
X120908965Y-82435455D01*
X120909685Y-82280821D01*
X120911929Y-82133391D01*
X120915421Y-82016653D01*
X120919876Y-81939840D01*
X120925013Y-81912184D01*
X120926090Y-81912258D01*
X120963407Y-81926019D01*
X121026457Y-81956344D01*
X121111854Y-82000505D01*
X121119893Y-82459965D01*
X121127931Y-82919425D01*
X121303103Y-82919425D01*
X121311092Y-82415805D01*
X121313624Y-82278904D01*
X121317249Y-82132579D01*
X121321177Y-82016411D01*
X121325080Y-81939809D01*
X121328632Y-81912184D01*
X121329653Y-81912281D01*
X121365051Y-81922443D01*
X121430126Y-81944235D01*
X121522069Y-81976287D01*
X121522516Y-82418661D01*
X121522964Y-82495507D01*
X121526069Y-82644834D01*
X121531622Y-82769544D01*
X121539033Y-82858379D01*
X121547714Y-82900083D01*
X121578771Y-82922389D01*
X121642152Y-82929278D01*
X121711839Y-82919425D01*
X121719827Y-82415805D01*
X121722686Y-82287828D01*
X121728614Y-82136348D01*
X121736365Y-82017530D01*
X121745343Y-81939950D01*
X121754948Y-81912184D01*
X121792410Y-81920970D01*
G37*
X121792410Y-81920970D02*
X121856442Y-81946066D01*
X121930805Y-81979947D01*
X121930805Y-82958727D01*
X121838415Y-83051117D01*
X121817310Y-83071835D01*
X121758847Y-83117885D01*
X121699886Y-83132801D01*
X121612150Y-83125934D01*
X121576429Y-83121494D01*
X121484301Y-83112102D01*
X121419885Y-83108361D01*
X121400778Y-83108933D01*
X121322390Y-83115126D01*
X121227620Y-83125934D01*
X121197298Y-83129647D01*
X121120911Y-83131107D01*
X121065022Y-83108047D01*
X121001355Y-83051117D01*
X120908965Y-82958727D01*
X120908965Y-82435455D01*
X120909685Y-82280821D01*
X120911929Y-82133391D01*
X120915421Y-82016653D01*
X120919876Y-81939840D01*
X120925013Y-81912184D01*
X120926090Y-81912258D01*
X120963407Y-81926019D01*
X121026457Y-81956344D01*
X121111854Y-82000505D01*
X121119893Y-82459965D01*
X121127931Y-82919425D01*
X121303103Y-82919425D01*
X121311092Y-82415805D01*
X121313624Y-82278904D01*
X121317249Y-82132579D01*
X121321177Y-82016411D01*
X121325080Y-81939809D01*
X121328632Y-81912184D01*
X121329653Y-81912281D01*
X121365051Y-81922443D01*
X121430126Y-81944235D01*
X121522069Y-81976287D01*
X121522516Y-82418661D01*
X121522964Y-82495507D01*
X121526069Y-82644834D01*
X121531622Y-82769544D01*
X121539033Y-82858379D01*
X121547714Y-82900083D01*
X121578771Y-82922389D01*
X121642152Y-82929278D01*
X121711839Y-82919425D01*
X121719827Y-82415805D01*
X121722686Y-82287828D01*
X121728614Y-82136348D01*
X121736365Y-82017530D01*
X121745343Y-81939950D01*
X121754948Y-81912184D01*
X121792410Y-81920970D01*
X123434057Y-81921920D02*
X123301435Y-81970859D01*
X123301435Y-81970859D02*
X123193990Y-82057419D01*
X123193990Y-82057419D02*
X123151968Y-82118352D01*
X123151968Y-82118352D02*
X123106157Y-82230161D01*
X123106157Y-82230161D02*
X123107109Y-82311006D01*
X123107109Y-82311006D02*
X123155192Y-82365378D01*
X123155192Y-82365378D02*
X123172983Y-82374624D01*
X123172983Y-82374624D02*
X123249796Y-82403450D01*
X123249796Y-82403450D02*
X123289024Y-82396065D01*
X123289024Y-82396065D02*
X123302311Y-82347658D01*
X123302311Y-82347658D02*
X123302988Y-82320920D01*
X123302988Y-82320920D02*
X123327314Y-82222548D01*
X123327314Y-82222548D02*
X123390719Y-82153734D01*
X123390719Y-82153734D02*
X123478846Y-82120498D01*
X123478846Y-82120498D02*
X123577337Y-82128861D01*
X123577337Y-82128861D02*
X123657398Y-82172296D01*
X123657398Y-82172296D02*
X123684439Y-82197072D01*
X123684439Y-82197072D02*
X123703606Y-82227129D01*
X123703606Y-82227129D02*
X123716554Y-82272565D01*
X123716554Y-82272565D02*
X123724936Y-82343476D01*
X123724936Y-82343476D02*
X123730407Y-82449960D01*
X123730407Y-82449960D02*
X123734622Y-82602112D01*
X123734622Y-82602112D02*
X123735713Y-82650287D01*
X123735713Y-82650287D02*
X123739693Y-82815095D01*
X123739693Y-82815095D02*
X123744219Y-82931088D01*
X123744219Y-82931088D02*
X123751005Y-83007833D01*
X123751005Y-83007833D02*
X123761769Y-83054893D01*
X123761769Y-83054893D02*
X123778227Y-83081835D01*
X123778227Y-83081835D02*
X123802094Y-83098223D01*
X123802094Y-83098223D02*
X123817374Y-83105463D01*
X123817374Y-83105463D02*
X123882267Y-83130220D01*
X123882267Y-83130220D02*
X123920466Y-83138391D01*
X123920466Y-83138391D02*
X123933088Y-83111103D01*
X123933088Y-83111103D02*
X123940792Y-83028603D01*
X123940792Y-83028603D02*
X123943620Y-82889941D01*
X123943620Y-82889941D02*
X123941614Y-82694162D01*
X123941614Y-82694162D02*
X123940989Y-82663965D01*
X123940989Y-82663965D02*
X123936579Y-82485349D01*
X123936579Y-82485349D02*
X123931365Y-82354923D01*
X123931365Y-82354923D02*
X123923945Y-82262492D01*
X123923945Y-82262492D02*
X123912918Y-82197858D01*
X123912918Y-82197858D02*
X123896883Y-82150825D01*
X123896883Y-82150825D02*
X123874439Y-82111196D01*
X123874439Y-82111196D02*
X123862698Y-82094215D01*
X123862698Y-82094215D02*
X123795381Y-82019080D01*
X123795381Y-82019080D02*
X123720090Y-81960638D01*
X123720090Y-81960638D02*
X123710872Y-81955536D01*
X123710872Y-81955536D02*
X123575867Y-81915260D01*
X123575867Y-81915260D02*
X123434057Y-81921920D01*
X123434057Y-81921920D02*
X123434057Y-81921920D01*
G36*
X123710872Y-81955536D02*
G01*
X123720090Y-81960638D01*
X123795381Y-82019080D01*
X123862698Y-82094215D01*
X123874439Y-82111196D01*
X123896883Y-82150825D01*
X123912918Y-82197858D01*
X123923945Y-82262492D01*
X123931365Y-82354923D01*
X123936579Y-82485349D01*
X123940989Y-82663965D01*
X123941614Y-82694162D01*
X123943620Y-82889941D01*
X123940792Y-83028603D01*
X123933088Y-83111103D01*
X123920466Y-83138391D01*
X123882267Y-83130220D01*
X123817374Y-83105463D01*
X123802094Y-83098223D01*
X123778227Y-83081835D01*
X123761769Y-83054893D01*
X123751005Y-83007833D01*
X123744219Y-82931088D01*
X123739693Y-82815095D01*
X123735713Y-82650287D01*
X123734622Y-82602112D01*
X123730407Y-82449960D01*
X123724936Y-82343476D01*
X123716554Y-82272565D01*
X123703606Y-82227129D01*
X123684439Y-82197072D01*
X123657398Y-82172296D01*
X123577337Y-82128861D01*
X123478846Y-82120498D01*
X123390719Y-82153734D01*
X123327314Y-82222548D01*
X123302988Y-82320920D01*
X123302311Y-82347658D01*
X123289024Y-82396065D01*
X123249796Y-82403450D01*
X123172983Y-82374624D01*
X123155192Y-82365378D01*
X123107109Y-82311006D01*
X123106157Y-82230161D01*
X123151968Y-82118352D01*
X123193990Y-82057419D01*
X123301435Y-81970859D01*
X123434057Y-81921920D01*
X123575867Y-81915260D01*
X123710872Y-81955536D01*
G37*
X123710872Y-81955536D02*
X123720090Y-81960638D01*
X123795381Y-82019080D01*
X123862698Y-82094215D01*
X123874439Y-82111196D01*
X123896883Y-82150825D01*
X123912918Y-82197858D01*
X123923945Y-82262492D01*
X123931365Y-82354923D01*
X123936579Y-82485349D01*
X123940989Y-82663965D01*
X123941614Y-82694162D01*
X123943620Y-82889941D01*
X123940792Y-83028603D01*
X123933088Y-83111103D01*
X123920466Y-83138391D01*
X123882267Y-83130220D01*
X123817374Y-83105463D01*
X123802094Y-83098223D01*
X123778227Y-83081835D01*
X123761769Y-83054893D01*
X123751005Y-83007833D01*
X123744219Y-82931088D01*
X123739693Y-82815095D01*
X123735713Y-82650287D01*
X123734622Y-82602112D01*
X123730407Y-82449960D01*
X123724936Y-82343476D01*
X123716554Y-82272565D01*
X123703606Y-82227129D01*
X123684439Y-82197072D01*
X123657398Y-82172296D01*
X123577337Y-82128861D01*
X123478846Y-82120498D01*
X123390719Y-82153734D01*
X123327314Y-82222548D01*
X123302988Y-82320920D01*
X123302311Y-82347658D01*
X123289024Y-82396065D01*
X123249796Y-82403450D01*
X123172983Y-82374624D01*
X123155192Y-82365378D01*
X123107109Y-82311006D01*
X123106157Y-82230161D01*
X123151968Y-82118352D01*
X123193990Y-82057419D01*
X123301435Y-81970859D01*
X123434057Y-81921920D01*
X123575867Y-81915260D01*
X123710872Y-81955536D01*
X122106086Y-82154455D02*
X122106457Y-82372661D01*
X122106457Y-82372661D02*
X122107892Y-82540519D01*
X122107892Y-82540519D02*
X122110998Y-82666070D01*
X122110998Y-82666070D02*
X122116378Y-82757355D01*
X122116378Y-82757355D02*
X122124638Y-82822415D01*
X122124638Y-82822415D02*
X122136384Y-82869291D01*
X122136384Y-82869291D02*
X122152219Y-82906024D01*
X122152219Y-82906024D02*
X122164210Y-82926991D01*
X122164210Y-82926991D02*
X122263510Y-83040694D01*
X122263510Y-83040694D02*
X122389412Y-83111965D01*
X122389412Y-83111965D02*
X122528709Y-83137538D01*
X122528709Y-83137538D02*
X122668195Y-83114150D01*
X122668195Y-83114150D02*
X122751257Y-83072119D01*
X122751257Y-83072119D02*
X122838455Y-82999411D01*
X122838455Y-82999411D02*
X122897883Y-82910612D01*
X122897883Y-82910612D02*
X122933739Y-82794320D01*
X122933739Y-82794320D02*
X122950219Y-82639135D01*
X122950219Y-82639135D02*
X122952553Y-82525287D01*
X122952553Y-82525287D02*
X122952239Y-82517106D01*
X122952239Y-82517106D02*
X122748276Y-82517106D01*
X122748276Y-82517106D02*
X122747030Y-82647657D01*
X122747030Y-82647657D02*
X122741322Y-82734080D01*
X122741322Y-82734080D02*
X122728196Y-82790618D01*
X122728196Y-82790618D02*
X122704694Y-82831514D01*
X122704694Y-82831514D02*
X122676614Y-82862362D01*
X122676614Y-82862362D02*
X122582312Y-82921905D01*
X122582312Y-82921905D02*
X122481060Y-82926992D01*
X122481060Y-82926992D02*
X122385364Y-82877279D01*
X122385364Y-82877279D02*
X122377916Y-82870543D01*
X122377916Y-82870543D02*
X122346126Y-82835502D01*
X122346126Y-82835502D02*
X122326192Y-82793811D01*
X122326192Y-82793811D02*
X122315400Y-82731762D01*
X122315400Y-82731762D02*
X122311035Y-82635644D01*
X122311035Y-82635644D02*
X122310345Y-82529379D01*
X122310345Y-82529379D02*
X122311841Y-82395880D01*
X122311841Y-82395880D02*
X122318036Y-82306822D01*
X122318036Y-82306822D02*
X122331486Y-82248293D01*
X122331486Y-82248293D02*
X122354749Y-82206382D01*
X122354749Y-82206382D02*
X122373825Y-82184123D01*
X122373825Y-82184123D02*
X122462437Y-82127985D01*
X122462437Y-82127985D02*
X122564492Y-82121235D01*
X122564492Y-82121235D02*
X122661905Y-82164114D01*
X122661905Y-82164114D02*
X122680704Y-82180032D01*
X122680704Y-82180032D02*
X122712707Y-82215382D01*
X122712707Y-82215382D02*
X122732682Y-82257502D01*
X122732682Y-82257502D02*
X122743407Y-82320251D01*
X122743407Y-82320251D02*
X122747661Y-82417487D01*
X122747661Y-82417487D02*
X122748276Y-82517106D01*
X122748276Y-82517106D02*
X122952239Y-82517106D01*
X122952239Y-82517106D02*
X122945496Y-82341947D01*
X122945496Y-82341947D02*
X122921528Y-82204195D01*
X122921528Y-82204195D02*
X122876452Y-82100632D01*
X122876452Y-82100632D02*
X122806072Y-82019856D01*
X122806072Y-82019856D02*
X122751257Y-81978455D01*
X122751257Y-81978455D02*
X122651624Y-81933728D01*
X122651624Y-81933728D02*
X122536145Y-81912967D01*
X122536145Y-81912967D02*
X122428801Y-81918525D01*
X122428801Y-81918525D02*
X122368736Y-81940943D01*
X122368736Y-81940943D02*
X122345165Y-81947323D01*
X122345165Y-81947323D02*
X122329523Y-81923535D01*
X122329523Y-81923535D02*
X122318605Y-81859788D01*
X122318605Y-81859788D02*
X122310345Y-81762687D01*
X122310345Y-81762687D02*
X122301301Y-81654541D01*
X122301301Y-81654541D02*
X122288739Y-81589475D01*
X122288739Y-81589475D02*
X122265881Y-81552268D01*
X122265881Y-81552268D02*
X122225949Y-81527699D01*
X122225949Y-81527699D02*
X122200862Y-81516819D01*
X122200862Y-81516819D02*
X122105977Y-81477072D01*
X122105977Y-81477072D02*
X122106086Y-82154455D01*
X122106086Y-82154455D02*
X122106086Y-82154455D01*
G36*
X122950219Y-82639135D02*
G01*
X122933739Y-82794320D01*
X122897883Y-82910612D01*
X122838455Y-82999411D01*
X122751257Y-83072119D01*
X122668195Y-83114150D01*
X122528709Y-83137538D01*
X122389412Y-83111965D01*
X122263510Y-83040694D01*
X122164210Y-82926991D01*
X122152219Y-82906024D01*
X122136384Y-82869291D01*
X122124638Y-82822415D01*
X122116378Y-82757355D01*
X122110998Y-82666070D01*
X122107892Y-82540519D01*
X122107797Y-82529379D01*
X122310345Y-82529379D01*
X122311035Y-82635644D01*
X122315400Y-82731762D01*
X122326192Y-82793811D01*
X122346126Y-82835502D01*
X122377916Y-82870543D01*
X122385364Y-82877279D01*
X122481060Y-82926992D01*
X122582312Y-82921905D01*
X122676614Y-82862362D01*
X122704694Y-82831514D01*
X122728196Y-82790618D01*
X122741322Y-82734080D01*
X122747030Y-82647657D01*
X122748276Y-82517106D01*
X122747661Y-82417487D01*
X122743407Y-82320251D01*
X122732682Y-82257502D01*
X122712707Y-82215382D01*
X122680704Y-82180032D01*
X122661905Y-82164114D01*
X122564492Y-82121235D01*
X122462437Y-82127985D01*
X122373825Y-82184123D01*
X122354749Y-82206382D01*
X122331486Y-82248293D01*
X122318036Y-82306822D01*
X122311841Y-82395880D01*
X122310345Y-82529379D01*
X122107797Y-82529379D01*
X122106457Y-82372661D01*
X122106086Y-82154455D01*
X122105977Y-81477072D01*
X122200862Y-81516819D01*
X122225949Y-81527699D01*
X122265881Y-81552268D01*
X122288739Y-81589475D01*
X122301301Y-81654541D01*
X122310345Y-81762687D01*
X122318605Y-81859788D01*
X122329523Y-81923535D01*
X122345165Y-81947323D01*
X122368736Y-81940943D01*
X122428801Y-81918525D01*
X122536145Y-81912967D01*
X122651624Y-81933728D01*
X122751257Y-81978455D01*
X122806072Y-82019856D01*
X122876452Y-82100632D01*
X122921528Y-82204195D01*
X122945496Y-82341947D01*
X122952239Y-82517106D01*
X122952553Y-82525287D01*
X122950219Y-82639135D01*
G37*
X122950219Y-82639135D02*
X122933739Y-82794320D01*
X122897883Y-82910612D01*
X122838455Y-82999411D01*
X122751257Y-83072119D01*
X122668195Y-83114150D01*
X122528709Y-83137538D01*
X122389412Y-83111965D01*
X122263510Y-83040694D01*
X122164210Y-82926991D01*
X122152219Y-82906024D01*
X122136384Y-82869291D01*
X122124638Y-82822415D01*
X122116378Y-82757355D01*
X122110998Y-82666070D01*
X122107892Y-82540519D01*
X122107797Y-82529379D01*
X122310345Y-82529379D01*
X122311035Y-82635644D01*
X122315400Y-82731762D01*
X122326192Y-82793811D01*
X122346126Y-82835502D01*
X122377916Y-82870543D01*
X122385364Y-82877279D01*
X122481060Y-82926992D01*
X122582312Y-82921905D01*
X122676614Y-82862362D01*
X122704694Y-82831514D01*
X122728196Y-82790618D01*
X122741322Y-82734080D01*
X122747030Y-82647657D01*
X122748276Y-82517106D01*
X122747661Y-82417487D01*
X122743407Y-82320251D01*
X122732682Y-82257502D01*
X122712707Y-82215382D01*
X122680704Y-82180032D01*
X122661905Y-82164114D01*
X122564492Y-82121235D01*
X122462437Y-82127985D01*
X122373825Y-82184123D01*
X122354749Y-82206382D01*
X122331486Y-82248293D01*
X122318036Y-82306822D01*
X122311841Y-82395880D01*
X122310345Y-82529379D01*
X122107797Y-82529379D01*
X122106457Y-82372661D01*
X122106086Y-82154455D01*
X122105977Y-81477072D01*
X122200862Y-81516819D01*
X122225949Y-81527699D01*
X122265881Y-81552268D01*
X122288739Y-81589475D01*
X122301301Y-81654541D01*
X122310345Y-81762687D01*
X122318605Y-81859788D01*
X122329523Y-81923535D01*
X122345165Y-81947323D01*
X122368736Y-81940943D01*
X122428801Y-81918525D01*
X122536145Y-81912967D01*
X122651624Y-81933728D01*
X122751257Y-81978455D01*
X122806072Y-82019856D01*
X122876452Y-82100632D01*
X122921528Y-82204195D01*
X122945496Y-82341947D01*
X122952239Y-82517106D01*
X122952553Y-82525287D01*
X122950219Y-82639135D01*
X128184448Y-81884676D02*
X128069342Y-81962111D01*
X128069342Y-81962111D02*
X127980389Y-82073949D01*
X127980389Y-82073949D02*
X127927251Y-82216265D01*
X127927251Y-82216265D02*
X127916503Y-82321015D01*
X127916503Y-82321015D02*
X127917724Y-82364726D01*
X127917724Y-82364726D02*
X127927944Y-82398194D01*
X127927944Y-82398194D02*
X127956039Y-82428179D01*
X127956039Y-82428179D02*
X128010884Y-82461440D01*
X128010884Y-82461440D02*
X128101355Y-82504738D01*
X128101355Y-82504738D02*
X128236328Y-82564833D01*
X128236328Y-82564833D02*
X128237011Y-82565134D01*
X128237011Y-82565134D02*
X128361249Y-82622037D01*
X128361249Y-82622037D02*
X128463127Y-82672565D01*
X128463127Y-82672565D02*
X128532233Y-82711280D01*
X128532233Y-82711280D02*
X128558154Y-82732740D01*
X128558154Y-82732740D02*
X128558161Y-82732913D01*
X128558161Y-82732913D02*
X128535315Y-82779644D01*
X128535315Y-82779644D02*
X128481891Y-82831154D01*
X128481891Y-82831154D02*
X128420558Y-82868261D01*
X128420558Y-82868261D02*
X128389485Y-82875632D01*
X128389485Y-82875632D02*
X128304711Y-82850138D01*
X128304711Y-82850138D02*
X128231707Y-82786291D01*
X128231707Y-82786291D02*
X128196087Y-82716094D01*
X128196087Y-82716094D02*
X128161820Y-82664343D01*
X128161820Y-82664343D02*
X128094697Y-82605409D01*
X128094697Y-82605409D02*
X128015792Y-82554496D01*
X128015792Y-82554496D02*
X127946179Y-82526809D01*
X127946179Y-82526809D02*
X127931623Y-82525287D01*
X127931623Y-82525287D02*
X127915237Y-82550321D01*
X127915237Y-82550321D02*
X127914250Y-82614311D01*
X127914250Y-82614311D02*
X127926292Y-82700593D01*
X127926292Y-82700593D02*
X127948993Y-82792501D01*
X127948993Y-82792501D02*
X127979986Y-82873369D01*
X127979986Y-82873369D02*
X127981552Y-82876509D01*
X127981552Y-82876509D02*
X128074819Y-83006734D01*
X128074819Y-83006734D02*
X128195696Y-83095311D01*
X128195696Y-83095311D02*
X128332973Y-83138786D01*
X128332973Y-83138786D02*
X128475440Y-83133706D01*
X128475440Y-83133706D02*
X128611888Y-83076616D01*
X128611888Y-83076616D02*
X128617955Y-83072602D01*
X128617955Y-83072602D02*
X128725290Y-82975326D01*
X128725290Y-82975326D02*
X128795868Y-82848409D01*
X128795868Y-82848409D02*
X128834926Y-82681526D01*
X128834926Y-82681526D02*
X128840168Y-82634639D01*
X128840168Y-82634639D02*
X128849452Y-82413329D01*
X128849452Y-82413329D02*
X128838322Y-82310124D01*
X128838322Y-82310124D02*
X128558161Y-82310124D01*
X128558161Y-82310124D02*
X128554521Y-82374503D01*
X128554521Y-82374503D02*
X128534611Y-82393291D01*
X128534611Y-82393291D02*
X128484974Y-82379235D01*
X128484974Y-82379235D02*
X128406733Y-82346009D01*
X128406733Y-82346009D02*
X128319274Y-82304359D01*
X128319274Y-82304359D02*
X128317101Y-82303256D01*
X128317101Y-82303256D02*
X128242970Y-82264265D01*
X128242970Y-82264265D02*
X128213219Y-82238244D01*
X128213219Y-82238244D02*
X128220555Y-82210965D01*
X128220555Y-82210965D02*
X128251447Y-82175121D01*
X128251447Y-82175121D02*
X128330040Y-82123251D01*
X128330040Y-82123251D02*
X128414677Y-82119439D01*
X128414677Y-82119439D02*
X128490597Y-82157189D01*
X128490597Y-82157189D02*
X128543035Y-82230001D01*
X128543035Y-82230001D02*
X128558161Y-82310124D01*
X128558161Y-82310124D02*
X128838322Y-82310124D01*
X128838322Y-82310124D02*
X128830356Y-82236261D01*
X128830356Y-82236261D02*
X128781366Y-82095829D01*
X128781366Y-82095829D02*
X128713164Y-81997447D01*
X128713164Y-81997447D02*
X128590065Y-81898030D01*
X128590065Y-81898030D02*
X128454472Y-81848711D01*
X128454472Y-81848711D02*
X128316045Y-81845568D01*
X128316045Y-81845568D02*
X128184448Y-81884676D01*
X128184448Y-81884676D02*
X128184448Y-81884676D01*
G36*
X128840168Y-82634639D02*
G01*
X128834926Y-82681526D01*
X128795868Y-82848409D01*
X128725290Y-82975326D01*
X128617955Y-83072602D01*
X128611888Y-83076616D01*
X128475440Y-83133706D01*
X128332973Y-83138786D01*
X128195696Y-83095311D01*
X128074819Y-83006734D01*
X127981552Y-82876509D01*
X127979986Y-82873369D01*
X127948993Y-82792501D01*
X127926292Y-82700593D01*
X127914250Y-82614311D01*
X127915237Y-82550321D01*
X127931623Y-82525287D01*
X127946179Y-82526809D01*
X128015792Y-82554496D01*
X128094697Y-82605409D01*
X128161820Y-82664343D01*
X128196087Y-82716094D01*
X128231707Y-82786291D01*
X128304711Y-82850138D01*
X128389485Y-82875632D01*
X128420558Y-82868261D01*
X128481891Y-82831154D01*
X128535315Y-82779644D01*
X128558161Y-82732913D01*
X128558154Y-82732740D01*
X128532233Y-82711280D01*
X128463127Y-82672565D01*
X128361249Y-82622037D01*
X128237011Y-82565134D01*
X128236328Y-82564833D01*
X128101355Y-82504738D01*
X128010884Y-82461440D01*
X127956039Y-82428179D01*
X127927944Y-82398194D01*
X127917724Y-82364726D01*
X127916503Y-82321015D01*
X127924996Y-82238244D01*
X128213219Y-82238244D01*
X128242970Y-82264265D01*
X128317101Y-82303256D01*
X128319274Y-82304359D01*
X128406733Y-82346009D01*
X128484974Y-82379235D01*
X128534611Y-82393291D01*
X128554521Y-82374503D01*
X128558161Y-82310124D01*
X128543035Y-82230001D01*
X128490597Y-82157189D01*
X128414677Y-82119439D01*
X128330040Y-82123251D01*
X128251447Y-82175121D01*
X128220555Y-82210965D01*
X128213219Y-82238244D01*
X127924996Y-82238244D01*
X127927251Y-82216265D01*
X127980389Y-82073949D01*
X128069342Y-81962111D01*
X128184448Y-81884676D01*
X128316045Y-81845568D01*
X128454472Y-81848711D01*
X128590065Y-81898030D01*
X128713164Y-81997447D01*
X128781366Y-82095829D01*
X128830356Y-82236261D01*
X128838322Y-82310124D01*
X128849452Y-82413329D01*
X128840168Y-82634639D01*
G37*
X128840168Y-82634639D02*
X128834926Y-82681526D01*
X128795868Y-82848409D01*
X128725290Y-82975326D01*
X128617955Y-83072602D01*
X128611888Y-83076616D01*
X128475440Y-83133706D01*
X128332973Y-83138786D01*
X128195696Y-83095311D01*
X128074819Y-83006734D01*
X127981552Y-82876509D01*
X127979986Y-82873369D01*
X127948993Y-82792501D01*
X127926292Y-82700593D01*
X127914250Y-82614311D01*
X127915237Y-82550321D01*
X127931623Y-82525287D01*
X127946179Y-82526809D01*
X128015792Y-82554496D01*
X128094697Y-82605409D01*
X128161820Y-82664343D01*
X128196087Y-82716094D01*
X128231707Y-82786291D01*
X128304711Y-82850138D01*
X128389485Y-82875632D01*
X128420558Y-82868261D01*
X128481891Y-82831154D01*
X128535315Y-82779644D01*
X128558161Y-82732913D01*
X128558154Y-82732740D01*
X128532233Y-82711280D01*
X128463127Y-82672565D01*
X128361249Y-82622037D01*
X128237011Y-82565134D01*
X128236328Y-82564833D01*
X128101355Y-82504738D01*
X128010884Y-82461440D01*
X127956039Y-82428179D01*
X127927944Y-82398194D01*
X127917724Y-82364726D01*
X127916503Y-82321015D01*
X127924996Y-82238244D01*
X128213219Y-82238244D01*
X128242970Y-82264265D01*
X128317101Y-82303256D01*
X128319274Y-82304359D01*
X128406733Y-82346009D01*
X128484974Y-82379235D01*
X128534611Y-82393291D01*
X128554521Y-82374503D01*
X128558161Y-82310124D01*
X128543035Y-82230001D01*
X128490597Y-82157189D01*
X128414677Y-82119439D01*
X128330040Y-82123251D01*
X128251447Y-82175121D01*
X128220555Y-82210965D01*
X128213219Y-82238244D01*
X127924996Y-82238244D01*
X127927251Y-82216265D01*
X127980389Y-82073949D01*
X128069342Y-81962111D01*
X128184448Y-81884676D01*
X128316045Y-81845568D01*
X128454472Y-81848711D01*
X128590065Y-81898030D01*
X128713164Y-81997447D01*
X128781366Y-82095829D01*
X128830356Y-82236261D01*
X128838322Y-82310124D01*
X128849452Y-82413329D01*
X128840168Y-82634639D01*
X124290986Y-72452998D02*
X124132994Y-72453863D01*
X124132994Y-72453863D02*
X124018653Y-72456205D01*
X124018653Y-72456205D02*
X123940593Y-72460762D01*
X123940593Y-72460762D02*
X123891446Y-72468270D01*
X123891446Y-72468270D02*
X123863841Y-72479466D01*
X123863841Y-72479466D02*
X123850408Y-72495088D01*
X123850408Y-72495088D02*
X123843779Y-72515873D01*
X123843779Y-72515873D02*
X123843135Y-72518563D01*
X123843135Y-72518563D02*
X123833065Y-72567113D01*
X123833065Y-72567113D02*
X123814425Y-72662905D01*
X123814425Y-72662905D02*
X123789155Y-72795743D01*
X123789155Y-72795743D02*
X123759193Y-72955431D01*
X123759193Y-72955431D02*
X123726478Y-73131774D01*
X123726478Y-73131774D02*
X123725336Y-73137967D01*
X123725336Y-73137967D02*
X123692567Y-73310782D01*
X123692567Y-73310782D02*
X123661907Y-73463469D01*
X123661907Y-73463469D02*
X123635336Y-73586871D01*
X123635336Y-73586871D02*
X123614833Y-73671831D01*
X123614833Y-73671831D02*
X123602374Y-73709190D01*
X123602374Y-73709190D02*
X123601780Y-73709852D01*
X123601780Y-73709852D02*
X123565081Y-73728095D01*
X123565081Y-73728095D02*
X123489414Y-73758497D01*
X123489414Y-73758497D02*
X123391122Y-73794493D01*
X123391122Y-73794493D02*
X123390575Y-73794685D01*
X123390575Y-73794685D02*
X123266767Y-73841222D01*
X123266767Y-73841222D02*
X123120804Y-73900504D01*
X123120804Y-73900504D02*
X122983219Y-73960109D01*
X122983219Y-73960109D02*
X122976707Y-73963056D01*
X122976707Y-73963056D02*
X122752610Y-74064765D01*
X122752610Y-74064765D02*
X122256381Y-73725897D01*
X122256381Y-73725897D02*
X122104154Y-73622592D01*
X122104154Y-73622592D02*
X121966259Y-73530237D01*
X121966259Y-73530237D02*
X121850685Y-73454084D01*
X121850685Y-73454084D02*
X121765421Y-73399385D01*
X121765421Y-73399385D02*
X121718456Y-73371393D01*
X121718456Y-73371393D02*
X121713996Y-73369317D01*
X121713996Y-73369317D02*
X121679866Y-73378560D01*
X121679866Y-73378560D02*
X121616119Y-73423156D01*
X121616119Y-73423156D02*
X121520269Y-73505209D01*
X121520269Y-73505209D02*
X121389831Y-73626821D01*
X121389831Y-73626821D02*
X121256672Y-73756205D01*
X121256672Y-73756205D02*
X121128306Y-73883702D01*
X121128306Y-73883702D02*
X121013419Y-74000046D01*
X121013419Y-74000046D02*
X120918927Y-74098052D01*
X120918927Y-74098052D02*
X120851747Y-74170536D01*
X120851747Y-74170536D02*
X120818794Y-74210313D01*
X120818794Y-74210313D02*
X120817568Y-74212361D01*
X120817568Y-74212361D02*
X120813926Y-74239656D01*
X120813926Y-74239656D02*
X120827650Y-74284234D01*
X120827650Y-74284234D02*
X120862131Y-74352112D01*
X120862131Y-74352112D02*
X120920761Y-74449311D01*
X120920761Y-74449311D02*
X121006930Y-74581851D01*
X121006930Y-74581851D02*
X121121800Y-74752476D01*
X121121800Y-74752476D02*
X121223746Y-74902655D01*
X121223746Y-74902655D02*
X121314877Y-75037350D01*
X121314877Y-75037350D02*
X121389927Y-75148740D01*
X121389927Y-75148740D02*
X121443631Y-75229005D01*
X121443631Y-75229005D02*
X121470720Y-75270325D01*
X121470720Y-75270325D02*
X121472426Y-75273130D01*
X121472426Y-75273130D02*
X121469118Y-75312721D01*
X121469118Y-75312721D02*
X121444047Y-75389669D01*
X121444047Y-75389669D02*
X121402202Y-75489432D01*
X121402202Y-75489432D02*
X121387288Y-75521291D01*
X121387288Y-75521291D02*
X121322214Y-75663226D01*
X121322214Y-75663226D02*
X121252788Y-75824273D01*
X121252788Y-75824273D02*
X121196391Y-75963621D01*
X121196391Y-75963621D02*
X121155753Y-76067044D01*
X121155753Y-76067044D02*
X121123474Y-76145642D01*
X121123474Y-76145642D02*
X121104822Y-76186720D01*
X121104822Y-76186720D02*
X121102503Y-76189885D01*
X121102503Y-76189885D02*
X121068197Y-76195128D01*
X121068197Y-76195128D02*
X120987331Y-76209494D01*
X120987331Y-76209494D02*
X120870657Y-76230937D01*
X120870657Y-76230937D02*
X120728925Y-76257413D01*
X120728925Y-76257413D02*
X120572890Y-76286877D01*
X120572890Y-76286877D02*
X120413302Y-76317283D01*
X120413302Y-76317283D02*
X120260915Y-76346588D01*
X120260915Y-76346588D02*
X120126479Y-76372745D01*
X120126479Y-76372745D02*
X120020748Y-76393710D01*
X120020748Y-76393710D02*
X119954474Y-76407439D01*
X119954474Y-76407439D02*
X119938218Y-76411320D01*
X119938218Y-76411320D02*
X119921427Y-76420900D01*
X119921427Y-76420900D02*
X119908751Y-76442536D01*
X119908751Y-76442536D02*
X119899622Y-76483531D01*
X119899622Y-76483531D02*
X119893469Y-76551189D01*
X119893469Y-76551189D02*
X119889720Y-76652812D01*
X119889720Y-76652812D02*
X119887808Y-76795703D01*
X119887808Y-76795703D02*
X119887160Y-76987165D01*
X119887160Y-76987165D02*
X119887126Y-77065645D01*
X119887126Y-77065645D02*
X119887126Y-77703906D01*
X119887126Y-77703906D02*
X120040402Y-77734160D01*
X120040402Y-77734160D02*
X120125678Y-77750564D01*
X120125678Y-77750564D02*
X120252930Y-77774509D01*
X120252930Y-77774509D02*
X120406685Y-77803107D01*
X120406685Y-77803107D02*
X120571466Y-77833467D01*
X120571466Y-77833467D02*
X120617011Y-77841806D01*
X120617011Y-77841806D02*
X120769068Y-77871370D01*
X120769068Y-77871370D02*
X120901532Y-77900442D01*
X120901532Y-77900442D02*
X121003286Y-77926329D01*
X121003286Y-77926329D02*
X121063212Y-77946337D01*
X121063212Y-77946337D02*
X121073195Y-77952301D01*
X121073195Y-77952301D02*
X121097707Y-77994534D01*
X121097707Y-77994534D02*
X121132852Y-78076370D01*
X121132852Y-78076370D02*
X121171827Y-78181683D01*
X121171827Y-78181683D02*
X121179558Y-78204368D01*
X121179558Y-78204368D02*
X121230640Y-78345018D01*
X121230640Y-78345018D02*
X121294046Y-78503714D01*
X121294046Y-78503714D02*
X121356096Y-78646225D01*
X121356096Y-78646225D02*
X121356402Y-78646886D01*
X121356402Y-78646886D02*
X121459733Y-78870440D01*
X121459733Y-78870440D02*
X120780039Y-79870232D01*
X120780039Y-79870232D02*
X121216379Y-80307300D01*
X121216379Y-80307300D02*
X121348351Y-80437381D01*
X121348351Y-80437381D02*
X121468721Y-80552048D01*
X121468721Y-80552048D02*
X121570727Y-80645181D01*
X121570727Y-80645181D02*
X121647609Y-80710658D01*
X121647609Y-80710658D02*
X121692607Y-80742357D01*
X121692607Y-80742357D02*
X121699062Y-80744368D01*
X121699062Y-80744368D02*
X121736960Y-80728529D01*
X121736960Y-80728529D02*
X121814292Y-80684496D01*
X121814292Y-80684496D02*
X121922611Y-80617490D01*
X121922611Y-80617490D02*
X122053468Y-80532734D01*
X122053468Y-80532734D02*
X122194948Y-80437816D01*
X122194948Y-80437816D02*
X122338539Y-80340998D01*
X122338539Y-80340998D02*
X122466565Y-80256751D01*
X122466565Y-80256751D02*
X122570895Y-80190258D01*
X122570895Y-80190258D02*
X122643400Y-80146702D01*
X122643400Y-80146702D02*
X122675842Y-80131264D01*
X122675842Y-80131264D02*
X122715424Y-80144328D01*
X122715424Y-80144328D02*
X122790481Y-80178750D01*
X122790481Y-80178750D02*
X122885532Y-80227380D01*
X122885532Y-80227380D02*
X122895608Y-80232785D01*
X122895608Y-80232785D02*
X123023609Y-80296980D01*
X123023609Y-80296980D02*
X123111382Y-80328463D01*
X123111382Y-80328463D02*
X123165972Y-80328798D01*
X123165972Y-80328798D02*
X123194425Y-80299548D01*
X123194425Y-80299548D02*
X123194590Y-80299138D01*
X123194590Y-80299138D02*
X123208812Y-80264498D01*
X123208812Y-80264498D02*
X123242731Y-80182269D01*
X123242731Y-80182269D02*
X123293716Y-80058814D01*
X123293716Y-80058814D02*
X123359138Y-79900498D01*
X123359138Y-79900498D02*
X123436366Y-79713686D01*
X123436366Y-79713686D02*
X123522771Y-79504742D01*
X123522771Y-79504742D02*
X123606449Y-79302446D01*
X123606449Y-79302446D02*
X123698412Y-79079200D01*
X123698412Y-79079200D02*
X123782850Y-78872392D01*
X123782850Y-78872392D02*
X123857231Y-78688362D01*
X123857231Y-78688362D02*
X123919026Y-78533451D01*
X123919026Y-78533451D02*
X123965703Y-78413996D01*
X123965703Y-78413996D02*
X123994732Y-78336339D01*
X123994732Y-78336339D02*
X124003678Y-78307356D01*
X124003678Y-78307356D02*
X123981244Y-78274110D01*
X123981244Y-78274110D02*
X123922561Y-78221123D01*
X123922561Y-78221123D02*
X123844311Y-78162704D01*
X123844311Y-78162704D02*
X123621466Y-77977952D01*
X123621466Y-77977952D02*
X123447282Y-77766182D01*
X123447282Y-77766182D02*
X123323846Y-77531856D01*
X123323846Y-77531856D02*
X123253246Y-77279434D01*
X123253246Y-77279434D02*
X123237569Y-77013377D01*
X123237569Y-77013377D02*
X123248964Y-76890575D01*
X123248964Y-76890575D02*
X123311050Y-76635793D01*
X123311050Y-76635793D02*
X123417977Y-76410801D01*
X123417977Y-76410801D02*
X123563111Y-76217817D01*
X123563111Y-76217817D02*
X123739822Y-76059061D01*
X123739822Y-76059061D02*
X123941478Y-75936750D01*
X123941478Y-75936750D02*
X124161446Y-75853105D01*
X124161446Y-75853105D02*
X124393094Y-75810344D01*
X124393094Y-75810344D02*
X124629791Y-75810687D01*
X124629791Y-75810687D02*
X124864905Y-75856352D01*
X124864905Y-75856352D02*
X125091804Y-75949559D01*
X125091804Y-75949559D02*
X125303856Y-76092527D01*
X125303856Y-76092527D02*
X125392364Y-76173383D01*
X125392364Y-76173383D02*
X125562111Y-76381007D01*
X125562111Y-76381007D02*
X125680301Y-76607895D01*
X125680301Y-76607895D02*
X125747722Y-76847433D01*
X125747722Y-76847433D02*
X125765160Y-77093007D01*
X125765160Y-77093007D02*
X125733402Y-77338003D01*
X125733402Y-77338003D02*
X125653235Y-77575808D01*
X125653235Y-77575808D02*
X125525445Y-77799807D01*
X125525445Y-77799807D02*
X125350820Y-78003387D01*
X125350820Y-78003387D02*
X125155688Y-78162704D01*
X125155688Y-78162704D02*
X125074409Y-78223602D01*
X125074409Y-78223602D02*
X125016991Y-78276015D01*
X125016991Y-78276015D02*
X124996322Y-78307406D01*
X124996322Y-78307406D02*
X125007144Y-78341639D01*
X125007144Y-78341639D02*
X125037923Y-78423419D01*
X125037923Y-78423419D02*
X125086126Y-78546407D01*
X125086126Y-78546407D02*
X125149222Y-78704263D01*
X125149222Y-78704263D02*
X125224678Y-78890649D01*
X125224678Y-78890649D02*
X125309962Y-79099226D01*
X125309962Y-79099226D02*
X125393781Y-79302496D01*
X125393781Y-79302496D02*
X125486255Y-79525933D01*
X125486255Y-79525933D02*
X125571911Y-79732984D01*
X125571911Y-79732984D02*
X125648118Y-79917286D01*
X125648118Y-79917286D02*
X125712247Y-80072475D01*
X125712247Y-80072475D02*
X125761668Y-80192188D01*
X125761668Y-80192188D02*
X125793752Y-80270061D01*
X125793752Y-80270061D02*
X125805641Y-80299138D01*
X125805641Y-80299138D02*
X125833726Y-80328677D01*
X125833726Y-80328677D02*
X125888051Y-80328591D01*
X125888051Y-80328591D02*
X125975605Y-80297326D01*
X125975605Y-80297326D02*
X126103381Y-80233329D01*
X126103381Y-80233329D02*
X126104392Y-80232785D01*
X126104392Y-80232785D02*
X126200598Y-80183121D01*
X126200598Y-80183121D02*
X126278369Y-80146945D01*
X126278369Y-80146945D02*
X126322223Y-80131408D01*
X126322223Y-80131408D02*
X126324158Y-80131264D01*
X126324158Y-80131264D02*
X126357171Y-80147024D01*
X126357171Y-80147024D02*
X126430054Y-80190850D01*
X126430054Y-80190850D02*
X126534678Y-80257557D01*
X126534678Y-80257557D02*
X126662910Y-80341964D01*
X126662910Y-80341964D02*
X126805052Y-80437816D01*
X126805052Y-80437816D02*
X126949767Y-80534867D01*
X126949767Y-80534867D02*
X127080196Y-80619270D01*
X127080196Y-80619270D02*
X127187890Y-80685801D01*
X127187890Y-80685801D02*
X127264402Y-80729238D01*
X127264402Y-80729238D02*
X127300938Y-80744368D01*
X127300938Y-80744368D02*
X127334582Y-80724482D01*
X127334582Y-80724482D02*
X127402224Y-80668903D01*
X127402224Y-80668903D02*
X127497107Y-80583754D01*
X127497107Y-80583754D02*
X127612470Y-80475153D01*
X127612470Y-80475153D02*
X127741555Y-80349221D01*
X127741555Y-80349221D02*
X127783771Y-80307149D01*
X127783771Y-80307149D02*
X128220261Y-79869931D01*
X128220261Y-79869931D02*
X127888023Y-79382340D01*
X127888023Y-79382340D02*
X127787054Y-79232605D01*
X127787054Y-79232605D02*
X127698438Y-79098220D01*
X127698438Y-79098220D02*
X127627146Y-78986969D01*
X127627146Y-78986969D02*
X127578150Y-78906639D01*
X127578150Y-78906639D02*
X127556422Y-78865014D01*
X127556422Y-78865014D02*
X127555785Y-78862053D01*
X127555785Y-78862053D02*
X127567240Y-78822818D01*
X127567240Y-78822818D02*
X127598051Y-78743895D01*
X127598051Y-78743895D02*
X127642884Y-78638509D01*
X127642884Y-78638509D02*
X127674353Y-78567954D01*
X127674353Y-78567954D02*
X127733192Y-78432876D01*
X127733192Y-78432876D02*
X127788604Y-78296409D01*
X127788604Y-78296409D02*
X127831564Y-78181103D01*
X127831564Y-78181103D02*
X127843234Y-78145977D01*
X127843234Y-78145977D02*
X127876389Y-78052174D01*
X127876389Y-78052174D02*
X127908799Y-77979694D01*
X127908799Y-77979694D02*
X127926601Y-77952301D01*
X127926601Y-77952301D02*
X127965886Y-77935536D01*
X127965886Y-77935536D02*
X128051626Y-77911770D01*
X128051626Y-77911770D02*
X128172697Y-77883697D01*
X128172697Y-77883697D02*
X128317973Y-77854009D01*
X128317973Y-77854009D02*
X128382988Y-77841806D01*
X128382988Y-77841806D02*
X128548087Y-77811468D01*
X128548087Y-77811468D02*
X128706448Y-77782093D01*
X128706448Y-77782093D02*
X128842596Y-77756569D01*
X128842596Y-77756569D02*
X128941057Y-77737785D01*
X128941057Y-77737785D02*
X128959598Y-77734160D01*
X128959598Y-77734160D02*
X129112873Y-77703906D01*
X129112873Y-77703906D02*
X129112873Y-77065645D01*
X129112873Y-77065645D02*
X129112529Y-76855770D01*
X129112529Y-76855770D02*
X129111116Y-76696980D01*
X129111116Y-76696980D02*
X129108064Y-76581973D01*
X129108064Y-76581973D02*
X129102803Y-76503446D01*
X129102803Y-76503446D02*
X129094763Y-76454096D01*
X129094763Y-76454096D02*
X129083373Y-76426619D01*
X129083373Y-76426619D02*
X129068063Y-76413713D01*
X129068063Y-76413713D02*
X129061782Y-76411320D01*
X129061782Y-76411320D02*
X129023896Y-76402833D01*
X129023896Y-76402833D02*
X128940195Y-76385900D01*
X128940195Y-76385900D02*
X128821433Y-76362566D01*
X128821433Y-76362566D02*
X128678361Y-76334875D01*
X128678361Y-76334875D02*
X128521732Y-76304873D01*
X128521732Y-76304873D02*
X128362297Y-76274604D01*
X128362297Y-76274604D02*
X128210809Y-76246115D01*
X128210809Y-76246115D02*
X128078019Y-76221449D01*
X128078019Y-76221449D02*
X127974681Y-76202651D01*
X127974681Y-76202651D02*
X127911545Y-76191767D01*
X127911545Y-76191767D02*
X127897497Y-76189885D01*
X127897497Y-76189885D02*
X127884770Y-76164704D01*
X127884770Y-76164704D02*
X127856600Y-76097622D01*
X127856600Y-76097622D02*
X127818252Y-76001333D01*
X127818252Y-76001333D02*
X127803609Y-75963621D01*
X127803609Y-75963621D02*
X127744548Y-75817921D01*
X127744548Y-75817921D02*
X127675000Y-75656951D01*
X127675000Y-75656951D02*
X127612712Y-75521291D01*
X127612712Y-75521291D02*
X127566879Y-75417561D01*
X127566879Y-75417561D02*
X127536387Y-75332326D01*
X127536387Y-75332326D02*
X127526208Y-75280126D01*
X127526208Y-75280126D02*
X127527831Y-75273130D01*
X127527831Y-75273130D02*
X127549343Y-75240102D01*
X127549343Y-75240102D02*
X127598465Y-75166643D01*
X127598465Y-75166643D02*
X127669923Y-75060577D01*
X127669923Y-75060577D02*
X127758445Y-74929726D01*
X127758445Y-74929726D02*
X127858759Y-74781912D01*
X127858759Y-74781912D02*
X127878594Y-74752734D01*
X127878594Y-74752734D02*
X127994988Y-74579863D01*
X127994988Y-74579863D02*
X128080548Y-74448226D01*
X128080548Y-74448226D02*
X128138684Y-74351761D01*
X128138684Y-74351761D02*
X128172808Y-74284408D01*
X128172808Y-74284408D02*
X128186331Y-74240106D01*
X128186331Y-74240106D02*
X128182664Y-74212794D01*
X128182664Y-74212794D02*
X128182570Y-74212620D01*
X128182570Y-74212620D02*
X128153707Y-74176746D01*
X128153707Y-74176746D02*
X128089867Y-74107391D01*
X128089867Y-74107391D02*
X127997969Y-74011745D01*
X127997969Y-74011745D02*
X127884933Y-73896999D01*
X127884933Y-73896999D02*
X127757679Y-73770341D01*
X127757679Y-73770341D02*
X127743328Y-73756205D01*
X127743328Y-73756205D02*
X127582957Y-73600903D01*
X127582957Y-73600903D02*
X127459195Y-73486870D01*
X127459195Y-73486870D02*
X127369555Y-73412002D01*
X127369555Y-73412002D02*
X127311552Y-73374196D01*
X127311552Y-73374196D02*
X127286004Y-73369317D01*
X127286004Y-73369317D02*
X127248718Y-73390603D01*
X127248718Y-73390603D02*
X127171343Y-73439773D01*
X127171343Y-73439773D02*
X127061867Y-73511575D01*
X127061867Y-73511575D02*
X126928280Y-73600755D01*
X126928280Y-73600755D02*
X126778570Y-73702063D01*
X126778570Y-73702063D02*
X126743618Y-73725897D01*
X126743618Y-73725897D02*
X126247390Y-74064765D01*
X126247390Y-74064765D02*
X126023293Y-73963056D01*
X126023293Y-73963056D02*
X125887011Y-73903783D01*
X125887011Y-73903783D02*
X125740724Y-73844170D01*
X125740724Y-73844170D02*
X125614965Y-73796640D01*
X125614965Y-73796640D02*
X125609425Y-73794685D01*
X125609425Y-73794685D02*
X125511057Y-73758677D01*
X125511057Y-73758677D02*
X125435229Y-73728229D01*
X125435229Y-73728229D02*
X125398282Y-73709905D01*
X125398282Y-73709905D02*
X125398220Y-73709852D01*
X125398220Y-73709852D02*
X125386496Y-73676729D01*
X125386496Y-73676729D02*
X125366568Y-73595267D01*
X125366568Y-73595267D02*
X125340413Y-73474625D01*
X125340413Y-73474625D02*
X125310010Y-73323959D01*
X125310010Y-73323959D02*
X125277337Y-73152428D01*
X125277337Y-73152428D02*
X125274664Y-73137967D01*
X125274664Y-73137967D02*
X125241890Y-72961235D01*
X125241890Y-72961235D02*
X125211802Y-72800810D01*
X125211802Y-72800810D02*
X125186339Y-72666888D01*
X125186339Y-72666888D02*
X125167441Y-72569663D01*
X125167441Y-72569663D02*
X125157047Y-72519332D01*
X125157047Y-72519332D02*
X125156865Y-72518563D01*
X125156865Y-72518563D02*
X125150539Y-72497153D01*
X125150539Y-72497153D02*
X125138239Y-72480988D01*
X125138239Y-72480988D02*
X125112594Y-72469331D01*
X125112594Y-72469331D02*
X125066235Y-72461445D01*
X125066235Y-72461445D02*
X124991792Y-72456593D01*
X124991792Y-72456593D02*
X124881895Y-72454039D01*
X124881895Y-72454039D02*
X124729175Y-72453045D01*
X124729175Y-72453045D02*
X124526262Y-72452874D01*
X124526262Y-72452874D02*
X124500000Y-72452874D01*
X124500000Y-72452874D02*
X124290986Y-72452998D01*
X124290986Y-72452998D02*
X124290986Y-72452998D01*
G36*
X124729175Y-72453045D02*
G01*
X124881895Y-72454039D01*
X124991792Y-72456593D01*
X125066235Y-72461445D01*
X125112594Y-72469331D01*
X125138239Y-72480988D01*
X125150539Y-72497153D01*
X125156865Y-72518563D01*
X125157047Y-72519332D01*
X125167441Y-72569663D01*
X125186339Y-72666888D01*
X125211802Y-72800810D01*
X125241890Y-72961235D01*
X125274664Y-73137967D01*
X125277337Y-73152428D01*
X125310010Y-73323959D01*
X125340413Y-73474625D01*
X125366568Y-73595267D01*
X125386496Y-73676729D01*
X125398220Y-73709852D01*
X125398282Y-73709905D01*
X125435229Y-73728229D01*
X125511057Y-73758677D01*
X125609425Y-73794685D01*
X125614965Y-73796640D01*
X125740724Y-73844170D01*
X125887011Y-73903783D01*
X126023293Y-73963056D01*
X126247390Y-74064765D01*
X126743618Y-73725897D01*
X126778570Y-73702063D01*
X126928280Y-73600755D01*
X127061867Y-73511575D01*
X127171343Y-73439773D01*
X127248718Y-73390603D01*
X127286004Y-73369317D01*
X127311552Y-73374196D01*
X127369555Y-73412002D01*
X127459195Y-73486870D01*
X127582957Y-73600903D01*
X127743328Y-73756205D01*
X127757679Y-73770341D01*
X127884933Y-73896999D01*
X127997969Y-74011745D01*
X128089867Y-74107391D01*
X128153707Y-74176746D01*
X128182570Y-74212620D01*
X128182664Y-74212794D01*
X128186331Y-74240106D01*
X128172808Y-74284408D01*
X128138684Y-74351761D01*
X128080548Y-74448226D01*
X127994988Y-74579863D01*
X127878594Y-74752734D01*
X127858759Y-74781912D01*
X127758445Y-74929726D01*
X127669923Y-75060577D01*
X127598465Y-75166643D01*
X127549343Y-75240102D01*
X127527831Y-75273130D01*
X127526208Y-75280126D01*
X127536387Y-75332326D01*
X127566879Y-75417561D01*
X127612712Y-75521291D01*
X127675000Y-75656951D01*
X127744548Y-75817921D01*
X127803609Y-75963621D01*
X127818252Y-76001333D01*
X127856600Y-76097622D01*
X127884770Y-76164704D01*
X127897497Y-76189885D01*
X127911545Y-76191767D01*
X127974681Y-76202651D01*
X128078019Y-76221449D01*
X128210809Y-76246115D01*
X128362297Y-76274604D01*
X128521732Y-76304873D01*
X128678361Y-76334875D01*
X128821433Y-76362566D01*
X128940195Y-76385900D01*
X129023896Y-76402833D01*
X129061782Y-76411320D01*
X129068063Y-76413713D01*
X129083373Y-76426619D01*
X129094763Y-76454096D01*
X129102803Y-76503446D01*
X129108064Y-76581973D01*
X129111116Y-76696980D01*
X129112529Y-76855770D01*
X129112873Y-77065645D01*
X129112873Y-77703906D01*
X128959598Y-77734160D01*
X128941057Y-77737785D01*
X128842596Y-77756569D01*
X128706448Y-77782093D01*
X128548087Y-77811468D01*
X128382988Y-77841806D01*
X128317973Y-77854009D01*
X128172697Y-77883697D01*
X128051626Y-77911770D01*
X127965886Y-77935536D01*
X127926601Y-77952301D01*
X127908799Y-77979694D01*
X127876389Y-78052174D01*
X127843234Y-78145977D01*
X127831564Y-78181103D01*
X127788604Y-78296409D01*
X127733192Y-78432876D01*
X127674353Y-78567954D01*
X127642884Y-78638509D01*
X127598051Y-78743895D01*
X127567240Y-78822818D01*
X127555785Y-78862053D01*
X127556422Y-78865014D01*
X127578150Y-78906639D01*
X127627146Y-78986969D01*
X127698438Y-79098220D01*
X127787054Y-79232605D01*
X127888023Y-79382340D01*
X128220261Y-79869931D01*
X127783771Y-80307149D01*
X127741555Y-80349221D01*
X127612470Y-80475153D01*
X127497107Y-80583754D01*
X127402224Y-80668903D01*
X127334582Y-80724482D01*
X127300938Y-80744368D01*
X127264402Y-80729238D01*
X127187890Y-80685801D01*
X127080196Y-80619270D01*
X126949767Y-80534867D01*
X126805052Y-80437816D01*
X126662910Y-80341964D01*
X126534678Y-80257557D01*
X126430054Y-80190850D01*
X126357171Y-80147024D01*
X126324158Y-80131264D01*
X126322223Y-80131408D01*
X126278369Y-80146945D01*
X126200598Y-80183121D01*
X126104392Y-80232785D01*
X126103381Y-80233329D01*
X125975605Y-80297326D01*
X125888051Y-80328591D01*
X125833726Y-80328677D01*
X125805641Y-80299138D01*
X125793752Y-80270061D01*
X125761668Y-80192188D01*
X125712247Y-80072475D01*
X125648118Y-79917286D01*
X125571911Y-79732984D01*
X125486255Y-79525933D01*
X125393781Y-79302496D01*
X125309962Y-79099226D01*
X125224678Y-78890649D01*
X125149222Y-78704263D01*
X125086126Y-78546407D01*
X125037923Y-78423419D01*
X125007144Y-78341639D01*
X124996322Y-78307406D01*
X125016991Y-78276015D01*
X125074409Y-78223602D01*
X125155688Y-78162704D01*
X125350820Y-78003387D01*
X125525445Y-77799807D01*
X125653235Y-77575808D01*
X125733402Y-77338003D01*
X125765160Y-77093007D01*
X125747722Y-76847433D01*
X125680301Y-76607895D01*
X125562111Y-76381007D01*
X125392364Y-76173383D01*
X125303856Y-76092527D01*
X125091804Y-75949559D01*
X124864905Y-75856352D01*
X124629791Y-75810687D01*
X124393094Y-75810344D01*
X124161446Y-75853105D01*
X123941478Y-75936750D01*
X123739822Y-76059061D01*
X123563111Y-76217817D01*
X123417977Y-76410801D01*
X123311050Y-76635793D01*
X123248964Y-76890575D01*
X123237569Y-77013377D01*
X123253246Y-77279434D01*
X123323846Y-77531856D01*
X123447282Y-77766182D01*
X123621466Y-77977952D01*
X123844311Y-78162704D01*
X123922561Y-78221123D01*
X123981244Y-78274110D01*
X124003678Y-78307356D01*
X123994732Y-78336339D01*
X123965703Y-78413996D01*
X123919026Y-78533451D01*
X123857231Y-78688362D01*
X123782850Y-78872392D01*
X123698412Y-79079200D01*
X123606449Y-79302446D01*
X123522771Y-79504742D01*
X123436366Y-79713686D01*
X123359138Y-79900498D01*
X123293716Y-80058814D01*
X123242731Y-80182269D01*
X123208812Y-80264498D01*
X123194590Y-80299138D01*
X123194425Y-80299548D01*
X123165972Y-80328798D01*
X123111382Y-80328463D01*
X123023609Y-80296980D01*
X122895608Y-80232785D01*
X122885532Y-80227380D01*
X122790481Y-80178750D01*
X122715424Y-80144328D01*
X122675842Y-80131264D01*
X122643400Y-80146702D01*
X122570895Y-80190258D01*
X122466565Y-80256751D01*
X122338539Y-80340998D01*
X122194948Y-80437816D01*
X122053468Y-80532734D01*
X121922611Y-80617490D01*
X121814292Y-80684496D01*
X121736960Y-80728529D01*
X121699062Y-80744368D01*
X121692607Y-80742357D01*
X121647609Y-80710658D01*
X121570727Y-80645181D01*
X121468721Y-80552048D01*
X121348351Y-80437381D01*
X121216379Y-80307300D01*
X120780039Y-79870232D01*
X121459733Y-78870440D01*
X121356402Y-78646886D01*
X121356096Y-78646225D01*
X121294046Y-78503714D01*
X121230640Y-78345018D01*
X121179558Y-78204368D01*
X121171827Y-78181683D01*
X121132852Y-78076370D01*
X121097707Y-77994534D01*
X121073195Y-77952301D01*
X121063212Y-77946337D01*
X121003286Y-77926329D01*
X120901532Y-77900442D01*
X120769068Y-77871370D01*
X120617011Y-77841806D01*
X120571466Y-77833467D01*
X120406685Y-77803107D01*
X120252930Y-77774509D01*
X120125678Y-77750564D01*
X120040402Y-77734160D01*
X119887126Y-77703906D01*
X119887126Y-77065645D01*
X119887160Y-76987165D01*
X119887808Y-76795703D01*
X119889720Y-76652812D01*
X119893469Y-76551189D01*
X119899622Y-76483531D01*
X119908751Y-76442536D01*
X119921427Y-76420900D01*
X119938218Y-76411320D01*
X119954474Y-76407439D01*
X120020748Y-76393710D01*
X120126479Y-76372745D01*
X120260915Y-76346588D01*
X120413302Y-76317283D01*
X120572890Y-76286877D01*
X120728925Y-76257413D01*
X120870657Y-76230937D01*
X120987331Y-76209494D01*
X121068197Y-76195128D01*
X121102503Y-76189885D01*
X121104822Y-76186720D01*
X121123474Y-76145642D01*
X121155753Y-76067044D01*
X121196391Y-75963621D01*
X121252788Y-75824273D01*
X121322214Y-75663226D01*
X121387288Y-75521291D01*
X121402202Y-75489432D01*
X121444047Y-75389669D01*
X121469118Y-75312721D01*
X121472426Y-75273130D01*
X121470720Y-75270325D01*
X121443631Y-75229005D01*
X121389927Y-75148740D01*
X121314877Y-75037350D01*
X121223746Y-74902655D01*
X121121800Y-74752476D01*
X121006930Y-74581851D01*
X120920761Y-74449311D01*
X120862131Y-74352112D01*
X120827650Y-74284234D01*
X120813926Y-74239656D01*
X120817568Y-74212361D01*
X120818794Y-74210313D01*
X120851747Y-74170536D01*
X120918927Y-74098052D01*
X121013419Y-74000046D01*
X121128306Y-73883702D01*
X121256672Y-73756205D01*
X121389831Y-73626821D01*
X121520269Y-73505209D01*
X121616119Y-73423156D01*
X121679866Y-73378560D01*
X121713996Y-73369317D01*
X121718456Y-73371393D01*
X121765421Y-73399385D01*
X121850685Y-73454084D01*
X121966259Y-73530237D01*
X122104154Y-73622592D01*
X122256381Y-73725897D01*
X122752610Y-74064765D01*
X122976707Y-73963056D01*
X122983219Y-73960109D01*
X123120804Y-73900504D01*
X123266767Y-73841222D01*
X123390575Y-73794685D01*
X123391122Y-73794493D01*
X123489414Y-73758497D01*
X123565081Y-73728095D01*
X123601780Y-73709852D01*
X123602374Y-73709190D01*
X123614833Y-73671831D01*
X123635336Y-73586871D01*
X123661907Y-73463469D01*
X123692567Y-73310782D01*
X123725336Y-73137967D01*
X123726478Y-73131774D01*
X123759193Y-72955431D01*
X123789155Y-72795743D01*
X123814425Y-72662905D01*
X123833065Y-72567113D01*
X123843135Y-72518563D01*
X123843779Y-72515873D01*
X123850408Y-72495088D01*
X123863841Y-72479466D01*
X123891446Y-72468270D01*
X123940593Y-72460762D01*
X124018653Y-72456205D01*
X124132994Y-72453863D01*
X124290986Y-72452998D01*
X124500000Y-72452874D01*
X124526262Y-72452874D01*
X124729175Y-72453045D01*
G37*
X124729175Y-72453045D02*
X124881895Y-72454039D01*
X124991792Y-72456593D01*
X125066235Y-72461445D01*
X125112594Y-72469331D01*
X125138239Y-72480988D01*
X125150539Y-72497153D01*
X125156865Y-72518563D01*
X125157047Y-72519332D01*
X125167441Y-72569663D01*
X125186339Y-72666888D01*
X125211802Y-72800810D01*
X125241890Y-72961235D01*
X125274664Y-73137967D01*
X125277337Y-73152428D01*
X125310010Y-73323959D01*
X125340413Y-73474625D01*
X125366568Y-73595267D01*
X125386496Y-73676729D01*
X125398220Y-73709852D01*
X125398282Y-73709905D01*
X125435229Y-73728229D01*
X125511057Y-73758677D01*
X125609425Y-73794685D01*
X125614965Y-73796640D01*
X125740724Y-73844170D01*
X125887011Y-73903783D01*
X126023293Y-73963056D01*
X126247390Y-74064765D01*
X126743618Y-73725897D01*
X126778570Y-73702063D01*
X126928280Y-73600755D01*
X127061867Y-73511575D01*
X127171343Y-73439773D01*
X127248718Y-73390603D01*
X127286004Y-73369317D01*
X127311552Y-73374196D01*
X127369555Y-73412002D01*
X127459195Y-73486870D01*
X127582957Y-73600903D01*
X127743328Y-73756205D01*
X127757679Y-73770341D01*
X127884933Y-73896999D01*
X127997969Y-74011745D01*
X128089867Y-74107391D01*
X128153707Y-74176746D01*
X128182570Y-74212620D01*
X128182664Y-74212794D01*
X128186331Y-74240106D01*
X128172808Y-74284408D01*
X128138684Y-74351761D01*
X128080548Y-74448226D01*
X127994988Y-74579863D01*
X127878594Y-74752734D01*
X127858759Y-74781912D01*
X127758445Y-74929726D01*
X127669923Y-75060577D01*
X127598465Y-75166643D01*
X127549343Y-75240102D01*
X127527831Y-75273130D01*
X127526208Y-75280126D01*
X127536387Y-75332326D01*
X127566879Y-75417561D01*
X127612712Y-75521291D01*
X127675000Y-75656951D01*
X127744548Y-75817921D01*
X127803609Y-75963621D01*
X127818252Y-76001333D01*
X127856600Y-76097622D01*
X127884770Y-76164704D01*
X127897497Y-76189885D01*
X127911545Y-76191767D01*
X127974681Y-76202651D01*
X128078019Y-76221449D01*
X128210809Y-76246115D01*
X128362297Y-76274604D01*
X128521732Y-76304873D01*
X128678361Y-76334875D01*
X128821433Y-76362566D01*
X128940195Y-76385900D01*
X129023896Y-76402833D01*
X129061782Y-76411320D01*
X129068063Y-76413713D01*
X129083373Y-76426619D01*
X129094763Y-76454096D01*
X129102803Y-76503446D01*
X129108064Y-76581973D01*
X129111116Y-76696980D01*
X129112529Y-76855770D01*
X129112873Y-77065645D01*
X129112873Y-77703906D01*
X128959598Y-77734160D01*
X128941057Y-77737785D01*
X128842596Y-77756569D01*
X128706448Y-77782093D01*
X128548087Y-77811468D01*
X128382988Y-77841806D01*
X128317973Y-77854009D01*
X128172697Y-77883697D01*
X128051626Y-77911770D01*
X127965886Y-77935536D01*
X127926601Y-77952301D01*
X127908799Y-77979694D01*
X127876389Y-78052174D01*
X127843234Y-78145977D01*
X127831564Y-78181103D01*
X127788604Y-78296409D01*
X127733192Y-78432876D01*
X127674353Y-78567954D01*
X127642884Y-78638509D01*
X127598051Y-78743895D01*
X127567240Y-78822818D01*
X127555785Y-78862053D01*
X127556422Y-78865014D01*
X127578150Y-78906639D01*
X127627146Y-78986969D01*
X127698438Y-79098220D01*
X127787054Y-79232605D01*
X127888023Y-79382340D01*
X128220261Y-79869931D01*
X127783771Y-80307149D01*
X127741555Y-80349221D01*
X127612470Y-80475153D01*
X127497107Y-80583754D01*
X127402224Y-80668903D01*
X127334582Y-80724482D01*
X127300938Y-80744368D01*
X127264402Y-80729238D01*
X127187890Y-80685801D01*
X127080196Y-80619270D01*
X126949767Y-80534867D01*
X126805052Y-80437816D01*
X126662910Y-80341964D01*
X126534678Y-80257557D01*
X126430054Y-80190850D01*
X126357171Y-80147024D01*
X126324158Y-80131264D01*
X126322223Y-80131408D01*
X126278369Y-80146945D01*
X126200598Y-80183121D01*
X126104392Y-80232785D01*
X126103381Y-80233329D01*
X125975605Y-80297326D01*
X125888051Y-80328591D01*
X125833726Y-80328677D01*
X125805641Y-80299138D01*
X125793752Y-80270061D01*
X125761668Y-80192188D01*
X125712247Y-80072475D01*
X125648118Y-79917286D01*
X125571911Y-79732984D01*
X125486255Y-79525933D01*
X125393781Y-79302496D01*
X125309962Y-79099226D01*
X125224678Y-78890649D01*
X125149222Y-78704263D01*
X125086126Y-78546407D01*
X125037923Y-78423419D01*
X125007144Y-78341639D01*
X124996322Y-78307406D01*
X125016991Y-78276015D01*
X125074409Y-78223602D01*
X125155688Y-78162704D01*
X125350820Y-78003387D01*
X125525445Y-77799807D01*
X125653235Y-77575808D01*
X125733402Y-77338003D01*
X125765160Y-77093007D01*
X125747722Y-76847433D01*
X125680301Y-76607895D01*
X125562111Y-76381007D01*
X125392364Y-76173383D01*
X125303856Y-76092527D01*
X125091804Y-75949559D01*
X124864905Y-75856352D01*
X124629791Y-75810687D01*
X124393094Y-75810344D01*
X124161446Y-75853105D01*
X123941478Y-75936750D01*
X123739822Y-76059061D01*
X123563111Y-76217817D01*
X123417977Y-76410801D01*
X123311050Y-76635793D01*
X123248964Y-76890575D01*
X123237569Y-77013377D01*
X123253246Y-77279434D01*
X123323846Y-77531856D01*
X123447282Y-77766182D01*
X123621466Y-77977952D01*
X123844311Y-78162704D01*
X123922561Y-78221123D01*
X123981244Y-78274110D01*
X124003678Y-78307356D01*
X123994732Y-78336339D01*
X123965703Y-78413996D01*
X123919026Y-78533451D01*
X123857231Y-78688362D01*
X123782850Y-78872392D01*
X123698412Y-79079200D01*
X123606449Y-79302446D01*
X123522771Y-79504742D01*
X123436366Y-79713686D01*
X123359138Y-79900498D01*
X123293716Y-80058814D01*
X123242731Y-80182269D01*
X123208812Y-80264498D01*
X123194590Y-80299138D01*
X123194425Y-80299548D01*
X123165972Y-80328798D01*
X123111382Y-80328463D01*
X123023609Y-80296980D01*
X122895608Y-80232785D01*
X122885532Y-80227380D01*
X122790481Y-80178750D01*
X122715424Y-80144328D01*
X122675842Y-80131264D01*
X122643400Y-80146702D01*
X122570895Y-80190258D01*
X122466565Y-80256751D01*
X122338539Y-80340998D01*
X122194948Y-80437816D01*
X122053468Y-80532734D01*
X121922611Y-80617490D01*
X121814292Y-80684496D01*
X121736960Y-80728529D01*
X121699062Y-80744368D01*
X121692607Y-80742357D01*
X121647609Y-80710658D01*
X121570727Y-80645181D01*
X121468721Y-80552048D01*
X121348351Y-80437381D01*
X121216379Y-80307300D01*
X120780039Y-79870232D01*
X121459733Y-78870440D01*
X121356402Y-78646886D01*
X121356096Y-78646225D01*
X121294046Y-78503714D01*
X121230640Y-78345018D01*
X121179558Y-78204368D01*
X121171827Y-78181683D01*
X121132852Y-78076370D01*
X121097707Y-77994534D01*
X121073195Y-77952301D01*
X121063212Y-77946337D01*
X121003286Y-77926329D01*
X120901532Y-77900442D01*
X120769068Y-77871370D01*
X120617011Y-77841806D01*
X120571466Y-77833467D01*
X120406685Y-77803107D01*
X120252930Y-77774509D01*
X120125678Y-77750564D01*
X120040402Y-77734160D01*
X119887126Y-77703906D01*
X119887126Y-77065645D01*
X119887160Y-76987165D01*
X119887808Y-76795703D01*
X119889720Y-76652812D01*
X119893469Y-76551189D01*
X119899622Y-76483531D01*
X119908751Y-76442536D01*
X119921427Y-76420900D01*
X119938218Y-76411320D01*
X119954474Y-76407439D01*
X120020748Y-76393710D01*
X120126479Y-76372745D01*
X120260915Y-76346588D01*
X120413302Y-76317283D01*
X120572890Y-76286877D01*
X120728925Y-76257413D01*
X120870657Y-76230937D01*
X120987331Y-76209494D01*
X121068197Y-76195128D01*
X121102503Y-76189885D01*
X121104822Y-76186720D01*
X121123474Y-76145642D01*
X121155753Y-76067044D01*
X121196391Y-75963621D01*
X121252788Y-75824273D01*
X121322214Y-75663226D01*
X121387288Y-75521291D01*
X121402202Y-75489432D01*
X121444047Y-75389669D01*
X121469118Y-75312721D01*
X121472426Y-75273130D01*
X121470720Y-75270325D01*
X121443631Y-75229005D01*
X121389927Y-75148740D01*
X121314877Y-75037350D01*
X121223746Y-74902655D01*
X121121800Y-74752476D01*
X121006930Y-74581851D01*
X120920761Y-74449311D01*
X120862131Y-74352112D01*
X120827650Y-74284234D01*
X120813926Y-74239656D01*
X120817568Y-74212361D01*
X120818794Y-74210313D01*
X120851747Y-74170536D01*
X120918927Y-74098052D01*
X121013419Y-74000046D01*
X121128306Y-73883702D01*
X121256672Y-73756205D01*
X121389831Y-73626821D01*
X121520269Y-73505209D01*
X121616119Y-73423156D01*
X121679866Y-73378560D01*
X121713996Y-73369317D01*
X121718456Y-73371393D01*
X121765421Y-73399385D01*
X121850685Y-73454084D01*
X121966259Y-73530237D01*
X122104154Y-73622592D01*
X122256381Y-73725897D01*
X122752610Y-74064765D01*
X122976707Y-73963056D01*
X122983219Y-73960109D01*
X123120804Y-73900504D01*
X123266767Y-73841222D01*
X123390575Y-73794685D01*
X123391122Y-73794493D01*
X123489414Y-73758497D01*
X123565081Y-73728095D01*
X123601780Y-73709852D01*
X123602374Y-73709190D01*
X123614833Y-73671831D01*
X123635336Y-73586871D01*
X123661907Y-73463469D01*
X123692567Y-73310782D01*
X123725336Y-73137967D01*
X123726478Y-73131774D01*
X123759193Y-72955431D01*
X123789155Y-72795743D01*
X123814425Y-72662905D01*
X123833065Y-72567113D01*
X123843135Y-72518563D01*
X123843779Y-72515873D01*
X123850408Y-72495088D01*
X123863841Y-72479466D01*
X123891446Y-72468270D01*
X123940593Y-72460762D01*
X124018653Y-72456205D01*
X124132994Y-72453863D01*
X124290986Y-72452998D01*
X124500000Y-72452874D01*
X124526262Y-72452874D01*
X124729175Y-72453045D01*
D12*
%TO.C,Brd1*%
X129449000Y-42939000D02*
X129449000Y-45352000D01*
X110750000Y-42450000D02*
X110750000Y-69750000D01*
X137728000Y-45745000D02*
X114628000Y-45745000D01*
X114628000Y-45745000D02*
X111542000Y-45745000D01*
X119670000Y-42939000D02*
X119670000Y-45352000D01*
X129449000Y-42939000D02*
X119670000Y-42939000D01*
X137728000Y-62345000D02*
X137728000Y-45745000D01*
X114628000Y-62345000D02*
X111288000Y-62370000D01*
X111288000Y-62370000D02*
X111288000Y-45733000D01*
X110750000Y-69750000D02*
X138150000Y-69750000D01*
X119670000Y-45352000D02*
X129449000Y-45352000D01*
X138150000Y-69750000D02*
X138150000Y-42450000D01*
X114628000Y-62345000D02*
X137728000Y-62345000D01*
X111288000Y-45733000D02*
X111542000Y-45745000D01*
X138150000Y-42450000D02*
X110750000Y-42450000D01*
%TD*%
M02*
