%TF.GenerationSoftware,KiCad,Pcbnew,(5.99.0-10406-ge27733587d)*%
%TF.CreationDate,2021-05-19T17:56:25+05:30*%
%TF.ProjectId,OxiKit-Brainboard_v1,4f78694b-6974-42d4-9272-61696e626f61,rev?*%
%TF.SameCoordinates,Original*%
%TF.FileFunction,Legend,Top*%
%TF.FilePolarity,Positive*%
%FSLAX46Y46*%
G04 Gerber Fmt 4.6, Leading zero omitted, Abs format (unit mm)*
G04 Created by KiCad (PCBNEW (5.99.0-10406-ge27733587d)) date 2021-05-19 17:56:25*
%MOMM*%
%LPD*%
G01*
G04 APERTURE LIST*
%ADD10C,0.180000*%
%ADD11C,0.150000*%
%ADD12C,0.120000*%
%ADD13C,0.800000*%
%ADD14C,0.500000*%
%ADD15C,1.900000*%
G04 APERTURE END LIST*
D10*
X60121428Y-114042857D02*
X59550000Y-114042857D01*
X59550000Y-112842857D01*
X100357142Y-129207142D02*
X100414285Y-129150000D01*
X100528571Y-129092857D01*
X100814285Y-129092857D01*
X100928571Y-129150000D01*
X100985714Y-129207142D01*
X101042857Y-129321428D01*
X101042857Y-129435714D01*
X100985714Y-129607142D01*
X100300000Y-130292857D01*
X101042857Y-130292857D01*
X101557142Y-129835714D02*
X102471428Y-129835714D01*
X102928571Y-129092857D02*
X103214285Y-130292857D01*
X103442857Y-129435714D01*
X103671428Y-130292857D01*
X103957142Y-129092857D01*
X104928571Y-130292857D02*
X104928571Y-129664285D01*
X104871428Y-129550000D01*
X104757142Y-129492857D01*
X104528571Y-129492857D01*
X104414285Y-129550000D01*
X104928571Y-130235714D02*
X104814285Y-130292857D01*
X104528571Y-130292857D01*
X104414285Y-130235714D01*
X104357142Y-130121428D01*
X104357142Y-130007142D01*
X104414285Y-129892857D01*
X104528571Y-129835714D01*
X104814285Y-129835714D01*
X104928571Y-129778571D01*
X105385714Y-129492857D02*
X105671428Y-130292857D01*
X105957142Y-129492857D02*
X105671428Y-130292857D01*
X105557142Y-130578571D01*
X105500000Y-130635714D01*
X105385714Y-130692857D01*
X107157142Y-129092857D02*
X107557142Y-130292857D01*
X107957142Y-129092857D01*
X108871428Y-130292857D02*
X108871428Y-129664285D01*
X108814285Y-129550000D01*
X108700000Y-129492857D01*
X108471428Y-129492857D01*
X108357142Y-129550000D01*
X108871428Y-130235714D02*
X108757142Y-130292857D01*
X108471428Y-130292857D01*
X108357142Y-130235714D01*
X108300000Y-130121428D01*
X108300000Y-130007142D01*
X108357142Y-129892857D01*
X108471428Y-129835714D01*
X108757142Y-129835714D01*
X108871428Y-129778571D01*
X109614285Y-130292857D02*
X109500000Y-130235714D01*
X109442857Y-130121428D01*
X109442857Y-129092857D01*
X109957142Y-129492857D02*
X110242857Y-130292857D01*
X110528571Y-129492857D01*
X111442857Y-130235714D02*
X111328571Y-130292857D01*
X111100000Y-130292857D01*
X110985714Y-130235714D01*
X110928571Y-130121428D01*
X110928571Y-129664285D01*
X110985714Y-129550000D01*
X111100000Y-129492857D01*
X111328571Y-129492857D01*
X111442857Y-129550000D01*
X111500000Y-129664285D01*
X111500000Y-129778571D01*
X110928571Y-129892857D01*
X111957142Y-129207142D02*
X112014285Y-129150000D01*
X112128571Y-129092857D01*
X112414285Y-129092857D01*
X112528571Y-129150000D01*
X112585714Y-129207142D01*
X112642857Y-129321428D01*
X112642857Y-129435714D01*
X112585714Y-129607142D01*
X111900000Y-130292857D01*
X112642857Y-130292857D01*
X63642857Y-129100000D02*
X64214285Y-129100000D01*
X63528571Y-129442857D02*
X63928571Y-128242857D01*
X64328571Y-129442857D01*
X64728571Y-129442857D02*
X64728571Y-128642857D01*
X64728571Y-128242857D02*
X64671428Y-128300000D01*
X64728571Y-128357142D01*
X64785714Y-128300000D01*
X64728571Y-128242857D01*
X64728571Y-128357142D01*
X65300000Y-129442857D02*
X65300000Y-128642857D01*
X65300000Y-128871428D02*
X65357142Y-128757142D01*
X65414285Y-128700000D01*
X65528571Y-128642857D01*
X65642857Y-128642857D01*
X67642857Y-129328571D02*
X67585714Y-129385714D01*
X67414285Y-129442857D01*
X67300000Y-129442857D01*
X67128571Y-129385714D01*
X67014285Y-129271428D01*
X66957142Y-129157142D01*
X66900000Y-128928571D01*
X66900000Y-128757142D01*
X66957142Y-128528571D01*
X67014285Y-128414285D01*
X67128571Y-128300000D01*
X67300000Y-128242857D01*
X67414285Y-128242857D01*
X67585714Y-128300000D01*
X67642857Y-128357142D01*
X68328571Y-129442857D02*
X68214285Y-129385714D01*
X68157142Y-129328571D01*
X68100000Y-129214285D01*
X68100000Y-128871428D01*
X68157142Y-128757142D01*
X68214285Y-128700000D01*
X68328571Y-128642857D01*
X68500000Y-128642857D01*
X68614285Y-128700000D01*
X68671428Y-128757142D01*
X68728571Y-128871428D01*
X68728571Y-129214285D01*
X68671428Y-129328571D01*
X68614285Y-129385714D01*
X68500000Y-129442857D01*
X68328571Y-129442857D01*
X69242857Y-129442857D02*
X69242857Y-128642857D01*
X69242857Y-128757142D02*
X69300000Y-128700000D01*
X69414285Y-128642857D01*
X69585714Y-128642857D01*
X69700000Y-128700000D01*
X69757142Y-128814285D01*
X69757142Y-129442857D01*
X69757142Y-128814285D02*
X69814285Y-128700000D01*
X69928571Y-128642857D01*
X70100000Y-128642857D01*
X70214285Y-128700000D01*
X70271428Y-128814285D01*
X70271428Y-129442857D01*
X70842857Y-128642857D02*
X70842857Y-129842857D01*
X70842857Y-128700000D02*
X70957142Y-128642857D01*
X71185714Y-128642857D01*
X71300000Y-128700000D01*
X71357142Y-128757142D01*
X71414285Y-128871428D01*
X71414285Y-129214285D01*
X71357142Y-129328571D01*
X71300000Y-129385714D01*
X71185714Y-129442857D01*
X70957142Y-129442857D01*
X70842857Y-129385714D01*
X71928571Y-129442857D02*
X71928571Y-128642857D01*
X71928571Y-128871428D02*
X71985714Y-128757142D01*
X72042857Y-128700000D01*
X72157142Y-128642857D01*
X72271428Y-128642857D01*
X73128571Y-129385714D02*
X73014285Y-129442857D01*
X72785714Y-129442857D01*
X72671428Y-129385714D01*
X72614285Y-129271428D01*
X72614285Y-128814285D01*
X72671428Y-128700000D01*
X72785714Y-128642857D01*
X73014285Y-128642857D01*
X73128571Y-128700000D01*
X73185714Y-128814285D01*
X73185714Y-128928571D01*
X72614285Y-129042857D01*
X73642857Y-129385714D02*
X73757142Y-129442857D01*
X73985714Y-129442857D01*
X74100000Y-129385714D01*
X74157142Y-129271428D01*
X74157142Y-129214285D01*
X74100000Y-129100000D01*
X73985714Y-129042857D01*
X73814285Y-129042857D01*
X73700000Y-128985714D01*
X73642857Y-128871428D01*
X73642857Y-128814285D01*
X73700000Y-128700000D01*
X73814285Y-128642857D01*
X73985714Y-128642857D01*
X74100000Y-128700000D01*
X74614285Y-129385714D02*
X74728571Y-129442857D01*
X74957142Y-129442857D01*
X75071428Y-129385714D01*
X75128571Y-129271428D01*
X75128571Y-129214285D01*
X75071428Y-129100000D01*
X74957142Y-129042857D01*
X74785714Y-129042857D01*
X74671428Y-128985714D01*
X74614285Y-128871428D01*
X74614285Y-128814285D01*
X74671428Y-128700000D01*
X74785714Y-128642857D01*
X74957142Y-128642857D01*
X75071428Y-128700000D01*
X75814285Y-129442857D02*
X75700000Y-129385714D01*
X75642857Y-129328571D01*
X75585714Y-129214285D01*
X75585714Y-128871428D01*
X75642857Y-128757142D01*
X75700000Y-128700000D01*
X75814285Y-128642857D01*
X75985714Y-128642857D01*
X76100000Y-128700000D01*
X76157142Y-128757142D01*
X76214285Y-128871428D01*
X76214285Y-129214285D01*
X76157142Y-129328571D01*
X76100000Y-129385714D01*
X75985714Y-129442857D01*
X75814285Y-129442857D01*
X76728571Y-129442857D02*
X76728571Y-128642857D01*
X76728571Y-128871428D02*
X76785714Y-128757142D01*
X76842857Y-128700000D01*
X76957142Y-128642857D01*
X77071428Y-128642857D01*
D11*
X86400000Y-44961904D02*
X86352380Y-45057142D01*
X86352380Y-45200000D01*
X86400000Y-45342857D01*
X86495238Y-45438095D01*
X86590476Y-45485714D01*
X86780952Y-45533333D01*
X86923809Y-45533333D01*
X87114285Y-45485714D01*
X87209523Y-45438095D01*
X87304761Y-45342857D01*
X87352380Y-45200000D01*
X87352380Y-45104761D01*
X87304761Y-44961904D01*
X87257142Y-44914285D01*
X86923809Y-44914285D01*
X86923809Y-45104761D01*
X87352380Y-44485714D02*
X86352380Y-44485714D01*
X87352380Y-43914285D01*
X86352380Y-43914285D01*
X87352380Y-43438095D02*
X86352380Y-43438095D01*
X86352380Y-43200000D01*
X86400000Y-43057142D01*
X86495238Y-42961904D01*
X86590476Y-42914285D01*
X86780952Y-42866666D01*
X86923809Y-42866666D01*
X87114285Y-42914285D01*
X87209523Y-42961904D01*
X87304761Y-43057142D01*
X87352380Y-43200000D01*
X87352380Y-43438095D01*
D10*
X118357142Y-129207142D02*
X118414285Y-129150000D01*
X118528571Y-129092857D01*
X118814285Y-129092857D01*
X118928571Y-129150000D01*
X118985714Y-129207142D01*
X119042857Y-129321428D01*
X119042857Y-129435714D01*
X118985714Y-129607142D01*
X118300000Y-130292857D01*
X119042857Y-130292857D01*
X119557142Y-129835714D02*
X120471428Y-129835714D01*
X120928571Y-129092857D02*
X121214285Y-130292857D01*
X121442857Y-129435714D01*
X121671428Y-130292857D01*
X121957142Y-129092857D01*
X122928571Y-130292857D02*
X122928571Y-129664285D01*
X122871428Y-129550000D01*
X122757142Y-129492857D01*
X122528571Y-129492857D01*
X122414285Y-129550000D01*
X122928571Y-130235714D02*
X122814285Y-130292857D01*
X122528571Y-130292857D01*
X122414285Y-130235714D01*
X122357142Y-130121428D01*
X122357142Y-130007142D01*
X122414285Y-129892857D01*
X122528571Y-129835714D01*
X122814285Y-129835714D01*
X122928571Y-129778571D01*
X123385714Y-129492857D02*
X123671428Y-130292857D01*
X123957142Y-129492857D02*
X123671428Y-130292857D01*
X123557142Y-130578571D01*
X123500000Y-130635714D01*
X123385714Y-130692857D01*
X125157142Y-129092857D02*
X125557142Y-130292857D01*
X125957142Y-129092857D01*
X126871428Y-130292857D02*
X126871428Y-129664285D01*
X126814285Y-129550000D01*
X126700000Y-129492857D01*
X126471428Y-129492857D01*
X126357142Y-129550000D01*
X126871428Y-130235714D02*
X126757142Y-130292857D01*
X126471428Y-130292857D01*
X126357142Y-130235714D01*
X126300000Y-130121428D01*
X126300000Y-130007142D01*
X126357142Y-129892857D01*
X126471428Y-129835714D01*
X126757142Y-129835714D01*
X126871428Y-129778571D01*
X127614285Y-130292857D02*
X127500000Y-130235714D01*
X127442857Y-130121428D01*
X127442857Y-129092857D01*
X127957142Y-129492857D02*
X128242857Y-130292857D01*
X128528571Y-129492857D01*
X129442857Y-130235714D02*
X129328571Y-130292857D01*
X129100000Y-130292857D01*
X128985714Y-130235714D01*
X128928571Y-130121428D01*
X128928571Y-129664285D01*
X128985714Y-129550000D01*
X129100000Y-129492857D01*
X129328571Y-129492857D01*
X129442857Y-129550000D01*
X129500000Y-129664285D01*
X129500000Y-129778571D01*
X128928571Y-129892857D01*
X130642857Y-130292857D02*
X129957142Y-130292857D01*
X130300000Y-130292857D02*
X130300000Y-129092857D01*
X130185714Y-129264285D01*
X130071428Y-129378571D01*
X129957142Y-129435714D01*
X140585714Y-83500000D02*
X140642857Y-83328571D01*
X140642857Y-83042857D01*
X140585714Y-82928571D01*
X140528571Y-82871428D01*
X140414285Y-82814285D01*
X140300000Y-82814285D01*
X140185714Y-82871428D01*
X140128571Y-82928571D01*
X140071428Y-83042857D01*
X140014285Y-83271428D01*
X139957142Y-83385714D01*
X139900000Y-83442857D01*
X139785714Y-83500000D01*
X139671428Y-83500000D01*
X139557142Y-83442857D01*
X139500000Y-83385714D01*
X139442857Y-83271428D01*
X139442857Y-82985714D01*
X139500000Y-82814285D01*
X139442857Y-82414285D02*
X140642857Y-82128571D01*
X139785714Y-81900000D01*
X140642857Y-81671428D01*
X139442857Y-81385714D01*
X140642857Y-80928571D02*
X139442857Y-80928571D01*
X139442857Y-80528571D02*
X139442857Y-79842857D01*
X140642857Y-80185714D02*
X139442857Y-80185714D01*
X140528571Y-78757142D02*
X140585714Y-78814285D01*
X140642857Y-78985714D01*
X140642857Y-79100000D01*
X140585714Y-79271428D01*
X140471428Y-79385714D01*
X140357142Y-79442857D01*
X140128571Y-79500000D01*
X139957142Y-79500000D01*
X139728571Y-79442857D01*
X139614285Y-79385714D01*
X139500000Y-79271428D01*
X139442857Y-79100000D01*
X139442857Y-78985714D01*
X139500000Y-78814285D01*
X139557142Y-78757142D01*
X140642857Y-78242857D02*
X139442857Y-78242857D01*
X140014285Y-78242857D02*
X140014285Y-77557142D01*
X140642857Y-77557142D02*
X139442857Y-77557142D01*
X140314285Y-69842857D02*
X140314285Y-70242857D01*
X140942857Y-70242857D02*
X139742857Y-70242857D01*
X139742857Y-69671428D01*
X140600000Y-69271428D02*
X140600000Y-68700000D01*
X140942857Y-69385714D02*
X139742857Y-68985714D01*
X140942857Y-68585714D01*
X140942857Y-68185714D02*
X139742857Y-68185714D01*
X140942857Y-67500000D01*
X139742857Y-67500000D01*
X140942857Y-66300000D02*
X140942857Y-66985714D01*
X140942857Y-66642857D02*
X139742857Y-66642857D01*
X139914285Y-66757142D01*
X140028571Y-66871428D01*
X140085714Y-66985714D01*
X83985714Y-48942857D02*
X83985714Y-47742857D01*
X84671428Y-48942857D02*
X84157142Y-48257142D01*
X84671428Y-47742857D02*
X83985714Y-48428571D01*
X85185714Y-48314285D02*
X85585714Y-48314285D01*
X85757142Y-48942857D02*
X85185714Y-48942857D01*
X85185714Y-47742857D01*
X85757142Y-47742857D01*
X86271428Y-48485714D02*
X87185714Y-48485714D01*
X87700000Y-47857142D02*
X87757142Y-47800000D01*
X87871428Y-47742857D01*
X88157142Y-47742857D01*
X88271428Y-47800000D01*
X88328571Y-47857142D01*
X88385714Y-47971428D01*
X88385714Y-48085714D01*
X88328571Y-48257142D01*
X87642857Y-48942857D01*
X88385714Y-48942857D01*
X89471428Y-47742857D02*
X88900000Y-47742857D01*
X88842857Y-48314285D01*
X88900000Y-48257142D01*
X89014285Y-48200000D01*
X89300000Y-48200000D01*
X89414285Y-48257142D01*
X89471428Y-48314285D01*
X89528571Y-48428571D01*
X89528571Y-48714285D01*
X89471428Y-48828571D01*
X89414285Y-48885714D01*
X89300000Y-48942857D01*
X89014285Y-48942857D01*
X88900000Y-48885714D01*
X88842857Y-48828571D01*
X91185714Y-47742857D02*
X91414285Y-47742857D01*
X91528571Y-47800000D01*
X91642857Y-47914285D01*
X91700000Y-48142857D01*
X91700000Y-48542857D01*
X91642857Y-48771428D01*
X91528571Y-48885714D01*
X91414285Y-48942857D01*
X91185714Y-48942857D01*
X91071428Y-48885714D01*
X90957142Y-48771428D01*
X90900000Y-48542857D01*
X90900000Y-48142857D01*
X90957142Y-47914285D01*
X91071428Y-47800000D01*
X91185714Y-47742857D01*
X92100000Y-47742857D02*
X92900000Y-48942857D01*
X92900000Y-47742857D02*
X92100000Y-48942857D01*
X93585714Y-48371428D02*
X93585714Y-48942857D01*
X93185714Y-47742857D02*
X93585714Y-48371428D01*
X93985714Y-47742857D01*
X95242857Y-48885714D02*
X95414285Y-48942857D01*
X95700000Y-48942857D01*
X95814285Y-48885714D01*
X95871428Y-48828571D01*
X95928571Y-48714285D01*
X95928571Y-48600000D01*
X95871428Y-48485714D01*
X95814285Y-48428571D01*
X95700000Y-48371428D01*
X95471428Y-48314285D01*
X95357142Y-48257142D01*
X95300000Y-48200000D01*
X95242857Y-48085714D01*
X95242857Y-47971428D01*
X95300000Y-47857142D01*
X95357142Y-47800000D01*
X95471428Y-47742857D01*
X95757142Y-47742857D01*
X95928571Y-47800000D01*
X96442857Y-48314285D02*
X96842857Y-48314285D01*
X97014285Y-48942857D02*
X96442857Y-48942857D01*
X96442857Y-47742857D01*
X97014285Y-47742857D01*
X97528571Y-48942857D02*
X97528571Y-47742857D01*
X98214285Y-48942857D01*
X98214285Y-47742857D01*
X98728571Y-48885714D02*
X98900000Y-48942857D01*
X99185714Y-48942857D01*
X99300000Y-48885714D01*
X99357142Y-48828571D01*
X99414285Y-48714285D01*
X99414285Y-48600000D01*
X99357142Y-48485714D01*
X99300000Y-48428571D01*
X99185714Y-48371428D01*
X98957142Y-48314285D01*
X98842857Y-48257142D01*
X98785714Y-48200000D01*
X98728571Y-48085714D01*
X98728571Y-47971428D01*
X98785714Y-47857142D01*
X98842857Y-47800000D01*
X98957142Y-47742857D01*
X99242857Y-47742857D01*
X99414285Y-47800000D01*
X100157142Y-47742857D02*
X100385714Y-47742857D01*
X100500000Y-47800000D01*
X100614285Y-47914285D01*
X100671428Y-48142857D01*
X100671428Y-48542857D01*
X100614285Y-48771428D01*
X100500000Y-48885714D01*
X100385714Y-48942857D01*
X100157142Y-48942857D01*
X100042857Y-48885714D01*
X99928571Y-48771428D01*
X99871428Y-48542857D01*
X99871428Y-48142857D01*
X99928571Y-47914285D01*
X100042857Y-47800000D01*
X100157142Y-47742857D01*
X101871428Y-48942857D02*
X101471428Y-48371428D01*
X101185714Y-48942857D02*
X101185714Y-47742857D01*
X101642857Y-47742857D01*
X101757142Y-47800000D01*
X101814285Y-47857142D01*
X101871428Y-47971428D01*
X101871428Y-48142857D01*
X101814285Y-48257142D01*
X101757142Y-48314285D01*
X101642857Y-48371428D01*
X101185714Y-48371428D01*
X140314285Y-57542857D02*
X140314285Y-57942857D01*
X140942857Y-57942857D02*
X139742857Y-57942857D01*
X139742857Y-57371428D01*
X140600000Y-56971428D02*
X140600000Y-56400000D01*
X140942857Y-57085714D02*
X139742857Y-56685714D01*
X140942857Y-56285714D01*
X140942857Y-55885714D02*
X139742857Y-55885714D01*
X140942857Y-55200000D01*
X139742857Y-55200000D01*
X139857142Y-54685714D02*
X139800000Y-54628571D01*
X139742857Y-54514285D01*
X139742857Y-54228571D01*
X139800000Y-54114285D01*
X139857142Y-54057142D01*
X139971428Y-54000000D01*
X140085714Y-54000000D01*
X140257142Y-54057142D01*
X140942857Y-54742857D01*
X140942857Y-54000000D01*
X82557142Y-129207142D02*
X82614285Y-129150000D01*
X82728571Y-129092857D01*
X83014285Y-129092857D01*
X83128571Y-129150000D01*
X83185714Y-129207142D01*
X83242857Y-129321428D01*
X83242857Y-129435714D01*
X83185714Y-129607142D01*
X82500000Y-130292857D01*
X83242857Y-130292857D01*
X83757142Y-129835714D02*
X84671428Y-129835714D01*
X85128571Y-129092857D02*
X85414285Y-130292857D01*
X85642857Y-129435714D01*
X85871428Y-130292857D01*
X86157142Y-129092857D01*
X87128571Y-130292857D02*
X87128571Y-129664285D01*
X87071428Y-129550000D01*
X86957142Y-129492857D01*
X86728571Y-129492857D01*
X86614285Y-129550000D01*
X87128571Y-130235714D02*
X87014285Y-130292857D01*
X86728571Y-130292857D01*
X86614285Y-130235714D01*
X86557142Y-130121428D01*
X86557142Y-130007142D01*
X86614285Y-129892857D01*
X86728571Y-129835714D01*
X87014285Y-129835714D01*
X87128571Y-129778571D01*
X87585714Y-129492857D02*
X87871428Y-130292857D01*
X88157142Y-129492857D02*
X87871428Y-130292857D01*
X87757142Y-130578571D01*
X87700000Y-130635714D01*
X87585714Y-130692857D01*
X89357142Y-129092857D02*
X89757142Y-130292857D01*
X90157142Y-129092857D01*
X91071428Y-130292857D02*
X91071428Y-129664285D01*
X91014285Y-129550000D01*
X90900000Y-129492857D01*
X90671428Y-129492857D01*
X90557142Y-129550000D01*
X91071428Y-130235714D02*
X90957142Y-130292857D01*
X90671428Y-130292857D01*
X90557142Y-130235714D01*
X90500000Y-130121428D01*
X90500000Y-130007142D01*
X90557142Y-129892857D01*
X90671428Y-129835714D01*
X90957142Y-129835714D01*
X91071428Y-129778571D01*
X91814285Y-130292857D02*
X91700000Y-130235714D01*
X91642857Y-130121428D01*
X91642857Y-129092857D01*
X92157142Y-129492857D02*
X92442857Y-130292857D01*
X92728571Y-129492857D01*
X93642857Y-130235714D02*
X93528571Y-130292857D01*
X93300000Y-130292857D01*
X93185714Y-130235714D01*
X93128571Y-130121428D01*
X93128571Y-129664285D01*
X93185714Y-129550000D01*
X93300000Y-129492857D01*
X93528571Y-129492857D01*
X93642857Y-129550000D01*
X93700000Y-129664285D01*
X93700000Y-129778571D01*
X93128571Y-129892857D01*
X94100000Y-129092857D02*
X94842857Y-129092857D01*
X94442857Y-129550000D01*
X94614285Y-129550000D01*
X94728571Y-129607142D01*
X94785714Y-129664285D01*
X94842857Y-129778571D01*
X94842857Y-130064285D01*
X94785714Y-130178571D01*
X94728571Y-130235714D01*
X94614285Y-130292857D01*
X94271428Y-130292857D01*
X94157142Y-130235714D01*
X94100000Y-130178571D01*
X59407142Y-119042857D02*
X59407142Y-117842857D01*
X60092857Y-119042857D01*
X60092857Y-117842857D01*
X51742857Y-123450000D02*
X52314285Y-123450000D01*
X51628571Y-123792857D02*
X52028571Y-122592857D01*
X52428571Y-123792857D01*
X53514285Y-123678571D02*
X53457142Y-123735714D01*
X53285714Y-123792857D01*
X53171428Y-123792857D01*
X53000000Y-123735714D01*
X52885714Y-123621428D01*
X52828571Y-123507142D01*
X52771428Y-123278571D01*
X52771428Y-123107142D01*
X52828571Y-122878571D01*
X52885714Y-122764285D01*
X53000000Y-122650000D01*
X53171428Y-122592857D01*
X53285714Y-122592857D01*
X53457142Y-122650000D01*
X53514285Y-122707142D01*
X54942857Y-123792857D02*
X54942857Y-122592857D01*
X55514285Y-123792857D02*
X55514285Y-122592857D01*
X56200000Y-123792857D01*
X56200000Y-122592857D01*
X57842857Y-98164285D02*
X58814285Y-98164285D01*
X58928571Y-98107142D01*
X58985714Y-98050000D01*
X59042857Y-97935714D01*
X59042857Y-97707142D01*
X58985714Y-97592857D01*
X58928571Y-97535714D01*
X58814285Y-97478571D01*
X57842857Y-97478571D01*
X58700000Y-96964285D02*
X58700000Y-96392857D01*
X59042857Y-97078571D02*
X57842857Y-96678571D01*
X59042857Y-96278571D01*
X59042857Y-95192857D02*
X58471428Y-95592857D01*
X59042857Y-95878571D02*
X57842857Y-95878571D01*
X57842857Y-95421428D01*
X57900000Y-95307142D01*
X57957142Y-95250000D01*
X58071428Y-95192857D01*
X58242857Y-95192857D01*
X58357142Y-95250000D01*
X58414285Y-95307142D01*
X58471428Y-95421428D01*
X58471428Y-95878571D01*
X57842857Y-94850000D02*
X57842857Y-94164285D01*
X59042857Y-94507142D02*
X57842857Y-94507142D01*
X67642857Y-45371428D02*
X66442857Y-45371428D01*
X66557142Y-44857142D02*
X66500000Y-44800000D01*
X66442857Y-44685714D01*
X66442857Y-44400000D01*
X66500000Y-44285714D01*
X66557142Y-44228571D01*
X66671428Y-44171428D01*
X66785714Y-44171428D01*
X66957142Y-44228571D01*
X67642857Y-44914285D01*
X67642857Y-44171428D01*
X67528571Y-42971428D02*
X67585714Y-43028571D01*
X67642857Y-43200000D01*
X67642857Y-43314285D01*
X67585714Y-43485714D01*
X67471428Y-43600000D01*
X67357142Y-43657142D01*
X67128571Y-43714285D01*
X66957142Y-43714285D01*
X66728571Y-43657142D01*
X66614285Y-43600000D01*
X66500000Y-43485714D01*
X66442857Y-43314285D01*
X66442857Y-43200000D01*
X66500000Y-43028571D01*
X66557142Y-42971428D01*
D11*
%TO.C,SW2*%
X58229761Y-89083333D02*
X58277380Y-88940476D01*
X58277380Y-88702380D01*
X58229761Y-88607142D01*
X58182142Y-88559523D01*
X58086904Y-88511904D01*
X57991666Y-88511904D01*
X57896428Y-88559523D01*
X57848809Y-88607142D01*
X57801190Y-88702380D01*
X57753571Y-88892857D01*
X57705952Y-88988095D01*
X57658333Y-89035714D01*
X57563095Y-89083333D01*
X57467857Y-89083333D01*
X57372619Y-89035714D01*
X57325000Y-88988095D01*
X57277380Y-88892857D01*
X57277380Y-88654761D01*
X57325000Y-88511904D01*
X57277380Y-88178571D02*
X58277380Y-87940476D01*
X57563095Y-87750000D01*
X58277380Y-87559523D01*
X57277380Y-87321428D01*
X57372619Y-86988095D02*
X57325000Y-86940476D01*
X57277380Y-86845238D01*
X57277380Y-86607142D01*
X57325000Y-86511904D01*
X57372619Y-86464285D01*
X57467857Y-86416666D01*
X57563095Y-86416666D01*
X57705952Y-86464285D01*
X58277380Y-87035714D01*
X58277380Y-86416666D01*
%TO.C,R11*%
X63607142Y-90452380D02*
X63273809Y-89976190D01*
X63035714Y-90452380D02*
X63035714Y-89452380D01*
X63416666Y-89452380D01*
X63511904Y-89500000D01*
X63559523Y-89547619D01*
X63607142Y-89642857D01*
X63607142Y-89785714D01*
X63559523Y-89880952D01*
X63511904Y-89928571D01*
X63416666Y-89976190D01*
X63035714Y-89976190D01*
X64559523Y-90452380D02*
X63988095Y-90452380D01*
X64273809Y-90452380D02*
X64273809Y-89452380D01*
X64178571Y-89595238D01*
X64083333Y-89690476D01*
X63988095Y-89738095D01*
X65511904Y-90452380D02*
X64940476Y-90452380D01*
X65226190Y-90452380D02*
X65226190Y-89452380D01*
X65130952Y-89595238D01*
X65035714Y-89690476D01*
X64940476Y-89738095D01*
%TO.C,R10*%
X82702380Y-64642857D02*
X82226190Y-64976190D01*
X82702380Y-65214285D02*
X81702380Y-65214285D01*
X81702380Y-64833333D01*
X81750000Y-64738095D01*
X81797619Y-64690476D01*
X81892857Y-64642857D01*
X82035714Y-64642857D01*
X82130952Y-64690476D01*
X82178571Y-64738095D01*
X82226190Y-64833333D01*
X82226190Y-65214285D01*
X82702380Y-63690476D02*
X82702380Y-64261904D01*
X82702380Y-63976190D02*
X81702380Y-63976190D01*
X81845238Y-64071428D01*
X81940476Y-64166666D01*
X81988095Y-64261904D01*
X81702380Y-63071428D02*
X81702380Y-62976190D01*
X81750000Y-62880952D01*
X81797619Y-62833333D01*
X81892857Y-62785714D01*
X82083333Y-62738095D01*
X82321428Y-62738095D01*
X82511904Y-62785714D01*
X82607142Y-62833333D01*
X82654761Y-62880952D01*
X82702380Y-62976190D01*
X82702380Y-63071428D01*
X82654761Y-63166666D01*
X82607142Y-63214285D01*
X82511904Y-63261904D01*
X82321428Y-63309523D01*
X82083333Y-63309523D01*
X81892857Y-63261904D01*
X81797619Y-63214285D01*
X81750000Y-63166666D01*
X81702380Y-63071428D01*
%TO.C,R9*%
X80452380Y-64166666D02*
X79976190Y-64500000D01*
X80452380Y-64738095D02*
X79452380Y-64738095D01*
X79452380Y-64357142D01*
X79500000Y-64261904D01*
X79547619Y-64214285D01*
X79642857Y-64166666D01*
X79785714Y-64166666D01*
X79880952Y-64214285D01*
X79928571Y-64261904D01*
X79976190Y-64357142D01*
X79976190Y-64738095D01*
X80452380Y-63690476D02*
X80452380Y-63500000D01*
X80404761Y-63404761D01*
X80357142Y-63357142D01*
X80214285Y-63261904D01*
X80023809Y-63214285D01*
X79642857Y-63214285D01*
X79547619Y-63261904D01*
X79500000Y-63309523D01*
X79452380Y-63404761D01*
X79452380Y-63595238D01*
X79500000Y-63690476D01*
X79547619Y-63738095D01*
X79642857Y-63785714D01*
X79880952Y-63785714D01*
X79976190Y-63738095D01*
X80023809Y-63690476D01*
X80071428Y-63595238D01*
X80071428Y-63404761D01*
X80023809Y-63309523D01*
X79976190Y-63261904D01*
X79880952Y-63214285D01*
%TO.C,R2*%
X116452380Y-78666666D02*
X115976190Y-79000000D01*
X116452380Y-79238095D02*
X115452380Y-79238095D01*
X115452380Y-78857142D01*
X115500000Y-78761904D01*
X115547619Y-78714285D01*
X115642857Y-78666666D01*
X115785714Y-78666666D01*
X115880952Y-78714285D01*
X115928571Y-78761904D01*
X115976190Y-78857142D01*
X115976190Y-79238095D01*
X115547619Y-78285714D02*
X115500000Y-78238095D01*
X115452380Y-78142857D01*
X115452380Y-77904761D01*
X115500000Y-77809523D01*
X115547619Y-77761904D01*
X115642857Y-77714285D01*
X115738095Y-77714285D01*
X115880952Y-77761904D01*
X116452380Y-78333333D01*
X116452380Y-77714285D01*
%TO.C,R1*%
X116552380Y-82916666D02*
X116076190Y-83250000D01*
X116552380Y-83488095D02*
X115552380Y-83488095D01*
X115552380Y-83107142D01*
X115600000Y-83011904D01*
X115647619Y-82964285D01*
X115742857Y-82916666D01*
X115885714Y-82916666D01*
X115980952Y-82964285D01*
X116028571Y-83011904D01*
X116076190Y-83107142D01*
X116076190Y-83488095D01*
X116552380Y-81964285D02*
X116552380Y-82535714D01*
X116552380Y-82250000D02*
X115552380Y-82250000D01*
X115695238Y-82345238D01*
X115790476Y-82440476D01*
X115838095Y-82535714D01*
%TO.C,C1*%
X136333333Y-116357142D02*
X136285714Y-116404761D01*
X136142857Y-116452380D01*
X136047619Y-116452380D01*
X135904761Y-116404761D01*
X135809523Y-116309523D01*
X135761904Y-116214285D01*
X135714285Y-116023809D01*
X135714285Y-115880952D01*
X135761904Y-115690476D01*
X135809523Y-115595238D01*
X135904761Y-115500000D01*
X136047619Y-115452380D01*
X136142857Y-115452380D01*
X136285714Y-115500000D01*
X136333333Y-115547619D01*
X137285714Y-116452380D02*
X136714285Y-116452380D01*
X137000000Y-116452380D02*
X137000000Y-115452380D01*
X136904761Y-115595238D01*
X136809523Y-115690476D01*
X136714285Y-115738095D01*
%TO.C,D12*%
X85815714Y-127452380D02*
X85815714Y-126452380D01*
X86053809Y-126452380D01*
X86196666Y-126500000D01*
X86291904Y-126595238D01*
X86339523Y-126690476D01*
X86387142Y-126880952D01*
X86387142Y-127023809D01*
X86339523Y-127214285D01*
X86291904Y-127309523D01*
X86196666Y-127404761D01*
X86053809Y-127452380D01*
X85815714Y-127452380D01*
X87339523Y-127452380D02*
X86768095Y-127452380D01*
X87053809Y-127452380D02*
X87053809Y-126452380D01*
X86958571Y-126595238D01*
X86863333Y-126690476D01*
X86768095Y-126738095D01*
X87720476Y-126547619D02*
X87768095Y-126500000D01*
X87863333Y-126452380D01*
X88101428Y-126452380D01*
X88196666Y-126500000D01*
X88244285Y-126547619D01*
X88291904Y-126642857D01*
X88291904Y-126738095D01*
X88244285Y-126880952D01*
X87672857Y-127452380D01*
X88291904Y-127452380D01*
X93768095Y-127452380D02*
X93768095Y-126452380D01*
X94339523Y-127452380D02*
X93910952Y-126880952D01*
X94339523Y-126452380D02*
X93768095Y-127023809D01*
%TO.C,J11*%
X65190476Y-130552380D02*
X65190476Y-131266666D01*
X65142857Y-131409523D01*
X65047619Y-131504761D01*
X64904761Y-131552380D01*
X64809523Y-131552380D01*
X66190476Y-131552380D02*
X65619047Y-131552380D01*
X65904761Y-131552380D02*
X65904761Y-130552380D01*
X65809523Y-130695238D01*
X65714285Y-130790476D01*
X65619047Y-130838095D01*
X67142857Y-131552380D02*
X66571428Y-131552380D01*
X66857142Y-131552380D02*
X66857142Y-130552380D01*
X66761904Y-130695238D01*
X66666666Y-130790476D01*
X66571428Y-130838095D01*
%TO.C,K4*%
X60852380Y-103338095D02*
X59852380Y-103338095D01*
X60852380Y-102766666D02*
X60280952Y-103195238D01*
X59852380Y-102766666D02*
X60423809Y-103338095D01*
X60185714Y-101909523D02*
X60852380Y-101909523D01*
X59804761Y-102147619D02*
X60519047Y-102385714D01*
X60519047Y-101766666D01*
%TO.C,H3*%
X139238095Y-135452380D02*
X139238095Y-134452380D01*
X139238095Y-134928571D02*
X139809523Y-134928571D01*
X139809523Y-135452380D02*
X139809523Y-134452380D01*
X140190476Y-134452380D02*
X140809523Y-134452380D01*
X140476190Y-134833333D01*
X140619047Y-134833333D01*
X140714285Y-134880952D01*
X140761904Y-134928571D01*
X140809523Y-135023809D01*
X140809523Y-135261904D01*
X140761904Y-135357142D01*
X140714285Y-135404761D01*
X140619047Y-135452380D01*
X140333333Y-135452380D01*
X140238095Y-135404761D01*
X140190476Y-135357142D01*
%TO.C,C3*%
X142412142Y-101126666D02*
X142459761Y-101174285D01*
X142507380Y-101317142D01*
X142507380Y-101412380D01*
X142459761Y-101555238D01*
X142364523Y-101650476D01*
X142269285Y-101698095D01*
X142078809Y-101745714D01*
X141935952Y-101745714D01*
X141745476Y-101698095D01*
X141650238Y-101650476D01*
X141555000Y-101555238D01*
X141507380Y-101412380D01*
X141507380Y-101317142D01*
X141555000Y-101174285D01*
X141602619Y-101126666D01*
X141507380Y-100793333D02*
X141507380Y-100174285D01*
X141888333Y-100507619D01*
X141888333Y-100364761D01*
X141935952Y-100269523D01*
X141983571Y-100221904D01*
X142078809Y-100174285D01*
X142316904Y-100174285D01*
X142412142Y-100221904D01*
X142459761Y-100269523D01*
X142507380Y-100364761D01*
X142507380Y-100650476D01*
X142459761Y-100745714D01*
X142412142Y-100793333D01*
%TO.C,D4*%
X122261904Y-124002380D02*
X122261904Y-123002380D01*
X122500000Y-123002380D01*
X122642857Y-123050000D01*
X122738095Y-123145238D01*
X122785714Y-123240476D01*
X122833333Y-123430952D01*
X122833333Y-123573809D01*
X122785714Y-123764285D01*
X122738095Y-123859523D01*
X122642857Y-123954761D01*
X122500000Y-124002380D01*
X122261904Y-124002380D01*
X123690476Y-123335714D02*
X123690476Y-124002380D01*
X123452380Y-122954761D02*
X123214285Y-123669047D01*
X123833333Y-123669047D01*
X115738095Y-124002380D02*
X115738095Y-123002380D01*
X116309523Y-124002380D02*
X115880952Y-123430952D01*
X116309523Y-123002380D02*
X115738095Y-123573809D01*
%TO.C,J9*%
X50666666Y-109202380D02*
X50666666Y-109916666D01*
X50619047Y-110059523D01*
X50523809Y-110154761D01*
X50380952Y-110202380D01*
X50285714Y-110202380D01*
X51190476Y-110202380D02*
X51380952Y-110202380D01*
X51476190Y-110154761D01*
X51523809Y-110107142D01*
X51619047Y-109964285D01*
X51666666Y-109773809D01*
X51666666Y-109392857D01*
X51619047Y-109297619D01*
X51571428Y-109250000D01*
X51476190Y-109202380D01*
X51285714Y-109202380D01*
X51190476Y-109250000D01*
X51142857Y-109297619D01*
X51095238Y-109392857D01*
X51095238Y-109630952D01*
X51142857Y-109726190D01*
X51190476Y-109773809D01*
X51285714Y-109821428D01*
X51476190Y-109821428D01*
X51571428Y-109773809D01*
X51619047Y-109726190D01*
X51666666Y-109630952D01*
%TO.C,K3*%
X78752380Y-103338095D02*
X77752380Y-103338095D01*
X78752380Y-102766666D02*
X78180952Y-103195238D01*
X77752380Y-102766666D02*
X78323809Y-103338095D01*
X77752380Y-102433333D02*
X77752380Y-101814285D01*
X78133333Y-102147619D01*
X78133333Y-102004761D01*
X78180952Y-101909523D01*
X78228571Y-101861904D01*
X78323809Y-101814285D01*
X78561904Y-101814285D01*
X78657142Y-101861904D01*
X78704761Y-101909523D01*
X78752380Y-102004761D01*
X78752380Y-102290476D01*
X78704761Y-102385714D01*
X78657142Y-102433333D01*
%TO.C,BZ1*%
X76119047Y-83728571D02*
X76261904Y-83776190D01*
X76309523Y-83823809D01*
X76357142Y-83919047D01*
X76357142Y-84061904D01*
X76309523Y-84157142D01*
X76261904Y-84204761D01*
X76166666Y-84252380D01*
X75785714Y-84252380D01*
X75785714Y-83252380D01*
X76119047Y-83252380D01*
X76214285Y-83300000D01*
X76261904Y-83347619D01*
X76309523Y-83442857D01*
X76309523Y-83538095D01*
X76261904Y-83633333D01*
X76214285Y-83680952D01*
X76119047Y-83728571D01*
X75785714Y-83728571D01*
X76690476Y-83252380D02*
X77357142Y-83252380D01*
X76690476Y-84252380D01*
X77357142Y-84252380D01*
X78261904Y-84252380D02*
X77690476Y-84252380D01*
X77976190Y-84252380D02*
X77976190Y-83252380D01*
X77880952Y-83395238D01*
X77785714Y-83490476D01*
X77690476Y-83538095D01*
X72809047Y-88531428D02*
X73570952Y-88531428D01*
X73190000Y-88912380D02*
X73190000Y-88150476D01*
%TO.C,U5*%
X109752380Y-52661904D02*
X110561904Y-52661904D01*
X110657142Y-52614285D01*
X110704761Y-52566666D01*
X110752380Y-52471428D01*
X110752380Y-52280952D01*
X110704761Y-52185714D01*
X110657142Y-52138095D01*
X110561904Y-52090476D01*
X109752380Y-52090476D01*
X109752380Y-51138095D02*
X109752380Y-51614285D01*
X110228571Y-51661904D01*
X110180952Y-51614285D01*
X110133333Y-51519047D01*
X110133333Y-51280952D01*
X110180952Y-51185714D01*
X110228571Y-51138095D01*
X110323809Y-51090476D01*
X110561904Y-51090476D01*
X110657142Y-51138095D01*
X110704761Y-51185714D01*
X110752380Y-51280952D01*
X110752380Y-51519047D01*
X110704761Y-51614285D01*
X110657142Y-51661904D01*
%TO.C,U2*%
X121988095Y-76552380D02*
X121988095Y-77361904D01*
X122035714Y-77457142D01*
X122083333Y-77504761D01*
X122178571Y-77552380D01*
X122369047Y-77552380D01*
X122464285Y-77504761D01*
X122511904Y-77457142D01*
X122559523Y-77361904D01*
X122559523Y-76552380D01*
X122988095Y-76647619D02*
X123035714Y-76600000D01*
X123130952Y-76552380D01*
X123369047Y-76552380D01*
X123464285Y-76600000D01*
X123511904Y-76647619D01*
X123559523Y-76742857D01*
X123559523Y-76838095D01*
X123511904Y-76980952D01*
X122940476Y-77552380D01*
X123559523Y-77552380D01*
%TO.C,D9*%
X76452380Y-99738095D02*
X75452380Y-99738095D01*
X75452380Y-99500000D01*
X75500000Y-99357142D01*
X75595238Y-99261904D01*
X75690476Y-99214285D01*
X75880952Y-99166666D01*
X76023809Y-99166666D01*
X76214285Y-99214285D01*
X76309523Y-99261904D01*
X76404761Y-99357142D01*
X76452380Y-99500000D01*
X76452380Y-99738095D01*
X76452380Y-98690476D02*
X76452380Y-98500000D01*
X76404761Y-98404761D01*
X76357142Y-98357142D01*
X76214285Y-98261904D01*
X76023809Y-98214285D01*
X75642857Y-98214285D01*
X75547619Y-98261904D01*
X75500000Y-98309523D01*
X75452380Y-98404761D01*
X75452380Y-98595238D01*
X75500000Y-98690476D01*
X75547619Y-98738095D01*
X75642857Y-98785714D01*
X75880952Y-98785714D01*
X75976190Y-98738095D01*
X76023809Y-98690476D01*
X76071428Y-98595238D01*
X76071428Y-98404761D01*
X76023809Y-98309523D01*
X75976190Y-98261904D01*
X75880952Y-98214285D01*
%TO.C,D8*%
X104261904Y-127452380D02*
X104261904Y-126452380D01*
X104500000Y-126452380D01*
X104642857Y-126500000D01*
X104738095Y-126595238D01*
X104785714Y-126690476D01*
X104833333Y-126880952D01*
X104833333Y-127023809D01*
X104785714Y-127214285D01*
X104738095Y-127309523D01*
X104642857Y-127404761D01*
X104500000Y-127452380D01*
X104261904Y-127452380D01*
X105404761Y-126880952D02*
X105309523Y-126833333D01*
X105261904Y-126785714D01*
X105214285Y-126690476D01*
X105214285Y-126642857D01*
X105261904Y-126547619D01*
X105309523Y-126500000D01*
X105404761Y-126452380D01*
X105595238Y-126452380D01*
X105690476Y-126500000D01*
X105738095Y-126547619D01*
X105785714Y-126642857D01*
X105785714Y-126690476D01*
X105738095Y-126785714D01*
X105690476Y-126833333D01*
X105595238Y-126880952D01*
X105404761Y-126880952D01*
X105309523Y-126928571D01*
X105261904Y-126976190D01*
X105214285Y-127071428D01*
X105214285Y-127261904D01*
X105261904Y-127357142D01*
X105309523Y-127404761D01*
X105404761Y-127452380D01*
X105595238Y-127452380D01*
X105690476Y-127404761D01*
X105738095Y-127357142D01*
X105785714Y-127261904D01*
X105785714Y-127071428D01*
X105738095Y-126976190D01*
X105690476Y-126928571D01*
X105595238Y-126880952D01*
X111738095Y-127452380D02*
X111738095Y-126452380D01*
X112309523Y-127452380D02*
X111880952Y-126880952D01*
X112309523Y-126452380D02*
X111738095Y-127023809D01*
%TO.C,R7*%
X64202380Y-99166666D02*
X63726190Y-99500000D01*
X64202380Y-99738095D02*
X63202380Y-99738095D01*
X63202380Y-99357142D01*
X63250000Y-99261904D01*
X63297619Y-99214285D01*
X63392857Y-99166666D01*
X63535714Y-99166666D01*
X63630952Y-99214285D01*
X63678571Y-99261904D01*
X63726190Y-99357142D01*
X63726190Y-99738095D01*
X63202380Y-98833333D02*
X63202380Y-98166666D01*
X64202380Y-98595238D01*
%TO.C,C7*%
X136333333Y-100857142D02*
X136285714Y-100904761D01*
X136142857Y-100952380D01*
X136047619Y-100952380D01*
X135904761Y-100904761D01*
X135809523Y-100809523D01*
X135761904Y-100714285D01*
X135714285Y-100523809D01*
X135714285Y-100380952D01*
X135761904Y-100190476D01*
X135809523Y-100095238D01*
X135904761Y-100000000D01*
X136047619Y-99952380D01*
X136142857Y-99952380D01*
X136285714Y-100000000D01*
X136333333Y-100047619D01*
X136666666Y-99952380D02*
X137333333Y-99952380D01*
X136904761Y-100952380D01*
%TO.C,K2*%
X96652380Y-103338095D02*
X95652380Y-103338095D01*
X96652380Y-102766666D02*
X96080952Y-103195238D01*
X95652380Y-102766666D02*
X96223809Y-103338095D01*
X95747619Y-102385714D02*
X95700000Y-102338095D01*
X95652380Y-102242857D01*
X95652380Y-102004761D01*
X95700000Y-101909523D01*
X95747619Y-101861904D01*
X95842857Y-101814285D01*
X95938095Y-101814285D01*
X96080952Y-101861904D01*
X96652380Y-102433333D01*
X96652380Y-101814285D01*
%TO.C,J5*%
X140252380Y-73133333D02*
X140966666Y-73133333D01*
X141109523Y-73180952D01*
X141204761Y-73276190D01*
X141252380Y-73419047D01*
X141252380Y-73514285D01*
X140252380Y-72180952D02*
X140252380Y-72657142D01*
X140728571Y-72704761D01*
X140680952Y-72657142D01*
X140633333Y-72561904D01*
X140633333Y-72323809D01*
X140680952Y-72228571D01*
X140728571Y-72180952D01*
X140823809Y-72133333D01*
X141061904Y-72133333D01*
X141157142Y-72180952D01*
X141204761Y-72228571D01*
X141252380Y-72323809D01*
X141252380Y-72561904D01*
X141204761Y-72657142D01*
X141157142Y-72704761D01*
%TO.C,H1*%
X59238095Y-135452380D02*
X59238095Y-134452380D01*
X59238095Y-134928571D02*
X59809523Y-134928571D01*
X59809523Y-135452380D02*
X59809523Y-134452380D01*
X60809523Y-135452380D02*
X60238095Y-135452380D01*
X60523809Y-135452380D02*
X60523809Y-134452380D01*
X60428571Y-134595238D01*
X60333333Y-134690476D01*
X60238095Y-134738095D01*
%TO.C,J8*%
X97666666Y-129202380D02*
X97666666Y-129916666D01*
X97619047Y-130059523D01*
X97523809Y-130154761D01*
X97380952Y-130202380D01*
X97285714Y-130202380D01*
X98285714Y-129630952D02*
X98190476Y-129583333D01*
X98142857Y-129535714D01*
X98095238Y-129440476D01*
X98095238Y-129392857D01*
X98142857Y-129297619D01*
X98190476Y-129250000D01*
X98285714Y-129202380D01*
X98476190Y-129202380D01*
X98571428Y-129250000D01*
X98619047Y-129297619D01*
X98666666Y-129392857D01*
X98666666Y-129440476D01*
X98619047Y-129535714D01*
X98571428Y-129583333D01*
X98476190Y-129630952D01*
X98285714Y-129630952D01*
X98190476Y-129678571D01*
X98142857Y-129726190D01*
X98095238Y-129821428D01*
X98095238Y-130011904D01*
X98142857Y-130107142D01*
X98190476Y-130154761D01*
X98285714Y-130202380D01*
X98476190Y-130202380D01*
X98571428Y-130154761D01*
X98619047Y-130107142D01*
X98666666Y-130011904D01*
X98666666Y-129821428D01*
X98619047Y-129726190D01*
X98571428Y-129678571D01*
X98476190Y-129630952D01*
%TO.C,C4*%
X142717142Y-88126666D02*
X142764761Y-88174285D01*
X142812380Y-88317142D01*
X142812380Y-88412380D01*
X142764761Y-88555238D01*
X142669523Y-88650476D01*
X142574285Y-88698095D01*
X142383809Y-88745714D01*
X142240952Y-88745714D01*
X142050476Y-88698095D01*
X141955238Y-88650476D01*
X141860000Y-88555238D01*
X141812380Y-88412380D01*
X141812380Y-88317142D01*
X141860000Y-88174285D01*
X141907619Y-88126666D01*
X142145714Y-87269523D02*
X142812380Y-87269523D01*
X141764761Y-87507619D02*
X142479047Y-87745714D01*
X142479047Y-87126666D01*
%TO.C,RN1*%
X112952380Y-83690476D02*
X112476190Y-84023809D01*
X112952380Y-84261904D02*
X111952380Y-84261904D01*
X111952380Y-83880952D01*
X112000000Y-83785714D01*
X112047619Y-83738095D01*
X112142857Y-83690476D01*
X112285714Y-83690476D01*
X112380952Y-83738095D01*
X112428571Y-83785714D01*
X112476190Y-83880952D01*
X112476190Y-84261904D01*
X112952380Y-83261904D02*
X111952380Y-83261904D01*
X112952380Y-82690476D01*
X111952380Y-82690476D01*
X112952380Y-81690476D02*
X112952380Y-82261904D01*
X112952380Y-81976190D02*
X111952380Y-81976190D01*
X112095238Y-82071428D01*
X112190476Y-82166666D01*
X112238095Y-82261904D01*
%TO.C,J4*%
X140452380Y-60733333D02*
X141166666Y-60733333D01*
X141309523Y-60780952D01*
X141404761Y-60876190D01*
X141452380Y-61019047D01*
X141452380Y-61114285D01*
X140785714Y-59828571D02*
X141452380Y-59828571D01*
X140404761Y-60066666D02*
X141119047Y-60304761D01*
X141119047Y-59685714D01*
%TO.C,J7*%
X115916666Y-129202380D02*
X115916666Y-129916666D01*
X115869047Y-130059523D01*
X115773809Y-130154761D01*
X115630952Y-130202380D01*
X115535714Y-130202380D01*
X116297619Y-129202380D02*
X116964285Y-129202380D01*
X116535714Y-130202380D01*
%TO.C,R3*%
X64583333Y-87894880D02*
X64250000Y-87418690D01*
X64011904Y-87894880D02*
X64011904Y-86894880D01*
X64392857Y-86894880D01*
X64488095Y-86942500D01*
X64535714Y-86990119D01*
X64583333Y-87085357D01*
X64583333Y-87228214D01*
X64535714Y-87323452D01*
X64488095Y-87371071D01*
X64392857Y-87418690D01*
X64011904Y-87418690D01*
X64916666Y-86894880D02*
X65535714Y-86894880D01*
X65202380Y-87275833D01*
X65345238Y-87275833D01*
X65440476Y-87323452D01*
X65488095Y-87371071D01*
X65535714Y-87466309D01*
X65535714Y-87704404D01*
X65488095Y-87799642D01*
X65440476Y-87847261D01*
X65345238Y-87894880D01*
X65059523Y-87894880D01*
X64964285Y-87847261D01*
X64916666Y-87799642D01*
%TO.C,J3*%
X74916666Y-47277380D02*
X74916666Y-47991666D01*
X74869047Y-48134523D01*
X74773809Y-48229761D01*
X74630952Y-48277380D01*
X74535714Y-48277380D01*
X75297619Y-47277380D02*
X75916666Y-47277380D01*
X75583333Y-47658333D01*
X75726190Y-47658333D01*
X75821428Y-47705952D01*
X75869047Y-47753571D01*
X75916666Y-47848809D01*
X75916666Y-48086904D01*
X75869047Y-48182142D01*
X75821428Y-48229761D01*
X75726190Y-48277380D01*
X75440476Y-48277380D01*
X75345238Y-48229761D01*
X75297619Y-48182142D01*
%TO.C,U3*%
X148277380Y-95261904D02*
X149086904Y-95261904D01*
X149182142Y-95214285D01*
X149229761Y-95166666D01*
X149277380Y-95071428D01*
X149277380Y-94880952D01*
X149229761Y-94785714D01*
X149182142Y-94738095D01*
X149086904Y-94690476D01*
X148277380Y-94690476D01*
X148277380Y-94309523D02*
X148277380Y-93690476D01*
X148658333Y-94023809D01*
X148658333Y-93880952D01*
X148705952Y-93785714D01*
X148753571Y-93738095D01*
X148848809Y-93690476D01*
X149086904Y-93690476D01*
X149182142Y-93738095D01*
X149229761Y-93785714D01*
X149277380Y-93880952D01*
X149277380Y-94166666D01*
X149229761Y-94261904D01*
X149182142Y-94309523D01*
%TO.C,H4*%
X139238095Y-45452380D02*
X139238095Y-44452380D01*
X139238095Y-44928571D02*
X139809523Y-44928571D01*
X139809523Y-45452380D02*
X139809523Y-44452380D01*
X140714285Y-44785714D02*
X140714285Y-45452380D01*
X140476190Y-44404761D02*
X140238095Y-45119047D01*
X140857142Y-45119047D01*
%TO.C,U1*%
X53774880Y-65761904D02*
X54584404Y-65761904D01*
X54679642Y-65714285D01*
X54727261Y-65666666D01*
X54774880Y-65571428D01*
X54774880Y-65380952D01*
X54727261Y-65285714D01*
X54679642Y-65238095D01*
X54584404Y-65190476D01*
X53774880Y-65190476D01*
X54774880Y-64190476D02*
X54774880Y-64761904D01*
X54774880Y-64476190D02*
X53774880Y-64476190D01*
X53917738Y-64571428D01*
X54012976Y-64666666D01*
X54060595Y-64761904D01*
X56791071Y-67833333D02*
X56791071Y-67500000D01*
X57314880Y-67357142D02*
X57314880Y-67833333D01*
X56314880Y-67833333D01*
X56314880Y-67357142D01*
X57314880Y-66785714D02*
X57267261Y-66880952D01*
X57172023Y-66928571D01*
X56314880Y-66928571D01*
X57267261Y-66023809D02*
X57314880Y-66119047D01*
X57314880Y-66309523D01*
X57267261Y-66404761D01*
X57172023Y-66452380D01*
X56791071Y-66452380D01*
X56695833Y-66404761D01*
X56648214Y-66309523D01*
X56648214Y-66119047D01*
X56695833Y-66023809D01*
X56791071Y-65976190D01*
X56886309Y-65976190D01*
X56981547Y-66452380D01*
X57267261Y-65119047D02*
X57314880Y-65214285D01*
X57314880Y-65404761D01*
X57267261Y-65500000D01*
X57219642Y-65547619D01*
X57124404Y-65595238D01*
X56838690Y-65595238D01*
X56743452Y-65547619D01*
X56695833Y-65500000D01*
X56648214Y-65404761D01*
X56648214Y-65214285D01*
X56695833Y-65119047D01*
X56648214Y-64833333D02*
X56648214Y-64452380D01*
X56314880Y-64690476D02*
X57172023Y-64690476D01*
X57267261Y-64642857D01*
X57314880Y-64547619D01*
X57314880Y-64452380D01*
X57314880Y-64119047D02*
X56648214Y-64119047D01*
X56838690Y-64119047D02*
X56743452Y-64071428D01*
X56695833Y-64023809D01*
X56648214Y-63928571D01*
X56648214Y-63833333D01*
X57314880Y-63357142D02*
X57267261Y-63452380D01*
X57219642Y-63500000D01*
X57124404Y-63547619D01*
X56838690Y-63547619D01*
X56743452Y-63500000D01*
X56695833Y-63452380D01*
X56648214Y-63357142D01*
X56648214Y-63214285D01*
X56695833Y-63119047D01*
X56743452Y-63071428D01*
X56838690Y-63023809D01*
X57124404Y-63023809D01*
X57219642Y-63071428D01*
X57267261Y-63119047D01*
X57314880Y-63214285D01*
X57314880Y-63357142D01*
X56648214Y-62595238D02*
X57314880Y-62595238D01*
X56743452Y-62595238D02*
X56695833Y-62547619D01*
X56648214Y-62452380D01*
X56648214Y-62309523D01*
X56695833Y-62214285D01*
X56791071Y-62166666D01*
X57314880Y-62166666D01*
%TO.C,D11*%
X85815714Y-124002380D02*
X85815714Y-123002380D01*
X86053809Y-123002380D01*
X86196666Y-123050000D01*
X86291904Y-123145238D01*
X86339523Y-123240476D01*
X86387142Y-123430952D01*
X86387142Y-123573809D01*
X86339523Y-123764285D01*
X86291904Y-123859523D01*
X86196666Y-123954761D01*
X86053809Y-124002380D01*
X85815714Y-124002380D01*
X87339523Y-124002380D02*
X86768095Y-124002380D01*
X87053809Y-124002380D02*
X87053809Y-123002380D01*
X86958571Y-123145238D01*
X86863333Y-123240476D01*
X86768095Y-123288095D01*
X88291904Y-124002380D02*
X87720476Y-124002380D01*
X88006190Y-124002380D02*
X88006190Y-123002380D01*
X87910952Y-123145238D01*
X87815714Y-123240476D01*
X87720476Y-123288095D01*
X79768095Y-124002380D02*
X79768095Y-123002380D01*
X80339523Y-124002380D02*
X79910952Y-123430952D01*
X80339523Y-123002380D02*
X79768095Y-123573809D01*
%TO.C,SW1*%
X142504761Y-81833333D02*
X142552380Y-81690476D01*
X142552380Y-81452380D01*
X142504761Y-81357142D01*
X142457142Y-81309523D01*
X142361904Y-81261904D01*
X142266666Y-81261904D01*
X142171428Y-81309523D01*
X142123809Y-81357142D01*
X142076190Y-81452380D01*
X142028571Y-81642857D01*
X141980952Y-81738095D01*
X141933333Y-81785714D01*
X141838095Y-81833333D01*
X141742857Y-81833333D01*
X141647619Y-81785714D01*
X141600000Y-81738095D01*
X141552380Y-81642857D01*
X141552380Y-81404761D01*
X141600000Y-81261904D01*
X141552380Y-80928571D02*
X142552380Y-80690476D01*
X141838095Y-80500000D01*
X142552380Y-80309523D01*
X141552380Y-80071428D01*
X142552380Y-79166666D02*
X142552380Y-79738095D01*
X142552380Y-79452380D02*
X141552380Y-79452380D01*
X141695238Y-79547619D01*
X141790476Y-79642857D01*
X141838095Y-79738095D01*
%TO.C,J1*%
X97066666Y-45852380D02*
X97066666Y-46566666D01*
X97019047Y-46709523D01*
X96923809Y-46804761D01*
X96780952Y-46852380D01*
X96685714Y-46852380D01*
X98066666Y-46852380D02*
X97495238Y-46852380D01*
X97780952Y-46852380D02*
X97780952Y-45852380D01*
X97685714Y-45995238D01*
X97590476Y-46090476D01*
X97495238Y-46138095D01*
%TO.C,J6*%
X57452380Y-106833333D02*
X58166666Y-106833333D01*
X58309523Y-106880952D01*
X58404761Y-106976190D01*
X58452380Y-107119047D01*
X58452380Y-107214285D01*
X57452380Y-105928571D02*
X57452380Y-106119047D01*
X57500000Y-106214285D01*
X57547619Y-106261904D01*
X57690476Y-106357142D01*
X57880952Y-106404761D01*
X58261904Y-106404761D01*
X58357142Y-106357142D01*
X58404761Y-106309523D01*
X58452380Y-106214285D01*
X58452380Y-106023809D01*
X58404761Y-105928571D01*
X58357142Y-105880952D01*
X58261904Y-105833333D01*
X58023809Y-105833333D01*
X57928571Y-105880952D01*
X57880952Y-105928571D01*
X57833333Y-106023809D01*
X57833333Y-106214285D01*
X57880952Y-106309523D01*
X57928571Y-106357142D01*
X58023809Y-106404761D01*
%TO.C,R6*%
X100202380Y-99166666D02*
X99726190Y-99500000D01*
X100202380Y-99738095D02*
X99202380Y-99738095D01*
X99202380Y-99357142D01*
X99250000Y-99261904D01*
X99297619Y-99214285D01*
X99392857Y-99166666D01*
X99535714Y-99166666D01*
X99630952Y-99214285D01*
X99678571Y-99261904D01*
X99726190Y-99357142D01*
X99726190Y-99738095D01*
X99202380Y-98309523D02*
X99202380Y-98500000D01*
X99250000Y-98595238D01*
X99297619Y-98642857D01*
X99440476Y-98738095D01*
X99630952Y-98785714D01*
X100011904Y-98785714D01*
X100107142Y-98738095D01*
X100154761Y-98690476D01*
X100202380Y-98595238D01*
X100202380Y-98404761D01*
X100154761Y-98309523D01*
X100107142Y-98261904D01*
X100011904Y-98214285D01*
X99773809Y-98214285D01*
X99678571Y-98261904D01*
X99630952Y-98309523D01*
X99583333Y-98404761D01*
X99583333Y-98595238D01*
X99630952Y-98690476D01*
X99678571Y-98738095D01*
X99773809Y-98785714D01*
%TO.C,D5*%
X122261904Y-127452380D02*
X122261904Y-126452380D01*
X122500000Y-126452380D01*
X122642857Y-126500000D01*
X122738095Y-126595238D01*
X122785714Y-126690476D01*
X122833333Y-126880952D01*
X122833333Y-127023809D01*
X122785714Y-127214285D01*
X122738095Y-127309523D01*
X122642857Y-127404761D01*
X122500000Y-127452380D01*
X122261904Y-127452380D01*
X123738095Y-126452380D02*
X123261904Y-126452380D01*
X123214285Y-126928571D01*
X123261904Y-126880952D01*
X123357142Y-126833333D01*
X123595238Y-126833333D01*
X123690476Y-126880952D01*
X123738095Y-126928571D01*
X123785714Y-127023809D01*
X123785714Y-127261904D01*
X123738095Y-127357142D01*
X123690476Y-127404761D01*
X123595238Y-127452380D01*
X123357142Y-127452380D01*
X123261904Y-127404761D01*
X123214285Y-127357142D01*
X129738095Y-127452380D02*
X129738095Y-126452380D01*
X130309523Y-127452380D02*
X129880952Y-126880952D01*
X130309523Y-126452380D02*
X129738095Y-127023809D01*
%TO.C,R5*%
X118202380Y-99166666D02*
X117726190Y-99500000D01*
X118202380Y-99738095D02*
X117202380Y-99738095D01*
X117202380Y-99357142D01*
X117250000Y-99261904D01*
X117297619Y-99214285D01*
X117392857Y-99166666D01*
X117535714Y-99166666D01*
X117630952Y-99214285D01*
X117678571Y-99261904D01*
X117726190Y-99357142D01*
X117726190Y-99738095D01*
X117202380Y-98261904D02*
X117202380Y-98738095D01*
X117678571Y-98785714D01*
X117630952Y-98738095D01*
X117583333Y-98642857D01*
X117583333Y-98404761D01*
X117630952Y-98309523D01*
X117678571Y-98261904D01*
X117773809Y-98214285D01*
X118011904Y-98214285D01*
X118107142Y-98261904D01*
X118154761Y-98309523D01*
X118202380Y-98404761D01*
X118202380Y-98642857D01*
X118154761Y-98738095D01*
X118107142Y-98785714D01*
%TO.C,U6*%
X108657380Y-91246904D02*
X109466904Y-91246904D01*
X109562142Y-91199285D01*
X109609761Y-91151666D01*
X109657380Y-91056428D01*
X109657380Y-90865952D01*
X109609761Y-90770714D01*
X109562142Y-90723095D01*
X109466904Y-90675476D01*
X108657380Y-90675476D01*
X108657380Y-89770714D02*
X108657380Y-89961190D01*
X108705000Y-90056428D01*
X108752619Y-90104047D01*
X108895476Y-90199285D01*
X109085952Y-90246904D01*
X109466904Y-90246904D01*
X109562142Y-90199285D01*
X109609761Y-90151666D01*
X109657380Y-90056428D01*
X109657380Y-89865952D01*
X109609761Y-89770714D01*
X109562142Y-89723095D01*
X109466904Y-89675476D01*
X109228809Y-89675476D01*
X109133571Y-89723095D01*
X109085952Y-89770714D01*
X109038333Y-89865952D01*
X109038333Y-90056428D01*
X109085952Y-90151666D01*
X109133571Y-90199285D01*
X109228809Y-90246904D01*
%TO.C,H2*%
X59238095Y-45452380D02*
X59238095Y-44452380D01*
X59238095Y-44928571D02*
X59809523Y-44928571D01*
X59809523Y-45452380D02*
X59809523Y-44452380D01*
X60238095Y-44547619D02*
X60285714Y-44500000D01*
X60380952Y-44452380D01*
X60619047Y-44452380D01*
X60714285Y-44500000D01*
X60761904Y-44547619D01*
X60809523Y-44642857D01*
X60809523Y-44738095D01*
X60761904Y-44880952D01*
X60190476Y-45452380D01*
X60809523Y-45452380D01*
%TO.C,R8*%
X82202380Y-99166666D02*
X81726190Y-99500000D01*
X82202380Y-99738095D02*
X81202380Y-99738095D01*
X81202380Y-99357142D01*
X81250000Y-99261904D01*
X81297619Y-99214285D01*
X81392857Y-99166666D01*
X81535714Y-99166666D01*
X81630952Y-99214285D01*
X81678571Y-99261904D01*
X81726190Y-99357142D01*
X81726190Y-99738095D01*
X81630952Y-98595238D02*
X81583333Y-98690476D01*
X81535714Y-98738095D01*
X81440476Y-98785714D01*
X81392857Y-98785714D01*
X81297619Y-98738095D01*
X81250000Y-98690476D01*
X81202380Y-98595238D01*
X81202380Y-98404761D01*
X81250000Y-98309523D01*
X81297619Y-98261904D01*
X81392857Y-98214285D01*
X81440476Y-98214285D01*
X81535714Y-98261904D01*
X81583333Y-98309523D01*
X81630952Y-98404761D01*
X81630952Y-98595238D01*
X81678571Y-98690476D01*
X81726190Y-98738095D01*
X81821428Y-98785714D01*
X82011904Y-98785714D01*
X82107142Y-98738095D01*
X82154761Y-98690476D01*
X82202380Y-98595238D01*
X82202380Y-98404761D01*
X82154761Y-98309523D01*
X82107142Y-98261904D01*
X82011904Y-98214285D01*
X81821428Y-98214285D01*
X81726190Y-98261904D01*
X81678571Y-98309523D01*
X81630952Y-98404761D01*
%TO.C,J10*%
X79690476Y-129202380D02*
X79690476Y-129916666D01*
X79642857Y-130059523D01*
X79547619Y-130154761D01*
X79404761Y-130202380D01*
X79309523Y-130202380D01*
X80690476Y-130202380D02*
X80119047Y-130202380D01*
X80404761Y-130202380D02*
X80404761Y-129202380D01*
X80309523Y-129345238D01*
X80214285Y-129440476D01*
X80119047Y-129488095D01*
X81309523Y-129202380D02*
X81404761Y-129202380D01*
X81500000Y-129250000D01*
X81547619Y-129297619D01*
X81595238Y-129392857D01*
X81642857Y-129583333D01*
X81642857Y-129821428D01*
X81595238Y-130011904D01*
X81547619Y-130107142D01*
X81500000Y-130154761D01*
X81404761Y-130202380D01*
X81309523Y-130202380D01*
X81214285Y-130154761D01*
X81166666Y-130107142D01*
X81119047Y-130011904D01*
X81071428Y-129821428D01*
X81071428Y-129583333D01*
X81119047Y-129392857D01*
X81166666Y-129297619D01*
X81214285Y-129250000D01*
X81309523Y-129202380D01*
%TO.C,D3*%
X130452380Y-99738095D02*
X129452380Y-99738095D01*
X129452380Y-99500000D01*
X129500000Y-99357142D01*
X129595238Y-99261904D01*
X129690476Y-99214285D01*
X129880952Y-99166666D01*
X130023809Y-99166666D01*
X130214285Y-99214285D01*
X130309523Y-99261904D01*
X130404761Y-99357142D01*
X130452380Y-99500000D01*
X130452380Y-99738095D01*
X129452380Y-98833333D02*
X129452380Y-98214285D01*
X129833333Y-98547619D01*
X129833333Y-98404761D01*
X129880952Y-98309523D01*
X129928571Y-98261904D01*
X130023809Y-98214285D01*
X130261904Y-98214285D01*
X130357142Y-98261904D01*
X130404761Y-98309523D01*
X130452380Y-98404761D01*
X130452380Y-98690476D01*
X130404761Y-98785714D01*
X130357142Y-98833333D01*
%TO.C,K1*%
X114652380Y-103238095D02*
X113652380Y-103238095D01*
X114652380Y-102666666D02*
X114080952Y-103095238D01*
X113652380Y-102666666D02*
X114223809Y-103238095D01*
X114652380Y-101714285D02*
X114652380Y-102285714D01*
X114652380Y-102000000D02*
X113652380Y-102000000D01*
X113795238Y-102095238D01*
X113890476Y-102190476D01*
X113938095Y-102285714D01*
%TO.C,R4*%
X131233333Y-84452380D02*
X130900000Y-83976190D01*
X130661904Y-84452380D02*
X130661904Y-83452380D01*
X131042857Y-83452380D01*
X131138095Y-83500000D01*
X131185714Y-83547619D01*
X131233333Y-83642857D01*
X131233333Y-83785714D01*
X131185714Y-83880952D01*
X131138095Y-83928571D01*
X131042857Y-83976190D01*
X130661904Y-83976190D01*
X132090476Y-83785714D02*
X132090476Y-84452380D01*
X131852380Y-83404761D02*
X131614285Y-84119047D01*
X132233333Y-84119047D01*
%TO.C,C5*%
X127583333Y-77357142D02*
X127535714Y-77404761D01*
X127392857Y-77452380D01*
X127297619Y-77452380D01*
X127154761Y-77404761D01*
X127059523Y-77309523D01*
X127011904Y-77214285D01*
X126964285Y-77023809D01*
X126964285Y-76880952D01*
X127011904Y-76690476D01*
X127059523Y-76595238D01*
X127154761Y-76500000D01*
X127297619Y-76452380D01*
X127392857Y-76452380D01*
X127535714Y-76500000D01*
X127583333Y-76547619D01*
X128488095Y-76452380D02*
X128011904Y-76452380D01*
X127964285Y-76928571D01*
X128011904Y-76880952D01*
X128107142Y-76833333D01*
X128345238Y-76833333D01*
X128440476Y-76880952D01*
X128488095Y-76928571D01*
X128535714Y-77023809D01*
X128535714Y-77261904D01*
X128488095Y-77357142D01*
X128440476Y-77404761D01*
X128345238Y-77452380D01*
X128107142Y-77452380D01*
X128011904Y-77404761D01*
X127964285Y-77357142D01*
%TO.C,J2*%
X132752380Y-126133333D02*
X133466666Y-126133333D01*
X133609523Y-126180952D01*
X133704761Y-126276190D01*
X133752380Y-126419047D01*
X133752380Y-126514285D01*
X132847619Y-125704761D02*
X132800000Y-125657142D01*
X132752380Y-125561904D01*
X132752380Y-125323809D01*
X132800000Y-125228571D01*
X132847619Y-125180952D01*
X132942857Y-125133333D01*
X133038095Y-125133333D01*
X133180952Y-125180952D01*
X133752380Y-125752380D01*
X133752380Y-125133333D01*
%TO.C,C6*%
X142607142Y-117166666D02*
X142654761Y-117214285D01*
X142702380Y-117357142D01*
X142702380Y-117452380D01*
X142654761Y-117595238D01*
X142559523Y-117690476D01*
X142464285Y-117738095D01*
X142273809Y-117785714D01*
X142130952Y-117785714D01*
X141940476Y-117738095D01*
X141845238Y-117690476D01*
X141750000Y-117595238D01*
X141702380Y-117452380D01*
X141702380Y-117357142D01*
X141750000Y-117214285D01*
X141797619Y-117166666D01*
X141702380Y-116309523D02*
X141702380Y-116500000D01*
X141750000Y-116595238D01*
X141797619Y-116642857D01*
X141940476Y-116738095D01*
X142130952Y-116785714D01*
X142511904Y-116785714D01*
X142607142Y-116738095D01*
X142654761Y-116690476D01*
X142702380Y-116595238D01*
X142702380Y-116404761D01*
X142654761Y-116309523D01*
X142607142Y-116261904D01*
X142511904Y-116214285D01*
X142273809Y-116214285D01*
X142178571Y-116261904D01*
X142130952Y-116309523D01*
X142083333Y-116404761D01*
X142083333Y-116595238D01*
X142130952Y-116690476D01*
X142178571Y-116738095D01*
X142273809Y-116785714D01*
%TO.C,C2*%
X142662142Y-104206666D02*
X142709761Y-104254285D01*
X142757380Y-104397142D01*
X142757380Y-104492380D01*
X142709761Y-104635238D01*
X142614523Y-104730476D01*
X142519285Y-104778095D01*
X142328809Y-104825714D01*
X142185952Y-104825714D01*
X141995476Y-104778095D01*
X141900238Y-104730476D01*
X141805000Y-104635238D01*
X141757380Y-104492380D01*
X141757380Y-104397142D01*
X141805000Y-104254285D01*
X141852619Y-104206666D01*
X141852619Y-103825714D02*
X141805000Y-103778095D01*
X141757380Y-103682857D01*
X141757380Y-103444761D01*
X141805000Y-103349523D01*
X141852619Y-103301904D01*
X141947857Y-103254285D01*
X142043095Y-103254285D01*
X142185952Y-103301904D01*
X142757380Y-103873333D01*
X142757380Y-103254285D01*
%TO.C,D1*%
X64702380Y-85430595D02*
X63702380Y-85430595D01*
X63702380Y-85192500D01*
X63750000Y-85049642D01*
X63845238Y-84954404D01*
X63940476Y-84906785D01*
X64130952Y-84859166D01*
X64273809Y-84859166D01*
X64464285Y-84906785D01*
X64559523Y-84954404D01*
X64654761Y-85049642D01*
X64702380Y-85192500D01*
X64702380Y-85430595D01*
X64702380Y-83906785D02*
X64702380Y-84478214D01*
X64702380Y-84192500D02*
X63702380Y-84192500D01*
X63845238Y-84287738D01*
X63940476Y-84382976D01*
X63988095Y-84478214D01*
%TO.C,D10*%
X94202380Y-100214285D02*
X93202380Y-100214285D01*
X93202380Y-99976190D01*
X93250000Y-99833333D01*
X93345238Y-99738095D01*
X93440476Y-99690476D01*
X93630952Y-99642857D01*
X93773809Y-99642857D01*
X93964285Y-99690476D01*
X94059523Y-99738095D01*
X94154761Y-99833333D01*
X94202380Y-99976190D01*
X94202380Y-100214285D01*
X94202380Y-98690476D02*
X94202380Y-99261904D01*
X94202380Y-98976190D02*
X93202380Y-98976190D01*
X93345238Y-99071428D01*
X93440476Y-99166666D01*
X93488095Y-99261904D01*
X93202380Y-98071428D02*
X93202380Y-97976190D01*
X93250000Y-97880952D01*
X93297619Y-97833333D01*
X93392857Y-97785714D01*
X93583333Y-97738095D01*
X93821428Y-97738095D01*
X94011904Y-97785714D01*
X94107142Y-97833333D01*
X94154761Y-97880952D01*
X94202380Y-97976190D01*
X94202380Y-98071428D01*
X94154761Y-98166666D01*
X94107142Y-98214285D01*
X94011904Y-98261904D01*
X93821428Y-98309523D01*
X93583333Y-98309523D01*
X93392857Y-98261904D01*
X93297619Y-98214285D01*
X93250000Y-98166666D01*
X93202380Y-98071428D01*
%TO.C,D6*%
X112202380Y-99738095D02*
X111202380Y-99738095D01*
X111202380Y-99500000D01*
X111250000Y-99357142D01*
X111345238Y-99261904D01*
X111440476Y-99214285D01*
X111630952Y-99166666D01*
X111773809Y-99166666D01*
X111964285Y-99214285D01*
X112059523Y-99261904D01*
X112154761Y-99357142D01*
X112202380Y-99500000D01*
X112202380Y-99738095D01*
X111202380Y-98309523D02*
X111202380Y-98500000D01*
X111250000Y-98595238D01*
X111297619Y-98642857D01*
X111440476Y-98738095D01*
X111630952Y-98785714D01*
X112011904Y-98785714D01*
X112107142Y-98738095D01*
X112154761Y-98690476D01*
X112202380Y-98595238D01*
X112202380Y-98404761D01*
X112154761Y-98309523D01*
X112107142Y-98261904D01*
X112011904Y-98214285D01*
X111773809Y-98214285D01*
X111678571Y-98261904D01*
X111630952Y-98309523D01*
X111583333Y-98404761D01*
X111583333Y-98595238D01*
X111630952Y-98690476D01*
X111678571Y-98738095D01*
X111773809Y-98785714D01*
%TO.C,D2*%
X133511904Y-84452380D02*
X133511904Y-83452380D01*
X133750000Y-83452380D01*
X133892857Y-83500000D01*
X133988095Y-83595238D01*
X134035714Y-83690476D01*
X134083333Y-83880952D01*
X134083333Y-84023809D01*
X134035714Y-84214285D01*
X133988095Y-84309523D01*
X133892857Y-84404761D01*
X133750000Y-84452380D01*
X133511904Y-84452380D01*
X134464285Y-83547619D02*
X134511904Y-83500000D01*
X134607142Y-83452380D01*
X134845238Y-83452380D01*
X134940476Y-83500000D01*
X134988095Y-83547619D01*
X135035714Y-83642857D01*
X135035714Y-83738095D01*
X134988095Y-83880952D01*
X134416666Y-84452380D01*
X135035714Y-84452380D01*
%TO.C,D7*%
X104261904Y-124002380D02*
X104261904Y-123002380D01*
X104500000Y-123002380D01*
X104642857Y-123050000D01*
X104738095Y-123145238D01*
X104785714Y-123240476D01*
X104833333Y-123430952D01*
X104833333Y-123573809D01*
X104785714Y-123764285D01*
X104738095Y-123859523D01*
X104642857Y-123954761D01*
X104500000Y-124002380D01*
X104261904Y-124002380D01*
X105166666Y-123002380D02*
X105833333Y-123002380D01*
X105404761Y-124002380D01*
X97738095Y-124002380D02*
X97738095Y-123002380D01*
X98309523Y-124002380D02*
X97880952Y-123430952D01*
X98309523Y-123002380D02*
X97738095Y-123573809D01*
%TO.C,U4*%
X148277380Y-111261904D02*
X149086904Y-111261904D01*
X149182142Y-111214285D01*
X149229761Y-111166666D01*
X149277380Y-111071428D01*
X149277380Y-110880952D01*
X149229761Y-110785714D01*
X149182142Y-110738095D01*
X149086904Y-110690476D01*
X148277380Y-110690476D01*
X148610714Y-109785714D02*
X149277380Y-109785714D01*
X148229761Y-110023809D02*
X148944047Y-110261904D01*
X148944047Y-109642857D01*
D12*
%TO.C,SW2*%
X56735000Y-83940000D02*
X50765000Y-83940000D01*
X50765000Y-83940000D02*
X50765000Y-91560000D01*
X50765000Y-91560000D02*
X56735000Y-91560000D01*
X56735000Y-91560000D02*
X56735000Y-83940000D01*
X56725000Y-87250000D02*
X55975000Y-87250000D01*
X55975000Y-87250000D02*
X55975000Y-88250000D01*
X55975000Y-88250000D02*
X56725000Y-88250000D01*
X56725000Y-88250000D02*
X56725000Y-87250000D01*
X56725000Y-83950000D02*
X55975000Y-83950000D01*
X55975000Y-83950000D02*
X55975000Y-85750000D01*
X55975000Y-85750000D02*
X56725000Y-85750000D01*
X56725000Y-85750000D02*
X56725000Y-83950000D01*
X56725000Y-89750000D02*
X55975000Y-89750000D01*
X55975000Y-89750000D02*
X55975000Y-91550000D01*
X55975000Y-91550000D02*
X56725000Y-91550000D01*
X56725000Y-91550000D02*
X56725000Y-89750000D01*
X54475000Y-83950000D02*
X54475000Y-84700000D01*
X54475000Y-84700000D02*
X51525000Y-84700000D01*
X51525000Y-84700000D02*
X51525000Y-87750000D01*
X54475000Y-91550000D02*
X54475000Y-90800000D01*
X54475000Y-90800000D02*
X51525000Y-90800000D01*
X51525000Y-90800000D02*
X51525000Y-87750000D01*
X57025000Y-84900000D02*
X57025000Y-83650000D01*
X57025000Y-83650000D02*
X55775000Y-83650000D01*
%TO.C,R11*%
X67522936Y-89265000D02*
X67977064Y-89265000D01*
X67522936Y-90735000D02*
X67977064Y-90735000D01*
%TO.C,R10*%
X81515000Y-60727064D02*
X81515000Y-60272936D01*
X82985000Y-60727064D02*
X82985000Y-60272936D01*
%TO.C,R9*%
X79015000Y-60727064D02*
X79015000Y-60272936D01*
X80485000Y-60727064D02*
X80485000Y-60272936D01*
%TO.C,R2*%
X117015000Y-78272936D02*
X117015000Y-78727064D01*
X118485000Y-78272936D02*
X118485000Y-78727064D01*
%TO.C,R1*%
X117015000Y-82977064D02*
X117015000Y-82522936D01*
X118485000Y-82977064D02*
X118485000Y-82522936D01*
%TO.C,C1*%
X132429000Y-110122651D02*
X140571000Y-110122651D01*
X132650000Y-109041651D02*
X135460000Y-109041651D01*
X137540000Y-109281651D02*
X140425000Y-109281651D01*
X132611000Y-109161651D02*
X135460000Y-109161651D01*
X132432000Y-110082651D02*
X140568000Y-110082651D01*
X134536000Y-106801651D02*
X138464000Y-106801651D01*
X137540000Y-108721651D02*
X140222000Y-108721651D01*
X133108000Y-108121651D02*
X135460000Y-108121651D01*
X133082000Y-108161651D02*
X135460000Y-108161651D01*
X132420000Y-110322651D02*
X140580000Y-110322651D01*
X132575000Y-109281651D02*
X135460000Y-109281651D01*
X137540000Y-108081651D02*
X139865000Y-108081651D01*
X132960000Y-108361651D02*
X135460000Y-108361651D01*
X132458000Y-109842651D02*
X140542000Y-109842651D01*
X137540000Y-108601651D02*
X140166000Y-108601651D01*
X137540000Y-108761651D02*
X140240000Y-108761651D01*
X134100000Y-107081651D02*
X138900000Y-107081651D01*
X134948000Y-106601651D02*
X138052000Y-106601651D01*
X133633000Y-107481651D02*
X139367000Y-107481651D01*
X132983000Y-108321651D02*
X135460000Y-108321651D01*
X137540000Y-108841651D02*
X140274000Y-108841651D01*
X137540000Y-109201651D02*
X140402000Y-109201651D01*
X137540000Y-108441651D02*
X140084000Y-108441651D01*
X132695000Y-108921651D02*
X135460000Y-108921651D01*
X137540000Y-109041651D02*
X140350000Y-109041651D01*
X132423000Y-110242651D02*
X140577000Y-110242651D01*
X133056000Y-108201651D02*
X135460000Y-108201651D01*
X133944000Y-107201651D02*
X139056000Y-107201651D01*
X137540000Y-109321651D02*
X140436000Y-109321651D01*
X132515000Y-109521651D02*
X135460000Y-109521651D01*
X135047000Y-106561651D02*
X137953000Y-106561651D01*
X135154000Y-106521651D02*
X137846000Y-106521651D01*
X132679000Y-108961651D02*
X135460000Y-108961651D01*
X132448000Y-109922651D02*
X140552000Y-109922651D01*
X137540000Y-107641651D02*
X139519000Y-107641651D01*
X132420000Y-110362651D02*
X140580000Y-110362651D01*
X137540000Y-107761651D02*
X139624000Y-107761651D01*
X137540000Y-109601651D02*
X140502000Y-109601651D01*
X132796000Y-108681651D02*
X135460000Y-108681651D01*
X137540000Y-109241651D02*
X140414000Y-109241651D01*
X132498000Y-109601651D02*
X135460000Y-109601651D01*
X134855000Y-106641651D02*
X138145000Y-106641651D01*
X135402000Y-106441651D02*
X137598000Y-106441651D01*
X132420000Y-110402651D02*
X140580000Y-110402651D01*
X134046000Y-107121651D02*
X138954000Y-107121651D01*
X133162000Y-108041651D02*
X135460000Y-108041651D01*
X132426000Y-110162651D02*
X140574000Y-110162651D01*
X133376000Y-107761651D02*
X135460000Y-107761651D01*
X133410000Y-107721651D02*
X135460000Y-107721651D01*
X132443000Y-109962651D02*
X140557000Y-109962651D01*
X135967000Y-106321651D02*
X137033000Y-106321651D01*
X132814000Y-108641651D02*
X135460000Y-108641651D01*
X133007000Y-108281651D02*
X135460000Y-108281651D01*
X133674000Y-107441651D02*
X139326000Y-107441651D01*
X137540000Y-108881651D02*
X140290000Y-108881651D01*
X135271000Y-106481651D02*
X137729000Y-106481651D01*
X137540000Y-109681651D02*
X140517000Y-109681651D01*
X132533000Y-109441651D02*
X135460000Y-109441651D01*
X132543000Y-109401651D02*
X135460000Y-109401651D01*
X137540000Y-109081651D02*
X140363000Y-109081651D01*
X133896000Y-107241651D02*
X139104000Y-107241651D01*
X134213000Y-107001651D02*
X138787000Y-107001651D01*
X132524000Y-109481651D02*
X135460000Y-109481651D01*
X132435000Y-110042651D02*
X140565000Y-110042651D01*
X137540000Y-107881651D02*
X139720000Y-107881651D01*
X132834000Y-108601651D02*
X135460000Y-108601651D01*
X133593000Y-107521651D02*
X139407000Y-107521651D01*
X137540000Y-108641651D02*
X140186000Y-108641651D01*
X135732000Y-106361651D02*
X137268000Y-106361651D01*
X137540000Y-108921651D02*
X140305000Y-108921651D01*
X132586000Y-109241651D02*
X135460000Y-109241651D01*
X134398000Y-106881651D02*
X138602000Y-106881651D01*
X132623000Y-109121651D02*
X135460000Y-109121651D01*
X133716000Y-107401651D02*
X139284000Y-107401651D01*
X133135000Y-108081651D02*
X135460000Y-108081651D01*
X137540000Y-107841651D02*
X139689000Y-107841651D01*
X137540000Y-108321651D02*
X140017000Y-108321651D01*
X137540000Y-109361651D02*
X140447000Y-109361651D01*
X137540000Y-108521651D02*
X140127000Y-108521651D01*
X132452000Y-109882651D02*
X140548000Y-109882651D01*
X137540000Y-108801651D02*
X140257000Y-108801651D01*
X133280000Y-107881651D02*
X135460000Y-107881651D01*
X132490000Y-109641651D02*
X135460000Y-109641651D01*
X133445000Y-107681651D02*
X135460000Y-107681651D01*
X133785000Y-114412349D02*
X134585000Y-114412349D01*
X132421000Y-110282651D02*
X140579000Y-110282651D01*
X137540000Y-109481651D02*
X140476000Y-109481651D01*
X132778000Y-108721651D02*
X135460000Y-108721651D01*
X137540000Y-108161651D02*
X139918000Y-108161651D01*
X137540000Y-109641651D02*
X140510000Y-109641651D01*
X134185000Y-114812349D02*
X134185000Y-114012349D01*
X137540000Y-108401651D02*
X140062000Y-108401651D01*
X132424000Y-110202651D02*
X140576000Y-110202651D01*
X137540000Y-108001651D02*
X139809000Y-108001651D01*
X133517000Y-107601651D02*
X139483000Y-107601651D01*
X132439000Y-110002651D02*
X140561000Y-110002651D01*
X133031000Y-108241651D02*
X135460000Y-108241651D01*
X132726000Y-108841651D02*
X135460000Y-108841651D01*
X133759000Y-107361651D02*
X139241000Y-107361651D01*
X137540000Y-108561651D02*
X140147000Y-108561651D01*
X137540000Y-109001651D02*
X140335000Y-109001651D01*
X135552000Y-106401651D02*
X137448000Y-106401651D01*
X137540000Y-108241651D02*
X139969000Y-108241651D01*
X137540000Y-108201651D02*
X139944000Y-108201651D01*
X132553000Y-109361651D02*
X135460000Y-109361651D01*
X137540000Y-109401651D02*
X140457000Y-109401651D01*
X133995000Y-107161651D02*
X139005000Y-107161651D01*
X137540000Y-108681651D02*
X140204000Y-108681651D01*
X132598000Y-109201651D02*
X135460000Y-109201651D01*
X133555000Y-107561651D02*
X139445000Y-107561651D01*
X133191000Y-108001651D02*
X135460000Y-108001651D01*
X134466000Y-106841651D02*
X138534000Y-106841651D01*
X137540000Y-109561651D02*
X140494000Y-109561651D01*
X132760000Y-108761651D02*
X135460000Y-108761651D01*
X137540000Y-107721651D02*
X139590000Y-107721651D01*
X132476000Y-109722651D02*
X140524000Y-109722651D01*
X132873000Y-108521651D02*
X135460000Y-108521651D01*
X137540000Y-108361651D02*
X140040000Y-108361651D01*
X137540000Y-109521651D02*
X140485000Y-109521651D01*
X132470000Y-109762651D02*
X140530000Y-109762651D01*
X132938000Y-108401651D02*
X135460000Y-108401651D01*
X137540000Y-107921651D02*
X139750000Y-107921651D01*
X134687000Y-106721651D02*
X138313000Y-106721651D01*
X134610000Y-106761651D02*
X138390000Y-106761651D01*
X137540000Y-107801651D02*
X139656000Y-107801651D01*
X132853000Y-108561651D02*
X135460000Y-108561651D01*
X137540000Y-109161651D02*
X140389000Y-109161651D01*
X132894000Y-108481651D02*
X135460000Y-108481651D01*
X132483000Y-109681651D02*
X135460000Y-109681651D01*
X134272000Y-106961651D02*
X138728000Y-106961651D01*
X133481000Y-107641651D02*
X135460000Y-107641651D01*
X133311000Y-107841651D02*
X135460000Y-107841651D01*
X132665000Y-109001651D02*
X135460000Y-109001651D01*
X137540000Y-107681651D02*
X139555000Y-107681651D01*
X132564000Y-109321651D02*
X135460000Y-109321651D01*
X137540000Y-108281651D02*
X139993000Y-108281651D01*
X137540000Y-107961651D02*
X139780000Y-107961651D01*
X137540000Y-108481651D02*
X140106000Y-108481651D01*
X132916000Y-108441651D02*
X135460000Y-108441651D01*
X132463000Y-109802651D02*
X140537000Y-109802651D01*
X134769000Y-106681651D02*
X138231000Y-106681651D01*
X133250000Y-107921651D02*
X135460000Y-107921651D01*
X137540000Y-109441651D02*
X140467000Y-109441651D01*
X134334000Y-106921651D02*
X138666000Y-106921651D01*
X133344000Y-107801651D02*
X135460000Y-107801651D01*
X132743000Y-108801651D02*
X135460000Y-108801651D01*
X132506000Y-109561651D02*
X135460000Y-109561651D01*
X133803000Y-107321651D02*
X139197000Y-107321651D01*
X133220000Y-107961651D02*
X135460000Y-107961651D01*
X137540000Y-108961651D02*
X140321000Y-108961651D01*
X137540000Y-108041651D02*
X139838000Y-108041651D01*
X137540000Y-108121651D02*
X139892000Y-108121651D01*
X134155000Y-107041651D02*
X138845000Y-107041651D01*
X137540000Y-109121651D02*
X140377000Y-109121651D01*
X132637000Y-109081651D02*
X135460000Y-109081651D01*
X133849000Y-107281651D02*
X139151000Y-107281651D01*
X132710000Y-108881651D02*
X135460000Y-108881651D01*
X140620000Y-110402651D02*
G75*
G03*
X140620000Y-110402651I-4120000J0D01*
G01*
%TO.C,D12*%
X89750000Y-128470000D02*
X89750000Y-125530000D01*
X90770000Y-127000000D02*
X89750000Y-127000000D01*
X88850000Y-128470000D02*
X88850000Y-125530000D01*
X84310000Y-128470000D02*
X89750000Y-128470000D01*
X88970000Y-128470000D02*
X88970000Y-125530000D01*
X84310000Y-125530000D02*
X84310000Y-128470000D01*
X89750000Y-125530000D02*
X84310000Y-125530000D01*
X88730000Y-128470000D02*
X88730000Y-125530000D01*
X83290000Y-127000000D02*
X84310000Y-127000000D01*
%TO.C,J11*%
X64920000Y-139810000D02*
X75080000Y-139810000D01*
X75080000Y-138540000D02*
X64920000Y-138540000D01*
X64920000Y-132190000D02*
X64920000Y-139810000D01*
X75080000Y-139810000D02*
X75080000Y-132190000D01*
X75080000Y-132190000D02*
X64920000Y-132190000D01*
%TO.C,K4*%
X67500000Y-112000000D02*
X67500000Y-107000000D01*
X69000000Y-113000000D02*
X69000000Y-114500000D01*
X65300000Y-113000000D02*
X65300000Y-106100000D01*
X70500000Y-107000000D02*
X70500000Y-112000000D01*
X75000000Y-109500000D02*
X70500000Y-109500000D01*
X63000000Y-107200000D02*
X63000000Y-109500000D01*
X69000000Y-106100000D02*
X65300000Y-106100000D01*
X76700000Y-102000000D02*
X76700000Y-121200000D01*
X67500000Y-107000000D02*
X70500000Y-107000000D01*
X70500000Y-112000000D02*
X67500000Y-112000000D01*
X76700000Y-102000000D02*
X70200000Y-102000000D01*
X61300000Y-121200000D02*
X61300000Y-102000000D01*
X75000000Y-109500000D02*
X75000000Y-107200000D01*
X64700000Y-117700000D02*
X67000000Y-117700000D01*
X67800000Y-102000000D02*
X61300000Y-102000000D01*
X67500000Y-112000000D02*
X70500000Y-107000000D01*
X73300000Y-117700000D02*
X71000000Y-117700000D01*
X67500000Y-109500000D02*
X63000000Y-109500000D01*
X69000000Y-114500000D02*
X71700000Y-119000000D01*
X69000000Y-113000000D02*
X65300000Y-113000000D01*
X69000000Y-106100000D02*
X69000000Y-105200000D01*
X76700000Y-121200000D02*
X61300000Y-121200000D01*
%TO.C,C3*%
X145316252Y-101695000D02*
X144793748Y-101695000D01*
X145316252Y-100225000D02*
X144793748Y-100225000D01*
%TO.C,D4*%
X121060000Y-122080000D02*
X121060000Y-125020000D01*
X120280000Y-122080000D02*
X120280000Y-125020000D01*
X119260000Y-123550000D02*
X120280000Y-123550000D01*
X121180000Y-122080000D02*
X121180000Y-125020000D01*
X125720000Y-122080000D02*
X120280000Y-122080000D01*
X120280000Y-125020000D02*
X125720000Y-125020000D01*
X125720000Y-125020000D02*
X125720000Y-122080000D01*
X126740000Y-123550000D02*
X125720000Y-123550000D01*
X121300000Y-122080000D02*
X121300000Y-125020000D01*
%TO.C,J9*%
X57810000Y-121080000D02*
X57810000Y-110920000D01*
X50190000Y-121080000D02*
X57810000Y-121080000D01*
X51460000Y-121080000D02*
X51460000Y-110920000D01*
X50190000Y-110920000D02*
X50190000Y-121080000D01*
X57810000Y-110920000D02*
X50190000Y-110920000D01*
%TO.C,K3*%
X83300000Y-113000000D02*
X83300000Y-106100000D01*
X85500000Y-112000000D02*
X85500000Y-107000000D01*
X87000000Y-113000000D02*
X83300000Y-113000000D01*
X87000000Y-114500000D02*
X89700000Y-119000000D01*
X88500000Y-112000000D02*
X85500000Y-112000000D01*
X91300000Y-117700000D02*
X89000000Y-117700000D01*
X87000000Y-106100000D02*
X87000000Y-105200000D01*
X94700000Y-102000000D02*
X88200000Y-102000000D01*
X93000000Y-109500000D02*
X93000000Y-107200000D01*
X85800000Y-102000000D02*
X79300000Y-102000000D01*
X85500000Y-112000000D02*
X88500000Y-107000000D01*
X81000000Y-107200000D02*
X81000000Y-109500000D01*
X85500000Y-109500000D02*
X81000000Y-109500000D01*
X94700000Y-102000000D02*
X94700000Y-121200000D01*
X79300000Y-121200000D02*
X79300000Y-102000000D01*
X87000000Y-106100000D02*
X83300000Y-106100000D01*
X93000000Y-109500000D02*
X88500000Y-109500000D01*
X82700000Y-117700000D02*
X85000000Y-117700000D01*
X85500000Y-107000000D02*
X88500000Y-107000000D01*
X88500000Y-107000000D02*
X88500000Y-112000000D01*
X87000000Y-113000000D02*
X87000000Y-114500000D01*
X94700000Y-121200000D02*
X79300000Y-121200000D01*
%TO.C,BZ1*%
X83100000Y-91000000D02*
G75*
G03*
X83100000Y-91000000I-6100000J0D01*
G01*
%TO.C,U5*%
X48390000Y-71985000D02*
X48390000Y-73255000D01*
X44580000Y-71985000D02*
X43310000Y-71985000D01*
X39500000Y-60555000D02*
X39500000Y-64365000D01*
X35690000Y-51665000D02*
X35690000Y-78335000D01*
X36960000Y-60555000D02*
X39500000Y-60555000D01*
X47120000Y-50395000D02*
X47120000Y-52935000D01*
D13*
X108080000Y-61825000D02*
X105540000Y-61825000D01*
X108080000Y-56745000D02*
X104270000Y-56745000D01*
D12*
X39500000Y-64365000D02*
X36960000Y-64365000D01*
D13*
X105540000Y-61825000D02*
X105540000Y-59285000D01*
X108080000Y-64365000D02*
X108080000Y-61825000D01*
X105540000Y-66905000D02*
X105540000Y-64365000D01*
D12*
X52200000Y-50395000D02*
X36960000Y-50395000D01*
X36960000Y-79605000D02*
X108080000Y-79605000D01*
D13*
X103000000Y-70207000D02*
X108080000Y-70207000D01*
X103000000Y-73255000D02*
X108080000Y-73255000D01*
X108080000Y-73255000D02*
X108080000Y-68175000D01*
D12*
X103000000Y-56745000D02*
X103000000Y-68175000D01*
X47120000Y-71985000D02*
X45850000Y-71985000D01*
D13*
X108080000Y-66905000D02*
X105540000Y-66905000D01*
D14*
X38230000Y-61825000D02*
X38230000Y-63095000D01*
D12*
X43310000Y-71985000D02*
X43310000Y-79605000D01*
X49660000Y-79605000D02*
X49660000Y-71985000D01*
X44580000Y-52935000D02*
X44580000Y-50395000D01*
X48390000Y-73255000D02*
X47120000Y-73255000D01*
X45850000Y-73255000D02*
X44580000Y-73255000D01*
X44580000Y-73255000D02*
X44580000Y-71985000D01*
D13*
X105540000Y-59285000D02*
X108080000Y-59285000D01*
X108080000Y-68175000D02*
X108080000Y-66905000D01*
D12*
X106810000Y-50395000D02*
X52200000Y-50395000D01*
X108080000Y-79605000D02*
X108080000Y-79605000D01*
X47120000Y-73255000D02*
X47120000Y-71985000D01*
X47120000Y-52935000D02*
X44580000Y-52935000D01*
X108080000Y-50395000D02*
X106810000Y-50395000D01*
X49660000Y-71985000D02*
X44580000Y-71985000D01*
X36960000Y-64365000D02*
X36960000Y-60555000D01*
X45850000Y-71985000D02*
X45850000Y-73255000D01*
D13*
X108080000Y-59285000D02*
X108080000Y-56745000D01*
X105540000Y-64365000D02*
X108080000Y-64365000D01*
D12*
X109350000Y-78335000D02*
X109350000Y-51665000D01*
X35690000Y-51665000D02*
G75*
G02*
X36960000Y-50395000I1270000J0D01*
G01*
X109350000Y-78335000D02*
G75*
G02*
X108080000Y-79605000I-1270000J0D01*
G01*
X36960000Y-79605000D02*
G75*
G02*
X35690000Y-78335000I0J1270000D01*
G01*
X108080000Y-50395000D02*
G75*
G02*
X109350000Y-51665000I0J-1270000D01*
G01*
%TO.C,U2*%
X122750000Y-83060000D02*
X124700000Y-83060000D01*
X122750000Y-83060000D02*
X120800000Y-83060000D01*
X122750000Y-77940000D02*
X124700000Y-77940000D01*
X122750000Y-77940000D02*
X119300000Y-77940000D01*
%TO.C,D9*%
X69790000Y-97865000D02*
X69790000Y-100135000D01*
X73850000Y-97865000D02*
X69790000Y-97865000D01*
X69790000Y-100135000D02*
X73850000Y-100135000D01*
%TO.C,D8*%
X106700000Y-128470000D02*
X106700000Y-125530000D01*
X101260000Y-127000000D02*
X102280000Y-127000000D01*
X102280000Y-125530000D02*
X102280000Y-128470000D01*
X108740000Y-127000000D02*
X107720000Y-127000000D01*
X107720000Y-125530000D02*
X102280000Y-125530000D01*
X106940000Y-128470000D02*
X106940000Y-125530000D01*
X106820000Y-128470000D02*
X106820000Y-125530000D01*
X102280000Y-128470000D02*
X107720000Y-128470000D01*
X107720000Y-128470000D02*
X107720000Y-125530000D01*
%TO.C,R7*%
X66727064Y-99735000D02*
X66272936Y-99735000D01*
X66727064Y-98265000D02*
X66272936Y-98265000D01*
%TO.C,C7*%
X133995000Y-91161651D02*
X139005000Y-91161651D01*
X132611000Y-93161651D02*
X135460000Y-93161651D01*
X132476000Y-93722651D02*
X140524000Y-93722651D01*
X132470000Y-93762651D02*
X140530000Y-93762651D01*
X133517000Y-91601651D02*
X139483000Y-91601651D01*
X133250000Y-91921651D02*
X135460000Y-91921651D01*
X132506000Y-93561651D02*
X135460000Y-93561651D01*
X132938000Y-92401651D02*
X135460000Y-92401651D01*
X132564000Y-93321651D02*
X135460000Y-93321651D01*
X137540000Y-92921651D02*
X140305000Y-92921651D01*
X132760000Y-92761651D02*
X135460000Y-92761651D01*
X133445000Y-91681651D02*
X135460000Y-91681651D01*
X137540000Y-92441651D02*
X140084000Y-92441651D01*
X133162000Y-92041651D02*
X135460000Y-92041651D01*
X132726000Y-92841651D02*
X135460000Y-92841651D01*
X133803000Y-91321651D02*
X139197000Y-91321651D01*
X137540000Y-92481651D02*
X140106000Y-92481651D01*
X137540000Y-91921651D02*
X139750000Y-91921651D01*
X132420000Y-94322651D02*
X140580000Y-94322651D01*
X137540000Y-93681651D02*
X140517000Y-93681651D01*
X132586000Y-93241651D02*
X135460000Y-93241651D01*
X132435000Y-94042651D02*
X140565000Y-94042651D01*
X132515000Y-93521651D02*
X135460000Y-93521651D01*
X133759000Y-91361651D02*
X139241000Y-91361651D01*
X135271000Y-90481651D02*
X137729000Y-90481651D01*
X133896000Y-91241651D02*
X139104000Y-91241651D01*
X137540000Y-92121651D02*
X139892000Y-92121651D01*
X137540000Y-92961651D02*
X140321000Y-92961651D01*
X137540000Y-92841651D02*
X140274000Y-92841651D01*
X133376000Y-91761651D02*
X135460000Y-91761651D01*
X133056000Y-92201651D02*
X135460000Y-92201651D01*
X137540000Y-93201651D02*
X140402000Y-93201651D01*
X132665000Y-93001651D02*
X135460000Y-93001651D01*
X137540000Y-93601651D02*
X140502000Y-93601651D01*
X132894000Y-92481651D02*
X135460000Y-92481651D01*
X132443000Y-93962651D02*
X140557000Y-93962651D01*
X132960000Y-92361651D02*
X135460000Y-92361651D01*
X133135000Y-92081651D02*
X135460000Y-92081651D01*
X137540000Y-92241651D02*
X139969000Y-92241651D01*
X135732000Y-90361651D02*
X137268000Y-90361651D01*
X137540000Y-91761651D02*
X139624000Y-91761651D01*
X137540000Y-93081651D02*
X140363000Y-93081651D01*
X132420000Y-94402651D02*
X140580000Y-94402651D01*
X137540000Y-91641651D02*
X139519000Y-91641651D01*
X134398000Y-90881651D02*
X138602000Y-90881651D01*
X133716000Y-91401651D02*
X139284000Y-91401651D01*
X132916000Y-92441651D02*
X135460000Y-92441651D01*
X132679000Y-92961651D02*
X135460000Y-92961651D01*
X134046000Y-91121651D02*
X138954000Y-91121651D01*
X134466000Y-90841651D02*
X138534000Y-90841651D01*
X133555000Y-91561651D02*
X139445000Y-91561651D01*
X132853000Y-92561651D02*
X135460000Y-92561651D01*
X133031000Y-92241651D02*
X135460000Y-92241651D01*
X137540000Y-93361651D02*
X140447000Y-93361651D01*
X134272000Y-90961651D02*
X138728000Y-90961651D01*
X133007000Y-92281651D02*
X135460000Y-92281651D01*
X137540000Y-93161651D02*
X140389000Y-93161651D01*
X137540000Y-91961651D02*
X139780000Y-91961651D01*
X137540000Y-93401651D02*
X140457000Y-93401651D01*
X134948000Y-90601651D02*
X138052000Y-90601651D01*
X137540000Y-93001651D02*
X140335000Y-93001651D01*
X137540000Y-92601651D02*
X140166000Y-92601651D01*
X135047000Y-90561651D02*
X137953000Y-90561651D01*
X137540000Y-92521651D02*
X140127000Y-92521651D01*
X135552000Y-90401651D02*
X137448000Y-90401651D01*
X137540000Y-93481651D02*
X140476000Y-93481651D01*
X137540000Y-92721651D02*
X140222000Y-92721651D01*
X133410000Y-91721651D02*
X135460000Y-91721651D01*
X132598000Y-93201651D02*
X135460000Y-93201651D01*
X137540000Y-92761651D02*
X140240000Y-92761651D01*
X132498000Y-93601651D02*
X135460000Y-93601651D01*
X137540000Y-91721651D02*
X139590000Y-91721651D01*
X132796000Y-92681651D02*
X135460000Y-92681651D01*
X137540000Y-92281651D02*
X139993000Y-92281651D01*
X134213000Y-91001651D02*
X138787000Y-91001651D01*
X137540000Y-92321651D02*
X140017000Y-92321651D01*
X137540000Y-92041651D02*
X139838000Y-92041651D01*
X133633000Y-91481651D02*
X139367000Y-91481651D01*
X132710000Y-92881651D02*
X135460000Y-92881651D01*
X135402000Y-90441651D02*
X137598000Y-90441651D01*
X134855000Y-90641651D02*
X138145000Y-90641651D01*
X134536000Y-90801651D02*
X138464000Y-90801651D01*
X133481000Y-91641651D02*
X135460000Y-91641651D01*
X132637000Y-93081651D02*
X135460000Y-93081651D01*
X137540000Y-93641651D02*
X140510000Y-93641651D01*
X133108000Y-92121651D02*
X135460000Y-92121651D01*
X137540000Y-92161651D02*
X139918000Y-92161651D01*
X133849000Y-91281651D02*
X139151000Y-91281651D01*
X132743000Y-92801651D02*
X135460000Y-92801651D01*
X132695000Y-92921651D02*
X135460000Y-92921651D01*
X132421000Y-94282651D02*
X140579000Y-94282651D01*
X135154000Y-90521651D02*
X137846000Y-90521651D01*
X132426000Y-94162651D02*
X140574000Y-94162651D01*
X133593000Y-91521651D02*
X139407000Y-91521651D01*
X132429000Y-94122651D02*
X140571000Y-94122651D01*
X137540000Y-92641651D02*
X140186000Y-92641651D01*
X137540000Y-93521651D02*
X140485000Y-93521651D01*
X132983000Y-92321651D02*
X135460000Y-92321651D01*
X132448000Y-93922651D02*
X140552000Y-93922651D01*
X132452000Y-93882651D02*
X140548000Y-93882651D01*
X134100000Y-91081651D02*
X138900000Y-91081651D01*
X137540000Y-93321651D02*
X140436000Y-93321651D01*
X133785000Y-98412349D02*
X134585000Y-98412349D01*
X137540000Y-91801651D02*
X139656000Y-91801651D01*
X132423000Y-94242651D02*
X140577000Y-94242651D01*
X133220000Y-91961651D02*
X135460000Y-91961651D01*
X134334000Y-90921651D02*
X138666000Y-90921651D01*
X134610000Y-90761651D02*
X138390000Y-90761651D01*
X132873000Y-92521651D02*
X135460000Y-92521651D01*
X132834000Y-92601651D02*
X135460000Y-92601651D01*
X132553000Y-93361651D02*
X135460000Y-93361651D01*
X137540000Y-92201651D02*
X139944000Y-92201651D01*
X137540000Y-91681651D02*
X139555000Y-91681651D01*
X137540000Y-92401651D02*
X140062000Y-92401651D01*
X137540000Y-92801651D02*
X140257000Y-92801651D01*
X133311000Y-91841651D02*
X135460000Y-91841651D01*
X137540000Y-92001651D02*
X139809000Y-92001651D01*
X137540000Y-93281651D02*
X140425000Y-93281651D01*
X134155000Y-91041651D02*
X138845000Y-91041651D01*
X132432000Y-94082651D02*
X140568000Y-94082651D01*
X137540000Y-91881651D02*
X139720000Y-91881651D01*
X134185000Y-98812349D02*
X134185000Y-98012349D01*
X132575000Y-93281651D02*
X135460000Y-93281651D01*
X132543000Y-93401651D02*
X135460000Y-93401651D01*
X132650000Y-93041651D02*
X135460000Y-93041651D01*
X137540000Y-92681651D02*
X140204000Y-92681651D01*
X137540000Y-93121651D02*
X140377000Y-93121651D01*
X133344000Y-91801651D02*
X135460000Y-91801651D01*
X132533000Y-93441651D02*
X135460000Y-93441651D01*
X132623000Y-93121651D02*
X135460000Y-93121651D01*
X137540000Y-92881651D02*
X140290000Y-92881651D01*
X132439000Y-94002651D02*
X140561000Y-94002651D01*
X137540000Y-91841651D02*
X139689000Y-91841651D01*
X132463000Y-93802651D02*
X140537000Y-93802651D01*
X137540000Y-93441651D02*
X140467000Y-93441651D01*
X132778000Y-92721651D02*
X135460000Y-92721651D01*
X132814000Y-92641651D02*
X135460000Y-92641651D01*
X133191000Y-92001651D02*
X135460000Y-92001651D01*
X137540000Y-93241651D02*
X140414000Y-93241651D01*
X137540000Y-92081651D02*
X139865000Y-92081651D01*
X133944000Y-91201651D02*
X139056000Y-91201651D01*
X132424000Y-94202651D02*
X140576000Y-94202651D01*
X133674000Y-91441651D02*
X139326000Y-91441651D01*
X137540000Y-93561651D02*
X140494000Y-93561651D01*
X133082000Y-92161651D02*
X135460000Y-92161651D01*
X134769000Y-90681651D02*
X138231000Y-90681651D01*
X134687000Y-90721651D02*
X138313000Y-90721651D01*
X132490000Y-93641651D02*
X135460000Y-93641651D01*
X137540000Y-93041651D02*
X140350000Y-93041651D01*
X132483000Y-93681651D02*
X135460000Y-93681651D01*
X132524000Y-93481651D02*
X135460000Y-93481651D01*
X137540000Y-92561651D02*
X140147000Y-92561651D01*
X132458000Y-93842651D02*
X140542000Y-93842651D01*
X135967000Y-90321651D02*
X137033000Y-90321651D01*
X133280000Y-91881651D02*
X135460000Y-91881651D01*
X132420000Y-94362651D02*
X140580000Y-94362651D01*
X137540000Y-92361651D02*
X140040000Y-92361651D01*
X140620000Y-94402651D02*
G75*
G03*
X140620000Y-94402651I-4120000J0D01*
G01*
%TO.C,K2*%
X97300000Y-121200000D02*
X97300000Y-102000000D01*
X101300000Y-113000000D02*
X101300000Y-106100000D01*
X105000000Y-106100000D02*
X101300000Y-106100000D01*
X103500000Y-112000000D02*
X103500000Y-107000000D01*
X111000000Y-109500000D02*
X106500000Y-109500000D01*
X103500000Y-112000000D02*
X106500000Y-107000000D01*
X105000000Y-113000000D02*
X101300000Y-113000000D01*
X111000000Y-109500000D02*
X111000000Y-107200000D01*
X112700000Y-121200000D02*
X97300000Y-121200000D01*
X105000000Y-106100000D02*
X105000000Y-105200000D01*
X112700000Y-102000000D02*
X106200000Y-102000000D01*
X112700000Y-102000000D02*
X112700000Y-121200000D01*
X109300000Y-117700000D02*
X107000000Y-117700000D01*
X103500000Y-109500000D02*
X99000000Y-109500000D01*
X106500000Y-107000000D02*
X106500000Y-112000000D01*
X103800000Y-102000000D02*
X97300000Y-102000000D01*
X105000000Y-114500000D02*
X107700000Y-119000000D01*
X106500000Y-112000000D02*
X103500000Y-112000000D01*
X103500000Y-107000000D02*
X106500000Y-107000000D01*
X100700000Y-117700000D02*
X103000000Y-117700000D01*
X105000000Y-113000000D02*
X105000000Y-114500000D01*
X99000000Y-107200000D02*
X99000000Y-109500000D01*
%TO.C,J5*%
X149560000Y-63420000D02*
X141940000Y-63420000D01*
X141940000Y-73580000D02*
X149560000Y-73580000D01*
X149560000Y-73580000D02*
X149560000Y-63420000D01*
X141940000Y-63420000D02*
X141940000Y-73580000D01*
X148290000Y-63420000D02*
X148290000Y-73580000D01*
%TO.C,J8*%
X97380000Y-138540000D02*
X112620000Y-138540000D01*
X97380000Y-139810000D02*
X112620000Y-139810000D01*
X112620000Y-139810000D02*
X112620000Y-132190000D01*
X97380000Y-132190000D02*
X112620000Y-132190000D01*
X97380000Y-139810000D02*
X97380000Y-132190000D01*
%TO.C,C4*%
X144793748Y-88695000D02*
X145316252Y-88695000D01*
X144793748Y-87225000D02*
X145316252Y-87225000D01*
%TO.C,RN1*%
X111115000Y-84400000D02*
X111115000Y-81600000D01*
X87915000Y-84400000D02*
X111115000Y-84400000D01*
X111115000Y-81600000D02*
X87915000Y-81600000D01*
X87915000Y-81600000D02*
X87915000Y-84400000D01*
X108405000Y-84400000D02*
X108405000Y-81600000D01*
%TO.C,J4*%
X148290000Y-50920000D02*
X148290000Y-61080000D01*
X141940000Y-50920000D02*
X141940000Y-61080000D01*
X149560000Y-61080000D02*
X149560000Y-50920000D01*
X149560000Y-50920000D02*
X141940000Y-50920000D01*
X141940000Y-61080000D02*
X149560000Y-61080000D01*
%TO.C,J7*%
X115380000Y-139810000D02*
X115380000Y-132190000D01*
X115380000Y-132190000D02*
X130620000Y-132190000D01*
X130620000Y-139810000D02*
X130620000Y-132190000D01*
X115380000Y-138540000D02*
X130620000Y-138540000D01*
X115380000Y-139810000D02*
X130620000Y-139810000D01*
%TO.C,R3*%
X67522936Y-88247500D02*
X67977064Y-88247500D01*
X67522936Y-86777500D02*
X67977064Y-86777500D01*
%TO.C,J3*%
X81560000Y-40765000D02*
X68940000Y-40765000D01*
X78250000Y-45975000D02*
X72250000Y-45975000D01*
X68950000Y-46725000D02*
X70750000Y-46725000D01*
X68940000Y-46735000D02*
X81560000Y-46735000D01*
X70750000Y-45975000D02*
X68950000Y-45975000D01*
X68950000Y-45975000D02*
X68950000Y-46725000D01*
X81560000Y-46735000D02*
X81560000Y-40765000D01*
X72250000Y-46725000D02*
X78250000Y-46725000D01*
X81550000Y-46725000D02*
X81550000Y-45975000D01*
X69700000Y-44475000D02*
X69700000Y-41525000D01*
X72250000Y-45975000D02*
X72250000Y-46725000D01*
X69700000Y-41525000D02*
X75250000Y-41525000D01*
X81850000Y-47025000D02*
X81850000Y-45775000D01*
X79750000Y-45975000D02*
X79750000Y-46725000D01*
X78250000Y-46725000D02*
X78250000Y-45975000D01*
X68940000Y-40765000D02*
X68940000Y-46735000D01*
X68950000Y-44475000D02*
X69700000Y-44475000D01*
X79750000Y-46725000D02*
X81550000Y-46725000D01*
X81550000Y-44475000D02*
X80800000Y-44475000D01*
X80800000Y-41525000D02*
X75250000Y-41525000D01*
X80600000Y-47025000D02*
X81850000Y-47025000D01*
X70750000Y-46725000D02*
X70750000Y-45975000D01*
X80800000Y-44475000D02*
X80800000Y-41525000D01*
X81550000Y-45975000D02*
X79750000Y-45975000D01*
%TO.C,U3*%
X147825000Y-99620000D02*
X143184000Y-99620000D01*
X146315000Y-89380000D02*
X146315000Y-99620000D01*
X147825000Y-96351000D02*
X146315000Y-96351000D01*
X147825000Y-89380000D02*
X143184000Y-89380000D01*
X147825000Y-92650000D02*
X146315000Y-92650000D01*
X147825000Y-89380000D02*
X147825000Y-99620000D01*
X143184000Y-89380000D02*
X143184000Y-99620000D01*
D11*
%TO.C,U1*%
X50512500Y-75160000D02*
X50512500Y-54840000D01*
X50512500Y-54840000D02*
X98772500Y-54840000D01*
X98772500Y-75160000D02*
X101312500Y-73890000D01*
X98772500Y-54840000D02*
X101312500Y-56110000D01*
X101312500Y-73890000D02*
X101312500Y-56110000D01*
X50512500Y-75160000D02*
X98772500Y-75160000D01*
D12*
%TO.C,D11*%
X89750000Y-125020000D02*
X89750000Y-122080000D01*
X90770000Y-123550000D02*
X89750000Y-123550000D01*
X85330000Y-122080000D02*
X85330000Y-125020000D01*
X89750000Y-122080000D02*
X84310000Y-122080000D01*
X85210000Y-122080000D02*
X85210000Y-125020000D01*
X84310000Y-122080000D02*
X84310000Y-125020000D01*
X84310000Y-125020000D02*
X89750000Y-125020000D01*
X85090000Y-122080000D02*
X85090000Y-125020000D01*
X83290000Y-123550000D02*
X84310000Y-123550000D01*
%TO.C,SW1*%
X149235000Y-84310000D02*
X149235000Y-76690000D01*
X142975000Y-84600000D02*
X144225000Y-84600000D01*
X144025000Y-78500000D02*
X144025000Y-76700000D01*
X145525000Y-83550000D02*
X148475000Y-83550000D01*
X144025000Y-81000000D02*
X144025000Y-80000000D01*
X144025000Y-80000000D02*
X143275000Y-80000000D01*
X144025000Y-82500000D02*
X143275000Y-82500000D01*
X143275000Y-84300000D02*
X144025000Y-84300000D01*
X143275000Y-81000000D02*
X144025000Y-81000000D01*
X144025000Y-76700000D02*
X143275000Y-76700000D01*
X143275000Y-80000000D02*
X143275000Y-81000000D01*
X143275000Y-78500000D02*
X144025000Y-78500000D01*
X145525000Y-84300000D02*
X145525000Y-83550000D01*
X143275000Y-76700000D02*
X143275000Y-78500000D01*
X142975000Y-83350000D02*
X142975000Y-84600000D01*
X143275000Y-82500000D02*
X143275000Y-84300000D01*
X143265000Y-76690000D02*
X143265000Y-84310000D01*
X145525000Y-77450000D02*
X148475000Y-77450000D01*
X149235000Y-76690000D02*
X143265000Y-76690000D01*
X144025000Y-84300000D02*
X144025000Y-82500000D01*
X143265000Y-84310000D02*
X149235000Y-84310000D01*
X148475000Y-83550000D02*
X148475000Y-80500000D01*
X145525000Y-76700000D02*
X145525000Y-77450000D01*
X148475000Y-77450000D02*
X148475000Y-80500000D01*
%TO.C,J1*%
X96100000Y-47025000D02*
X96100000Y-45775000D01*
X92500000Y-46725000D02*
X92500000Y-45975000D01*
X88190000Y-46735000D02*
X95810000Y-46735000D01*
X95810000Y-46735000D02*
X95810000Y-40765000D01*
X90000000Y-46725000D02*
X90000000Y-45975000D01*
X88200000Y-44475000D02*
X88950000Y-44475000D01*
X90000000Y-45975000D02*
X88200000Y-45975000D01*
X88200000Y-46725000D02*
X90000000Y-46725000D01*
X95050000Y-44475000D02*
X95050000Y-41525000D01*
X94850000Y-47025000D02*
X96100000Y-47025000D01*
X95810000Y-40765000D02*
X88190000Y-40765000D01*
X88950000Y-44475000D02*
X88950000Y-41525000D01*
X88950000Y-41525000D02*
X92000000Y-41525000D01*
X88190000Y-40765000D02*
X88190000Y-46735000D01*
X88200000Y-45975000D02*
X88200000Y-46725000D01*
X95800000Y-46725000D02*
X95800000Y-45975000D01*
X94000000Y-46725000D02*
X95800000Y-46725000D01*
X91500000Y-46725000D02*
X92500000Y-46725000D01*
X95800000Y-45975000D02*
X94000000Y-45975000D01*
X94000000Y-45975000D02*
X94000000Y-46725000D01*
X95050000Y-41525000D02*
X92000000Y-41525000D01*
X95800000Y-44475000D02*
X95050000Y-44475000D01*
X91500000Y-45975000D02*
X91500000Y-46725000D01*
X92500000Y-45975000D02*
X91500000Y-45975000D01*
%TO.C,J6*%
X56725000Y-97750000D02*
X55975000Y-97750000D01*
X55975000Y-105250000D02*
X55975000Y-107050000D01*
X51525000Y-95200000D02*
X51525000Y-100750000D01*
X56725000Y-107050000D02*
X56725000Y-105250000D01*
X54475000Y-94450000D02*
X54475000Y-95200000D01*
X56725000Y-103750000D02*
X56725000Y-97750000D01*
X50765000Y-94440000D02*
X50765000Y-107060000D01*
X56735000Y-107060000D02*
X56735000Y-94440000D01*
X50765000Y-107060000D02*
X56735000Y-107060000D01*
X54475000Y-106300000D02*
X51525000Y-106300000D01*
X55975000Y-97750000D02*
X55975000Y-103750000D01*
X54475000Y-107050000D02*
X54475000Y-106300000D01*
X56735000Y-94440000D02*
X50765000Y-94440000D01*
X56725000Y-105250000D02*
X55975000Y-105250000D01*
X57025000Y-94150000D02*
X55775000Y-94150000D01*
X55975000Y-96250000D02*
X56725000Y-96250000D01*
X51525000Y-106300000D02*
X51525000Y-100750000D01*
X54475000Y-95200000D02*
X51525000Y-95200000D01*
X56725000Y-94450000D02*
X55975000Y-94450000D01*
X55975000Y-107050000D02*
X56725000Y-107050000D01*
X55975000Y-103750000D02*
X56725000Y-103750000D01*
X56725000Y-96250000D02*
X56725000Y-94450000D01*
X57025000Y-95400000D02*
X57025000Y-94150000D01*
X55975000Y-94450000D02*
X55975000Y-96250000D01*
%TO.C,R6*%
X102727064Y-99735000D02*
X102272936Y-99735000D01*
X102727064Y-98265000D02*
X102272936Y-98265000D01*
%TO.C,D5*%
X125720000Y-128470000D02*
X125720000Y-125530000D01*
X124700000Y-128470000D02*
X124700000Y-125530000D01*
X124820000Y-128470000D02*
X124820000Y-125530000D01*
X125720000Y-125530000D02*
X120280000Y-125530000D01*
X120280000Y-128470000D02*
X125720000Y-128470000D01*
X120280000Y-125530000D02*
X120280000Y-128470000D01*
X119260000Y-127000000D02*
X120280000Y-127000000D01*
X124940000Y-128470000D02*
X124940000Y-125530000D01*
X126740000Y-127000000D02*
X125720000Y-127000000D01*
%TO.C,R5*%
X120727064Y-98265000D02*
X120272936Y-98265000D01*
X120727064Y-99735000D02*
X120272936Y-99735000D01*
%TO.C,U6*%
X108205000Y-88235000D02*
X87765000Y-88235000D01*
X108205000Y-92735000D02*
X108205000Y-91485000D01*
X87765000Y-88235000D02*
X87765000Y-92735000D01*
X87765000Y-92735000D02*
X108205000Y-92735000D01*
X108205000Y-89485000D02*
X108205000Y-88235000D01*
X108205000Y-91485000D02*
G75*
G02*
X108205000Y-89485000I0J1000000D01*
G01*
%TO.C,R8*%
X84727064Y-98265000D02*
X84272936Y-98265000D01*
X84727064Y-99735000D02*
X84272936Y-99735000D01*
%TO.C,J10*%
X79410000Y-139810000D02*
X79410000Y-132190000D01*
X94650000Y-139810000D02*
X94650000Y-132190000D01*
X79410000Y-132190000D02*
X94650000Y-132190000D01*
X79410000Y-139810000D02*
X94650000Y-139810000D01*
X79410000Y-138540000D02*
X94650000Y-138540000D01*
%TO.C,D3*%
X123790000Y-100135000D02*
X127850000Y-100135000D01*
X127850000Y-97865000D02*
X123790000Y-97865000D01*
X123790000Y-97865000D02*
X123790000Y-100135000D01*
%TO.C,K1*%
X130700000Y-102000000D02*
X124200000Y-102000000D01*
X121500000Y-112000000D02*
X124500000Y-107000000D01*
X119300000Y-113000000D02*
X119300000Y-106100000D01*
X121800000Y-102000000D02*
X115300000Y-102000000D01*
X130700000Y-121200000D02*
X115300000Y-121200000D01*
X123000000Y-106100000D02*
X119300000Y-106100000D01*
X121500000Y-112000000D02*
X121500000Y-107000000D01*
X123000000Y-114500000D02*
X125700000Y-119000000D01*
X115300000Y-121200000D02*
X115300000Y-102000000D01*
X123000000Y-113000000D02*
X123000000Y-114500000D01*
X123000000Y-106100000D02*
X123000000Y-105200000D01*
X127300000Y-117700000D02*
X125000000Y-117700000D01*
X129000000Y-109500000D02*
X124500000Y-109500000D01*
X121500000Y-107000000D02*
X124500000Y-107000000D01*
X118700000Y-117700000D02*
X121000000Y-117700000D01*
X129000000Y-109500000D02*
X129000000Y-107200000D01*
X117000000Y-107200000D02*
X117000000Y-109500000D01*
X124500000Y-107000000D02*
X124500000Y-112000000D01*
X121500000Y-109500000D02*
X117000000Y-109500000D01*
X130700000Y-102000000D02*
X130700000Y-121200000D01*
X123000000Y-113000000D02*
X119300000Y-113000000D01*
X124500000Y-112000000D02*
X121500000Y-112000000D01*
%TO.C,R4*%
X130665000Y-80727064D02*
X130665000Y-80272936D01*
X132135000Y-80727064D02*
X132135000Y-80272936D01*
%TO.C,C5*%
X127015000Y-79488748D02*
X127015000Y-80011252D01*
X128485000Y-79488748D02*
X128485000Y-80011252D01*
%TO.C,J2*%
X134650000Y-129700000D02*
X134650000Y-127600000D01*
X140850000Y-120500000D02*
X149350000Y-120500000D01*
X134350000Y-128300000D02*
X134350000Y-130000000D01*
X149350000Y-120500000D02*
X149350000Y-129700000D01*
X134650000Y-122600000D02*
X134650000Y-120500000D01*
X149350000Y-129700000D02*
X134650000Y-129700000D01*
X134350000Y-130000000D02*
X135950000Y-130000000D01*
X134650000Y-120500000D02*
X136450000Y-120500000D01*
%TO.C,C6*%
X144738748Y-117735000D02*
X145261252Y-117735000D01*
X144738748Y-116265000D02*
X145261252Y-116265000D01*
%TO.C,C2*%
X144738748Y-103265000D02*
X145261252Y-103265000D01*
X144738748Y-104735000D02*
X145261252Y-104735000D01*
%TO.C,D1*%
X69350000Y-83627500D02*
X65290000Y-83627500D01*
X65290000Y-83627500D02*
X65290000Y-85897500D01*
X65290000Y-85897500D02*
X69350000Y-85897500D01*
%TO.C,D10*%
X87790000Y-97865000D02*
X87790000Y-100135000D01*
X87790000Y-100135000D02*
X91850000Y-100135000D01*
X91850000Y-97865000D02*
X87790000Y-97865000D01*
%TO.C,D6*%
X109850000Y-97865000D02*
X105790000Y-97865000D01*
X105790000Y-97865000D02*
X105790000Y-100135000D01*
X105790000Y-100135000D02*
X109850000Y-100135000D01*
%TO.C,D2*%
X133115000Y-82960000D02*
X135385000Y-82960000D01*
X133115000Y-78900000D02*
X133115000Y-82960000D01*
X135385000Y-82960000D02*
X135385000Y-78900000D01*
%TO.C,D7*%
X102280000Y-125020000D02*
X107720000Y-125020000D01*
X107720000Y-125020000D02*
X107720000Y-122080000D01*
X108740000Y-123550000D02*
X107720000Y-123550000D01*
X103060000Y-122080000D02*
X103060000Y-125020000D01*
X103180000Y-122080000D02*
X103180000Y-125020000D01*
X107720000Y-122080000D02*
X102280000Y-122080000D01*
X101260000Y-123550000D02*
X102280000Y-123550000D01*
X102280000Y-122080000D02*
X102280000Y-125020000D01*
X103300000Y-122080000D02*
X103300000Y-125020000D01*
%TO.C,U4*%
X147825000Y-112351000D02*
X146315000Y-112351000D01*
X147825000Y-105380000D02*
X147825000Y-115620000D01*
X147825000Y-105380000D02*
X143184000Y-105380000D01*
X147825000Y-115620000D02*
X143184000Y-115620000D01*
X146315000Y-105380000D02*
X146315000Y-115620000D01*
X143184000Y-105380000D02*
X143184000Y-115620000D01*
X147825000Y-108650000D02*
X146315000Y-108650000D01*
%TD*%
D15*
%TO.C,U1*%
X54322500Y-73890000D03*
X56862500Y-73890000D03*
X59402500Y-73890000D03*
X61942500Y-73890000D03*
X64482500Y-73890000D03*
X67022500Y-73890000D03*
X69562500Y-73890000D03*
X72102500Y-73890000D03*
X74642500Y-73890000D03*
X77182500Y-73890000D03*
X79722500Y-73890000D03*
X82262500Y-73890000D03*
X84802500Y-73890000D03*
X87342500Y-73890000D03*
X89882500Y-73890000D03*
X92422500Y-73890000D03*
X94962500Y-73890000D03*
X97502500Y-73890000D03*
X97502500Y-56110000D03*
X94962500Y-56110000D03*
X92422500Y-56110000D03*
X89882500Y-56110000D03*
X87342500Y-56110000D03*
X84802500Y-56110000D03*
X82262500Y-56110000D03*
X79722500Y-56110000D03*
X77182500Y-56110000D03*
X74642500Y-56110000D03*
X72102500Y-56110000D03*
X69562500Y-56110000D03*
X67022500Y-56110000D03*
X64482500Y-56110000D03*
X61942500Y-56110000D03*
X59402500Y-56110000D03*
X56862500Y-56110000D03*
X54322500Y-56110000D03*
%TD*%
M02*
