M48
; DRILL file {KiCad (5.99.0-10406-ge27733587d)} date Wed May 19 17:56:17 2021
; FORMAT={-:-/ absolute / inch / decimal}
; #@! TF.CreationDate,2021-05-19T17:56:17+05:30
; #@! TF.GenerationSoftware,Kicad,Pcbnew,(5.99.0-10406-ge27733587d)
; #@! TF.FileFunction,MixedPlating,1,2
FMAT,2
INCH
; #@! TA.AperFunction,Plated,PTH,ViaDrill
T1C0.0157
; #@! TA.AperFunction,Plated,PTH,ComponentDrill
T2C0.0197
; #@! TA.AperFunction,Plated,PTH,ComponentDrill
T3C0.0315
; #@! TA.AperFunction,Plated,PTH,ComponentDrill
T4C0.0374
; #@! TA.AperFunction,Plated,PTH,ComponentDrill
T5C0.0394
; #@! TA.AperFunction,Plated,PTH,ComponentDrill
T6C0.0402
; #@! TA.AperFunction,Plated,PTH,ComponentDrill
T7C0.0433
; #@! TA.AperFunction,Plated,PTH,ComponentDrill
T8C0.0512
; #@! TA.AperFunction,Plated,PTH,ComponentDrill
T9C0.0598
; #@! TA.AperFunction,Plated,PTH,ComponentDrill
T10C0.1260
%
G90
G05
T1
X2.2244Y-2.6969
X2.2638Y-2.7362
X2.3031Y-3.6417
X2.3425Y-3.6713
X2.4606Y-3.3858
X2.5Y-2.4803
X2.5Y-2.5591
X2.5Y-2.6378
X2.5Y-2.7165
X2.5Y-3.3858
X2.5472Y-3.9646
X2.5787Y-2.4803
X2.5787Y-2.5591
X2.5787Y-2.6378
X2.5787Y-2.7165
X2.5787Y-3.8268
X2.6575Y-2.4803
X2.6575Y-2.5591
X2.6575Y-2.6378
X2.6575Y-2.7165
X2.7362Y-2.4803
X2.7362Y-2.5591
X2.7362Y-2.6378
X2.7362Y-2.7165
X2.815Y-2.4803
X2.815Y-2.5591
X2.815Y-2.6378
X2.815Y-2.7165
X2.8642Y-3.2874
X2.8937Y-2.4803
X2.8937Y-2.5591
X2.8937Y-2.6378
X2.8937Y-2.7165
X3.0217Y-3.4154
X3.0217Y-3.4843
X3.1201Y-3.2972
X3.2835Y-3.8307
X3.2835Y-3.9646
X3.3858Y-2.4803
X3.3858Y-2.5591
X3.3858Y-2.6378
X3.3858Y-2.7165
X3.4646Y-2.3228
X3.4646Y-2.4803
X3.4646Y-2.5591
X3.4646Y-2.6378
X3.4646Y-2.7165
X3.5433Y-2.3228
X3.5433Y-2.4803
X3.5433Y-2.5591
X3.5433Y-2.6378
X3.5433Y-2.7165
X3.622Y-2.3228
X3.622Y-2.4803
X3.622Y-2.5591
X3.622Y-2.6378
X3.622Y-2.7165
X3.7008Y-2.3228
X3.7008Y-2.4803
X3.7008Y-2.5591
X3.7008Y-2.6378
X3.7008Y-2.7165
X3.7795Y-2.3228
X3.7795Y-2.4803
X3.7795Y-2.5591
X3.7795Y-2.6378
X3.7795Y-2.7165
X3.7795Y-2.8051
X3.9331Y-2.2638
X3.9567Y-1.752
X3.9961Y-3.8346
X3.9961Y-3.9646
X4.3189Y-3.122
X4.3937Y-3.122
X4.4094Y-3.4646
X4.4094Y-3.6614
X4.4094Y-3.7795
X4.4646Y-3.122
X4.4882Y-1.9882
X4.4882Y-3.4646
X4.4882Y-3.6614
X4.4882Y-3.7795
X4.5669Y-3.4646
X4.5669Y-3.6614
X4.5669Y-3.7795
X4.5709Y-3.3031
X4.6063Y-1.8701
X4.6378Y-3.3622
X4.6457Y-3.4646
X4.6457Y-3.6614
X4.6457Y-3.7795
X4.685Y-2.1063
X4.7047Y-3.3031
X4.7047Y-3.8307
X4.7047Y-3.9646
X4.7244Y-3.4646
X4.7244Y-3.6614
X4.7244Y-3.7795
X4.7283Y-3.5669
X4.7874Y-1.9331
X4.8031Y-3.4646
X4.8031Y-3.6614
X4.8031Y-3.7795
X4.8539Y-2.1079
X4.8819Y-3.4646
X4.8819Y-3.6614
X4.8819Y-3.7795
X4.9173Y-1.9291
X4.9173Y-2.0079
X5.0197Y-1.8504
X5.0197Y-1.9291
X5.0197Y-2.0079
X5.0315Y-3.2441
X5.0984Y-3.1299
X5.0984Y-3.185
X5.1181Y-1.8504
X5.1181Y-1.9291
X5.1181Y-2.0079
X5.1732Y-3.0669
X5.1969Y-1.8504
X5.1969Y-1.9291
X5.1969Y-2.0079
X5.2756Y-1.6535
X5.3386Y-2.0079
X5.3543Y-1.6535
X5.3543Y-1.7323
X5.378Y-1.878
X5.4331Y-1.6535
X5.4331Y-1.7323
X5.4331Y-1.811
X5.5118Y-1.6535
X5.5118Y-1.7323
X5.5118Y-1.811
X5.5118Y-1.8898
X5.5118Y-1.9685
X5.5906Y-1.9685
X5.6693Y-1.9685
X5.748Y-1.9685
X5.8268Y-1.9685
T2
X2.0709Y-1.7717
X2.0709Y-5.315
X2.0985Y-1.7048
X2.0985Y-1.8385
X2.0985Y-5.2481
X2.0985Y-5.3818
X2.1654Y-1.6772
X2.1654Y-1.8661
X2.1654Y-5.2205
X2.1654Y-5.4094
X2.2322Y-1.7048
X2.2322Y-1.8385
X2.2322Y-5.2481
X2.2322Y-5.3818
X2.2598Y-1.7717
X2.2598Y-5.315
X5.6142Y-1.7717
X5.6142Y-5.315
X5.6418Y-1.7048
X5.6418Y-1.8385
X5.6418Y-5.2481
X5.6418Y-5.3818
X5.7087Y-1.6772
X5.7087Y-1.8661
X5.7087Y-5.2205
X5.7087Y-5.4094
X5.7755Y-1.7048
X5.7755Y-1.8385
X5.7755Y-5.2481
X5.7755Y-5.3818
X5.8031Y-1.7717
X5.8031Y-5.315
T3
X3.5077Y-3.4124
X3.5077Y-3.7124
X3.5179Y-3.2677
X3.6077Y-3.4124
X3.6077Y-3.7124
X3.6179Y-3.2677
X3.7077Y-3.4124
X3.7077Y-3.7124
X3.7179Y-3.2677
X3.8077Y-3.4124
X3.8077Y-3.7124
X3.8179Y-3.2677
X3.9077Y-3.4124
X3.9077Y-3.7124
X3.9179Y-3.2677
X4.0077Y-3.4124
X4.0077Y-3.7124
X4.0179Y-3.2677
X4.1077Y-3.4124
X4.1077Y-3.7124
X4.1179Y-3.2677
X4.2077Y-3.4124
X4.2077Y-3.7124
X4.2179Y-3.2677
X4.3179Y-3.2677
X5.374Y-3.6477
X5.374Y-3.7855
X5.374Y-4.2777
X5.374Y-4.4155
T4
X2.1368Y-3.8189
X2.1368Y-3.9173
X2.1368Y-4.0157
X2.1368Y-4.1142
X2.815Y-1.7431
X2.9134Y-1.7431
X3.0118Y-1.7431
X3.1102Y-1.7431
T5
X2.1368Y-3.4055
X2.1368Y-3.5039
X2.8819Y-3.5827
X3.1811Y-3.5827
X3.5728Y-1.7431
X3.6713Y-1.7431
X4.7539Y-1.7382
X4.8539Y-1.7382
X4.9539Y-1.7382
X5.0539Y-1.7382
X5.7372Y-3.1201
X5.7372Y-3.2185
T6
X2.0551Y-2.0341
X2.0551Y-3.0841
X2.1387Y-2.2091
X2.1387Y-2.9091
X2.1551Y-2.0341
X2.1551Y-3.0841
X2.2387Y-2.2091
X2.2387Y-2.9091
X2.2551Y-2.0341
X2.2551Y-3.0841
X2.3387Y-2.2091
X2.3387Y-2.9091
X2.3551Y-2.0341
X2.3551Y-3.0841
X2.4387Y-2.2091
X2.4387Y-2.9091
X2.4551Y-2.0341
X2.4551Y-3.0841
X2.5387Y-2.2091
X2.5387Y-2.9091
X2.5551Y-2.0341
X2.5551Y-3.0841
X2.6387Y-2.2091
X2.6387Y-2.9091
X2.6551Y-2.0341
X2.6551Y-3.0841
X2.7387Y-2.2091
X2.7387Y-2.9091
X2.7551Y-2.0341
X2.7551Y-3.0841
X2.8387Y-2.2091
X2.8387Y-2.9091
X2.8551Y-2.0341
X2.8551Y-3.0841
X2.9387Y-2.2091
X2.9387Y-2.9091
X2.9551Y-2.0341
X2.9551Y-3.0841
X3.0387Y-2.2091
X3.0387Y-2.9091
X3.0551Y-2.0341
X3.0551Y-3.0841
X3.1387Y-2.2091
X3.1387Y-2.9091
X3.1551Y-2.0341
X3.1551Y-3.0841
X3.2387Y-2.2091
X3.2387Y-2.9091
X3.2551Y-2.0341
X3.2551Y-3.0841
X3.3387Y-2.2091
X3.3387Y-2.9091
X3.3551Y-2.0341
X3.3551Y-3.0841
X3.4387Y-2.2091
X3.4387Y-2.9091
X3.4551Y-2.0341
X3.4551Y-3.0841
X3.5387Y-2.2091
X3.5387Y-2.9091
X3.5551Y-2.0341
X3.5551Y-3.0841
X3.6387Y-2.2091
X3.6387Y-2.9091
X3.6551Y-2.0341
X3.6551Y-3.0841
X3.7387Y-2.2091
X3.7387Y-2.9091
X3.7551Y-2.0341
X3.7551Y-3.0841
X3.8387Y-2.2091
X3.8387Y-2.9091
X3.8551Y-2.0341
X3.8551Y-3.0841
X3.9551Y-2.0341
X3.9551Y-3.0841
X4.0551Y-2.0341
X4.0551Y-3.0841
T7
X3.2264Y-4.8642
X3.2264Y-5.0
X3.6264Y-4.8642
X3.6264Y-5.0
X3.9339Y-4.8642
X3.9339Y-5.0
X4.3339Y-4.8642
X4.3339Y-5.0
X4.6425Y-4.8642
X4.6425Y-5.0
X5.0425Y-4.8642
X5.0425Y-5.0
X5.6911Y-3.6205
X5.6911Y-3.7205
X5.6911Y-3.8205
X5.6911Y-4.2504
X5.6911Y-4.3504
X5.6911Y-4.4504
T8
X2.4803Y-4.1535
X2.4803Y-4.6339
X2.7165Y-4.0748
X2.9528Y-4.1535
X2.9528Y-4.6339
X3.189Y-4.1535
X3.189Y-4.6339
X3.4252Y-4.0748
X3.6614Y-4.1535
X3.6614Y-4.6339
X3.8976Y-4.1535
X3.8976Y-4.6339
X4.1339Y-4.0748
X4.3701Y-4.1535
X4.3701Y-4.6339
X4.6063Y-4.1535
X4.6063Y-4.6339
X4.8425Y-4.0748
X5.0787Y-4.1535
X5.0787Y-4.6339
T9
X2.126Y-4.4669
X2.126Y-4.6669
X2.6559Y-5.3543
X2.8559Y-5.3543
X3.2264Y-5.3543
X3.4264Y-5.3543
X3.6264Y-5.3543
X3.9339Y-5.3543
X4.1339Y-5.3543
X4.3339Y-5.3543
X4.6425Y-5.3543
X4.8425Y-5.3543
X5.0425Y-5.3543
X5.7382Y-2.1047
X5.7382Y-2.3047
X5.7382Y-2.5969
X5.7382Y-2.7969
T10
X2.1654Y-1.7717
X2.1654Y-5.315
X5.7087Y-1.7717
X5.7087Y-5.315
T3
G00X5.3406Y-4.9764
M15
G01X5.3406Y-4.874
M16
G05
G00X5.502Y-4.7362
M15
G01X5.4154Y-4.7362
M16
G05
G00X5.5689Y-4.9685
M15
G01X5.5689Y-4.8819
M16
G05
T0
M30
