%TF.GenerationSoftware,KiCad,Pcbnew,(5.99.0-10406-ge27733587d)*%
%TF.CreationDate,2021-05-19T17:56:25+05:30*%
%TF.ProjectId,OxiKit-Brainboard_v1,4f78694b-6974-42d4-9272-61696e626f61,rev?*%
%TF.SameCoordinates,Original*%
%TF.FileFunction,Soldermask,Bot*%
%TF.FilePolarity,Negative*%
%FSLAX46Y46*%
G04 Gerber Fmt 4.6, Leading zero omitted, Abs format (unit mm)*
G04 Created by KiCad (PCBNEW (5.99.0-10406-ge27733587d)) date 2021-05-19 17:56:25*
%MOMM*%
%LPD*%
G01*
G04 APERTURE LIST*
G04 Aperture macros list*
%AMRoundRect*
0 Rectangle with rounded corners*
0 $1 Rounding radius*
0 $2 $3 $4 $5 $6 $7 $8 $9 X,Y pos of 4 corners*
0 Add a 4 corners polygon primitive as box body*
4,1,4,$2,$3,$4,$5,$6,$7,$8,$9,$2,$3,0*
0 Add four circle primitives for the rounded corners*
1,1,$1+$1,$2,$3*
1,1,$1+$1,$4,$5*
1,1,$1+$1,$6,$7*
1,1,$1+$1,$8,$9*
0 Add four rect primitives between the rounded corners*
20,1,$1+$1,$2,$3,$4,$5,0*
20,1,$1+$1,$4,$5,$6,$7,0*
20,1,$1+$1,$6,$7,$8,$9,0*
20,1,$1+$1,$8,$9,$2,$3,0*%
G04 Aperture macros list end*
%ADD10RoundRect,0.250000X-0.750000X0.600000X-0.750000X-0.600000X0.750000X-0.600000X0.750000X0.600000X0*%
%ADD11O,2.000000X1.700000*%
%ADD12R,1.600000X1.600000*%
%ADD13C,1.600000*%
%ADD14R,2.200000X2.200000*%
%ADD15O,2.200000X2.200000*%
%ADD16R,3.000000X3.000000*%
%ADD17C,3.000000*%
%ADD18C,0.800000*%
%ADD19C,6.400000*%
%ADD20R,2.000000X2.000000*%
%ADD21C,2.000000*%
%ADD22C,1.800000*%
%ADD23O,1.600000X2.000000*%
%ADD24O,1.600000X1.600000*%
%ADD25RoundRect,0.250000X0.600000X0.725000X-0.600000X0.725000X-0.600000X-0.725000X0.600000X-0.725000X0*%
%ADD26O,1.700000X1.950000*%
%ADD27R,2.000000X1.905000*%
%ADD28O,2.000000X1.905000*%
%ADD29C,1.900000*%
%ADD30RoundRect,0.250000X0.750000X-0.600000X0.750000X0.600000X-0.750000X0.600000X-0.750000X-0.600000X0*%
%ADD31RoundRect,0.250000X0.600000X0.750000X-0.600000X0.750000X-0.600000X-0.750000X0.600000X-0.750000X0*%
%ADD32O,1.700000X2.000000*%
%ADD33O,1.950000X1.700000*%
%ADD34RoundRect,0.250000X-0.725000X0.600000X-0.725000X-0.600000X0.725000X-0.600000X0.725000X0.600000X0*%
%ADD35R,1.600000X2.400000*%
%ADD36O,1.600000X2.400000*%
%ADD37R,1.800000X4.400000*%
%ADD38O,1.800000X4.000000*%
%ADD39O,4.000000X1.800000*%
G04 APERTURE END LIST*
D10*
%TO.C,SW2*%
X54275000Y-86500000D03*
D11*
X54275000Y-89000000D03*
%TD*%
D12*
%TO.C,C1*%
X136500000Y-112152651D03*
D13*
X136500000Y-108652651D03*
%TD*%
D14*
%TO.C,D12*%
X92110000Y-127000000D03*
D15*
X81950000Y-127000000D03*
%TD*%
D16*
%TO.C,J11*%
X67460000Y-136000000D03*
D17*
X72540000Y-136000000D03*
%TD*%
%TO.C,K4*%
X69000000Y-103500000D03*
X75000000Y-117700000D03*
X63000000Y-117700000D03*
X63000000Y-105500000D03*
X75000000Y-105500000D03*
%TD*%
D18*
%TO.C,H3*%
X147400000Y-135000000D03*
X143302944Y-133302944D03*
X146697056Y-136697056D03*
X146697056Y-133302944D03*
D19*
X145000000Y-135000000D03*
D18*
X145000000Y-132600000D03*
X143302944Y-136697056D03*
X142600000Y-135000000D03*
X145000000Y-137400000D03*
%TD*%
D14*
%TO.C,D4*%
X117920000Y-123550000D03*
D15*
X128080000Y-123550000D03*
%TD*%
D16*
%TO.C,J9*%
X54000000Y-113460000D03*
D17*
X54000000Y-118540000D03*
%TD*%
%TO.C,K3*%
X87000000Y-103500000D03*
X93000000Y-117700000D03*
X81000000Y-117700000D03*
X81000000Y-105500000D03*
X93000000Y-105500000D03*
%TD*%
D20*
%TO.C,BZ1*%
X73200000Y-91000000D03*
D21*
X80800000Y-91000000D03*
%TD*%
D22*
%TO.C,U5*%
X103000000Y-51665000D03*
X100460000Y-51665000D03*
X97920000Y-51665000D03*
X95380000Y-51665000D03*
X92840000Y-51665000D03*
X90300000Y-51665000D03*
X87760000Y-51665000D03*
X85220000Y-51665000D03*
X82680000Y-51665000D03*
X80140000Y-51665000D03*
X77600000Y-51665000D03*
X75060000Y-51665000D03*
X72520000Y-51665000D03*
X69980000Y-51665000D03*
X67440000Y-51665000D03*
X64900000Y-51665000D03*
X62360000Y-51665000D03*
X59820000Y-51665000D03*
X57280000Y-51665000D03*
X54740000Y-51665000D03*
X52200000Y-51665000D03*
X103000000Y-78335000D03*
X100460000Y-78335000D03*
X97920000Y-78335000D03*
X95380000Y-78335000D03*
X92840000Y-78335000D03*
X90300000Y-78335000D03*
X87760000Y-78335000D03*
X85220000Y-78335000D03*
X82680000Y-78335000D03*
X80140000Y-78335000D03*
X77600000Y-78335000D03*
X75060000Y-78335000D03*
X72520000Y-78335000D03*
X69980000Y-78335000D03*
X67440000Y-78335000D03*
X64900000Y-78335000D03*
X62360000Y-78335000D03*
X59820000Y-78335000D03*
X57280000Y-78335000D03*
X54740000Y-78335000D03*
X52200000Y-78335000D03*
%TD*%
D14*
%TO.C,D8*%
X110080000Y-127000000D03*
D15*
X99920000Y-127000000D03*
%TD*%
D12*
%TO.C,C7*%
X136500000Y-96152651D03*
D13*
X136500000Y-92652651D03*
%TD*%
D17*
%TO.C,K2*%
X105000000Y-103500000D03*
X111000000Y-117700000D03*
X99000000Y-117700000D03*
X99000000Y-105500000D03*
X111000000Y-105500000D03*
%TD*%
D23*
%TO.C,Brd1*%
X128370000Y-44150000D03*
X125830000Y-44150000D03*
X123290000Y-44150000D03*
X120750000Y-44150000D03*
%TD*%
D16*
%TO.C,J5*%
X145750000Y-71040000D03*
D17*
X145750000Y-65960000D03*
%TD*%
D18*
%TO.C,H1*%
X55000000Y-132600000D03*
X55000000Y-137400000D03*
X53302944Y-133302944D03*
X57400000Y-135000000D03*
D19*
X55000000Y-135000000D03*
D18*
X52600000Y-135000000D03*
X53302944Y-136697056D03*
X56697056Y-136697056D03*
X56697056Y-133302944D03*
%TD*%
D16*
%TO.C,J8*%
X99920000Y-136000000D03*
D17*
X105000000Y-136000000D03*
X110080000Y-136000000D03*
%TD*%
D12*
%TO.C,RN1*%
X109675000Y-83000000D03*
D24*
X107135000Y-83000000D03*
X104595000Y-83000000D03*
X102055000Y-83000000D03*
X99515000Y-83000000D03*
X96975000Y-83000000D03*
X94435000Y-83000000D03*
X91895000Y-83000000D03*
X89355000Y-83000000D03*
%TD*%
D16*
%TO.C,J4*%
X145750000Y-58540000D03*
D17*
X145750000Y-53460000D03*
%TD*%
D16*
%TO.C,J7*%
X117920000Y-136000000D03*
D17*
X123000000Y-136000000D03*
X128080000Y-136000000D03*
%TD*%
D25*
%TO.C,J3*%
X79000000Y-44275000D03*
D26*
X76500000Y-44275000D03*
X74000000Y-44275000D03*
X71500000Y-44275000D03*
%TD*%
D27*
%TO.C,U3*%
X144555000Y-91960000D03*
D28*
X144555000Y-94500000D03*
X144555000Y-97040000D03*
%TD*%
D18*
%TO.C,H4*%
X146697056Y-46697056D03*
D19*
X145000000Y-45000000D03*
D18*
X147400000Y-45000000D03*
X142600000Y-45000000D03*
X145000000Y-42600000D03*
X146697056Y-43302944D03*
X143302944Y-43302944D03*
X143302944Y-46697056D03*
X145000000Y-47400000D03*
%TD*%
D29*
%TO.C,U1*%
X54322500Y-73890000D03*
X56862500Y-73890000D03*
X59402500Y-73890000D03*
X61942500Y-73890000D03*
X64482500Y-73890000D03*
X67022500Y-73890000D03*
X69562500Y-73890000D03*
X72102500Y-73890000D03*
X74642500Y-73890000D03*
X77182500Y-73890000D03*
X79722500Y-73890000D03*
X82262500Y-73890000D03*
X84802500Y-73890000D03*
X87342500Y-73890000D03*
X89882500Y-73890000D03*
X92422500Y-73890000D03*
X94962500Y-73890000D03*
X97502500Y-73890000D03*
X97502500Y-56110000D03*
X94962500Y-56110000D03*
X92422500Y-56110000D03*
X89882500Y-56110000D03*
X87342500Y-56110000D03*
X84802500Y-56110000D03*
X82262500Y-56110000D03*
X79722500Y-56110000D03*
X77182500Y-56110000D03*
X74642500Y-56110000D03*
X72102500Y-56110000D03*
X69562500Y-56110000D03*
X67022500Y-56110000D03*
X64482500Y-56110000D03*
X61942500Y-56110000D03*
X59402500Y-56110000D03*
X56862500Y-56110000D03*
X54322500Y-56110000D03*
%TD*%
D14*
%TO.C,D11*%
X81950000Y-123550000D03*
D15*
X92110000Y-123550000D03*
%TD*%
D30*
%TO.C,SW1*%
X145725000Y-81750000D03*
D11*
X145725000Y-79250000D03*
%TD*%
D31*
%TO.C,J1*%
X93250000Y-44275000D03*
D32*
X90750000Y-44275000D03*
%TD*%
D33*
%TO.C,J6*%
X54275000Y-104500000D03*
X54275000Y-102000000D03*
X54275000Y-99500000D03*
D34*
X54275000Y-97000000D03*
%TD*%
D14*
%TO.C,D5*%
X128080000Y-127000000D03*
D15*
X117920000Y-127000000D03*
%TD*%
D35*
%TO.C,U6*%
X106875000Y-86675000D03*
D36*
X104335000Y-86675000D03*
X101795000Y-86675000D03*
X99255000Y-86675000D03*
X96715000Y-86675000D03*
X94175000Y-86675000D03*
X91635000Y-86675000D03*
X89095000Y-86675000D03*
X89095000Y-94295000D03*
X91635000Y-94295000D03*
X94175000Y-94295000D03*
X96715000Y-94295000D03*
X99255000Y-94295000D03*
X101795000Y-94295000D03*
X104335000Y-94295000D03*
X106875000Y-94295000D03*
%TD*%
D18*
%TO.C,H2*%
X53302944Y-46697056D03*
D19*
X55000000Y-45000000D03*
D18*
X55000000Y-42600000D03*
X52600000Y-45000000D03*
X55000000Y-47400000D03*
X57400000Y-45000000D03*
X56697056Y-43302944D03*
X56697056Y-46697056D03*
X53302944Y-43302944D03*
%TD*%
D16*
%TO.C,J10*%
X81950000Y-136000000D03*
D17*
X87030000Y-136000000D03*
X92110000Y-136000000D03*
%TD*%
%TO.C,K1*%
X123000000Y-103500000D03*
X129000000Y-117700000D03*
X117000000Y-117700000D03*
X117000000Y-105500000D03*
X129000000Y-105500000D03*
%TD*%
D37*
%TO.C,J2*%
X135650000Y-125100000D03*
D38*
X141450000Y-125100000D03*
D39*
X138650000Y-120300000D03*
%TD*%
D14*
%TO.C,D7*%
X99920000Y-123550000D03*
D15*
X110080000Y-123550000D03*
%TD*%
D27*
%TO.C,U4*%
X144555000Y-107960000D03*
D28*
X144555000Y-110500000D03*
X144555000Y-113040000D03*
%TD*%
M02*
